G04 #@! TF.GenerationSoftware,KiCad,Pcbnew,5.1.10-88a1d61d58~90~ubuntu20.04.1*
G04 #@! TF.CreationDate,2021-09-12T22:34:26-04:00*
G04 #@! TF.ProjectId,UnwaryNuc,556e7761-7279-44e7-9563-2e6b69636164,rev?*
G04 #@! TF.SameCoordinates,Original*
G04 #@! TF.FileFunction,Soldermask,Bot*
G04 #@! TF.FilePolarity,Negative*
%FSLAX46Y46*%
G04 Gerber Fmt 4.6, Leading zero omitted, Abs format (unit mm)*
G04 Created by KiCad (PCBNEW 5.1.10-88a1d61d58~90~ubuntu20.04.1) date 2021-09-12 22:34:26*
%MOMM*%
%LPD*%
G01*
G04 APERTURE LIST*
%ADD10O,1.802000X1.802000*%
%ADD11C,1.702000*%
%ADD12C,3.102000*%
%ADD13C,1.602000*%
%ADD14C,3.352000*%
%ADD15C,2.702000*%
%ADD16C,1.992000*%
%ADD17C,2.002000*%
%ADD18O,1.602000X1.152000*%
%ADD19C,0.254000*%
%ADD20C,0.100000*%
G04 APERTURE END LIST*
D10*
X179019200Y-119430800D03*
X176479200Y-119430800D03*
X173939200Y-119430800D03*
X171399200Y-119430800D03*
X168859200Y-119430800D03*
X166319200Y-119430800D03*
X163779200Y-119430800D03*
X161239200Y-119430800D03*
X158699200Y-119430800D03*
G36*
G01*
X157009200Y-120331800D02*
X155309200Y-120331800D01*
G75*
G02*
X155258200Y-120280800I0J51000D01*
G01*
X155258200Y-118580800D01*
G75*
G02*
X155309200Y-118529800I51000J0D01*
G01*
X157009200Y-118529800D01*
G75*
G02*
X157060200Y-118580800I0J-51000D01*
G01*
X157060200Y-120280800D01*
G75*
G02*
X157009200Y-120331800I-51000J0D01*
G01*
G37*
X108712000Y-76200000D03*
X111252000Y-76200000D03*
X113792000Y-76200000D03*
G36*
G01*
X115482000Y-75299000D02*
X117182000Y-75299000D01*
G75*
G02*
X117233000Y-75350000I0J-51000D01*
G01*
X117233000Y-77050000D01*
G75*
G02*
X117182000Y-77101000I-51000J0D01*
G01*
X115482000Y-77101000D01*
G75*
G02*
X115431000Y-77050000I0J51000D01*
G01*
X115431000Y-75350000D01*
G75*
G02*
X115482000Y-75299000I51000J0D01*
G01*
G37*
G36*
G01*
X166049200Y-77592200D02*
X164049200Y-77592200D01*
G75*
G02*
X163998200Y-77541200I0J51000D01*
G01*
X163998200Y-73741200D01*
G75*
G02*
X164049200Y-73690200I51000J0D01*
G01*
X166049200Y-73690200D01*
G75*
G02*
X166100200Y-73741200I0J-51000D01*
G01*
X166100200Y-77541200D01*
G75*
G02*
X166049200Y-77592200I-51000J0D01*
G01*
G37*
X135026400Y-64211200D03*
X135026400Y-66751200D03*
X132486400Y-64211200D03*
X132486400Y-66751200D03*
X129946400Y-64211200D03*
X129946400Y-66751200D03*
X127406400Y-64211200D03*
G36*
G01*
X128256400Y-67652200D02*
X126556400Y-67652200D01*
G75*
G02*
X126505400Y-67601200I0J51000D01*
G01*
X126505400Y-65901200D01*
G75*
G02*
X126556400Y-65850200I51000J0D01*
G01*
X128256400Y-65850200D01*
G75*
G02*
X128307400Y-65901200I0J-51000D01*
G01*
X128307400Y-67601200D01*
G75*
G02*
X128256400Y-67652200I-51000J0D01*
G01*
G37*
X121462800Y-64312800D03*
X121462800Y-66852800D03*
X118922800Y-64312800D03*
X118922800Y-66852800D03*
X116382800Y-64312800D03*
X116382800Y-66852800D03*
X113842800Y-64312800D03*
G36*
G01*
X114692800Y-67753800D02*
X112992800Y-67753800D01*
G75*
G02*
X112941800Y-67702800I0J51000D01*
G01*
X112941800Y-66002800D01*
G75*
G02*
X112992800Y-65951800I51000J0D01*
G01*
X114692800Y-65951800D01*
G75*
G02*
X114743800Y-66002800I0J-51000D01*
G01*
X114743800Y-67702800D01*
G75*
G02*
X114692800Y-67753800I-51000J0D01*
G01*
G37*
X93675200Y-96062800D03*
X91135200Y-96062800D03*
X93675200Y-93522800D03*
X91135200Y-93522800D03*
X93675200Y-90982800D03*
X91135200Y-90982800D03*
X93675200Y-88442800D03*
G36*
G01*
X90234200Y-89292800D02*
X90234200Y-87592800D01*
G75*
G02*
X90285200Y-87541800I51000J0D01*
G01*
X91985200Y-87541800D01*
G75*
G02*
X92036200Y-87592800I0J-51000D01*
G01*
X92036200Y-89292800D01*
G75*
G02*
X91985200Y-89343800I-51000J0D01*
G01*
X90285200Y-89343800D01*
G75*
G02*
X90234200Y-89292800I0J51000D01*
G01*
G37*
G36*
G01*
X164938600Y-69488600D02*
X165464600Y-69488600D01*
G75*
G02*
X165727600Y-69751600I0J-263000D01*
G01*
X165727600Y-70377600D01*
G75*
G02*
X165464600Y-70640600I-263000J0D01*
G01*
X164938600Y-70640600D01*
G75*
G02*
X164675600Y-70377600I0J263000D01*
G01*
X164675600Y-69751600D01*
G75*
G02*
X164938600Y-69488600I263000J0D01*
G01*
G37*
G36*
G01*
X164938600Y-67738600D02*
X165464600Y-67738600D01*
G75*
G02*
X165727600Y-68001600I0J-263000D01*
G01*
X165727600Y-68627600D01*
G75*
G02*
X165464600Y-68890600I-263000J0D01*
G01*
X164938600Y-68890600D01*
G75*
G02*
X164675600Y-68627600I0J263000D01*
G01*
X164675600Y-68001600D01*
G75*
G02*
X164938600Y-67738600I263000J0D01*
G01*
G37*
G36*
G01*
X165446600Y-67188800D02*
X164920600Y-67188800D01*
G75*
G02*
X164657600Y-66925800I0J263000D01*
G01*
X164657600Y-66299800D01*
G75*
G02*
X164920600Y-66036800I263000J0D01*
G01*
X165446600Y-66036800D01*
G75*
G02*
X165709600Y-66299800I0J-263000D01*
G01*
X165709600Y-66925800D01*
G75*
G02*
X165446600Y-67188800I-263000J0D01*
G01*
G37*
G36*
G01*
X165446600Y-68938800D02*
X164920600Y-68938800D01*
G75*
G02*
X164657600Y-68675800I0J263000D01*
G01*
X164657600Y-68049800D01*
G75*
G02*
X164920600Y-67786800I263000J0D01*
G01*
X165446600Y-67786800D01*
G75*
G02*
X165709600Y-68049800I0J-263000D01*
G01*
X165709600Y-68675800D01*
G75*
G02*
X165446600Y-68938800I-263000J0D01*
G01*
G37*
G36*
G01*
X172108300Y-69437800D02*
X172634300Y-69437800D01*
G75*
G02*
X172897300Y-69700800I0J-263000D01*
G01*
X172897300Y-70326800D01*
G75*
G02*
X172634300Y-70589800I-263000J0D01*
G01*
X172108300Y-70589800D01*
G75*
G02*
X171845300Y-70326800I0J263000D01*
G01*
X171845300Y-69700800D01*
G75*
G02*
X172108300Y-69437800I263000J0D01*
G01*
G37*
G36*
G01*
X172108300Y-67687800D02*
X172634300Y-67687800D01*
G75*
G02*
X172897300Y-67950800I0J-263000D01*
G01*
X172897300Y-68576800D01*
G75*
G02*
X172634300Y-68839800I-263000J0D01*
G01*
X172108300Y-68839800D01*
G75*
G02*
X171845300Y-68576800I0J263000D01*
G01*
X171845300Y-67950800D01*
G75*
G02*
X172108300Y-67687800I263000J0D01*
G01*
G37*
G36*
G01*
X172634300Y-67138000D02*
X172108300Y-67138000D01*
G75*
G02*
X171845300Y-66875000I0J263000D01*
G01*
X171845300Y-66249000D01*
G75*
G02*
X172108300Y-65986000I263000J0D01*
G01*
X172634300Y-65986000D01*
G75*
G02*
X172897300Y-66249000I0J-263000D01*
G01*
X172897300Y-66875000D01*
G75*
G02*
X172634300Y-67138000I-263000J0D01*
G01*
G37*
G36*
G01*
X172634300Y-68888000D02*
X172108300Y-68888000D01*
G75*
G02*
X171845300Y-68625000I0J263000D01*
G01*
X171845300Y-67999000D01*
G75*
G02*
X172108300Y-67736000I263000J0D01*
G01*
X172634300Y-67736000D01*
G75*
G02*
X172897300Y-67999000I0J-263000D01*
G01*
X172897300Y-68625000D01*
G75*
G02*
X172634300Y-68888000I-263000J0D01*
G01*
G37*
G36*
G01*
X170653600Y-69437800D02*
X171179600Y-69437800D01*
G75*
G02*
X171442600Y-69700800I0J-263000D01*
G01*
X171442600Y-70326800D01*
G75*
G02*
X171179600Y-70589800I-263000J0D01*
G01*
X170653600Y-70589800D01*
G75*
G02*
X170390600Y-70326800I0J263000D01*
G01*
X170390600Y-69700800D01*
G75*
G02*
X170653600Y-69437800I263000J0D01*
G01*
G37*
G36*
G01*
X170653600Y-67687800D02*
X171179600Y-67687800D01*
G75*
G02*
X171442600Y-67950800I0J-263000D01*
G01*
X171442600Y-68576800D01*
G75*
G02*
X171179600Y-68839800I-263000J0D01*
G01*
X170653600Y-68839800D01*
G75*
G02*
X170390600Y-68576800I0J263000D01*
G01*
X170390600Y-67950800D01*
G75*
G02*
X170653600Y-67687800I263000J0D01*
G01*
G37*
G36*
G01*
X171187500Y-67138000D02*
X170661500Y-67138000D01*
G75*
G02*
X170398500Y-66875000I0J263000D01*
G01*
X170398500Y-66249000D01*
G75*
G02*
X170661500Y-65986000I263000J0D01*
G01*
X171187500Y-65986000D01*
G75*
G02*
X171450500Y-66249000I0J-263000D01*
G01*
X171450500Y-66875000D01*
G75*
G02*
X171187500Y-67138000I-263000J0D01*
G01*
G37*
G36*
G01*
X171187500Y-68888000D02*
X170661500Y-68888000D01*
G75*
G02*
X170398500Y-68625000I0J263000D01*
G01*
X170398500Y-67999000D01*
G75*
G02*
X170661500Y-67736000I263000J0D01*
G01*
X171187500Y-67736000D01*
G75*
G02*
X171450500Y-67999000I0J-263000D01*
G01*
X171450500Y-68625000D01*
G75*
G02*
X171187500Y-68888000I-263000J0D01*
G01*
G37*
G36*
G01*
X174514400Y-69387000D02*
X175040400Y-69387000D01*
G75*
G02*
X175303400Y-69650000I0J-263000D01*
G01*
X175303400Y-70276000D01*
G75*
G02*
X175040400Y-70539000I-263000J0D01*
G01*
X174514400Y-70539000D01*
G75*
G02*
X174251400Y-70276000I0J263000D01*
G01*
X174251400Y-69650000D01*
G75*
G02*
X174514400Y-69387000I263000J0D01*
G01*
G37*
G36*
G01*
X174514400Y-67637000D02*
X175040400Y-67637000D01*
G75*
G02*
X175303400Y-67900000I0J-263000D01*
G01*
X175303400Y-68526000D01*
G75*
G02*
X175040400Y-68789000I-263000J0D01*
G01*
X174514400Y-68789000D01*
G75*
G02*
X174251400Y-68526000I0J263000D01*
G01*
X174251400Y-67900000D01*
G75*
G02*
X174514400Y-67637000I263000J0D01*
G01*
G37*
G36*
G01*
X175046800Y-67087200D02*
X174520800Y-67087200D01*
G75*
G02*
X174257800Y-66824200I0J263000D01*
G01*
X174257800Y-66198200D01*
G75*
G02*
X174520800Y-65935200I263000J0D01*
G01*
X175046800Y-65935200D01*
G75*
G02*
X175309800Y-66198200I0J-263000D01*
G01*
X175309800Y-66824200D01*
G75*
G02*
X175046800Y-67087200I-263000J0D01*
G01*
G37*
G36*
G01*
X175046800Y-68837200D02*
X174520800Y-68837200D01*
G75*
G02*
X174257800Y-68574200I0J263000D01*
G01*
X174257800Y-67948200D01*
G75*
G02*
X174520800Y-67685200I263000J0D01*
G01*
X175046800Y-67685200D01*
G75*
G02*
X175309800Y-67948200I0J-263000D01*
G01*
X175309800Y-68574200D01*
G75*
G02*
X175046800Y-68837200I-263000J0D01*
G01*
G37*
G36*
G01*
X175962200Y-69387000D02*
X176488200Y-69387000D01*
G75*
G02*
X176751200Y-69650000I0J-263000D01*
G01*
X176751200Y-70276000D01*
G75*
G02*
X176488200Y-70539000I-263000J0D01*
G01*
X175962200Y-70539000D01*
G75*
G02*
X175699200Y-70276000I0J263000D01*
G01*
X175699200Y-69650000D01*
G75*
G02*
X175962200Y-69387000I263000J0D01*
G01*
G37*
G36*
G01*
X175962200Y-67637000D02*
X176488200Y-67637000D01*
G75*
G02*
X176751200Y-67900000I0J-263000D01*
G01*
X176751200Y-68526000D01*
G75*
G02*
X176488200Y-68789000I-263000J0D01*
G01*
X175962200Y-68789000D01*
G75*
G02*
X175699200Y-68526000I0J263000D01*
G01*
X175699200Y-67900000D01*
G75*
G02*
X175962200Y-67637000I263000J0D01*
G01*
G37*
G36*
G01*
X176462800Y-67087200D02*
X175936800Y-67087200D01*
G75*
G02*
X175673800Y-66824200I0J263000D01*
G01*
X175673800Y-66198200D01*
G75*
G02*
X175936800Y-65935200I263000J0D01*
G01*
X176462800Y-65935200D01*
G75*
G02*
X176725800Y-66198200I0J-263000D01*
G01*
X176725800Y-66824200D01*
G75*
G02*
X176462800Y-67087200I-263000J0D01*
G01*
G37*
G36*
G01*
X176462800Y-68837200D02*
X175936800Y-68837200D01*
G75*
G02*
X175673800Y-68574200I0J263000D01*
G01*
X175673800Y-67948200D01*
G75*
G02*
X175936800Y-67685200I263000J0D01*
G01*
X176462800Y-67685200D01*
G75*
G02*
X176725800Y-67948200I0J-263000D01*
G01*
X176725800Y-68574200D01*
G75*
G02*
X176462800Y-68837200I-263000J0D01*
G01*
G37*
G36*
G01*
X166335600Y-69488600D02*
X166861600Y-69488600D01*
G75*
G02*
X167124600Y-69751600I0J-263000D01*
G01*
X167124600Y-70377600D01*
G75*
G02*
X166861600Y-70640600I-263000J0D01*
G01*
X166335600Y-70640600D01*
G75*
G02*
X166072600Y-70377600I0J263000D01*
G01*
X166072600Y-69751600D01*
G75*
G02*
X166335600Y-69488600I263000J0D01*
G01*
G37*
G36*
G01*
X166335600Y-67738600D02*
X166861600Y-67738600D01*
G75*
G02*
X167124600Y-68001600I0J-263000D01*
G01*
X167124600Y-68627600D01*
G75*
G02*
X166861600Y-68890600I-263000J0D01*
G01*
X166335600Y-68890600D01*
G75*
G02*
X166072600Y-68627600I0J263000D01*
G01*
X166072600Y-68001600D01*
G75*
G02*
X166335600Y-67738600I263000J0D01*
G01*
G37*
G36*
G01*
X166870000Y-67188800D02*
X166344000Y-67188800D01*
G75*
G02*
X166081000Y-66925800I0J263000D01*
G01*
X166081000Y-66299800D01*
G75*
G02*
X166344000Y-66036800I263000J0D01*
G01*
X166870000Y-66036800D01*
G75*
G02*
X167133000Y-66299800I0J-263000D01*
G01*
X167133000Y-66925800D01*
G75*
G02*
X166870000Y-67188800I-263000J0D01*
G01*
G37*
G36*
G01*
X166870000Y-68938800D02*
X166344000Y-68938800D01*
G75*
G02*
X166081000Y-68675800I0J263000D01*
G01*
X166081000Y-68049800D01*
G75*
G02*
X166344000Y-67786800I263000J0D01*
G01*
X166870000Y-67786800D01*
G75*
G02*
X167133000Y-68049800I0J-263000D01*
G01*
X167133000Y-68675800D01*
G75*
G02*
X166870000Y-68938800I-263000J0D01*
G01*
G37*
G36*
G01*
X165488000Y-105604200D02*
X165488000Y-106130200D01*
G75*
G02*
X165225000Y-106393200I-263000J0D01*
G01*
X164674000Y-106393200D01*
G75*
G02*
X164411000Y-106130200I0J263000D01*
G01*
X164411000Y-105604200D01*
G75*
G02*
X164674000Y-105341200I263000J0D01*
G01*
X165225000Y-105341200D01*
G75*
G02*
X165488000Y-105604200I0J-263000D01*
G01*
G37*
G36*
G01*
X167313000Y-105604200D02*
X167313000Y-106130200D01*
G75*
G02*
X167050000Y-106393200I-263000J0D01*
G01*
X166499000Y-106393200D01*
G75*
G02*
X166236000Y-106130200I0J263000D01*
G01*
X166236000Y-105604200D01*
G75*
G02*
X166499000Y-105341200I263000J0D01*
G01*
X167050000Y-105341200D01*
G75*
G02*
X167313000Y-105604200I0J-263000D01*
G01*
G37*
G36*
G01*
X152367600Y-64220200D02*
X152367600Y-63694200D01*
G75*
G02*
X152630600Y-63431200I263000J0D01*
G01*
X153181600Y-63431200D01*
G75*
G02*
X153444600Y-63694200I0J-263000D01*
G01*
X153444600Y-64220200D01*
G75*
G02*
X153181600Y-64483200I-263000J0D01*
G01*
X152630600Y-64483200D01*
G75*
G02*
X152367600Y-64220200I0J263000D01*
G01*
G37*
G36*
G01*
X150542600Y-64220200D02*
X150542600Y-63694200D01*
G75*
G02*
X150805600Y-63431200I263000J0D01*
G01*
X151356600Y-63431200D01*
G75*
G02*
X151619600Y-63694200I0J-263000D01*
G01*
X151619600Y-64220200D01*
G75*
G02*
X151356600Y-64483200I-263000J0D01*
G01*
X150805600Y-64483200D01*
G75*
G02*
X150542600Y-64220200I0J263000D01*
G01*
G37*
G36*
G01*
X155175600Y-61052600D02*
X155175600Y-61578600D01*
G75*
G02*
X154912600Y-61841600I-263000J0D01*
G01*
X154361600Y-61841600D01*
G75*
G02*
X154098600Y-61578600I0J263000D01*
G01*
X154098600Y-61052600D01*
G75*
G02*
X154361600Y-60789600I263000J0D01*
G01*
X154912600Y-60789600D01*
G75*
G02*
X155175600Y-61052600I0J-263000D01*
G01*
G37*
G36*
G01*
X157000600Y-61052600D02*
X157000600Y-61578600D01*
G75*
G02*
X156737600Y-61841600I-263000J0D01*
G01*
X156186600Y-61841600D01*
G75*
G02*
X155923600Y-61578600I0J263000D01*
G01*
X155923600Y-61052600D01*
G75*
G02*
X156186600Y-60789600I263000J0D01*
G01*
X156737600Y-60789600D01*
G75*
G02*
X157000600Y-61052600I0J-263000D01*
G01*
G37*
G36*
G01*
X173539400Y-103203048D02*
X173539400Y-104162552D01*
G75*
G02*
X173268152Y-104433800I-271248J0D01*
G01*
X172508648Y-104433800D01*
G75*
G02*
X172237400Y-104162552I0J271248D01*
G01*
X172237400Y-103203048D01*
G75*
G02*
X172508648Y-102931800I271248J0D01*
G01*
X173268152Y-102931800D01*
G75*
G02*
X173539400Y-103203048I0J-271248D01*
G01*
G37*
G36*
G01*
X175539400Y-103203048D02*
X175539400Y-104162552D01*
G75*
G02*
X175268152Y-104433800I-271248J0D01*
G01*
X174508648Y-104433800D01*
G75*
G02*
X174237400Y-104162552I0J271248D01*
G01*
X174237400Y-103203048D01*
G75*
G02*
X174508648Y-102931800I271248J0D01*
G01*
X175268152Y-102931800D01*
G75*
G02*
X175539400Y-103203048I0J-271248D01*
G01*
G37*
G36*
G01*
X174339000Y-75968552D02*
X174339000Y-75009048D01*
G75*
G02*
X174610248Y-74737800I271248J0D01*
G01*
X175369752Y-74737800D01*
G75*
G02*
X175641000Y-75009048I0J-271248D01*
G01*
X175641000Y-75968552D01*
G75*
G02*
X175369752Y-76239800I-271248J0D01*
G01*
X174610248Y-76239800D01*
G75*
G02*
X174339000Y-75968552I0J271248D01*
G01*
G37*
G36*
G01*
X172339000Y-75968552D02*
X172339000Y-75009048D01*
G75*
G02*
X172610248Y-74737800I271248J0D01*
G01*
X173369752Y-74737800D01*
G75*
G02*
X173641000Y-75009048I0J-271248D01*
G01*
X173641000Y-75968552D01*
G75*
G02*
X173369752Y-76239800I-271248J0D01*
G01*
X172610248Y-76239800D01*
G75*
G02*
X172339000Y-75968552I0J271248D01*
G01*
G37*
G36*
G01*
X160841800Y-63380000D02*
X160315800Y-63380000D01*
G75*
G02*
X160052800Y-63117000I0J263000D01*
G01*
X160052800Y-62566000D01*
G75*
G02*
X160315800Y-62303000I263000J0D01*
G01*
X160841800Y-62303000D01*
G75*
G02*
X161104800Y-62566000I0J-263000D01*
G01*
X161104800Y-63117000D01*
G75*
G02*
X160841800Y-63380000I-263000J0D01*
G01*
G37*
G36*
G01*
X160841800Y-65205000D02*
X160315800Y-65205000D01*
G75*
G02*
X160052800Y-64942000I0J263000D01*
G01*
X160052800Y-64391000D01*
G75*
G02*
X160315800Y-64128000I263000J0D01*
G01*
X160841800Y-64128000D01*
G75*
G02*
X161104800Y-64391000I0J-263000D01*
G01*
X161104800Y-64942000D01*
G75*
G02*
X160841800Y-65205000I-263000J0D01*
G01*
G37*
G36*
G01*
X162619800Y-63380000D02*
X162093800Y-63380000D01*
G75*
G02*
X161830800Y-63117000I0J263000D01*
G01*
X161830800Y-62566000D01*
G75*
G02*
X162093800Y-62303000I263000J0D01*
G01*
X162619800Y-62303000D01*
G75*
G02*
X162882800Y-62566000I0J-263000D01*
G01*
X162882800Y-63117000D01*
G75*
G02*
X162619800Y-63380000I-263000J0D01*
G01*
G37*
G36*
G01*
X162619800Y-65205000D02*
X162093800Y-65205000D01*
G75*
G02*
X161830800Y-64942000I0J263000D01*
G01*
X161830800Y-64391000D01*
G75*
G02*
X162093800Y-64128000I263000J0D01*
G01*
X162619800Y-64128000D01*
G75*
G02*
X162882800Y-64391000I0J-263000D01*
G01*
X162882800Y-64942000D01*
G75*
G02*
X162619800Y-65205000I-263000J0D01*
G01*
G37*
G36*
G01*
X176243600Y-81441400D02*
X176243600Y-80915400D01*
G75*
G02*
X176506600Y-80652400I263000J0D01*
G01*
X177057600Y-80652400D01*
G75*
G02*
X177320600Y-80915400I0J-263000D01*
G01*
X177320600Y-81441400D01*
G75*
G02*
X177057600Y-81704400I-263000J0D01*
G01*
X176506600Y-81704400D01*
G75*
G02*
X176243600Y-81441400I0J263000D01*
G01*
G37*
G36*
G01*
X174418600Y-81441400D02*
X174418600Y-80915400D01*
G75*
G02*
X174681600Y-80652400I263000J0D01*
G01*
X175232600Y-80652400D01*
G75*
G02*
X175495600Y-80915400I0J-263000D01*
G01*
X175495600Y-81441400D01*
G75*
G02*
X175232600Y-81704400I-263000J0D01*
G01*
X174681600Y-81704400D01*
G75*
G02*
X174418600Y-81441400I0J263000D01*
G01*
G37*
G36*
G01*
X176243600Y-83016200D02*
X176243600Y-82490200D01*
G75*
G02*
X176506600Y-82227200I263000J0D01*
G01*
X177057600Y-82227200D01*
G75*
G02*
X177320600Y-82490200I0J-263000D01*
G01*
X177320600Y-83016200D01*
G75*
G02*
X177057600Y-83279200I-263000J0D01*
G01*
X176506600Y-83279200D01*
G75*
G02*
X176243600Y-83016200I0J263000D01*
G01*
G37*
G36*
G01*
X174418600Y-83016200D02*
X174418600Y-82490200D01*
G75*
G02*
X174681600Y-82227200I263000J0D01*
G01*
X175232600Y-82227200D01*
G75*
G02*
X175495600Y-82490200I0J-263000D01*
G01*
X175495600Y-83016200D01*
G75*
G02*
X175232600Y-83279200I-263000J0D01*
G01*
X174681600Y-83279200D01*
G75*
G02*
X174418600Y-83016200I0J263000D01*
G01*
G37*
G36*
G01*
X185581400Y-82379200D02*
X185055400Y-82379200D01*
G75*
G02*
X184792400Y-82116200I0J263000D01*
G01*
X184792400Y-81565200D01*
G75*
G02*
X185055400Y-81302200I263000J0D01*
G01*
X185581400Y-81302200D01*
G75*
G02*
X185844400Y-81565200I0J-263000D01*
G01*
X185844400Y-82116200D01*
G75*
G02*
X185581400Y-82379200I-263000J0D01*
G01*
G37*
G36*
G01*
X185581400Y-84204200D02*
X185055400Y-84204200D01*
G75*
G02*
X184792400Y-83941200I0J263000D01*
G01*
X184792400Y-83390200D01*
G75*
G02*
X185055400Y-83127200I263000J0D01*
G01*
X185581400Y-83127200D01*
G75*
G02*
X185844400Y-83390200I0J-263000D01*
G01*
X185844400Y-83941200D01*
G75*
G02*
X185581400Y-84204200I-263000J0D01*
G01*
G37*
G36*
G01*
X187308600Y-82379200D02*
X186782600Y-82379200D01*
G75*
G02*
X186519600Y-82116200I0J263000D01*
G01*
X186519600Y-81565200D01*
G75*
G02*
X186782600Y-81302200I263000J0D01*
G01*
X187308600Y-81302200D01*
G75*
G02*
X187571600Y-81565200I0J-263000D01*
G01*
X187571600Y-82116200D01*
G75*
G02*
X187308600Y-82379200I-263000J0D01*
G01*
G37*
G36*
G01*
X187308600Y-84204200D02*
X186782600Y-84204200D01*
G75*
G02*
X186519600Y-83941200I0J263000D01*
G01*
X186519600Y-83390200D01*
G75*
G02*
X186782600Y-83127200I263000J0D01*
G01*
X187308600Y-83127200D01*
G75*
G02*
X187571600Y-83390200I0J-263000D01*
G01*
X187571600Y-83941200D01*
G75*
G02*
X187308600Y-84204200I-263000J0D01*
G01*
G37*
G36*
G01*
X173828600Y-91661600D02*
X174354600Y-91661600D01*
G75*
G02*
X174617600Y-91924600I0J-263000D01*
G01*
X174617600Y-92475600D01*
G75*
G02*
X174354600Y-92738600I-263000J0D01*
G01*
X173828600Y-92738600D01*
G75*
G02*
X173565600Y-92475600I0J263000D01*
G01*
X173565600Y-91924600D01*
G75*
G02*
X173828600Y-91661600I263000J0D01*
G01*
G37*
G36*
G01*
X173828600Y-89836600D02*
X174354600Y-89836600D01*
G75*
G02*
X174617600Y-90099600I0J-263000D01*
G01*
X174617600Y-90650600D01*
G75*
G02*
X174354600Y-90913600I-263000J0D01*
G01*
X173828600Y-90913600D01*
G75*
G02*
X173565600Y-90650600I0J263000D01*
G01*
X173565600Y-90099600D01*
G75*
G02*
X173828600Y-89836600I263000J0D01*
G01*
G37*
G36*
G01*
X182379400Y-69040902D02*
X182379400Y-70049498D01*
G75*
G02*
X182107698Y-70321200I-271702J0D01*
G01*
X181374102Y-70321200D01*
G75*
G02*
X181102400Y-70049498I0J271702D01*
G01*
X181102400Y-69040902D01*
G75*
G02*
X181374102Y-68769200I271702J0D01*
G01*
X182107698Y-68769200D01*
G75*
G02*
X182379400Y-69040902I0J-271702D01*
G01*
G37*
G36*
G01*
X184454400Y-69040902D02*
X184454400Y-70049498D01*
G75*
G02*
X184182698Y-70321200I-271702J0D01*
G01*
X183449102Y-70321200D01*
G75*
G02*
X183177400Y-70049498I0J271702D01*
G01*
X183177400Y-69040902D01*
G75*
G02*
X183449102Y-68769200I271702J0D01*
G01*
X184182698Y-68769200D01*
G75*
G02*
X184454400Y-69040902I0J-271702D01*
G01*
G37*
G36*
G01*
X182020102Y-96004600D02*
X183028698Y-96004600D01*
G75*
G02*
X183300400Y-96276302I0J-271702D01*
G01*
X183300400Y-97009898D01*
G75*
G02*
X183028698Y-97281600I-271702J0D01*
G01*
X182020102Y-97281600D01*
G75*
G02*
X181748400Y-97009898I0J271702D01*
G01*
X181748400Y-96276302D01*
G75*
G02*
X182020102Y-96004600I271702J0D01*
G01*
G37*
G36*
G01*
X182020102Y-93929600D02*
X183028698Y-93929600D01*
G75*
G02*
X183300400Y-94201302I0J-271702D01*
G01*
X183300400Y-94934898D01*
G75*
G02*
X183028698Y-95206600I-271702J0D01*
G01*
X182020102Y-95206600D01*
G75*
G02*
X181748400Y-94934898I0J271702D01*
G01*
X181748400Y-94201302D01*
G75*
G02*
X182020102Y-93929600I271702J0D01*
G01*
G37*
G36*
G01*
X174122400Y-73549400D02*
X174122400Y-74075400D01*
G75*
G02*
X173859400Y-74338400I-263000J0D01*
G01*
X173208400Y-74338400D01*
G75*
G02*
X172945400Y-74075400I0J263000D01*
G01*
X172945400Y-73549400D01*
G75*
G02*
X173208400Y-73286400I263000J0D01*
G01*
X173859400Y-73286400D01*
G75*
G02*
X174122400Y-73549400I0J-263000D01*
G01*
G37*
G36*
G01*
X175847400Y-73549400D02*
X175847400Y-74075400D01*
G75*
G02*
X175584400Y-74338400I-263000J0D01*
G01*
X174933400Y-74338400D01*
G75*
G02*
X174670400Y-74075400I0J263000D01*
G01*
X174670400Y-73549400D01*
G75*
G02*
X174933400Y-73286400I263000J0D01*
G01*
X175584400Y-73286400D01*
G75*
G02*
X175847400Y-73549400I0J-263000D01*
G01*
G37*
G36*
G01*
X175595600Y-101743400D02*
X175595600Y-102269400D01*
G75*
G02*
X175332600Y-102532400I-263000J0D01*
G01*
X174681600Y-102532400D01*
G75*
G02*
X174418600Y-102269400I0J263000D01*
G01*
X174418600Y-101743400D01*
G75*
G02*
X174681600Y-101480400I263000J0D01*
G01*
X175332600Y-101480400D01*
G75*
G02*
X175595600Y-101743400I0J-263000D01*
G01*
G37*
G36*
G01*
X177320600Y-101743400D02*
X177320600Y-102269400D01*
G75*
G02*
X177057600Y-102532400I-263000J0D01*
G01*
X176406600Y-102532400D01*
G75*
G02*
X176143600Y-102269400I0J263000D01*
G01*
X176143600Y-101743400D01*
G75*
G02*
X176406600Y-101480400I263000J0D01*
G01*
X177057600Y-101480400D01*
G75*
G02*
X177320600Y-101743400I0J-263000D01*
G01*
G37*
G36*
G01*
X158639400Y-63926400D02*
X159165400Y-63926400D01*
G75*
G02*
X159428400Y-64189400I0J-263000D01*
G01*
X159428400Y-64840400D01*
G75*
G02*
X159165400Y-65103400I-263000J0D01*
G01*
X158639400Y-65103400D01*
G75*
G02*
X158376400Y-64840400I0J263000D01*
G01*
X158376400Y-64189400D01*
G75*
G02*
X158639400Y-63926400I263000J0D01*
G01*
G37*
G36*
G01*
X158639400Y-62201400D02*
X159165400Y-62201400D01*
G75*
G02*
X159428400Y-62464400I0J-263000D01*
G01*
X159428400Y-63115400D01*
G75*
G02*
X159165400Y-63378400I-263000J0D01*
G01*
X158639400Y-63378400D01*
G75*
G02*
X158376400Y-63115400I0J263000D01*
G01*
X158376400Y-62464400D01*
G75*
G02*
X158639400Y-62201400I263000J0D01*
G01*
G37*
G36*
G01*
X175397800Y-72512956D02*
X175397800Y-71149444D01*
G75*
G02*
X175667044Y-70880200I269244J0D01*
G01*
X176555556Y-70880200D01*
G75*
G02*
X176824800Y-71149444I0J-269244D01*
G01*
X176824800Y-72512956D01*
G75*
G02*
X176555556Y-72782200I-269244J0D01*
G01*
X175667044Y-72782200D01*
G75*
G02*
X175397800Y-72512956I0J269244D01*
G01*
G37*
G36*
G01*
X172272800Y-72512956D02*
X172272800Y-71149444D01*
G75*
G02*
X172542044Y-70880200I269244J0D01*
G01*
X173430556Y-70880200D01*
G75*
G02*
X173699800Y-71149444I0J-269244D01*
G01*
X173699800Y-72512956D01*
G75*
G02*
X173430556Y-72782200I-269244J0D01*
G01*
X172542044Y-72782200D01*
G75*
G02*
X172272800Y-72512956I0J269244D01*
G01*
G37*
G36*
G01*
X177328200Y-106599756D02*
X177328200Y-105236244D01*
G75*
G02*
X177597444Y-104967000I269244J0D01*
G01*
X178485956Y-104967000D01*
G75*
G02*
X178755200Y-105236244I0J-269244D01*
G01*
X178755200Y-106599756D01*
G75*
G02*
X178485956Y-106869000I-269244J0D01*
G01*
X177597444Y-106869000D01*
G75*
G02*
X177328200Y-106599756I0J269244D01*
G01*
G37*
G36*
G01*
X174203200Y-106599756D02*
X174203200Y-105236244D01*
G75*
G02*
X174472444Y-104967000I269244J0D01*
G01*
X175360956Y-104967000D01*
G75*
G02*
X175630200Y-105236244I0J-269244D01*
G01*
X175630200Y-106599756D01*
G75*
G02*
X175360956Y-106869000I-269244J0D01*
G01*
X174472444Y-106869000D01*
G75*
G02*
X174203200Y-106599756I0J269244D01*
G01*
G37*
G36*
G01*
X183429800Y-83078000D02*
X183955800Y-83078000D01*
G75*
G02*
X184218800Y-83341000I0J-263000D01*
G01*
X184218800Y-83992000D01*
G75*
G02*
X183955800Y-84255000I-263000J0D01*
G01*
X183429800Y-84255000D01*
G75*
G02*
X183166800Y-83992000I0J263000D01*
G01*
X183166800Y-83341000D01*
G75*
G02*
X183429800Y-83078000I263000J0D01*
G01*
G37*
G36*
G01*
X183429800Y-81353000D02*
X183955800Y-81353000D01*
G75*
G02*
X184218800Y-81616000I0J-263000D01*
G01*
X184218800Y-82267000D01*
G75*
G02*
X183955800Y-82530000I-263000J0D01*
G01*
X183429800Y-82530000D01*
G75*
G02*
X183166800Y-82267000I0J263000D01*
G01*
X183166800Y-81616000D01*
G75*
G02*
X183429800Y-81353000I263000J0D01*
G01*
G37*
G36*
G01*
X157453000Y-62379000D02*
X157453000Y-63479000D01*
G75*
G02*
X157402000Y-63530000I-51000J0D01*
G01*
X156102000Y-63530000D01*
G75*
G02*
X156051000Y-63479000I0J51000D01*
G01*
X156051000Y-62379000D01*
G75*
G02*
X156102000Y-62328000I51000J0D01*
G01*
X157402000Y-62328000D01*
G75*
G02*
X157453000Y-62379000I0J-51000D01*
G01*
G37*
G36*
G01*
X155353000Y-62379000D02*
X155353000Y-63479000D01*
G75*
G02*
X155302000Y-63530000I-51000J0D01*
G01*
X154002000Y-63530000D01*
G75*
G02*
X153951000Y-63479000I0J51000D01*
G01*
X153951000Y-62379000D01*
G75*
G02*
X154002000Y-62328000I51000J0D01*
G01*
X155302000Y-62328000D01*
G75*
G02*
X155353000Y-62379000I0J-51000D01*
G01*
G37*
G36*
G01*
X155353000Y-64029000D02*
X155353000Y-65129000D01*
G75*
G02*
X155302000Y-65180000I-51000J0D01*
G01*
X154002000Y-65180000D01*
G75*
G02*
X153951000Y-65129000I0J51000D01*
G01*
X153951000Y-64029000D01*
G75*
G02*
X154002000Y-63978000I51000J0D01*
G01*
X155302000Y-63978000D01*
G75*
G02*
X155353000Y-64029000I0J-51000D01*
G01*
G37*
G36*
G01*
X157453000Y-64029000D02*
X157453000Y-65129000D01*
G75*
G02*
X157402000Y-65180000I-51000J0D01*
G01*
X156102000Y-65180000D01*
G75*
G02*
X156051000Y-65129000I0J51000D01*
G01*
X156051000Y-64029000D01*
G75*
G02*
X156102000Y-63978000I51000J0D01*
G01*
X157402000Y-63978000D01*
G75*
G02*
X157453000Y-64029000I0J-51000D01*
G01*
G37*
G36*
G01*
X182040200Y-81378200D02*
X182040200Y-82478200D01*
G75*
G02*
X181989200Y-82529200I-51000J0D01*
G01*
X180689200Y-82529200D01*
G75*
G02*
X180638200Y-82478200I0J51000D01*
G01*
X180638200Y-81378200D01*
G75*
G02*
X180689200Y-81327200I51000J0D01*
G01*
X181989200Y-81327200D01*
G75*
G02*
X182040200Y-81378200I0J-51000D01*
G01*
G37*
G36*
G01*
X179940200Y-81378200D02*
X179940200Y-82478200D01*
G75*
G02*
X179889200Y-82529200I-51000J0D01*
G01*
X178589200Y-82529200D01*
G75*
G02*
X178538200Y-82478200I0J51000D01*
G01*
X178538200Y-81378200D01*
G75*
G02*
X178589200Y-81327200I51000J0D01*
G01*
X179889200Y-81327200D01*
G75*
G02*
X179940200Y-81378200I0J-51000D01*
G01*
G37*
G36*
G01*
X179940200Y-83028200D02*
X179940200Y-84128200D01*
G75*
G02*
X179889200Y-84179200I-51000J0D01*
G01*
X178589200Y-84179200D01*
G75*
G02*
X178538200Y-84128200I0J51000D01*
G01*
X178538200Y-83028200D01*
G75*
G02*
X178589200Y-82977200I51000J0D01*
G01*
X179889200Y-82977200D01*
G75*
G02*
X179940200Y-83028200I0J-51000D01*
G01*
G37*
G36*
G01*
X182040200Y-83028200D02*
X182040200Y-84128200D01*
G75*
G02*
X181989200Y-84179200I-51000J0D01*
G01*
X180689200Y-84179200D01*
G75*
G02*
X180638200Y-84128200I0J51000D01*
G01*
X180638200Y-83028200D01*
G75*
G02*
X180689200Y-82977200I51000J0D01*
G01*
X181989200Y-82977200D01*
G75*
G02*
X182040200Y-83028200I0J-51000D01*
G01*
G37*
G36*
G01*
X162082200Y-110270800D02*
X162082200Y-108270800D01*
G75*
G02*
X162133200Y-108219800I51000J0D01*
G01*
X165933200Y-108219800D01*
G75*
G02*
X165984200Y-108270800I0J-51000D01*
G01*
X165984200Y-110270800D01*
G75*
G02*
X165933200Y-110321800I-51000J0D01*
G01*
X162133200Y-110321800D01*
G75*
G02*
X162082200Y-110270800I0J51000D01*
G01*
G37*
G36*
G01*
X166310200Y-98317600D02*
X166836200Y-98317600D01*
G75*
G02*
X167099200Y-98580600I0J-263000D01*
G01*
X167099200Y-99206600D01*
G75*
G02*
X166836200Y-99469600I-263000J0D01*
G01*
X166310200Y-99469600D01*
G75*
G02*
X166047200Y-99206600I0J263000D01*
G01*
X166047200Y-98580600D01*
G75*
G02*
X166310200Y-98317600I263000J0D01*
G01*
G37*
G36*
G01*
X166310200Y-96567600D02*
X166836200Y-96567600D01*
G75*
G02*
X167099200Y-96830600I0J-263000D01*
G01*
X167099200Y-97456600D01*
G75*
G02*
X166836200Y-97719600I-263000J0D01*
G01*
X166310200Y-97719600D01*
G75*
G02*
X166047200Y-97456600I0J263000D01*
G01*
X166047200Y-96830600D01*
G75*
G02*
X166310200Y-96567600I263000J0D01*
G01*
G37*
G36*
G01*
X166836200Y-95967000D02*
X166310200Y-95967000D01*
G75*
G02*
X166047200Y-95704000I0J263000D01*
G01*
X166047200Y-95078000D01*
G75*
G02*
X166310200Y-94815000I263000J0D01*
G01*
X166836200Y-94815000D01*
G75*
G02*
X167099200Y-95078000I0J-263000D01*
G01*
X167099200Y-95704000D01*
G75*
G02*
X166836200Y-95967000I-263000J0D01*
G01*
G37*
G36*
G01*
X166836200Y-97717000D02*
X166310200Y-97717000D01*
G75*
G02*
X166047200Y-97454000I0J263000D01*
G01*
X166047200Y-96828000D01*
G75*
G02*
X166310200Y-96565000I263000J0D01*
G01*
X166836200Y-96565000D01*
G75*
G02*
X167099200Y-96828000I0J-263000D01*
G01*
X167099200Y-97454000D01*
G75*
G02*
X166836200Y-97717000I-263000J0D01*
G01*
G37*
G36*
G01*
X173625400Y-98343000D02*
X174151400Y-98343000D01*
G75*
G02*
X174414400Y-98606000I0J-263000D01*
G01*
X174414400Y-99232000D01*
G75*
G02*
X174151400Y-99495000I-263000J0D01*
G01*
X173625400Y-99495000D01*
G75*
G02*
X173362400Y-99232000I0J263000D01*
G01*
X173362400Y-98606000D01*
G75*
G02*
X173625400Y-98343000I263000J0D01*
G01*
G37*
G36*
G01*
X173625400Y-96593000D02*
X174151400Y-96593000D01*
G75*
G02*
X174414400Y-96856000I0J-263000D01*
G01*
X174414400Y-97482000D01*
G75*
G02*
X174151400Y-97745000I-263000J0D01*
G01*
X173625400Y-97745000D01*
G75*
G02*
X173362400Y-97482000I0J263000D01*
G01*
X173362400Y-96856000D01*
G75*
G02*
X173625400Y-96593000I263000J0D01*
G01*
G37*
G36*
G01*
X174151400Y-95992400D02*
X173625400Y-95992400D01*
G75*
G02*
X173362400Y-95729400I0J263000D01*
G01*
X173362400Y-95103400D01*
G75*
G02*
X173625400Y-94840400I263000J0D01*
G01*
X174151400Y-94840400D01*
G75*
G02*
X174414400Y-95103400I0J-263000D01*
G01*
X174414400Y-95729400D01*
G75*
G02*
X174151400Y-95992400I-263000J0D01*
G01*
G37*
G36*
G01*
X174151400Y-97742400D02*
X173625400Y-97742400D01*
G75*
G02*
X173362400Y-97479400I0J263000D01*
G01*
X173362400Y-96853400D01*
G75*
G02*
X173625400Y-96590400I263000J0D01*
G01*
X174151400Y-96590400D01*
G75*
G02*
X174414400Y-96853400I0J-263000D01*
G01*
X174414400Y-97479400D01*
G75*
G02*
X174151400Y-97742400I-263000J0D01*
G01*
G37*
G36*
G01*
X172177600Y-98331600D02*
X172703600Y-98331600D01*
G75*
G02*
X172966600Y-98594600I0J-263000D01*
G01*
X172966600Y-99220600D01*
G75*
G02*
X172703600Y-99483600I-263000J0D01*
G01*
X172177600Y-99483600D01*
G75*
G02*
X171914600Y-99220600I0J263000D01*
G01*
X171914600Y-98594600D01*
G75*
G02*
X172177600Y-98331600I263000J0D01*
G01*
G37*
G36*
G01*
X172177600Y-96581600D02*
X172703600Y-96581600D01*
G75*
G02*
X172966600Y-96844600I0J-263000D01*
G01*
X172966600Y-97470600D01*
G75*
G02*
X172703600Y-97733600I-263000J0D01*
G01*
X172177600Y-97733600D01*
G75*
G02*
X171914600Y-97470600I0J263000D01*
G01*
X171914600Y-96844600D01*
G75*
G02*
X172177600Y-96581600I263000J0D01*
G01*
G37*
G36*
G01*
X172703600Y-95967000D02*
X172177600Y-95967000D01*
G75*
G02*
X171914600Y-95704000I0J263000D01*
G01*
X171914600Y-95078000D01*
G75*
G02*
X172177600Y-94815000I263000J0D01*
G01*
X172703600Y-94815000D01*
G75*
G02*
X172966600Y-95078000I0J-263000D01*
G01*
X172966600Y-95704000D01*
G75*
G02*
X172703600Y-95967000I-263000J0D01*
G01*
G37*
G36*
G01*
X172703600Y-97717000D02*
X172177600Y-97717000D01*
G75*
G02*
X171914600Y-97454000I0J263000D01*
G01*
X171914600Y-96828000D01*
G75*
G02*
X172177600Y-96565000I263000J0D01*
G01*
X172703600Y-96565000D01*
G75*
G02*
X172966600Y-96828000I0J-263000D01*
G01*
X172966600Y-97454000D01*
G75*
G02*
X172703600Y-97717000I-263000J0D01*
G01*
G37*
G36*
G01*
X176368600Y-98419200D02*
X176894600Y-98419200D01*
G75*
G02*
X177157600Y-98682200I0J-263000D01*
G01*
X177157600Y-99308200D01*
G75*
G02*
X176894600Y-99571200I-263000J0D01*
G01*
X176368600Y-99571200D01*
G75*
G02*
X176105600Y-99308200I0J263000D01*
G01*
X176105600Y-98682200D01*
G75*
G02*
X176368600Y-98419200I263000J0D01*
G01*
G37*
G36*
G01*
X176368600Y-96669200D02*
X176894600Y-96669200D01*
G75*
G02*
X177157600Y-96932200I0J-263000D01*
G01*
X177157600Y-97558200D01*
G75*
G02*
X176894600Y-97821200I-263000J0D01*
G01*
X176368600Y-97821200D01*
G75*
G02*
X176105600Y-97558200I0J263000D01*
G01*
X176105600Y-96932200D01*
G75*
G02*
X176368600Y-96669200I263000J0D01*
G01*
G37*
G36*
G01*
X176869200Y-96068600D02*
X176343200Y-96068600D01*
G75*
G02*
X176080200Y-95805600I0J263000D01*
G01*
X176080200Y-95179600D01*
G75*
G02*
X176343200Y-94916600I263000J0D01*
G01*
X176869200Y-94916600D01*
G75*
G02*
X177132200Y-95179600I0J-263000D01*
G01*
X177132200Y-95805600D01*
G75*
G02*
X176869200Y-96068600I-263000J0D01*
G01*
G37*
G36*
G01*
X176869200Y-97818600D02*
X176343200Y-97818600D01*
G75*
G02*
X176080200Y-97555600I0J263000D01*
G01*
X176080200Y-96929600D01*
G75*
G02*
X176343200Y-96666600I263000J0D01*
G01*
X176869200Y-96666600D01*
G75*
G02*
X177132200Y-96929600I0J-263000D01*
G01*
X177132200Y-97555600D01*
G75*
G02*
X176869200Y-97818600I-263000J0D01*
G01*
G37*
G36*
G01*
X177816400Y-98419200D02*
X178342400Y-98419200D01*
G75*
G02*
X178605400Y-98682200I0J-263000D01*
G01*
X178605400Y-99308200D01*
G75*
G02*
X178342400Y-99571200I-263000J0D01*
G01*
X177816400Y-99571200D01*
G75*
G02*
X177553400Y-99308200I0J263000D01*
G01*
X177553400Y-98682200D01*
G75*
G02*
X177816400Y-98419200I263000J0D01*
G01*
G37*
G36*
G01*
X177816400Y-96669200D02*
X178342400Y-96669200D01*
G75*
G02*
X178605400Y-96932200I0J-263000D01*
G01*
X178605400Y-97558200D01*
G75*
G02*
X178342400Y-97821200I-263000J0D01*
G01*
X177816400Y-97821200D01*
G75*
G02*
X177553400Y-97558200I0J263000D01*
G01*
X177553400Y-96932200D01*
G75*
G02*
X177816400Y-96669200I263000J0D01*
G01*
G37*
G36*
G01*
X178361200Y-96068600D02*
X177835200Y-96068600D01*
G75*
G02*
X177572200Y-95805600I0J263000D01*
G01*
X177572200Y-95179600D01*
G75*
G02*
X177835200Y-94916600I263000J0D01*
G01*
X178361200Y-94916600D01*
G75*
G02*
X178624200Y-95179600I0J-263000D01*
G01*
X178624200Y-95805600D01*
G75*
G02*
X178361200Y-96068600I-263000J0D01*
G01*
G37*
G36*
G01*
X178361200Y-97818600D02*
X177835200Y-97818600D01*
G75*
G02*
X177572200Y-97555600I0J263000D01*
G01*
X177572200Y-96929600D01*
G75*
G02*
X177835200Y-96666600I263000J0D01*
G01*
X178361200Y-96666600D01*
G75*
G02*
X178624200Y-96929600I0J-263000D01*
G01*
X178624200Y-97555600D01*
G75*
G02*
X178361200Y-97818600I-263000J0D01*
G01*
G37*
G36*
G01*
X167732600Y-98368400D02*
X168258600Y-98368400D01*
G75*
G02*
X168521600Y-98631400I0J-263000D01*
G01*
X168521600Y-99257400D01*
G75*
G02*
X168258600Y-99520400I-263000J0D01*
G01*
X167732600Y-99520400D01*
G75*
G02*
X167469600Y-99257400I0J263000D01*
G01*
X167469600Y-98631400D01*
G75*
G02*
X167732600Y-98368400I263000J0D01*
G01*
G37*
G36*
G01*
X167732600Y-96618400D02*
X168258600Y-96618400D01*
G75*
G02*
X168521600Y-96881400I0J-263000D01*
G01*
X168521600Y-97507400D01*
G75*
G02*
X168258600Y-97770400I-263000J0D01*
G01*
X167732600Y-97770400D01*
G75*
G02*
X167469600Y-97507400I0J263000D01*
G01*
X167469600Y-96881400D01*
G75*
G02*
X167732600Y-96618400I263000J0D01*
G01*
G37*
G36*
G01*
X168258600Y-96017800D02*
X167732600Y-96017800D01*
G75*
G02*
X167469600Y-95754800I0J263000D01*
G01*
X167469600Y-95128800D01*
G75*
G02*
X167732600Y-94865800I263000J0D01*
G01*
X168258600Y-94865800D01*
G75*
G02*
X168521600Y-95128800I0J-263000D01*
G01*
X168521600Y-95754800D01*
G75*
G02*
X168258600Y-96017800I-263000J0D01*
G01*
G37*
G36*
G01*
X168258600Y-97767800D02*
X167732600Y-97767800D01*
G75*
G02*
X167469600Y-97504800I0J263000D01*
G01*
X167469600Y-96878800D01*
G75*
G02*
X167732600Y-96615800I263000J0D01*
G01*
X168258600Y-96615800D01*
G75*
G02*
X168521600Y-96878800I0J-263000D01*
G01*
X168521600Y-97504800D01*
G75*
G02*
X168258600Y-97767800I-263000J0D01*
G01*
G37*
G36*
G01*
X176843800Y-92461800D02*
X176317800Y-92461800D01*
G75*
G02*
X176054800Y-92198800I0J263000D01*
G01*
X176054800Y-91572800D01*
G75*
G02*
X176317800Y-91309800I263000J0D01*
G01*
X176843800Y-91309800D01*
G75*
G02*
X177106800Y-91572800I0J-263000D01*
G01*
X177106800Y-92198800D01*
G75*
G02*
X176843800Y-92461800I-263000J0D01*
G01*
G37*
G36*
G01*
X176843800Y-94211800D02*
X176317800Y-94211800D01*
G75*
G02*
X176054800Y-93948800I0J263000D01*
G01*
X176054800Y-93322800D01*
G75*
G02*
X176317800Y-93059800I263000J0D01*
G01*
X176843800Y-93059800D01*
G75*
G02*
X177106800Y-93322800I0J-263000D01*
G01*
X177106800Y-93948800D01*
G75*
G02*
X176843800Y-94211800I-263000J0D01*
G01*
G37*
G36*
G01*
X186949800Y-114375000D02*
X186949800Y-114901000D01*
G75*
G02*
X186686800Y-115164000I-263000J0D01*
G01*
X186060800Y-115164000D01*
G75*
G02*
X185797800Y-114901000I0J263000D01*
G01*
X185797800Y-114375000D01*
G75*
G02*
X186060800Y-114112000I263000J0D01*
G01*
X186686800Y-114112000D01*
G75*
G02*
X186949800Y-114375000I0J-263000D01*
G01*
G37*
G36*
G01*
X188699800Y-114375000D02*
X188699800Y-114901000D01*
G75*
G02*
X188436800Y-115164000I-263000J0D01*
G01*
X187810800Y-115164000D01*
G75*
G02*
X187547800Y-114901000I0J263000D01*
G01*
X187547800Y-114375000D01*
G75*
G02*
X187810800Y-114112000I263000J0D01*
G01*
X188436800Y-114112000D01*
G75*
G02*
X188699800Y-114375000I0J-263000D01*
G01*
G37*
G36*
G01*
X187547800Y-112683400D02*
X187547800Y-112157400D01*
G75*
G02*
X187810800Y-111894400I263000J0D01*
G01*
X188436800Y-111894400D01*
G75*
G02*
X188699800Y-112157400I0J-263000D01*
G01*
X188699800Y-112683400D01*
G75*
G02*
X188436800Y-112946400I-263000J0D01*
G01*
X187810800Y-112946400D01*
G75*
G02*
X187547800Y-112683400I0J263000D01*
G01*
G37*
G36*
G01*
X185797800Y-112683400D02*
X185797800Y-112157400D01*
G75*
G02*
X186060800Y-111894400I263000J0D01*
G01*
X186686800Y-111894400D01*
G75*
G02*
X186949800Y-112157400I0J-263000D01*
G01*
X186949800Y-112683400D01*
G75*
G02*
X186686800Y-112946400I-263000J0D01*
G01*
X186060800Y-112946400D01*
G75*
G02*
X185797800Y-112683400I0J263000D01*
G01*
G37*
X90932000Y-78333600D03*
X90932000Y-75793600D03*
X90932000Y-73253600D03*
X90932000Y-70713600D03*
X90932000Y-68173600D03*
G36*
G01*
X90031000Y-66483600D02*
X90031000Y-64783600D01*
G75*
G02*
X90082000Y-64732600I51000J0D01*
G01*
X91782000Y-64732600D01*
G75*
G02*
X91833000Y-64783600I0J-51000D01*
G01*
X91833000Y-66483600D01*
G75*
G02*
X91782000Y-66534600I-51000J0D01*
G01*
X90082000Y-66534600D01*
G75*
G02*
X90031000Y-66483600I0J51000D01*
G01*
G37*
D11*
X137759600Y-124601600D03*
G36*
G01*
X146579599Y-119350600D02*
X149279601Y-119350600D01*
G75*
G02*
X149330600Y-119401599I0J-50999D01*
G01*
X149330600Y-122101601D01*
G75*
G02*
X149279601Y-122152600I-50999J0D01*
G01*
X146579599Y-122152600D01*
G75*
G02*
X146528600Y-122101601I0J50999D01*
G01*
X146528600Y-119401599D01*
G75*
G02*
X146579599Y-119350600I50999J0D01*
G01*
G37*
D12*
X192303200Y-106868000D03*
X192303200Y-120008000D03*
G36*
G01*
X193403200Y-117739000D02*
X191903200Y-117739000D01*
G75*
G02*
X191852200Y-117688000I0J51000D01*
G01*
X191852200Y-116188000D01*
G75*
G02*
X191903200Y-116137000I51000J0D01*
G01*
X193403200Y-116137000D01*
G75*
G02*
X193454200Y-116188000I0J-51000D01*
G01*
X193454200Y-117688000D01*
G75*
G02*
X193403200Y-117739000I-51000J0D01*
G01*
G37*
D13*
X192653200Y-114438000D03*
X192653200Y-112438000D03*
X192653200Y-109938000D03*
D12*
X197983200Y-120008000D03*
X197983200Y-106868000D03*
D13*
X195273200Y-116938000D03*
X195273200Y-114438000D03*
X195273200Y-112438000D03*
X195273200Y-109938000D03*
D14*
X195366800Y-87325200D03*
X195366800Y-98755200D03*
D15*
X192316800Y-85265200D03*
X192316800Y-100815200D03*
D16*
X200266800Y-99365200D03*
X198746800Y-96825200D03*
X200266800Y-89255200D03*
X198746800Y-86715200D03*
D17*
X186486800Y-88595200D03*
X189026800Y-89865200D03*
X186486800Y-91135200D03*
X189026800Y-92405200D03*
X186486800Y-93675200D03*
X189026800Y-94945200D03*
X186486800Y-96215200D03*
G36*
G01*
X189976800Y-98486200D02*
X188076800Y-98486200D01*
G75*
G02*
X188025800Y-98435200I0J51000D01*
G01*
X188025800Y-96535200D01*
G75*
G02*
X188076800Y-96484200I51000J0D01*
G01*
X189976800Y-96484200D01*
G75*
G02*
X190027800Y-96535200I0J-51000D01*
G01*
X190027800Y-98435200D01*
G75*
G02*
X189976800Y-98486200I-51000J0D01*
G01*
G37*
D14*
X195393200Y-64272400D03*
X195393200Y-75702400D03*
D15*
X192343200Y-62212400D03*
X192343200Y-77762400D03*
D16*
X200293200Y-76312400D03*
X198773200Y-73772400D03*
X200293200Y-66202400D03*
X198773200Y-63662400D03*
D17*
X186513200Y-65542400D03*
X189053200Y-66812400D03*
X186513200Y-68082400D03*
X189053200Y-69352400D03*
X186513200Y-70622400D03*
X189053200Y-71892400D03*
X186513200Y-73162400D03*
G36*
G01*
X190003200Y-75433400D02*
X188103200Y-75433400D01*
G75*
G02*
X188052200Y-75382400I0J51000D01*
G01*
X188052200Y-73482400D01*
G75*
G02*
X188103200Y-73431400I51000J0D01*
G01*
X190003200Y-73431400D01*
G75*
G02*
X190054200Y-73482400I0J-51000D01*
G01*
X190054200Y-75382400D01*
G75*
G02*
X190003200Y-75433400I-51000J0D01*
G01*
G37*
G36*
G01*
X131874506Y-95338800D02*
X130558294Y-95338800D01*
G75*
G02*
X130290400Y-95070906I0J267894D01*
G01*
X130290400Y-94079694D01*
G75*
G02*
X130558294Y-93811800I267894J0D01*
G01*
X131874506Y-93811800D01*
G75*
G02*
X132142400Y-94079694I0J-267894D01*
G01*
X132142400Y-95070906D01*
G75*
G02*
X131874506Y-95338800I-267894J0D01*
G01*
G37*
G36*
G01*
X131874506Y-98313800D02*
X130558294Y-98313800D01*
G75*
G02*
X130290400Y-98045906I0J267894D01*
G01*
X130290400Y-97054694D01*
G75*
G02*
X130558294Y-96786800I267894J0D01*
G01*
X131874506Y-96786800D01*
G75*
G02*
X132142400Y-97054694I0J-267894D01*
G01*
X132142400Y-98045906D01*
G75*
G02*
X131874506Y-98313800I-267894J0D01*
G01*
G37*
G36*
G01*
X159778000Y-103106800D02*
X161278000Y-103106800D01*
G75*
G02*
X161329000Y-103157800I0J-51000D01*
G01*
X161329000Y-104207800D01*
G75*
G02*
X161278000Y-104258800I-51000J0D01*
G01*
X159778000Y-104258800D01*
G75*
G02*
X159727000Y-104207800I0J51000D01*
G01*
X159727000Y-103157800D01*
G75*
G02*
X159778000Y-103106800I51000J0D01*
G01*
G37*
D18*
X160528000Y-106222800D03*
X160528000Y-104952800D03*
G36*
G01*
X158324000Y-89408106D02*
X158324000Y-88091894D01*
G75*
G02*
X158591894Y-87824000I267894J0D01*
G01*
X159583106Y-87824000D01*
G75*
G02*
X159851000Y-88091894I0J-267894D01*
G01*
X159851000Y-89408106D01*
G75*
G02*
X159583106Y-89676000I-267894J0D01*
G01*
X158591894Y-89676000D01*
G75*
G02*
X158324000Y-89408106I0J267894D01*
G01*
G37*
G36*
G01*
X155349000Y-89408106D02*
X155349000Y-88091894D01*
G75*
G02*
X155616894Y-87824000I267894J0D01*
G01*
X156608106Y-87824000D01*
G75*
G02*
X156876000Y-88091894I0J-267894D01*
G01*
X156876000Y-89408106D01*
G75*
G02*
X156608106Y-89676000I-267894J0D01*
G01*
X155616894Y-89676000D01*
G75*
G02*
X155349000Y-89408106I0J267894D01*
G01*
G37*
G36*
G01*
X158374000Y-77808106D02*
X158374000Y-76491894D01*
G75*
G02*
X158641894Y-76224000I267894J0D01*
G01*
X159633106Y-76224000D01*
G75*
G02*
X159901000Y-76491894I0J-267894D01*
G01*
X159901000Y-77808106D01*
G75*
G02*
X159633106Y-78076000I-267894J0D01*
G01*
X158641894Y-78076000D01*
G75*
G02*
X158374000Y-77808106I0J267894D01*
G01*
G37*
G36*
G01*
X155399000Y-77808106D02*
X155399000Y-76491894D01*
G75*
G02*
X155666894Y-76224000I267894J0D01*
G01*
X156658106Y-76224000D01*
G75*
G02*
X156926000Y-76491894I0J-267894D01*
G01*
X156926000Y-77808106D01*
G75*
G02*
X156658106Y-78076000I-267894J0D01*
G01*
X155666894Y-78076000D01*
G75*
G02*
X155399000Y-77808106I0J267894D01*
G01*
G37*
G36*
G01*
X155399000Y-81058106D02*
X155399000Y-79741894D01*
G75*
G02*
X155666894Y-79474000I267894J0D01*
G01*
X156658106Y-79474000D01*
G75*
G02*
X156926000Y-79741894I0J-267894D01*
G01*
X156926000Y-81058106D01*
G75*
G02*
X156658106Y-81326000I-267894J0D01*
G01*
X155666894Y-81326000D01*
G75*
G02*
X155399000Y-81058106I0J267894D01*
G01*
G37*
G36*
G01*
X158374000Y-81058106D02*
X158374000Y-79741894D01*
G75*
G02*
X158641894Y-79474000I267894J0D01*
G01*
X159633106Y-79474000D01*
G75*
G02*
X159901000Y-79741894I0J-267894D01*
G01*
X159901000Y-81058106D01*
G75*
G02*
X159633106Y-81326000I-267894J0D01*
G01*
X158641894Y-81326000D01*
G75*
G02*
X158374000Y-81058106I0J267894D01*
G01*
G37*
G36*
G01*
X145688500Y-89291894D02*
X145688500Y-90608106D01*
G75*
G02*
X145420606Y-90876000I-267894J0D01*
G01*
X144429394Y-90876000D01*
G75*
G02*
X144161500Y-90608106I0J267894D01*
G01*
X144161500Y-89291894D01*
G75*
G02*
X144429394Y-89024000I267894J0D01*
G01*
X145420606Y-89024000D01*
G75*
G02*
X145688500Y-89291894I0J-267894D01*
G01*
G37*
G36*
G01*
X148663500Y-89291894D02*
X148663500Y-90608106D01*
G75*
G02*
X148395606Y-90876000I-267894J0D01*
G01*
X147404394Y-90876000D01*
G75*
G02*
X147136500Y-90608106I0J267894D01*
G01*
X147136500Y-89291894D01*
G75*
G02*
X147404394Y-89024000I267894J0D01*
G01*
X148395606Y-89024000D01*
G75*
G02*
X148663500Y-89291894I0J-267894D01*
G01*
G37*
G36*
G01*
X133524000Y-92158106D02*
X133524000Y-90841894D01*
G75*
G02*
X133791894Y-90574000I267894J0D01*
G01*
X134783106Y-90574000D01*
G75*
G02*
X135051000Y-90841894I0J-267894D01*
G01*
X135051000Y-92158106D01*
G75*
G02*
X134783106Y-92426000I-267894J0D01*
G01*
X133791894Y-92426000D01*
G75*
G02*
X133524000Y-92158106I0J267894D01*
G01*
G37*
G36*
G01*
X130549000Y-92158106D02*
X130549000Y-90841894D01*
G75*
G02*
X130816894Y-90574000I267894J0D01*
G01*
X131808106Y-90574000D01*
G75*
G02*
X132076000Y-90841894I0J-267894D01*
G01*
X132076000Y-92158106D01*
G75*
G02*
X131808106Y-92426000I-267894J0D01*
G01*
X130816894Y-92426000D01*
G75*
G02*
X130549000Y-92158106I0J267894D01*
G01*
G37*
G36*
G01*
X148181306Y-97077100D02*
X146865094Y-97077100D01*
G75*
G02*
X146597200Y-96809206I0J267894D01*
G01*
X146597200Y-95817994D01*
G75*
G02*
X146865094Y-95550100I267894J0D01*
G01*
X148181306Y-95550100D01*
G75*
G02*
X148449200Y-95817994I0J-267894D01*
G01*
X148449200Y-96809206D01*
G75*
G02*
X148181306Y-97077100I-267894J0D01*
G01*
G37*
G36*
G01*
X148181306Y-100052100D02*
X146865094Y-100052100D01*
G75*
G02*
X146597200Y-99784206I0J267894D01*
G01*
X146597200Y-98792994D01*
G75*
G02*
X146865094Y-98525100I267894J0D01*
G01*
X148181306Y-98525100D01*
G75*
G02*
X148449200Y-98792994I0J-267894D01*
G01*
X148449200Y-99784206D01*
G75*
G02*
X148181306Y-100052100I-267894J0D01*
G01*
G37*
G36*
G01*
X145776000Y-85391894D02*
X145776000Y-86708106D01*
G75*
G02*
X145508106Y-86976000I-267894J0D01*
G01*
X144516894Y-86976000D01*
G75*
G02*
X144249000Y-86708106I0J267894D01*
G01*
X144249000Y-85391894D01*
G75*
G02*
X144516894Y-85124000I267894J0D01*
G01*
X145508106Y-85124000D01*
G75*
G02*
X145776000Y-85391894I0J-267894D01*
G01*
G37*
G36*
G01*
X148751000Y-85391894D02*
X148751000Y-86708106D01*
G75*
G02*
X148483106Y-86976000I-267894J0D01*
G01*
X147491894Y-86976000D01*
G75*
G02*
X147224000Y-86708106I0J267894D01*
G01*
X147224000Y-85391894D01*
G75*
G02*
X147491894Y-85124000I267894J0D01*
G01*
X148483106Y-85124000D01*
G75*
G02*
X148751000Y-85391894I0J-267894D01*
G01*
G37*
G36*
G01*
X133474000Y-84658106D02*
X133474000Y-83341894D01*
G75*
G02*
X133741894Y-83074000I267894J0D01*
G01*
X134733106Y-83074000D01*
G75*
G02*
X135001000Y-83341894I0J-267894D01*
G01*
X135001000Y-84658106D01*
G75*
G02*
X134733106Y-84926000I-267894J0D01*
G01*
X133741894Y-84926000D01*
G75*
G02*
X133474000Y-84658106I0J267894D01*
G01*
G37*
G36*
G01*
X130499000Y-84658106D02*
X130499000Y-83341894D01*
G75*
G02*
X130766894Y-83074000I267894J0D01*
G01*
X131758106Y-83074000D01*
G75*
G02*
X132026000Y-83341894I0J-267894D01*
G01*
X132026000Y-84658106D01*
G75*
G02*
X131758106Y-84926000I-267894J0D01*
G01*
X130766894Y-84926000D01*
G75*
G02*
X130499000Y-84658106I0J267894D01*
G01*
G37*
G36*
G01*
X145776000Y-81791894D02*
X145776000Y-83108106D01*
G75*
G02*
X145508106Y-83376000I-267894J0D01*
G01*
X144516894Y-83376000D01*
G75*
G02*
X144249000Y-83108106I0J267894D01*
G01*
X144249000Y-81791894D01*
G75*
G02*
X144516894Y-81524000I267894J0D01*
G01*
X145508106Y-81524000D01*
G75*
G02*
X145776000Y-81791894I0J-267894D01*
G01*
G37*
G36*
G01*
X148751000Y-81791894D02*
X148751000Y-83108106D01*
G75*
G02*
X148483106Y-83376000I-267894J0D01*
G01*
X147491894Y-83376000D01*
G75*
G02*
X147224000Y-83108106I0J267894D01*
G01*
X147224000Y-81791894D01*
G75*
G02*
X147491894Y-81524000I267894J0D01*
G01*
X148483106Y-81524000D01*
G75*
G02*
X148751000Y-81791894I0J-267894D01*
G01*
G37*
G36*
G01*
X130549000Y-88508106D02*
X130549000Y-87191894D01*
G75*
G02*
X130816894Y-86924000I267894J0D01*
G01*
X131808106Y-86924000D01*
G75*
G02*
X132076000Y-87191894I0J-267894D01*
G01*
X132076000Y-88508106D01*
G75*
G02*
X131808106Y-88776000I-267894J0D01*
G01*
X130816894Y-88776000D01*
G75*
G02*
X130549000Y-88508106I0J267894D01*
G01*
G37*
G36*
G01*
X133524000Y-88508106D02*
X133524000Y-87191894D01*
G75*
G02*
X133791894Y-86924000I267894J0D01*
G01*
X134783106Y-86924000D01*
G75*
G02*
X135051000Y-87191894I0J-267894D01*
G01*
X135051000Y-88508106D01*
G75*
G02*
X134783106Y-88776000I-267894J0D01*
G01*
X133791894Y-88776000D01*
G75*
G02*
X133524000Y-88508106I0J267894D01*
G01*
G37*
G36*
G01*
X135532106Y-70650000D02*
X134215894Y-70650000D01*
G75*
G02*
X133948000Y-70382106I0J267894D01*
G01*
X133948000Y-69390894D01*
G75*
G02*
X134215894Y-69123000I267894J0D01*
G01*
X135532106Y-69123000D01*
G75*
G02*
X135800000Y-69390894I0J-267894D01*
G01*
X135800000Y-70382106D01*
G75*
G02*
X135532106Y-70650000I-267894J0D01*
G01*
G37*
G36*
G01*
X135532106Y-73625000D02*
X134215894Y-73625000D01*
G75*
G02*
X133948000Y-73357106I0J267894D01*
G01*
X133948000Y-72365894D01*
G75*
G02*
X134215894Y-72098000I267894J0D01*
G01*
X135532106Y-72098000D01*
G75*
G02*
X135800000Y-72365894I0J-267894D01*
G01*
X135800000Y-73357106D01*
G75*
G02*
X135532106Y-73625000I-267894J0D01*
G01*
G37*
G36*
G01*
X158374000Y-85408106D02*
X158374000Y-84091894D01*
G75*
G02*
X158641894Y-83824000I267894J0D01*
G01*
X159633106Y-83824000D01*
G75*
G02*
X159901000Y-84091894I0J-267894D01*
G01*
X159901000Y-85408106D01*
G75*
G02*
X159633106Y-85676000I-267894J0D01*
G01*
X158641894Y-85676000D01*
G75*
G02*
X158374000Y-85408106I0J267894D01*
G01*
G37*
G36*
G01*
X155399000Y-85408106D02*
X155399000Y-84091894D01*
G75*
G02*
X155666894Y-83824000I267894J0D01*
G01*
X156658106Y-83824000D01*
G75*
G02*
X156926000Y-84091894I0J-267894D01*
G01*
X156926000Y-85408106D01*
G75*
G02*
X156658106Y-85676000I-267894J0D01*
G01*
X155666894Y-85676000D01*
G75*
G02*
X155399000Y-85408106I0J267894D01*
G01*
G37*
G36*
G01*
X139258106Y-70638500D02*
X137941894Y-70638500D01*
G75*
G02*
X137674000Y-70370606I0J267894D01*
G01*
X137674000Y-69379394D01*
G75*
G02*
X137941894Y-69111500I267894J0D01*
G01*
X139258106Y-69111500D01*
G75*
G02*
X139526000Y-69379394I0J-267894D01*
G01*
X139526000Y-70370606D01*
G75*
G02*
X139258106Y-70638500I-267894J0D01*
G01*
G37*
G36*
G01*
X139258106Y-73613500D02*
X137941894Y-73613500D01*
G75*
G02*
X137674000Y-73345606I0J267894D01*
G01*
X137674000Y-72354394D01*
G75*
G02*
X137941894Y-72086500I267894J0D01*
G01*
X139258106Y-72086500D01*
G75*
G02*
X139526000Y-72354394I0J-267894D01*
G01*
X139526000Y-73345606D01*
G75*
G02*
X139258106Y-73613500I-267894J0D01*
G01*
G37*
G36*
G01*
X120338500Y-87291894D02*
X120338500Y-88608106D01*
G75*
G02*
X120070606Y-88876000I-267894J0D01*
G01*
X119079394Y-88876000D01*
G75*
G02*
X118811500Y-88608106I0J267894D01*
G01*
X118811500Y-87291894D01*
G75*
G02*
X119079394Y-87024000I267894J0D01*
G01*
X120070606Y-87024000D01*
G75*
G02*
X120338500Y-87291894I0J-267894D01*
G01*
G37*
G36*
G01*
X123313500Y-87291894D02*
X123313500Y-88608106D01*
G75*
G02*
X123045606Y-88876000I-267894J0D01*
G01*
X122054394Y-88876000D01*
G75*
G02*
X121786500Y-88608106I0J267894D01*
G01*
X121786500Y-87291894D01*
G75*
G02*
X122054394Y-87024000I267894J0D01*
G01*
X123045606Y-87024000D01*
G75*
G02*
X123313500Y-87291894I0J-267894D01*
G01*
G37*
G36*
G01*
X147308106Y-70738500D02*
X145991894Y-70738500D01*
G75*
G02*
X145724000Y-70470606I0J267894D01*
G01*
X145724000Y-69479394D01*
G75*
G02*
X145991894Y-69211500I267894J0D01*
G01*
X147308106Y-69211500D01*
G75*
G02*
X147576000Y-69479394I0J-267894D01*
G01*
X147576000Y-70470606D01*
G75*
G02*
X147308106Y-70738500I-267894J0D01*
G01*
G37*
G36*
G01*
X147308106Y-73713500D02*
X145991894Y-73713500D01*
G75*
G02*
X145724000Y-73445606I0J267894D01*
G01*
X145724000Y-72454394D01*
G75*
G02*
X145991894Y-72186500I267894J0D01*
G01*
X147308106Y-72186500D01*
G75*
G02*
X147576000Y-72454394I0J-267894D01*
G01*
X147576000Y-73445606D01*
G75*
G02*
X147308106Y-73713500I-267894J0D01*
G01*
G37*
G36*
G01*
X120338500Y-83691894D02*
X120338500Y-85008106D01*
G75*
G02*
X120070606Y-85276000I-267894J0D01*
G01*
X119079394Y-85276000D01*
G75*
G02*
X118811500Y-85008106I0J267894D01*
G01*
X118811500Y-83691894D01*
G75*
G02*
X119079394Y-83424000I267894J0D01*
G01*
X120070606Y-83424000D01*
G75*
G02*
X120338500Y-83691894I0J-267894D01*
G01*
G37*
G36*
G01*
X123313500Y-83691894D02*
X123313500Y-85008106D01*
G75*
G02*
X123045606Y-85276000I-267894J0D01*
G01*
X122054394Y-85276000D01*
G75*
G02*
X121786500Y-85008106I0J267894D01*
G01*
X121786500Y-83691894D01*
G75*
G02*
X122054394Y-83424000I267894J0D01*
G01*
X123045606Y-83424000D01*
G75*
G02*
X123313500Y-83691894I0J-267894D01*
G01*
G37*
G36*
G01*
X120288500Y-91441894D02*
X120288500Y-92758106D01*
G75*
G02*
X120020606Y-93026000I-267894J0D01*
G01*
X119029394Y-93026000D01*
G75*
G02*
X118761500Y-92758106I0J267894D01*
G01*
X118761500Y-91441894D01*
G75*
G02*
X119029394Y-91174000I267894J0D01*
G01*
X120020606Y-91174000D01*
G75*
G02*
X120288500Y-91441894I0J-267894D01*
G01*
G37*
G36*
G01*
X123263500Y-91441894D02*
X123263500Y-92758106D01*
G75*
G02*
X122995606Y-93026000I-267894J0D01*
G01*
X122004394Y-93026000D01*
G75*
G02*
X121736500Y-92758106I0J267894D01*
G01*
X121736500Y-91441894D01*
G75*
G02*
X122004394Y-91174000I267894J0D01*
G01*
X122995606Y-91174000D01*
G75*
G02*
X123263500Y-91441894I0J-267894D01*
G01*
G37*
G36*
G01*
X151408106Y-70588500D02*
X150091894Y-70588500D01*
G75*
G02*
X149824000Y-70320606I0J267894D01*
G01*
X149824000Y-69329394D01*
G75*
G02*
X150091894Y-69061500I267894J0D01*
G01*
X151408106Y-69061500D01*
G75*
G02*
X151676000Y-69329394I0J-267894D01*
G01*
X151676000Y-70320606D01*
G75*
G02*
X151408106Y-70588500I-267894J0D01*
G01*
G37*
G36*
G01*
X151408106Y-73563500D02*
X150091894Y-73563500D01*
G75*
G02*
X149824000Y-73295606I0J267894D01*
G01*
X149824000Y-72304394D01*
G75*
G02*
X150091894Y-72036500I267894J0D01*
G01*
X151408106Y-72036500D01*
G75*
G02*
X151676000Y-72304394I0J-267894D01*
G01*
X151676000Y-73295606D01*
G75*
G02*
X151408106Y-73563500I-267894J0D01*
G01*
G37*
G36*
G01*
X143558106Y-70726000D02*
X142241894Y-70726000D01*
G75*
G02*
X141974000Y-70458106I0J267894D01*
G01*
X141974000Y-69466894D01*
G75*
G02*
X142241894Y-69199000I267894J0D01*
G01*
X143558106Y-69199000D01*
G75*
G02*
X143826000Y-69466894I0J-267894D01*
G01*
X143826000Y-70458106D01*
G75*
G02*
X143558106Y-70726000I-267894J0D01*
G01*
G37*
G36*
G01*
X143558106Y-73701000D02*
X142241894Y-73701000D01*
G75*
G02*
X141974000Y-73433106I0J267894D01*
G01*
X141974000Y-72441894D01*
G75*
G02*
X142241894Y-72174000I267894J0D01*
G01*
X143558106Y-72174000D01*
G75*
G02*
X143826000Y-72441894I0J-267894D01*
G01*
X143826000Y-73433106D01*
G75*
G02*
X143558106Y-73701000I-267894J0D01*
G01*
G37*
G36*
G01*
X140708106Y-96976000D02*
X139391894Y-96976000D01*
G75*
G02*
X139124000Y-96708106I0J267894D01*
G01*
X139124000Y-95716894D01*
G75*
G02*
X139391894Y-95449000I267894J0D01*
G01*
X140708106Y-95449000D01*
G75*
G02*
X140976000Y-95716894I0J-267894D01*
G01*
X140976000Y-96708106D01*
G75*
G02*
X140708106Y-96976000I-267894J0D01*
G01*
G37*
G36*
G01*
X140708106Y-99951000D02*
X139391894Y-99951000D01*
G75*
G02*
X139124000Y-99683106I0J267894D01*
G01*
X139124000Y-98691894D01*
G75*
G02*
X139391894Y-98424000I267894J0D01*
G01*
X140708106Y-98424000D01*
G75*
G02*
X140976000Y-98691894I0J-267894D01*
G01*
X140976000Y-99683106D01*
G75*
G02*
X140708106Y-99951000I-267894J0D01*
G01*
G37*
G36*
G01*
X144658106Y-96976000D02*
X143341894Y-96976000D01*
G75*
G02*
X143074000Y-96708106I0J267894D01*
G01*
X143074000Y-95716894D01*
G75*
G02*
X143341894Y-95449000I267894J0D01*
G01*
X144658106Y-95449000D01*
G75*
G02*
X144926000Y-95716894I0J-267894D01*
G01*
X144926000Y-96708106D01*
G75*
G02*
X144658106Y-96976000I-267894J0D01*
G01*
G37*
G36*
G01*
X144658106Y-99951000D02*
X143341894Y-99951000D01*
G75*
G02*
X143074000Y-99683106I0J267894D01*
G01*
X143074000Y-98691894D01*
G75*
G02*
X143341894Y-98424000I267894J0D01*
G01*
X144658106Y-98424000D01*
G75*
G02*
X144926000Y-98691894I0J-267894D01*
G01*
X144926000Y-99683106D01*
G75*
G02*
X144658106Y-99951000I-267894J0D01*
G01*
G37*
D19*
X171475400Y-104317800D02*
X168275000Y-104317800D01*
X168275000Y-101168200D01*
X171475400Y-101168200D01*
X171475400Y-104317800D01*
D20*
G36*
X171475400Y-104317800D02*
G01*
X168275000Y-104317800D01*
X168275000Y-101168200D01*
X171475400Y-101168200D01*
X171475400Y-104317800D01*
G37*
D19*
X170103800Y-75565000D02*
X166903400Y-75565000D01*
X166903400Y-72415400D01*
X170103800Y-72415400D01*
X170103800Y-75565000D01*
D20*
G36*
X170103800Y-75565000D02*
G01*
X166903400Y-75565000D01*
X166903400Y-72415400D01*
X170103800Y-72415400D01*
X170103800Y-75565000D01*
G37*
G36*
X160076067Y-105479209D02*
G01*
X160083343Y-105483098D01*
X160191023Y-105515762D01*
X160303094Y-105526800D01*
X160752906Y-105526800D01*
X160864977Y-105515762D01*
X160972657Y-105483098D01*
X160979933Y-105479209D01*
X160981932Y-105479275D01*
X160982875Y-105481038D01*
X160981987Y-105482636D01*
X160966882Y-105492729D01*
X160949835Y-105509776D01*
X160936440Y-105529824D01*
X160927214Y-105552098D01*
X160922510Y-105575748D01*
X160922510Y-105599854D01*
X160927215Y-105623504D01*
X160936441Y-105645778D01*
X160949836Y-105665825D01*
X160966883Y-105682872D01*
X160981987Y-105692964D01*
X160982872Y-105694758D01*
X160981761Y-105696421D01*
X160979933Y-105696391D01*
X160972657Y-105692502D01*
X160864977Y-105659838D01*
X160752906Y-105648800D01*
X160303094Y-105648800D01*
X160191023Y-105659838D01*
X160083343Y-105692502D01*
X160076067Y-105696391D01*
X160074068Y-105696325D01*
X160073125Y-105694562D01*
X160074013Y-105692964D01*
X160089118Y-105682871D01*
X160106165Y-105665824D01*
X160119560Y-105645776D01*
X160128786Y-105623502D01*
X160133490Y-105599852D01*
X160133490Y-105575746D01*
X160128785Y-105552096D01*
X160119559Y-105529822D01*
X160106164Y-105509775D01*
X160089117Y-105492728D01*
X160074013Y-105482636D01*
X160073128Y-105480842D01*
X160074239Y-105479179D01*
X160076067Y-105479209D01*
G37*
G36*
X161161072Y-104257800D02*
G01*
X161161072Y-104259800D01*
X161159536Y-104260790D01*
X161135349Y-104263172D01*
X161112274Y-104270172D01*
X161091010Y-104281537D01*
X161072373Y-104296832D01*
X161057078Y-104315469D01*
X161045713Y-104336733D01*
X161038713Y-104359808D01*
X161036350Y-104383799D01*
X161038713Y-104407790D01*
X161045713Y-104430865D01*
X161057078Y-104452129D01*
X161072405Y-104470805D01*
X161073877Y-104472139D01*
X161074489Y-104474043D01*
X161073146Y-104475525D01*
X161071591Y-104475385D01*
X160972657Y-104422502D01*
X160864977Y-104389838D01*
X160752906Y-104378800D01*
X160303094Y-104378800D01*
X160191023Y-104389838D01*
X160083343Y-104422502D01*
X159984108Y-104475545D01*
X159981568Y-104477630D01*
X159979594Y-104477956D01*
X159978326Y-104476410D01*
X159978885Y-104474670D01*
X159991731Y-104461824D01*
X160005126Y-104441776D01*
X160014353Y-104419503D01*
X160019057Y-104395852D01*
X160019057Y-104371746D01*
X160014353Y-104348096D01*
X160005126Y-104325822D01*
X159991732Y-104305775D01*
X159974685Y-104288728D01*
X159954637Y-104275333D01*
X159932364Y-104266106D01*
X159908667Y-104261393D01*
X159896562Y-104260798D01*
X159894881Y-104259714D01*
X159894979Y-104257716D01*
X159896660Y-104256800D01*
X161159340Y-104256800D01*
X161161072Y-104257800D01*
G37*
M02*
