M48
; DRILL file {KiCad 5.1.10-88a1d61d58~90~ubuntu20.04.1} date Sun Sep 12 22:34:11 2021
; FORMAT={-:-/ absolute / inch / decimal}
; #@! TF.CreationDate,2021-09-12T22:34:11-04:00
; #@! TF.GenerationSoftware,Kicad,Pcbnew,5.1.10-88a1d61d58~90~ubuntu20.04.1
; #@! TF.FileFunction,Plated,1,4,PTH
FMAT,2
INCH
T1C0.0157
T2C0.0295
T3C0.0350
T4C0.0354
T5C0.0362
T6C0.0394
T7C0.0429
T8C0.0630
T9C0.0835
T10C0.0906
T11C0.1339
%
G90
G05
T1
X3.456Y-4.256
X3.464Y-4.026
X3.566Y-4.184
X3.566Y-4.332
X3.568Y-4.094
X3.664Y-4.026
X3.67Y-4.256
X3.684Y-4.694
X3.698Y-4.624
X3.753Y-3.229
X3.768Y-3.352
X3.803Y-4.115
X3.812Y-4.674
X3.82Y-4.438
X3.854Y-2.514
X3.86Y-3.512
X3.9251Y-4.0409
X3.96Y-2.58
X3.964Y-3.8688
X4.0057Y-3.86
X4.052Y-3.8572
X4.098Y-3.9472
X4.1Y-3.362
X4.149Y-3.9472
X4.158Y-2.814
X4.168Y-2.516
X4.199Y-3.9472
X4.247Y-3.9472
X4.268Y-3.412
X4.274Y-3.512
X4.304Y-4.866
X4.313Y-4.559
X4.318Y-2.49
X4.318Y-2.53
X4.35Y-3.866
X4.374Y-2.49
X4.374Y-2.532
X4.374Y-3.242
X4.378Y-3.81
X4.381Y-4.084
X4.3884Y-4.4966
X4.408Y-3.866
X4.445Y-4.68
X4.457Y-4.616
X4.458Y-4.868
X4.479Y-4.261
X4.48Y-4.328
X4.518Y-4.624
X4.528Y-3.314
X4.533Y-4.203
X4.568Y-3.24
X4.61Y-4.51
X4.649Y-4.202
X4.658Y-3.626
X4.66Y-3.323
X4.661Y-3.463
X4.662Y-2.752
X4.67Y-3.724
X4.678Y-3.67
X4.705Y-4.358
X4.708Y-4.24
X4.72Y-2.91
X4.739Y-4.456
X4.766Y-2.746
X4.774Y-2.902
X4.776Y-4.663
X4.81Y-4.092
X4.824Y-3.248
X4.824Y-3.556
X4.828Y-3.392
X4.864Y-4.033
X4.8828Y-4.558
X4.889Y-4.417
X4.925Y-3.078
X4.9281Y-3.5226
X4.966Y-3.512
X5.012Y-4.744
X5.027Y-4.369
X5.0275Y-4.0945
X5.052Y-2.7763
X5.052Y-2.8177
X5.086Y-3.834
X5.1Y-3.304
X5.1Y-3.456
X5.1Y-3.606
X5.1Y-4.422
X5.16Y-2.9
X5.164Y-3.894
X5.1788Y-4.2512
X5.182Y-2.734
X5.182Y-4.168
X5.256Y-3.022
X5.264Y-4.152
X5.32Y-4.0112
X5.333Y-3.308
X5.334Y-3.458
X5.342Y-3.602
X5.3703Y-4.0133
X5.38Y-2.958
X5.3914Y-2.6874
X5.416Y-4.138
X5.43Y-3.02
X5.437Y-3.912
X5.4511Y-4.024
X5.456Y-2.705
X5.474Y-4.134
X5.5Y-2.812
X5.514Y-3.741
X5.52Y-4.1572
X5.532Y-3.972
X5.532Y-4.02
X5.575Y-2.757
X5.582Y-4.018
X5.588Y-3.966
X5.594Y-4.138
X5.626Y-4.03
X5.642Y-2.658
X5.644Y-2.592
X5.654Y-4.7247
X5.659Y-3.541
X5.661Y-3.246
X5.661Y-3.389
X5.669Y-3.738
X5.672Y-3.134
X5.706Y-2.566
X5.736Y-3.14
X5.736Y-3.915
X5.754Y-2.546
X5.757Y-2.802
X5.7672Y-4.0335
X5.798Y-3.03
X5.8Y-3.967
X5.808Y-3.736
X5.816Y-3.134
X5.838Y-3.03
X5.85Y-2.556
X5.858Y-2.752
X5.862Y-3.138
X5.902Y-4.338
X5.92Y-3.454
X5.922Y-4.392
X5.926Y-3.136
X5.944Y-3.246
X5.944Y-3.388
X5.944Y-3.526
X5.97Y-3.08
X5.97Y-3.7
X5.97Y-3.984
X5.984Y-4.312
X5.984Y-4.352
X5.988Y-2.751
X6.006Y-4.506
X6.03Y-2.5648
X6.046Y-4.38
X6.064Y-4.32
X6.084Y-2.984
X6.084Y-3.127
X6.084Y-3.338
X6.086Y-3.181
X6.0907Y-3.504
X6.0986Y-3.6714
X6.116Y-3.708
X6.124Y-2.718
X6.2078Y-3.4482
X6.228Y-2.6299
X6.2977Y-2.6299
X6.309Y-3.48
X6.311Y-3.147
X6.316Y-4.538
X6.322Y-2.992
X6.332Y-2.654
X6.338Y-3.532
X6.3557Y-3.0129
X6.366Y-2.634
X6.384Y-3.0899
X6.412Y-2.754
X6.414Y-2.8959
X6.42Y-3.116
X6.434Y-2.51
X6.4535Y-2.6315
X6.4592Y-2.7888
X6.466Y-3.374
X6.468Y-2.722
X6.468Y-3.146
X6.472Y-3.4447
X6.48Y-4.086
X6.482Y-3.256
X6.496Y-2.864
X6.502Y-2.522
X6.508Y-4.402
X6.52Y-3.862
X6.522Y-3.93
X6.53Y-4.056
X6.538Y-3.2
X6.55Y-3.976
X6.552Y-4.016
X6.564Y-3.048
X6.574Y-4.302
X6.586Y-2.959
X6.586Y-3.9464
X6.588Y-2.867
X6.598Y-2.712
X6.602Y-2.756
X6.614Y-3.706
X6.618Y-4.188
X6.6219Y-3.1091
X6.634Y-2.912
X6.64Y-4.092
X6.642Y-4.0
X6.644Y-2.644
X6.648Y-3.82
X6.6511Y-3.0799
X6.658Y-3.862
X6.6646Y-4.2528
X6.678Y-3.45
X6.68Y-2.865
X6.68Y-2.959
X6.6876Y-2.6913
X6.688Y-4.045
X6.6959Y-3.7261
X6.7059Y-4.2528
X6.734Y-3.998
X6.734Y-4.092
X6.7353Y-4.204
X6.742Y-3.1007
X6.748Y-3.868
X6.752Y-2.804
X6.754Y-4.4503
X6.754Y-4.4873
X6.7767Y-4.204
X6.778Y-3.0807
X6.7855Y-3.9464
X6.788Y-2.8881
X6.796Y-3.624
X6.8194Y-3.6737
X6.8259Y-2.6511
X6.832Y-2.69
X6.8345Y-2.7445
X6.846Y-3.938
X6.846Y-4.022
X6.854Y-3.696
X6.89Y-3.826
X6.908Y-3.898
X6.9161Y-3.4623
X6.958Y-3.9674
X6.97Y-2.986
X6.974Y-2.938
X6.982Y-2.716
X6.982Y-3.394
X6.982Y-3.53
X6.984Y-2.618
X6.984Y-2.884
X6.988Y-2.828
X7.011Y-3.935
X7.0117Y-3.6457
X7.024Y-3.0604
X7.048Y-3.86
X7.058Y-3.342
X7.0632Y-4.1812
X7.066Y-4.142
X7.084Y-3.962
X7.0936Y-3.814
X7.102Y-3.556
X7.106Y-2.738
X7.138Y-3.174
X7.158Y-2.606
X7.158Y-2.886
X7.22Y-3.852
X7.232Y-3.342
X7.254Y-4.31
X7.2816Y-4.6596
X7.296Y-3.172
X7.362Y-4.824
X7.41Y-3.222
T2
X6.32Y-4.082
X6.32Y-4.132
X6.32Y-4.182
T3
X7.8247Y-3.414
X7.8247Y-3.812
X7.8257Y-2.5064
X7.8257Y-2.9044
X7.8845Y-3.514
X7.8845Y-3.912
X7.8856Y-2.6064
X7.8856Y-3.0044
T4
X7.342Y-3.488
X7.342Y-3.588
X7.342Y-3.688
X7.342Y-3.788
X7.343Y-2.5804
X7.343Y-2.6804
X7.343Y-2.7804
X7.343Y-2.8804
X7.442Y-3.538
X7.442Y-3.638
X7.442Y-3.738
X7.442Y-3.838
X7.443Y-2.6304
X7.443Y-2.7304
X7.443Y-2.8304
X7.443Y-2.9304
T5
X7.5848Y-4.3283
X7.5848Y-4.4267
X7.5848Y-4.5054
X7.5848Y-4.6039
X7.6879Y-4.3283
X7.6879Y-4.4267
X7.6879Y-4.5054
X7.6879Y-4.6039
T6
X3.58Y-2.584
X3.58Y-2.684
X3.58Y-2.784
X3.58Y-2.884
X3.58Y-2.984
X3.58Y-3.084
X3.588Y-3.482
X3.588Y-3.582
X3.588Y-3.682
X3.588Y-3.782
X3.688Y-3.482
X3.688Y-3.582
X3.688Y-3.682
X3.688Y-3.782
X4.28Y-3.0
X4.38Y-3.0
X4.48Y-3.0
X4.482Y-2.532
X4.482Y-2.632
X4.58Y-3.0
X4.582Y-2.532
X4.582Y-2.632
X4.682Y-2.532
X4.682Y-2.632
X4.782Y-2.532
X4.782Y-2.632
X5.016Y-2.528
X5.016Y-2.628
X5.116Y-2.528
X5.116Y-2.628
X5.216Y-2.528
X5.216Y-2.628
X5.316Y-2.528
X5.316Y-2.628
X6.148Y-4.702
X6.248Y-4.702
X6.348Y-4.702
X6.448Y-4.702
X6.548Y-4.702
X6.648Y-4.702
X6.748Y-4.702
X6.848Y-4.702
X6.948Y-4.702
X7.048Y-4.702
T7
X5.4236Y-4.9056
T8
X7.5715Y-3.3569
X7.5715Y-3.9691
X7.5726Y-2.4493
X7.5726Y-3.0615
T9
X5.824Y-4.754
T10
X7.571Y-4.2074
X7.571Y-4.7247
X7.7946Y-4.2074
X7.7946Y-4.7247
T11
X3.544Y-4.728
X3.76Y-2.674
X8.036Y-4.844
X8.052Y-2.474
T0
M30
