G04 #@! TF.GenerationSoftware,KiCad,Pcbnew,5.1.10-88a1d61d58~90~ubuntu20.04.1*
G04 #@! TF.CreationDate,2021-09-12T22:34:26-04:00*
G04 #@! TF.ProjectId,UnwaryNuc,556e7761-7279-44e7-9563-2e6b69636164,rev?*
G04 #@! TF.SameCoordinates,Original*
G04 #@! TF.FileFunction,Paste,Top*
G04 #@! TF.FilePolarity,Positive*
%FSLAX46Y46*%
G04 Gerber Fmt 4.6, Leading zero omitted, Abs format (unit mm)*
G04 Created by KiCad (PCBNEW 5.1.10-88a1d61d58~90~ubuntu20.04.1) date 2021-09-12 22:34:26*
%MOMM*%
%LPD*%
G01*
G04 APERTURE LIST*
%ADD10C,0.152400*%
%ADD11R,1.473200X0.533400*%
%ADD12R,1.500000X1.500000*%
%ADD13R,0.600000X0.700000*%
%ADD14R,0.700000X0.600000*%
%ADD15R,3.800000X2.000000*%
%ADD16R,1.175000X1.900000*%
%ADD17R,2.375000X1.900000*%
%ADD18R,1.475000X2.100000*%
%ADD19R,0.450000X1.380000*%
%ADD20R,0.650000X1.060000*%
%ADD21R,1.060000X0.650000*%
%ADD22R,0.400000X0.650000*%
%ADD23R,2.400000X3.500000*%
%ADD24R,1.000000X1.800000*%
%ADD25R,0.650000X2.000000*%
%ADD26R,3.403600X3.403600*%
%ADD27R,0.254000X0.812800*%
%ADD28R,0.812800X0.254000*%
%ADD29R,0.228600X1.384300*%
%ADD30R,1.384300X0.228600*%
%ADD31R,7.300000X2.650000*%
%ADD32R,3.500000X2.300000*%
G04 APERTURE END LIST*
D10*
X166901800Y-73864800D02*
X168403600Y-73864800D01*
X166901800Y-72363000D02*
X166901800Y-73864800D01*
X168403600Y-72363000D02*
X166901800Y-72363000D01*
X168403600Y-73864800D02*
X168403600Y-72363000D01*
X166901800Y-75566600D02*
X168403600Y-75566600D01*
X166901800Y-74064800D02*
X166901800Y-75566600D01*
X168403600Y-74064800D02*
X166901800Y-74064800D01*
X168403600Y-75566600D02*
X168403600Y-74064800D01*
X168603600Y-73864800D02*
X170105400Y-73864800D01*
X168603600Y-72363000D02*
X168603600Y-73864800D01*
X170105400Y-72363000D02*
X168603600Y-72363000D01*
X170105400Y-73864800D02*
X170105400Y-72363000D01*
X168603600Y-75566600D02*
X170105400Y-75566600D01*
X168603600Y-74064800D02*
X168603600Y-75566600D01*
X170105400Y-74064800D02*
X168603600Y-74064800D01*
X170105400Y-75566600D02*
X170105400Y-74064800D01*
X168273400Y-102643000D02*
X169775200Y-102643000D01*
X168273400Y-101141200D02*
X168273400Y-102643000D01*
X169775200Y-101141200D02*
X168273400Y-101141200D01*
X169775200Y-102643000D02*
X169775200Y-101141200D01*
X168273400Y-104344800D02*
X169775200Y-104344800D01*
X168273400Y-102843000D02*
X168273400Y-104344800D01*
X169775200Y-102843000D02*
X168273400Y-102843000D01*
X169775200Y-104344800D02*
X169775200Y-102843000D01*
X169975200Y-102643000D02*
X171477000Y-102643000D01*
X169975200Y-101141200D02*
X169975200Y-102643000D01*
X171477000Y-101141200D02*
X169975200Y-101141200D01*
X171477000Y-102643000D02*
X171477000Y-101141200D01*
X169975200Y-104344800D02*
X171477000Y-104344800D01*
X169975200Y-102843000D02*
X169975200Y-104344800D01*
X171477000Y-102843000D02*
X169975200Y-102843000D01*
X171477000Y-104344800D02*
X171477000Y-102843000D01*
G36*
G01*
X111169000Y-74100700D02*
X111169000Y-73625700D01*
G75*
G02*
X111406500Y-73388200I237500J0D01*
G01*
X111906500Y-73388200D01*
G75*
G02*
X112144000Y-73625700I0J-237500D01*
G01*
X112144000Y-74100700D01*
G75*
G02*
X111906500Y-74338200I-237500J0D01*
G01*
X111406500Y-74338200D01*
G75*
G02*
X111169000Y-74100700I0J237500D01*
G01*
G37*
G36*
G01*
X109344000Y-74100700D02*
X109344000Y-73625700D01*
G75*
G02*
X109581500Y-73388200I237500J0D01*
G01*
X110081500Y-73388200D01*
G75*
G02*
X110319000Y-73625700I0J-237500D01*
G01*
X110319000Y-74100700D01*
G75*
G02*
X110081500Y-74338200I-237500J0D01*
G01*
X109581500Y-74338200D01*
G75*
G02*
X109344000Y-74100700I0J237500D01*
G01*
G37*
G36*
G01*
X115080600Y-73999100D02*
X115080600Y-73524100D01*
G75*
G02*
X115318100Y-73286600I237500J0D01*
G01*
X115818100Y-73286600D01*
G75*
G02*
X116055600Y-73524100I0J-237500D01*
G01*
X116055600Y-73999100D01*
G75*
G02*
X115818100Y-74236600I-237500J0D01*
G01*
X115318100Y-74236600D01*
G75*
G02*
X115080600Y-73999100I0J237500D01*
G01*
G37*
G36*
G01*
X113255600Y-73999100D02*
X113255600Y-73524100D01*
G75*
G02*
X113493100Y-73286600I237500J0D01*
G01*
X113993100Y-73286600D01*
G75*
G02*
X114230600Y-73524100I0J-237500D01*
G01*
X114230600Y-73999100D01*
G75*
G02*
X113993100Y-74236600I-237500J0D01*
G01*
X113493100Y-74236600D01*
G75*
G02*
X113255600Y-73999100I0J237500D01*
G01*
G37*
G36*
G01*
X129373200Y-70093601D02*
X129373200Y-68793599D01*
G75*
G02*
X129623199Y-68543600I249999J0D01*
G01*
X130448201Y-68543600D01*
G75*
G02*
X130698200Y-68793599I0J-249999D01*
G01*
X130698200Y-70093601D01*
G75*
G02*
X130448201Y-70343600I-249999J0D01*
G01*
X129623199Y-70343600D01*
G75*
G02*
X129373200Y-70093601I0J249999D01*
G01*
G37*
G36*
G01*
X126248200Y-70093601D02*
X126248200Y-68793599D01*
G75*
G02*
X126498199Y-68543600I249999J0D01*
G01*
X127323201Y-68543600D01*
G75*
G02*
X127573200Y-68793599I0J-249999D01*
G01*
X127573200Y-70093601D01*
G75*
G02*
X127323201Y-70343600I-249999J0D01*
G01*
X126498199Y-70343600D01*
G75*
G02*
X126248200Y-70093601I0J249999D01*
G01*
G37*
G36*
G01*
X116317600Y-70550801D02*
X116317600Y-69250799D01*
G75*
G02*
X116567599Y-69000800I249999J0D01*
G01*
X117392601Y-69000800D01*
G75*
G02*
X117642600Y-69250799I0J-249999D01*
G01*
X117642600Y-70550801D01*
G75*
G02*
X117392601Y-70800800I-249999J0D01*
G01*
X116567599Y-70800800D01*
G75*
G02*
X116317600Y-70550801I0J249999D01*
G01*
G37*
G36*
G01*
X113192600Y-70550801D02*
X113192600Y-69250799D01*
G75*
G02*
X113442599Y-69000800I249999J0D01*
G01*
X114267601Y-69000800D01*
G75*
G02*
X114517600Y-69250799I0J-249999D01*
G01*
X114517600Y-70550801D01*
G75*
G02*
X114267601Y-70800800I-249999J0D01*
G01*
X113442599Y-70800800D01*
G75*
G02*
X113192600Y-70550801I0J249999D01*
G01*
G37*
G36*
G01*
X162541400Y-72558900D02*
X162541400Y-73033900D01*
G75*
G02*
X162303900Y-73271400I-237500J0D01*
G01*
X161803900Y-73271400D01*
G75*
G02*
X161566400Y-73033900I0J237500D01*
G01*
X161566400Y-72558900D01*
G75*
G02*
X161803900Y-72321400I237500J0D01*
G01*
X162303900Y-72321400D01*
G75*
G02*
X162541400Y-72558900I0J-237500D01*
G01*
G37*
G36*
G01*
X164366400Y-72558900D02*
X164366400Y-73033900D01*
G75*
G02*
X164128900Y-73271400I-237500J0D01*
G01*
X163628900Y-73271400D01*
G75*
G02*
X163391400Y-73033900I0J237500D01*
G01*
X163391400Y-72558900D01*
G75*
G02*
X163628900Y-72321400I237500J0D01*
G01*
X164128900Y-72321400D01*
G75*
G02*
X164366400Y-72558900I0J-237500D01*
G01*
G37*
G36*
G01*
X94426801Y-82666000D02*
X93126799Y-82666000D01*
G75*
G02*
X92876800Y-82416001I0J249999D01*
G01*
X92876800Y-81590999D01*
G75*
G02*
X93126799Y-81341000I249999J0D01*
G01*
X94426801Y-81341000D01*
G75*
G02*
X94676800Y-81590999I0J-249999D01*
G01*
X94676800Y-82416001D01*
G75*
G02*
X94426801Y-82666000I-249999J0D01*
G01*
G37*
G36*
G01*
X94426801Y-85791000D02*
X93126799Y-85791000D01*
G75*
G02*
X92876800Y-85541001I0J249999D01*
G01*
X92876800Y-84715999D01*
G75*
G02*
X93126799Y-84466000I249999J0D01*
G01*
X94426801Y-84466000D01*
G75*
G02*
X94676800Y-84715999I0J-249999D01*
G01*
X94676800Y-85541001D01*
G75*
G02*
X94426801Y-85791000I-249999J0D01*
G01*
G37*
D11*
X99391000Y-85387800D03*
X99391000Y-86657800D03*
X99391000Y-87927800D03*
X99391000Y-89197800D03*
X106630000Y-89197800D03*
X106630000Y-87927800D03*
X106630000Y-86657800D03*
X106630000Y-85387800D03*
G36*
G01*
X109104000Y-82996801D02*
X109104000Y-81696799D01*
G75*
G02*
X109353999Y-81446800I249999J0D01*
G01*
X110179001Y-81446800D01*
G75*
G02*
X110429000Y-81696799I0J-249999D01*
G01*
X110429000Y-82996801D01*
G75*
G02*
X110179001Y-83246800I-249999J0D01*
G01*
X109353999Y-83246800D01*
G75*
G02*
X109104000Y-82996801I0J249999D01*
G01*
G37*
G36*
G01*
X105979000Y-82996801D02*
X105979000Y-81696799D01*
G75*
G02*
X106228999Y-81446800I249999J0D01*
G01*
X107054001Y-81446800D01*
G75*
G02*
X107304000Y-81696799I0J-249999D01*
G01*
X107304000Y-82996801D01*
G75*
G02*
X107054001Y-83246800I-249999J0D01*
G01*
X106228999Y-83246800D01*
G75*
G02*
X105979000Y-82996801I0J249999D01*
G01*
G37*
G36*
G01*
X168520100Y-69463800D02*
X168995100Y-69463800D01*
G75*
G02*
X169232600Y-69701300I0J-237500D01*
G01*
X169232600Y-70301300D01*
G75*
G02*
X168995100Y-70538800I-237500J0D01*
G01*
X168520100Y-70538800D01*
G75*
G02*
X168282600Y-70301300I0J237500D01*
G01*
X168282600Y-69701300D01*
G75*
G02*
X168520100Y-69463800I237500J0D01*
G01*
G37*
G36*
G01*
X168520100Y-67738800D02*
X168995100Y-67738800D01*
G75*
G02*
X169232600Y-67976300I0J-237500D01*
G01*
X169232600Y-68576300D01*
G75*
G02*
X168995100Y-68813800I-237500J0D01*
G01*
X168520100Y-68813800D01*
G75*
G02*
X168282600Y-68576300I0J237500D01*
G01*
X168282600Y-67976300D01*
G75*
G02*
X168520100Y-67738800I237500J0D01*
G01*
G37*
G36*
G01*
X120820601Y-114967600D02*
X119920599Y-114967600D01*
G75*
G02*
X119670600Y-114717601I0J249999D01*
G01*
X119670600Y-114067599D01*
G75*
G02*
X119920599Y-113817600I249999J0D01*
G01*
X120820601Y-113817600D01*
G75*
G02*
X121070600Y-114067599I0J-249999D01*
G01*
X121070600Y-114717601D01*
G75*
G02*
X120820601Y-114967600I-249999J0D01*
G01*
G37*
G36*
G01*
X120820601Y-117017600D02*
X119920599Y-117017600D01*
G75*
G02*
X119670600Y-116767601I0J249999D01*
G01*
X119670600Y-116117599D01*
G75*
G02*
X119920599Y-115867600I249999J0D01*
G01*
X120820601Y-115867600D01*
G75*
G02*
X121070600Y-116117599I0J-249999D01*
G01*
X121070600Y-116767601D01*
G75*
G02*
X120820601Y-117017600I-249999J0D01*
G01*
G37*
G36*
G01*
X125406999Y-119957000D02*
X126307001Y-119957000D01*
G75*
G02*
X126557000Y-120206999I0J-249999D01*
G01*
X126557000Y-120857001D01*
G75*
G02*
X126307001Y-121107000I-249999J0D01*
G01*
X125406999Y-121107000D01*
G75*
G02*
X125157000Y-120857001I0J249999D01*
G01*
X125157000Y-120206999D01*
G75*
G02*
X125406999Y-119957000I249999J0D01*
G01*
G37*
G36*
G01*
X125406999Y-117907000D02*
X126307001Y-117907000D01*
G75*
G02*
X126557000Y-118156999I0J-249999D01*
G01*
X126557000Y-118807001D01*
G75*
G02*
X126307001Y-119057000I-249999J0D01*
G01*
X125406999Y-119057000D01*
G75*
G02*
X125157000Y-118807001I0J249999D01*
G01*
X125157000Y-118156999D01*
G75*
G02*
X125406999Y-117907000I249999J0D01*
G01*
G37*
G36*
G01*
X180880200Y-91253300D02*
X180880200Y-91728300D01*
G75*
G02*
X180642700Y-91965800I-237500J0D01*
G01*
X180142700Y-91965800D01*
G75*
G02*
X179905200Y-91728300I0J237500D01*
G01*
X179905200Y-91253300D01*
G75*
G02*
X180142700Y-91015800I237500J0D01*
G01*
X180642700Y-91015800D01*
G75*
G02*
X180880200Y-91253300I0J-237500D01*
G01*
G37*
G36*
G01*
X182705200Y-91253300D02*
X182705200Y-91728300D01*
G75*
G02*
X182467700Y-91965800I-237500J0D01*
G01*
X181967700Y-91965800D01*
G75*
G02*
X181730200Y-91728300I0J237500D01*
G01*
X181730200Y-91253300D01*
G75*
G02*
X181967700Y-91015800I237500J0D01*
G01*
X182467700Y-91015800D01*
G75*
G02*
X182705200Y-91253300I0J-237500D01*
G01*
G37*
G36*
G01*
X182302600Y-67123300D02*
X182302600Y-67598300D01*
G75*
G02*
X182065100Y-67835800I-237500J0D01*
G01*
X181565100Y-67835800D01*
G75*
G02*
X181327600Y-67598300I0J237500D01*
G01*
X181327600Y-67123300D01*
G75*
G02*
X181565100Y-66885800I237500J0D01*
G01*
X182065100Y-66885800D01*
G75*
G02*
X182302600Y-67123300I0J-237500D01*
G01*
G37*
G36*
G01*
X184127600Y-67123300D02*
X184127600Y-67598300D01*
G75*
G02*
X183890100Y-67835800I-237500J0D01*
G01*
X183390100Y-67835800D01*
G75*
G02*
X183152600Y-67598300I0J237500D01*
G01*
X183152600Y-67123300D01*
G75*
G02*
X183390100Y-66885800I237500J0D01*
G01*
X183890100Y-66885800D01*
G75*
G02*
X184127600Y-67123300I0J-237500D01*
G01*
G37*
G36*
G01*
X180880200Y-92726500D02*
X180880200Y-93201500D01*
G75*
G02*
X180642700Y-93439000I-237500J0D01*
G01*
X180142700Y-93439000D01*
G75*
G02*
X179905200Y-93201500I0J237500D01*
G01*
X179905200Y-92726500D01*
G75*
G02*
X180142700Y-92489000I237500J0D01*
G01*
X180642700Y-92489000D01*
G75*
G02*
X180880200Y-92726500I0J-237500D01*
G01*
G37*
G36*
G01*
X182705200Y-92726500D02*
X182705200Y-93201500D01*
G75*
G02*
X182467700Y-93439000I-237500J0D01*
G01*
X181967700Y-93439000D01*
G75*
G02*
X181730200Y-93201500I0J237500D01*
G01*
X181730200Y-92726500D01*
G75*
G02*
X181967700Y-92489000I237500J0D01*
G01*
X182467700Y-92489000D01*
G75*
G02*
X182705200Y-92726500I0J-237500D01*
G01*
G37*
G36*
G01*
X182302600Y-70340632D02*
X182302600Y-70815632D01*
G75*
G02*
X182065100Y-71053132I-237500J0D01*
G01*
X181565100Y-71053132D01*
G75*
G02*
X181327600Y-70815632I0J237500D01*
G01*
X181327600Y-70340632D01*
G75*
G02*
X181565100Y-70103132I237500J0D01*
G01*
X182065100Y-70103132D01*
G75*
G02*
X182302600Y-70340632I0J-237500D01*
G01*
G37*
G36*
G01*
X184127600Y-70340632D02*
X184127600Y-70815632D01*
G75*
G02*
X183890100Y-71053132I-237500J0D01*
G01*
X183390100Y-71053132D01*
G75*
G02*
X183152600Y-70815632I0J237500D01*
G01*
X183152600Y-70340632D01*
G75*
G02*
X183390100Y-70103132I237500J0D01*
G01*
X183890100Y-70103132D01*
G75*
G02*
X184127600Y-70340632I0J-237500D01*
G01*
G37*
G36*
G01*
X180880200Y-94148900D02*
X180880200Y-94623900D01*
G75*
G02*
X180642700Y-94861400I-237500J0D01*
G01*
X180142700Y-94861400D01*
G75*
G02*
X179905200Y-94623900I0J237500D01*
G01*
X179905200Y-94148900D01*
G75*
G02*
X180142700Y-93911400I237500J0D01*
G01*
X180642700Y-93911400D01*
G75*
G02*
X180880200Y-94148900I0J-237500D01*
G01*
G37*
G36*
G01*
X182705200Y-94148900D02*
X182705200Y-94623900D01*
G75*
G02*
X182467700Y-94861400I-237500J0D01*
G01*
X181967700Y-94861400D01*
G75*
G02*
X181730200Y-94623900I0J237500D01*
G01*
X181730200Y-94148900D01*
G75*
G02*
X181967700Y-93911400I237500J0D01*
G01*
X182467700Y-93911400D01*
G75*
G02*
X182705200Y-94148900I0J-237500D01*
G01*
G37*
G36*
G01*
X182302600Y-68731966D02*
X182302600Y-69206966D01*
G75*
G02*
X182065100Y-69444466I-237500J0D01*
G01*
X181565100Y-69444466D01*
G75*
G02*
X181327600Y-69206966I0J237500D01*
G01*
X181327600Y-68731966D01*
G75*
G02*
X181565100Y-68494466I237500J0D01*
G01*
X182065100Y-68494466D01*
G75*
G02*
X182302600Y-68731966I0J-237500D01*
G01*
G37*
G36*
G01*
X184127600Y-68731966D02*
X184127600Y-69206966D01*
G75*
G02*
X183890100Y-69444466I-237500J0D01*
G01*
X183390100Y-69444466D01*
G75*
G02*
X183152600Y-69206966I0J237500D01*
G01*
X183152600Y-68731966D01*
G75*
G02*
X183390100Y-68494466I237500J0D01*
G01*
X183890100Y-68494466D01*
G75*
G02*
X184127600Y-68731966I0J-237500D01*
G01*
G37*
G36*
G01*
X180880200Y-95520500D02*
X180880200Y-95995500D01*
G75*
G02*
X180642700Y-96233000I-237500J0D01*
G01*
X180142700Y-96233000D01*
G75*
G02*
X179905200Y-95995500I0J237500D01*
G01*
X179905200Y-95520500D01*
G75*
G02*
X180142700Y-95283000I237500J0D01*
G01*
X180642700Y-95283000D01*
G75*
G02*
X180880200Y-95520500I0J-237500D01*
G01*
G37*
G36*
G01*
X182705200Y-95520500D02*
X182705200Y-95995500D01*
G75*
G02*
X182467700Y-96233000I-237500J0D01*
G01*
X181967700Y-96233000D01*
G75*
G02*
X181730200Y-95995500I0J237500D01*
G01*
X181730200Y-95520500D01*
G75*
G02*
X181967700Y-95283000I237500J0D01*
G01*
X182467700Y-95283000D01*
G75*
G02*
X182705200Y-95520500I0J-237500D01*
G01*
G37*
G36*
G01*
X182302600Y-71949300D02*
X182302600Y-72424300D01*
G75*
G02*
X182065100Y-72661800I-237500J0D01*
G01*
X181565100Y-72661800D01*
G75*
G02*
X181327600Y-72424300I0J237500D01*
G01*
X181327600Y-71949300D01*
G75*
G02*
X181565100Y-71711800I237500J0D01*
G01*
X182065100Y-71711800D01*
G75*
G02*
X182302600Y-71949300I0J-237500D01*
G01*
G37*
G36*
G01*
X184127600Y-71949300D02*
X184127600Y-72424300D01*
G75*
G02*
X183890100Y-72661800I-237500J0D01*
G01*
X183390100Y-72661800D01*
G75*
G02*
X183152600Y-72424300I0J237500D01*
G01*
X183152600Y-71949300D01*
G75*
G02*
X183390100Y-71711800I237500J0D01*
G01*
X183890100Y-71711800D01*
G75*
G02*
X184127600Y-71949300I0J-237500D01*
G01*
G37*
G36*
G01*
X176040600Y-106968300D02*
X176040600Y-106493300D01*
G75*
G02*
X176278100Y-106255800I237500J0D01*
G01*
X176778100Y-106255800D01*
G75*
G02*
X177015600Y-106493300I0J-237500D01*
G01*
X177015600Y-106968300D01*
G75*
G02*
X176778100Y-107205800I-237500J0D01*
G01*
X176278100Y-107205800D01*
G75*
G02*
X176040600Y-106968300I0J237500D01*
G01*
G37*
G36*
G01*
X174215600Y-106968300D02*
X174215600Y-106493300D01*
G75*
G02*
X174453100Y-106255800I237500J0D01*
G01*
X174953100Y-106255800D01*
G75*
G02*
X175190600Y-106493300I0J-237500D01*
G01*
X175190600Y-106968300D01*
G75*
G02*
X174953100Y-107205800I-237500J0D01*
G01*
X174453100Y-107205800D01*
G75*
G02*
X174215600Y-106968300I0J237500D01*
G01*
G37*
G36*
G01*
X175481800Y-78469500D02*
X175481800Y-77994500D01*
G75*
G02*
X175719300Y-77757000I237500J0D01*
G01*
X176219300Y-77757000D01*
G75*
G02*
X176456800Y-77994500I0J-237500D01*
G01*
X176456800Y-78469500D01*
G75*
G02*
X176219300Y-78707000I-237500J0D01*
G01*
X175719300Y-78707000D01*
G75*
G02*
X175481800Y-78469500I0J237500D01*
G01*
G37*
G36*
G01*
X173656800Y-78469500D02*
X173656800Y-77994500D01*
G75*
G02*
X173894300Y-77757000I237500J0D01*
G01*
X174394300Y-77757000D01*
G75*
G02*
X174631800Y-77994500I0J-237500D01*
G01*
X174631800Y-78469500D01*
G75*
G02*
X174394300Y-78707000I-237500J0D01*
G01*
X173894300Y-78707000D01*
G75*
G02*
X173656800Y-78469500I0J237500D01*
G01*
G37*
G36*
G01*
X177818600Y-103717100D02*
X177818600Y-103242100D01*
G75*
G02*
X178056100Y-103004600I237500J0D01*
G01*
X178556100Y-103004600D01*
G75*
G02*
X178793600Y-103242100I0J-237500D01*
G01*
X178793600Y-103717100D01*
G75*
G02*
X178556100Y-103954600I-237500J0D01*
G01*
X178056100Y-103954600D01*
G75*
G02*
X177818600Y-103717100I0J237500D01*
G01*
G37*
G36*
G01*
X175993600Y-103717100D02*
X175993600Y-103242100D01*
G75*
G02*
X176231100Y-103004600I237500J0D01*
G01*
X176731100Y-103004600D01*
G75*
G02*
X176968600Y-103242100I0J-237500D01*
G01*
X176968600Y-103717100D01*
G75*
G02*
X176731100Y-103954600I-237500J0D01*
G01*
X176231100Y-103954600D01*
G75*
G02*
X175993600Y-103717100I0J237500D01*
G01*
G37*
G36*
G01*
X175481800Y-74659500D02*
X175481800Y-74184500D01*
G75*
G02*
X175719300Y-73947000I237500J0D01*
G01*
X176219300Y-73947000D01*
G75*
G02*
X176456800Y-74184500I0J-237500D01*
G01*
X176456800Y-74659500D01*
G75*
G02*
X176219300Y-74897000I-237500J0D01*
G01*
X175719300Y-74897000D01*
G75*
G02*
X175481800Y-74659500I0J237500D01*
G01*
G37*
G36*
G01*
X173656800Y-74659500D02*
X173656800Y-74184500D01*
G75*
G02*
X173894300Y-73947000I237500J0D01*
G01*
X174394300Y-73947000D01*
G75*
G02*
X174631800Y-74184500I0J-237500D01*
G01*
X174631800Y-74659500D01*
G75*
G02*
X174394300Y-74897000I-237500J0D01*
G01*
X173894300Y-74897000D01*
G75*
G02*
X173656800Y-74659500I0J237500D01*
G01*
G37*
G36*
G01*
X165896300Y-68815400D02*
X165421300Y-68815400D01*
G75*
G02*
X165183800Y-68577900I0J237500D01*
G01*
X165183800Y-68077900D01*
G75*
G02*
X165421300Y-67840400I237500J0D01*
G01*
X165896300Y-67840400D01*
G75*
G02*
X166133800Y-68077900I0J-237500D01*
G01*
X166133800Y-68577900D01*
G75*
G02*
X165896300Y-68815400I-237500J0D01*
G01*
G37*
G36*
G01*
X165896300Y-70640400D02*
X165421300Y-70640400D01*
G75*
G02*
X165183800Y-70402900I0J237500D01*
G01*
X165183800Y-69902900D01*
G75*
G02*
X165421300Y-69665400I237500J0D01*
G01*
X165896300Y-69665400D01*
G75*
G02*
X166133800Y-69902900I0J-237500D01*
G01*
X166133800Y-70402900D01*
G75*
G02*
X165896300Y-70640400I-237500J0D01*
G01*
G37*
G36*
G01*
X159098800Y-81339700D02*
X159098800Y-80864700D01*
G75*
G02*
X159336300Y-80627200I237500J0D01*
G01*
X159836300Y-80627200D01*
G75*
G02*
X160073800Y-80864700I0J-237500D01*
G01*
X160073800Y-81339700D01*
G75*
G02*
X159836300Y-81577200I-237500J0D01*
G01*
X159336300Y-81577200D01*
G75*
G02*
X159098800Y-81339700I0J237500D01*
G01*
G37*
G36*
G01*
X157273800Y-81339700D02*
X157273800Y-80864700D01*
G75*
G02*
X157511300Y-80627200I237500J0D01*
G01*
X158011300Y-80627200D01*
G75*
G02*
X158248800Y-80864700I0J-237500D01*
G01*
X158248800Y-81339700D01*
G75*
G02*
X158011300Y-81577200I-237500J0D01*
G01*
X157511300Y-81577200D01*
G75*
G02*
X157273800Y-81339700I0J237500D01*
G01*
G37*
G36*
G01*
X159098800Y-82880633D02*
X159098800Y-82405633D01*
G75*
G02*
X159336300Y-82168133I237500J0D01*
G01*
X159836300Y-82168133D01*
G75*
G02*
X160073800Y-82405633I0J-237500D01*
G01*
X160073800Y-82880633D01*
G75*
G02*
X159836300Y-83118133I-237500J0D01*
G01*
X159336300Y-83118133D01*
G75*
G02*
X159098800Y-82880633I0J237500D01*
G01*
G37*
G36*
G01*
X157273800Y-82880633D02*
X157273800Y-82405633D01*
G75*
G02*
X157511300Y-82168133I237500J0D01*
G01*
X158011300Y-82168133D01*
G75*
G02*
X158248800Y-82405633I0J-237500D01*
G01*
X158248800Y-82880633D01*
G75*
G02*
X158011300Y-83118133I-237500J0D01*
G01*
X157511300Y-83118133D01*
G75*
G02*
X157273800Y-82880633I0J237500D01*
G01*
G37*
G36*
G01*
X116669000Y-100498900D02*
X116669000Y-100973900D01*
G75*
G02*
X116431500Y-101211400I-237500J0D01*
G01*
X115931500Y-101211400D01*
G75*
G02*
X115694000Y-100973900I0J237500D01*
G01*
X115694000Y-100498900D01*
G75*
G02*
X115931500Y-100261400I237500J0D01*
G01*
X116431500Y-100261400D01*
G75*
G02*
X116669000Y-100498900I0J-237500D01*
G01*
G37*
G36*
G01*
X118494000Y-100498900D02*
X118494000Y-100973900D01*
G75*
G02*
X118256500Y-101211400I-237500J0D01*
G01*
X117756500Y-101211400D01*
G75*
G02*
X117519000Y-100973900I0J237500D01*
G01*
X117519000Y-100498900D01*
G75*
G02*
X117756500Y-100261400I237500J0D01*
G01*
X118256500Y-100261400D01*
G75*
G02*
X118494000Y-100498900I0J-237500D01*
G01*
G37*
G36*
G01*
X121049600Y-99830900D02*
X121049600Y-99355900D01*
G75*
G02*
X121287100Y-99118400I237500J0D01*
G01*
X121787100Y-99118400D01*
G75*
G02*
X122024600Y-99355900I0J-237500D01*
G01*
X122024600Y-99830900D01*
G75*
G02*
X121787100Y-100068400I-237500J0D01*
G01*
X121287100Y-100068400D01*
G75*
G02*
X121049600Y-99830900I0J237500D01*
G01*
G37*
G36*
G01*
X119224600Y-99830900D02*
X119224600Y-99355900D01*
G75*
G02*
X119462100Y-99118400I237500J0D01*
G01*
X119962100Y-99118400D01*
G75*
G02*
X120199600Y-99355900I0J-237500D01*
G01*
X120199600Y-99830900D01*
G75*
G02*
X119962100Y-100068400I-237500J0D01*
G01*
X119462100Y-100068400D01*
G75*
G02*
X119224600Y-99830900I0J237500D01*
G01*
G37*
G36*
G01*
X121049600Y-98459300D02*
X121049600Y-97984300D01*
G75*
G02*
X121287100Y-97746800I237500J0D01*
G01*
X121787100Y-97746800D01*
G75*
G02*
X122024600Y-97984300I0J-237500D01*
G01*
X122024600Y-98459300D01*
G75*
G02*
X121787100Y-98696800I-237500J0D01*
G01*
X121287100Y-98696800D01*
G75*
G02*
X121049600Y-98459300I0J237500D01*
G01*
G37*
G36*
G01*
X119224600Y-98459300D02*
X119224600Y-97984300D01*
G75*
G02*
X119462100Y-97746800I237500J0D01*
G01*
X119962100Y-97746800D01*
G75*
G02*
X120199600Y-97984300I0J-237500D01*
G01*
X120199600Y-98459300D01*
G75*
G02*
X119962100Y-98696800I-237500J0D01*
G01*
X119462100Y-98696800D01*
G75*
G02*
X119224600Y-98459300I0J237500D01*
G01*
G37*
G36*
G01*
X121049600Y-97087700D02*
X121049600Y-96612700D01*
G75*
G02*
X121287100Y-96375200I237500J0D01*
G01*
X121787100Y-96375200D01*
G75*
G02*
X122024600Y-96612700I0J-237500D01*
G01*
X122024600Y-97087700D01*
G75*
G02*
X121787100Y-97325200I-237500J0D01*
G01*
X121287100Y-97325200D01*
G75*
G02*
X121049600Y-97087700I0J237500D01*
G01*
G37*
G36*
G01*
X119224600Y-97087700D02*
X119224600Y-96612700D01*
G75*
G02*
X119462100Y-96375200I237500J0D01*
G01*
X119962100Y-96375200D01*
G75*
G02*
X120199600Y-96612700I0J-237500D01*
G01*
X120199600Y-97087700D01*
G75*
G02*
X119962100Y-97325200I-237500J0D01*
G01*
X119462100Y-97325200D01*
G75*
G02*
X119224600Y-97087700I0J237500D01*
G01*
G37*
G36*
G01*
X121049600Y-95716100D02*
X121049600Y-95241100D01*
G75*
G02*
X121287100Y-95003600I237500J0D01*
G01*
X121787100Y-95003600D01*
G75*
G02*
X122024600Y-95241100I0J-237500D01*
G01*
X122024600Y-95716100D01*
G75*
G02*
X121787100Y-95953600I-237500J0D01*
G01*
X121287100Y-95953600D01*
G75*
G02*
X121049600Y-95716100I0J237500D01*
G01*
G37*
G36*
G01*
X119224600Y-95716100D02*
X119224600Y-95241100D01*
G75*
G02*
X119462100Y-95003600I237500J0D01*
G01*
X119962100Y-95003600D01*
G75*
G02*
X120199600Y-95241100I0J-237500D01*
G01*
X120199600Y-95716100D01*
G75*
G02*
X119962100Y-95953600I-237500J0D01*
G01*
X119462100Y-95953600D01*
G75*
G02*
X119224600Y-95716100I0J237500D01*
G01*
G37*
G36*
G01*
X121049600Y-94268300D02*
X121049600Y-93793300D01*
G75*
G02*
X121287100Y-93555800I237500J0D01*
G01*
X121787100Y-93555800D01*
G75*
G02*
X122024600Y-93793300I0J-237500D01*
G01*
X122024600Y-94268300D01*
G75*
G02*
X121787100Y-94505800I-237500J0D01*
G01*
X121287100Y-94505800D01*
G75*
G02*
X121049600Y-94268300I0J237500D01*
G01*
G37*
G36*
G01*
X119224600Y-94268300D02*
X119224600Y-93793300D01*
G75*
G02*
X119462100Y-93555800I237500J0D01*
G01*
X119962100Y-93555800D01*
G75*
G02*
X120199600Y-93793300I0J-237500D01*
G01*
X120199600Y-94268300D01*
G75*
G02*
X119962100Y-94505800I-237500J0D01*
G01*
X119462100Y-94505800D01*
G75*
G02*
X119224600Y-94268300I0J237500D01*
G01*
G37*
G36*
G01*
X167859700Y-108783000D02*
X168334700Y-108783000D01*
G75*
G02*
X168572200Y-109020500I0J-237500D01*
G01*
X168572200Y-109620500D01*
G75*
G02*
X168334700Y-109858000I-237500J0D01*
G01*
X167859700Y-109858000D01*
G75*
G02*
X167622200Y-109620500I0J237500D01*
G01*
X167622200Y-109020500D01*
G75*
G02*
X167859700Y-108783000I237500J0D01*
G01*
G37*
G36*
G01*
X167859700Y-107058000D02*
X168334700Y-107058000D01*
G75*
G02*
X168572200Y-107295500I0J-237500D01*
G01*
X168572200Y-107895500D01*
G75*
G02*
X168334700Y-108133000I-237500J0D01*
G01*
X167859700Y-108133000D01*
G75*
G02*
X167622200Y-107895500I0J237500D01*
G01*
X167622200Y-107295500D01*
G75*
G02*
X167859700Y-107058000I237500J0D01*
G01*
G37*
G36*
G01*
X169840900Y-97556200D02*
X170315900Y-97556200D01*
G75*
G02*
X170553400Y-97793700I0J-237500D01*
G01*
X170553400Y-98393700D01*
G75*
G02*
X170315900Y-98631200I-237500J0D01*
G01*
X169840900Y-98631200D01*
G75*
G02*
X169603400Y-98393700I0J237500D01*
G01*
X169603400Y-97793700D01*
G75*
G02*
X169840900Y-97556200I237500J0D01*
G01*
G37*
G36*
G01*
X169840900Y-95831200D02*
X170315900Y-95831200D01*
G75*
G02*
X170553400Y-96068700I0J-237500D01*
G01*
X170553400Y-96668700D01*
G75*
G02*
X170315900Y-96906200I-237500J0D01*
G01*
X169840900Y-96906200D01*
G75*
G02*
X169603400Y-96668700I0J237500D01*
G01*
X169603400Y-96068700D01*
G75*
G02*
X169840900Y-95831200I237500J0D01*
G01*
G37*
G36*
G01*
X163353700Y-75962500D02*
X163353700Y-76437500D01*
G75*
G02*
X163116200Y-76675000I-237500J0D01*
G01*
X162516200Y-76675000D01*
G75*
G02*
X162278700Y-76437500I0J237500D01*
G01*
X162278700Y-75962500D01*
G75*
G02*
X162516200Y-75725000I237500J0D01*
G01*
X163116200Y-75725000D01*
G75*
G02*
X163353700Y-75962500I0J-237500D01*
G01*
G37*
G36*
G01*
X165078700Y-75962500D02*
X165078700Y-76437500D01*
G75*
G02*
X164841200Y-76675000I-237500J0D01*
G01*
X164241200Y-76675000D01*
G75*
G02*
X164003700Y-76437500I0J237500D01*
G01*
X164003700Y-75962500D01*
G75*
G02*
X164241200Y-75725000I237500J0D01*
G01*
X164841200Y-75725000D01*
G75*
G02*
X165078700Y-75962500I0J-237500D01*
G01*
G37*
G36*
G01*
X176668000Y-85232001D02*
X176668000Y-83931999D01*
G75*
G02*
X176917999Y-83682000I249999J0D01*
G01*
X177743001Y-83682000D01*
G75*
G02*
X177993000Y-83931999I0J-249999D01*
G01*
X177993000Y-85232001D01*
G75*
G02*
X177743001Y-85482000I-249999J0D01*
G01*
X176917999Y-85482000D01*
G75*
G02*
X176668000Y-85232001I0J249999D01*
G01*
G37*
G36*
G01*
X173543000Y-85232001D02*
X173543000Y-83931999D01*
G75*
G02*
X173792999Y-83682000I249999J0D01*
G01*
X174618001Y-83682000D01*
G75*
G02*
X174868000Y-83931999I0J-249999D01*
G01*
X174868000Y-85232001D01*
G75*
G02*
X174618001Y-85482000I-249999J0D01*
G01*
X173792999Y-85482000D01*
G75*
G02*
X173543000Y-85232001I0J249999D01*
G01*
G37*
G36*
G01*
X176680300Y-88584801D02*
X176680300Y-87284799D01*
G75*
G02*
X176930299Y-87034800I249999J0D01*
G01*
X177755301Y-87034800D01*
G75*
G02*
X178005300Y-87284799I0J-249999D01*
G01*
X178005300Y-88584801D01*
G75*
G02*
X177755301Y-88834800I-249999J0D01*
G01*
X176930299Y-88834800D01*
G75*
G02*
X176680300Y-88584801I0J249999D01*
G01*
G37*
G36*
G01*
X173555300Y-88584801D02*
X173555300Y-87284799D01*
G75*
G02*
X173805299Y-87034800I249999J0D01*
G01*
X174630301Y-87034800D01*
G75*
G02*
X174880300Y-87284799I0J-249999D01*
G01*
X174880300Y-88584801D01*
G75*
G02*
X174630301Y-88834800I-249999J0D01*
G01*
X173805299Y-88834800D01*
G75*
G02*
X173555300Y-88584801I0J249999D01*
G01*
G37*
G36*
G01*
X177068600Y-104969300D02*
X177068600Y-105444300D01*
G75*
G02*
X176831100Y-105681800I-237500J0D01*
G01*
X176231100Y-105681800D01*
G75*
G02*
X175993600Y-105444300I0J237500D01*
G01*
X175993600Y-104969300D01*
G75*
G02*
X176231100Y-104731800I237500J0D01*
G01*
X176831100Y-104731800D01*
G75*
G02*
X177068600Y-104969300I0J-237500D01*
G01*
G37*
G36*
G01*
X178793600Y-104969300D02*
X178793600Y-105444300D01*
G75*
G02*
X178556100Y-105681800I-237500J0D01*
G01*
X177956100Y-105681800D01*
G75*
G02*
X177718600Y-105444300I0J237500D01*
G01*
X177718600Y-104969300D01*
G75*
G02*
X177956100Y-104731800I237500J0D01*
G01*
X178556100Y-104731800D01*
G75*
G02*
X178793600Y-104969300I0J-237500D01*
G01*
G37*
G36*
G01*
X174681000Y-75606900D02*
X174681000Y-76081900D01*
G75*
G02*
X174443500Y-76319400I-237500J0D01*
G01*
X173843500Y-76319400D01*
G75*
G02*
X173606000Y-76081900I0J237500D01*
G01*
X173606000Y-75606900D01*
G75*
G02*
X173843500Y-75369400I237500J0D01*
G01*
X174443500Y-75369400D01*
G75*
G02*
X174681000Y-75606900I0J-237500D01*
G01*
G37*
G36*
G01*
X176406000Y-75606900D02*
X176406000Y-76081900D01*
G75*
G02*
X176168500Y-76319400I-237500J0D01*
G01*
X175568500Y-76319400D01*
G75*
G02*
X175331000Y-76081900I0J237500D01*
G01*
X175331000Y-75606900D01*
G75*
G02*
X175568500Y-75369400I237500J0D01*
G01*
X176168500Y-75369400D01*
G75*
G02*
X176406000Y-75606900I0J-237500D01*
G01*
G37*
G36*
G01*
X170571000Y-86881000D02*
X171821000Y-86881000D01*
G75*
G02*
X172071000Y-87131000I0J-250000D01*
G01*
X172071000Y-88056000D01*
G75*
G02*
X171821000Y-88306000I-250000J0D01*
G01*
X170571000Y-88306000D01*
G75*
G02*
X170321000Y-88056000I0J250000D01*
G01*
X170321000Y-87131000D01*
G75*
G02*
X170571000Y-86881000I250000J0D01*
G01*
G37*
G36*
G01*
X170571000Y-83906000D02*
X171821000Y-83906000D01*
G75*
G02*
X172071000Y-84156000I0J-250000D01*
G01*
X172071000Y-85081000D01*
G75*
G02*
X171821000Y-85331000I-250000J0D01*
G01*
X170571000Y-85331000D01*
G75*
G02*
X170321000Y-85081000I0J250000D01*
G01*
X170321000Y-84156000D01*
G75*
G02*
X170571000Y-83906000I250000J0D01*
G01*
G37*
G36*
G01*
X171941500Y-68534800D02*
X171466500Y-68534800D01*
G75*
G02*
X171229000Y-68297300I0J237500D01*
G01*
X171229000Y-67722300D01*
G75*
G02*
X171466500Y-67484800I237500J0D01*
G01*
X171941500Y-67484800D01*
G75*
G02*
X172179000Y-67722300I0J-237500D01*
G01*
X172179000Y-68297300D01*
G75*
G02*
X171941500Y-68534800I-237500J0D01*
G01*
G37*
G36*
G01*
X171941500Y-70284800D02*
X171466500Y-70284800D01*
G75*
G02*
X171229000Y-70047300I0J237500D01*
G01*
X171229000Y-69472300D01*
G75*
G02*
X171466500Y-69234800I237500J0D01*
G01*
X171941500Y-69234800D01*
G75*
G02*
X172179000Y-69472300I0J-237500D01*
G01*
X172179000Y-70047300D01*
G75*
G02*
X171941500Y-70284800I-237500J0D01*
G01*
G37*
G36*
G01*
X159023800Y-84421566D02*
X159023800Y-83946566D01*
G75*
G02*
X159261300Y-83709066I237500J0D01*
G01*
X159836300Y-83709066D01*
G75*
G02*
X160073800Y-83946566I0J-237500D01*
G01*
X160073800Y-84421566D01*
G75*
G02*
X159836300Y-84659066I-237500J0D01*
G01*
X159261300Y-84659066D01*
G75*
G02*
X159023800Y-84421566I0J237500D01*
G01*
G37*
G36*
G01*
X157273800Y-84421566D02*
X157273800Y-83946566D01*
G75*
G02*
X157511300Y-83709066I237500J0D01*
G01*
X158086300Y-83709066D01*
G75*
G02*
X158323800Y-83946566I0J-237500D01*
G01*
X158323800Y-84421566D01*
G75*
G02*
X158086300Y-84659066I-237500J0D01*
G01*
X157511300Y-84659066D01*
G75*
G02*
X157273800Y-84421566I0J237500D01*
G01*
G37*
G36*
G01*
X159023800Y-85962500D02*
X159023800Y-85487500D01*
G75*
G02*
X159261300Y-85250000I237500J0D01*
G01*
X159836300Y-85250000D01*
G75*
G02*
X160073800Y-85487500I0J-237500D01*
G01*
X160073800Y-85962500D01*
G75*
G02*
X159836300Y-86200000I-237500J0D01*
G01*
X159261300Y-86200000D01*
G75*
G02*
X159023800Y-85962500I0J237500D01*
G01*
G37*
G36*
G01*
X157273800Y-85962500D02*
X157273800Y-85487500D01*
G75*
G02*
X157511300Y-85250000I237500J0D01*
G01*
X158086300Y-85250000D01*
G75*
G02*
X158323800Y-85487500I0J-237500D01*
G01*
X158323800Y-85962500D01*
G75*
G02*
X158086300Y-86200000I-237500J0D01*
G01*
X157511300Y-86200000D01*
G75*
G02*
X157273800Y-85962500I0J237500D01*
G01*
G37*
G36*
G01*
X141030100Y-72815000D02*
X140555100Y-72815000D01*
G75*
G02*
X140317600Y-72577500I0J237500D01*
G01*
X140317600Y-72002500D01*
G75*
G02*
X140555100Y-71765000I237500J0D01*
G01*
X141030100Y-71765000D01*
G75*
G02*
X141267600Y-72002500I0J-237500D01*
G01*
X141267600Y-72577500D01*
G75*
G02*
X141030100Y-72815000I-237500J0D01*
G01*
G37*
G36*
G01*
X141030100Y-74565000D02*
X140555100Y-74565000D01*
G75*
G02*
X140317600Y-74327500I0J237500D01*
G01*
X140317600Y-73752500D01*
G75*
G02*
X140555100Y-73515000I237500J0D01*
G01*
X141030100Y-73515000D01*
G75*
G02*
X141267600Y-73752500I0J-237500D01*
G01*
X141267600Y-74327500D01*
G75*
G02*
X141030100Y-74565000I-237500J0D01*
G01*
G37*
G36*
G01*
X142730100Y-72815000D02*
X142255100Y-72815000D01*
G75*
G02*
X142017600Y-72577500I0J237500D01*
G01*
X142017600Y-72002500D01*
G75*
G02*
X142255100Y-71765000I237500J0D01*
G01*
X142730100Y-71765000D01*
G75*
G02*
X142967600Y-72002500I0J-237500D01*
G01*
X142967600Y-72577500D01*
G75*
G02*
X142730100Y-72815000I-237500J0D01*
G01*
G37*
G36*
G01*
X142730100Y-74565000D02*
X142255100Y-74565000D01*
G75*
G02*
X142017600Y-74327500I0J237500D01*
G01*
X142017600Y-73752500D01*
G75*
G02*
X142255100Y-73515000I237500J0D01*
G01*
X142730100Y-73515000D01*
G75*
G02*
X142967600Y-73752500I0J-237500D01*
G01*
X142967600Y-74327500D01*
G75*
G02*
X142730100Y-74565000I-237500J0D01*
G01*
G37*
G36*
G01*
X144430100Y-72815000D02*
X143955100Y-72815000D01*
G75*
G02*
X143717600Y-72577500I0J237500D01*
G01*
X143717600Y-72002500D01*
G75*
G02*
X143955100Y-71765000I237500J0D01*
G01*
X144430100Y-71765000D01*
G75*
G02*
X144667600Y-72002500I0J-237500D01*
G01*
X144667600Y-72577500D01*
G75*
G02*
X144430100Y-72815000I-237500J0D01*
G01*
G37*
G36*
G01*
X144430100Y-74565000D02*
X143955100Y-74565000D01*
G75*
G02*
X143717600Y-74327500I0J237500D01*
G01*
X143717600Y-73752500D01*
G75*
G02*
X143955100Y-73515000I237500J0D01*
G01*
X144430100Y-73515000D01*
G75*
G02*
X144667600Y-73752500I0J-237500D01*
G01*
X144667600Y-74327500D01*
G75*
G02*
X144430100Y-74565000I-237500J0D01*
G01*
G37*
G36*
G01*
X146130100Y-72815000D02*
X145655100Y-72815000D01*
G75*
G02*
X145417600Y-72577500I0J237500D01*
G01*
X145417600Y-72002500D01*
G75*
G02*
X145655100Y-71765000I237500J0D01*
G01*
X146130100Y-71765000D01*
G75*
G02*
X146367600Y-72002500I0J-237500D01*
G01*
X146367600Y-72577500D01*
G75*
G02*
X146130100Y-72815000I-237500J0D01*
G01*
G37*
G36*
G01*
X146130100Y-74565000D02*
X145655100Y-74565000D01*
G75*
G02*
X145417600Y-74327500I0J237500D01*
G01*
X145417600Y-73752500D01*
G75*
G02*
X145655100Y-73515000I237500J0D01*
G01*
X146130100Y-73515000D01*
G75*
G02*
X146367600Y-73752500I0J-237500D01*
G01*
X146367600Y-74327500D01*
G75*
G02*
X146130100Y-74565000I-237500J0D01*
G01*
G37*
D12*
X160426400Y-116625200D03*
X160426400Y-108825200D03*
G36*
G01*
X184014100Y-115920000D02*
X184489100Y-115920000D01*
G75*
G02*
X184726600Y-116157500I0J-237500D01*
G01*
X184726600Y-116732500D01*
G75*
G02*
X184489100Y-116970000I-237500J0D01*
G01*
X184014100Y-116970000D01*
G75*
G02*
X183776600Y-116732500I0J237500D01*
G01*
X183776600Y-116157500D01*
G75*
G02*
X184014100Y-115920000I237500J0D01*
G01*
G37*
G36*
G01*
X184014100Y-114170000D02*
X184489100Y-114170000D01*
G75*
G02*
X184726600Y-114407500I0J-237500D01*
G01*
X184726600Y-114982500D01*
G75*
G02*
X184489100Y-115220000I-237500J0D01*
G01*
X184014100Y-115220000D01*
G75*
G02*
X183776600Y-114982500I0J237500D01*
G01*
X183776600Y-114407500D01*
G75*
G02*
X184014100Y-114170000I237500J0D01*
G01*
G37*
G36*
G01*
X184489100Y-111206800D02*
X184014100Y-111206800D01*
G75*
G02*
X183776600Y-110969300I0J237500D01*
G01*
X183776600Y-110394300D01*
G75*
G02*
X184014100Y-110156800I237500J0D01*
G01*
X184489100Y-110156800D01*
G75*
G02*
X184726600Y-110394300I0J-237500D01*
G01*
X184726600Y-110969300D01*
G75*
G02*
X184489100Y-111206800I-237500J0D01*
G01*
G37*
G36*
G01*
X184489100Y-112956800D02*
X184014100Y-112956800D01*
G75*
G02*
X183776600Y-112719300I0J237500D01*
G01*
X183776600Y-112144300D01*
G75*
G02*
X184014100Y-111906800I237500J0D01*
G01*
X184489100Y-111906800D01*
G75*
G02*
X184726600Y-112144300I0J-237500D01*
G01*
X184726600Y-112719300D01*
G75*
G02*
X184489100Y-112956800I-237500J0D01*
G01*
G37*
G36*
G01*
X101013700Y-69766800D02*
X101488700Y-69766800D01*
G75*
G02*
X101726200Y-70004300I0J-237500D01*
G01*
X101726200Y-70579300D01*
G75*
G02*
X101488700Y-70816800I-237500J0D01*
G01*
X101013700Y-70816800D01*
G75*
G02*
X100776200Y-70579300I0J237500D01*
G01*
X100776200Y-70004300D01*
G75*
G02*
X101013700Y-69766800I237500J0D01*
G01*
G37*
G36*
G01*
X101013700Y-68016800D02*
X101488700Y-68016800D01*
G75*
G02*
X101726200Y-68254300I0J-237500D01*
G01*
X101726200Y-68829300D01*
G75*
G02*
X101488700Y-69066800I-237500J0D01*
G01*
X101013700Y-69066800D01*
G75*
G02*
X100776200Y-68829300I0J237500D01*
G01*
X100776200Y-68254300D01*
G75*
G02*
X101013700Y-68016800I237500J0D01*
G01*
G37*
G36*
G01*
X103259900Y-69093600D02*
X102784900Y-69093600D01*
G75*
G02*
X102547400Y-68856100I0J237500D01*
G01*
X102547400Y-68281100D01*
G75*
G02*
X102784900Y-68043600I237500J0D01*
G01*
X103259900Y-68043600D01*
G75*
G02*
X103497400Y-68281100I0J-237500D01*
G01*
X103497400Y-68856100D01*
G75*
G02*
X103259900Y-69093600I-237500J0D01*
G01*
G37*
G36*
G01*
X103259900Y-70843600D02*
X102784900Y-70843600D01*
G75*
G02*
X102547400Y-70606100I0J237500D01*
G01*
X102547400Y-70031100D01*
G75*
G02*
X102784900Y-69793600I237500J0D01*
G01*
X103259900Y-69793600D01*
G75*
G02*
X103497400Y-70031100I0J-237500D01*
G01*
X103497400Y-70606100D01*
G75*
G02*
X103259900Y-70843600I-237500J0D01*
G01*
G37*
G36*
G01*
X133496800Y-75319900D02*
X133496800Y-74844900D01*
G75*
G02*
X133734300Y-74607400I237500J0D01*
G01*
X134309300Y-74607400D01*
G75*
G02*
X134546800Y-74844900I0J-237500D01*
G01*
X134546800Y-75319900D01*
G75*
G02*
X134309300Y-75557400I-237500J0D01*
G01*
X133734300Y-75557400D01*
G75*
G02*
X133496800Y-75319900I0J237500D01*
G01*
G37*
G36*
G01*
X131746800Y-75319900D02*
X131746800Y-74844900D01*
G75*
G02*
X131984300Y-74607400I237500J0D01*
G01*
X132559300Y-74607400D01*
G75*
G02*
X132796800Y-74844900I0J-237500D01*
G01*
X132796800Y-75319900D01*
G75*
G02*
X132559300Y-75557400I-237500J0D01*
G01*
X131984300Y-75557400D01*
G75*
G02*
X131746800Y-75319900I0J237500D01*
G01*
G37*
G36*
G01*
X127451600Y-78418700D02*
X127451600Y-77943700D01*
G75*
G02*
X127689100Y-77706200I237500J0D01*
G01*
X128264100Y-77706200D01*
G75*
G02*
X128501600Y-77943700I0J-237500D01*
G01*
X128501600Y-78418700D01*
G75*
G02*
X128264100Y-78656200I-237500J0D01*
G01*
X127689100Y-78656200D01*
G75*
G02*
X127451600Y-78418700I0J237500D01*
G01*
G37*
G36*
G01*
X125701600Y-78418700D02*
X125701600Y-77943700D01*
G75*
G02*
X125939100Y-77706200I237500J0D01*
G01*
X126514100Y-77706200D01*
G75*
G02*
X126751600Y-77943700I0J-237500D01*
G01*
X126751600Y-78418700D01*
G75*
G02*
X126514100Y-78656200I-237500J0D01*
G01*
X125939100Y-78656200D01*
G75*
G02*
X125701600Y-78418700I0J237500D01*
G01*
G37*
G36*
G01*
X187598800Y-112675500D02*
X187598800Y-112200500D01*
G75*
G02*
X187836300Y-111963000I237500J0D01*
G01*
X188411300Y-111963000D01*
G75*
G02*
X188648800Y-112200500I0J-237500D01*
G01*
X188648800Y-112675500D01*
G75*
G02*
X188411300Y-112913000I-237500J0D01*
G01*
X187836300Y-112913000D01*
G75*
G02*
X187598800Y-112675500I0J237500D01*
G01*
G37*
G36*
G01*
X185848800Y-112675500D02*
X185848800Y-112200500D01*
G75*
G02*
X186086300Y-111963000I237500J0D01*
G01*
X186661300Y-111963000D01*
G75*
G02*
X186898800Y-112200500I0J-237500D01*
G01*
X186898800Y-112675500D01*
G75*
G02*
X186661300Y-112913000I-237500J0D01*
G01*
X186086300Y-112913000D01*
G75*
G02*
X185848800Y-112675500I0J237500D01*
G01*
G37*
G36*
G01*
X186898800Y-114367300D02*
X186898800Y-114842300D01*
G75*
G02*
X186661300Y-115079800I-237500J0D01*
G01*
X186086300Y-115079800D01*
G75*
G02*
X185848800Y-114842300I0J237500D01*
G01*
X185848800Y-114367300D01*
G75*
G02*
X186086300Y-114129800I237500J0D01*
G01*
X186661300Y-114129800D01*
G75*
G02*
X186898800Y-114367300I0J-237500D01*
G01*
G37*
G36*
G01*
X188648800Y-114367300D02*
X188648800Y-114842300D01*
G75*
G02*
X188411300Y-115079800I-237500J0D01*
G01*
X187836300Y-115079800D01*
G75*
G02*
X187598800Y-114842300I0J237500D01*
G01*
X187598800Y-114367300D01*
G75*
G02*
X187836300Y-114129800I237500J0D01*
G01*
X188411300Y-114129800D01*
G75*
G02*
X188648800Y-114367300I0J-237500D01*
G01*
G37*
G36*
G01*
X187619800Y-118859000D02*
X186369800Y-118859000D01*
G75*
G02*
X186119800Y-118609000I0J250000D01*
G01*
X186119800Y-117684000D01*
G75*
G02*
X186369800Y-117434000I250000J0D01*
G01*
X187619800Y-117434000D01*
G75*
G02*
X187869800Y-117684000I0J-250000D01*
G01*
X187869800Y-118609000D01*
G75*
G02*
X187619800Y-118859000I-250000J0D01*
G01*
G37*
G36*
G01*
X187619800Y-121834000D02*
X186369800Y-121834000D01*
G75*
G02*
X186119800Y-121584000I0J250000D01*
G01*
X186119800Y-120659000D01*
G75*
G02*
X186369800Y-120409000I250000J0D01*
G01*
X187619800Y-120409000D01*
G75*
G02*
X187869800Y-120659000I0J-250000D01*
G01*
X187869800Y-121584000D01*
G75*
G02*
X187619800Y-121834000I-250000J0D01*
G01*
G37*
G36*
G01*
X106238200Y-67855800D02*
X104988200Y-67855800D01*
G75*
G02*
X104738200Y-67605800I0J250000D01*
G01*
X104738200Y-66680800D01*
G75*
G02*
X104988200Y-66430800I250000J0D01*
G01*
X106238200Y-66430800D01*
G75*
G02*
X106488200Y-66680800I0J-250000D01*
G01*
X106488200Y-67605800D01*
G75*
G02*
X106238200Y-67855800I-250000J0D01*
G01*
G37*
G36*
G01*
X106238200Y-70830800D02*
X104988200Y-70830800D01*
G75*
G02*
X104738200Y-70580800I0J250000D01*
G01*
X104738200Y-69655800D01*
G75*
G02*
X104988200Y-69405800I250000J0D01*
G01*
X106238200Y-69405800D01*
G75*
G02*
X106488200Y-69655800I0J-250000D01*
G01*
X106488200Y-70580800D01*
G75*
G02*
X106238200Y-70830800I-250000J0D01*
G01*
G37*
G36*
G01*
X158452400Y-90329599D02*
X158452400Y-91229601D01*
G75*
G02*
X158202401Y-91479600I-249999J0D01*
G01*
X157552399Y-91479600D01*
G75*
G02*
X157302400Y-91229601I0J249999D01*
G01*
X157302400Y-90329599D01*
G75*
G02*
X157552399Y-90079600I249999J0D01*
G01*
X158202401Y-90079600D01*
G75*
G02*
X158452400Y-90329599I0J-249999D01*
G01*
G37*
G36*
G01*
X160502400Y-90329599D02*
X160502400Y-91229601D01*
G75*
G02*
X160252401Y-91479600I-249999J0D01*
G01*
X159602399Y-91479600D01*
G75*
G02*
X159352400Y-91229601I0J249999D01*
G01*
X159352400Y-90329599D01*
G75*
G02*
X159602399Y-90079600I249999J0D01*
G01*
X160252401Y-90079600D01*
G75*
G02*
X160502400Y-90329599I0J-249999D01*
G01*
G37*
G36*
G01*
X154622200Y-113827400D02*
X154622200Y-115077400D01*
G75*
G02*
X154372200Y-115327400I-250000J0D01*
G01*
X153447200Y-115327400D01*
G75*
G02*
X153197200Y-115077400I0J250000D01*
G01*
X153197200Y-113827400D01*
G75*
G02*
X153447200Y-113577400I250000J0D01*
G01*
X154372200Y-113577400D01*
G75*
G02*
X154622200Y-113827400I0J-250000D01*
G01*
G37*
G36*
G01*
X157597200Y-113827400D02*
X157597200Y-115077400D01*
G75*
G02*
X157347200Y-115327400I-250000J0D01*
G01*
X156422200Y-115327400D01*
G75*
G02*
X156172200Y-115077400I0J250000D01*
G01*
X156172200Y-113827400D01*
G75*
G02*
X156422200Y-113577400I250000J0D01*
G01*
X157347200Y-113577400D01*
G75*
G02*
X157597200Y-113827400I0J-250000D01*
G01*
G37*
D13*
X109666000Y-65430400D03*
X108266000Y-65430400D03*
D14*
X141312800Y-117061200D03*
X141312800Y-115661200D03*
X141312800Y-118931200D03*
X141312800Y-120331200D03*
D15*
X90576400Y-108102400D03*
X90565600Y-102290800D03*
D16*
X101061200Y-61566800D03*
X102741200Y-61566800D03*
D17*
X98991200Y-61566800D03*
X104811200Y-61566800D03*
D18*
X99438700Y-63866800D03*
X104363700Y-63866800D03*
D19*
X100601200Y-64226800D03*
X101251200Y-64226800D03*
X101901200Y-64226800D03*
X102551200Y-64226800D03*
X103201200Y-64226800D03*
D20*
X116128200Y-111175800D03*
X118028200Y-111175800D03*
X118028200Y-113375800D03*
X117078200Y-113375800D03*
X116128200Y-113375800D03*
D21*
X118117800Y-117424200D03*
X118117800Y-116474200D03*
X118117800Y-118374200D03*
X115917800Y-118374200D03*
X115917800Y-117424200D03*
X115917800Y-116474200D03*
G36*
G01*
X121190600Y-120631799D02*
X121190600Y-121531801D01*
G75*
G02*
X120940601Y-121781800I-249999J0D01*
G01*
X120290599Y-121781800D01*
G75*
G02*
X120040600Y-121531801I0J249999D01*
G01*
X120040600Y-120631799D01*
G75*
G02*
X120290599Y-120381800I249999J0D01*
G01*
X120940601Y-120381800D01*
G75*
G02*
X121190600Y-120631799I0J-249999D01*
G01*
G37*
G36*
G01*
X123240600Y-120631799D02*
X123240600Y-121531801D01*
G75*
G02*
X122990601Y-121781800I-249999J0D01*
G01*
X122340599Y-121781800D01*
G75*
G02*
X122090600Y-121531801I0J249999D01*
G01*
X122090600Y-120631799D01*
G75*
G02*
X122340599Y-120381800I249999J0D01*
G01*
X122990601Y-120381800D01*
G75*
G02*
X123240600Y-120631799I0J-249999D01*
G01*
G37*
G36*
G01*
X124198800Y-114699201D02*
X124198800Y-113799199D01*
G75*
G02*
X124448799Y-113549200I249999J0D01*
G01*
X125098801Y-113549200D01*
G75*
G02*
X125348800Y-113799199I0J-249999D01*
G01*
X125348800Y-114699201D01*
G75*
G02*
X125098801Y-114949200I-249999J0D01*
G01*
X124448799Y-114949200D01*
G75*
G02*
X124198800Y-114699201I0J249999D01*
G01*
G37*
G36*
G01*
X122148800Y-114699201D02*
X122148800Y-113799199D01*
G75*
G02*
X122398799Y-113549200I249999J0D01*
G01*
X123048801Y-113549200D01*
G75*
G02*
X123298800Y-113799199I0J-249999D01*
G01*
X123298800Y-114699201D01*
G75*
G02*
X123048801Y-114949200I-249999J0D01*
G01*
X122398799Y-114949200D01*
G75*
G02*
X122148800Y-114699201I0J249999D01*
G01*
G37*
D22*
X123417400Y-118454400D03*
X122117400Y-118454400D03*
X122767400Y-116554400D03*
X122767400Y-118454400D03*
X122117400Y-116554400D03*
X123417400Y-116554400D03*
G36*
G01*
X117386400Y-108854400D02*
X117386400Y-107604400D01*
G75*
G02*
X117636400Y-107354400I250000J0D01*
G01*
X118561400Y-107354400D01*
G75*
G02*
X118811400Y-107604400I0J-250000D01*
G01*
X118811400Y-108854400D01*
G75*
G02*
X118561400Y-109104400I-250000J0D01*
G01*
X117636400Y-109104400D01*
G75*
G02*
X117386400Y-108854400I0J250000D01*
G01*
G37*
G36*
G01*
X114411400Y-108854400D02*
X114411400Y-107604400D01*
G75*
G02*
X114661400Y-107354400I250000J0D01*
G01*
X115586400Y-107354400D01*
G75*
G02*
X115836400Y-107604400I0J-250000D01*
G01*
X115836400Y-108854400D01*
G75*
G02*
X115586400Y-109104400I-250000J0D01*
G01*
X114661400Y-109104400D01*
G75*
G02*
X114411400Y-108854400I0J250000D01*
G01*
G37*
G36*
G01*
X114417000Y-111950200D02*
X113167000Y-111950200D01*
G75*
G02*
X112917000Y-111700200I0J250000D01*
G01*
X112917000Y-110775200D01*
G75*
G02*
X113167000Y-110525200I250000J0D01*
G01*
X114417000Y-110525200D01*
G75*
G02*
X114667000Y-110775200I0J-250000D01*
G01*
X114667000Y-111700200D01*
G75*
G02*
X114417000Y-111950200I-250000J0D01*
G01*
G37*
G36*
G01*
X114417000Y-114925200D02*
X113167000Y-114925200D01*
G75*
G02*
X112917000Y-114675200I0J250000D01*
G01*
X112917000Y-113750200D01*
G75*
G02*
X113167000Y-113500200I250000J0D01*
G01*
X114417000Y-113500200D01*
G75*
G02*
X114667000Y-113750200I0J-250000D01*
G01*
X114667000Y-114675200D01*
G75*
G02*
X114417000Y-114925200I-250000J0D01*
G01*
G37*
D23*
X158089600Y-69586800D03*
X158089600Y-74786800D03*
D24*
X135870000Y-108991400D03*
X133370000Y-108991400D03*
G36*
G01*
X104243800Y-102651600D02*
X103943800Y-102651600D01*
G75*
G02*
X103793800Y-102501600I0J150000D01*
G01*
X103793800Y-100851600D01*
G75*
G02*
X103943800Y-100701600I150000J0D01*
G01*
X104243800Y-100701600D01*
G75*
G02*
X104393800Y-100851600I0J-150000D01*
G01*
X104393800Y-102501600D01*
G75*
G02*
X104243800Y-102651600I-150000J0D01*
G01*
G37*
G36*
G01*
X105513800Y-102651600D02*
X105213800Y-102651600D01*
G75*
G02*
X105063800Y-102501600I0J150000D01*
G01*
X105063800Y-100851600D01*
G75*
G02*
X105213800Y-100701600I150000J0D01*
G01*
X105513800Y-100701600D01*
G75*
G02*
X105663800Y-100851600I0J-150000D01*
G01*
X105663800Y-102501600D01*
G75*
G02*
X105513800Y-102651600I-150000J0D01*
G01*
G37*
G36*
G01*
X106783800Y-102651600D02*
X106483800Y-102651600D01*
G75*
G02*
X106333800Y-102501600I0J150000D01*
G01*
X106333800Y-100851600D01*
G75*
G02*
X106483800Y-100701600I150000J0D01*
G01*
X106783800Y-100701600D01*
G75*
G02*
X106933800Y-100851600I0J-150000D01*
G01*
X106933800Y-102501600D01*
G75*
G02*
X106783800Y-102651600I-150000J0D01*
G01*
G37*
G36*
G01*
X108053800Y-102651600D02*
X107753800Y-102651600D01*
G75*
G02*
X107603800Y-102501600I0J150000D01*
G01*
X107603800Y-100851600D01*
G75*
G02*
X107753800Y-100701600I150000J0D01*
G01*
X108053800Y-100701600D01*
G75*
G02*
X108203800Y-100851600I0J-150000D01*
G01*
X108203800Y-102501600D01*
G75*
G02*
X108053800Y-102651600I-150000J0D01*
G01*
G37*
G36*
G01*
X108053800Y-107601600D02*
X107753800Y-107601600D01*
G75*
G02*
X107603800Y-107451600I0J150000D01*
G01*
X107603800Y-105801600D01*
G75*
G02*
X107753800Y-105651600I150000J0D01*
G01*
X108053800Y-105651600D01*
G75*
G02*
X108203800Y-105801600I0J-150000D01*
G01*
X108203800Y-107451600D01*
G75*
G02*
X108053800Y-107601600I-150000J0D01*
G01*
G37*
G36*
G01*
X106783800Y-107601600D02*
X106483800Y-107601600D01*
G75*
G02*
X106333800Y-107451600I0J150000D01*
G01*
X106333800Y-105801600D01*
G75*
G02*
X106483800Y-105651600I150000J0D01*
G01*
X106783800Y-105651600D01*
G75*
G02*
X106933800Y-105801600I0J-150000D01*
G01*
X106933800Y-107451600D01*
G75*
G02*
X106783800Y-107601600I-150000J0D01*
G01*
G37*
G36*
G01*
X105513800Y-107601600D02*
X105213800Y-107601600D01*
G75*
G02*
X105063800Y-107451600I0J150000D01*
G01*
X105063800Y-105801600D01*
G75*
G02*
X105213800Y-105651600I150000J0D01*
G01*
X105513800Y-105651600D01*
G75*
G02*
X105663800Y-105801600I0J-150000D01*
G01*
X105663800Y-107451600D01*
G75*
G02*
X105513800Y-107601600I-150000J0D01*
G01*
G37*
G36*
G01*
X104243800Y-107601600D02*
X103943800Y-107601600D01*
G75*
G02*
X103793800Y-107451600I0J150000D01*
G01*
X103793800Y-105801600D01*
G75*
G02*
X103943800Y-105651600I150000J0D01*
G01*
X104243800Y-105651600D01*
G75*
G02*
X104393800Y-105801600I0J-150000D01*
G01*
X104393800Y-107451600D01*
G75*
G02*
X104243800Y-107601600I-150000J0D01*
G01*
G37*
D25*
X123242400Y-107147600D03*
X125142400Y-107147600D03*
X125142400Y-110567600D03*
X124192400Y-110567600D03*
X123242400Y-110567600D03*
D26*
X168503600Y-73964800D03*
D27*
X170281600Y-76415900D03*
X169773600Y-76415900D03*
X169265600Y-76415900D03*
X168757600Y-76415900D03*
X168249600Y-76415900D03*
X167741600Y-76415900D03*
X167233600Y-76415900D03*
X166725600Y-76415900D03*
D28*
X166052500Y-75742800D03*
X166052500Y-75234800D03*
X166052500Y-74726800D03*
X166052500Y-74218800D03*
X166052500Y-73710800D03*
X166052500Y-73202800D03*
X166052500Y-72694800D03*
X166052500Y-72186800D03*
D27*
X166725600Y-71513700D03*
X167233600Y-71513700D03*
X167741600Y-71513700D03*
X168249600Y-71513700D03*
X168757600Y-71513700D03*
X169265600Y-71513700D03*
X169773600Y-71513700D03*
X170281600Y-71513700D03*
D28*
X170954700Y-72186800D03*
X170954700Y-72694800D03*
X170954700Y-73202800D03*
X170954700Y-73710800D03*
X170954700Y-74218800D03*
X170954700Y-74726800D03*
X170954700Y-75234800D03*
X170954700Y-75742800D03*
D26*
X169875200Y-102743000D03*
D27*
X171653200Y-105194100D03*
X171145200Y-105194100D03*
X170637200Y-105194100D03*
X170129200Y-105194100D03*
X169621200Y-105194100D03*
X169113200Y-105194100D03*
X168605200Y-105194100D03*
X168097200Y-105194100D03*
D28*
X167424100Y-104521000D03*
X167424100Y-104013000D03*
X167424100Y-103505000D03*
X167424100Y-102997000D03*
X167424100Y-102489000D03*
X167424100Y-101981000D03*
X167424100Y-101473000D03*
X167424100Y-100965000D03*
D27*
X168097200Y-100291900D03*
X168605200Y-100291900D03*
X169113200Y-100291900D03*
X169621200Y-100291900D03*
X170129200Y-100291900D03*
X170637200Y-100291900D03*
X171145200Y-100291900D03*
X171653200Y-100291900D03*
D28*
X172326300Y-100965000D03*
X172326300Y-101473000D03*
X172326300Y-101981000D03*
X172326300Y-102489000D03*
X172326300Y-102997000D03*
X172326300Y-103505000D03*
X172326300Y-104013000D03*
X172326300Y-104521000D03*
D29*
X129700001Y-78255550D03*
X130100000Y-78255550D03*
X130500002Y-78255550D03*
X130900001Y-78255550D03*
X131300000Y-78255550D03*
X131700002Y-78255550D03*
X132100001Y-78255550D03*
X132500000Y-78255550D03*
X132900000Y-78255550D03*
X133300001Y-78255550D03*
X133700001Y-78255550D03*
X134100000Y-78255550D03*
X134500001Y-78255550D03*
X134900001Y-78255550D03*
X135300000Y-78255550D03*
X135700002Y-78255550D03*
X136100001Y-78255550D03*
X136500000Y-78255550D03*
X136899999Y-78255550D03*
X137300001Y-78255550D03*
X137700000Y-78255550D03*
X138099999Y-78255550D03*
X138500001Y-78255550D03*
X138900000Y-78255550D03*
X139299999Y-78255550D03*
X139700001Y-78255550D03*
X140100000Y-78255550D03*
X140500000Y-78255550D03*
X140899999Y-78255550D03*
X141300001Y-78255550D03*
X141700000Y-78255550D03*
X142099999Y-78255550D03*
X142500001Y-78255550D03*
X142900000Y-78255550D03*
X143299999Y-78255550D03*
X143699998Y-78255550D03*
X144100000Y-78255550D03*
X144499999Y-78255550D03*
X144899998Y-78255550D03*
X145300000Y-78255550D03*
X145699999Y-78255550D03*
X146099999Y-78255550D03*
X146500000Y-78255550D03*
X146899999Y-78255550D03*
X147299999Y-78255550D03*
X147699998Y-78255550D03*
X148100000Y-78255550D03*
X148499999Y-78255550D03*
X148899998Y-78255550D03*
X149300000Y-78255550D03*
X149699999Y-78255550D03*
X150099998Y-78255550D03*
X150500000Y-78255550D03*
X150899999Y-78255550D03*
D30*
X153044450Y-80400001D03*
X153044450Y-80800000D03*
X153044450Y-81200002D03*
X153044450Y-81600001D03*
X153044450Y-82000000D03*
X153044450Y-82400002D03*
X153044450Y-82800001D03*
X153044450Y-83200000D03*
X153044450Y-83600000D03*
X153044450Y-84000001D03*
X153044450Y-84400001D03*
X153044450Y-84800000D03*
X153044450Y-85200001D03*
X153044450Y-85600001D03*
X153044450Y-86000000D03*
X153044450Y-86400002D03*
X153044450Y-86800001D03*
X153044450Y-87200000D03*
X153044450Y-87599999D03*
X153044450Y-88000001D03*
X153044450Y-88400000D03*
X153044450Y-88799999D03*
X153044450Y-89200001D03*
X153044450Y-89600000D03*
X153044450Y-89999999D03*
X153044450Y-90400001D03*
X153044450Y-90800000D03*
X153044450Y-91200000D03*
X153044450Y-91599999D03*
X153044450Y-92000001D03*
X153044450Y-92400000D03*
X153044450Y-92799999D03*
X153044450Y-93200001D03*
X153044450Y-93600000D03*
X153044450Y-93999999D03*
X153044450Y-94399998D03*
X153044450Y-94800000D03*
X153044450Y-95199999D03*
X153044450Y-95599998D03*
X153044450Y-96000000D03*
X153044450Y-96399999D03*
X153044450Y-96799999D03*
X153044450Y-97200000D03*
X153044450Y-97599999D03*
X153044450Y-97999999D03*
X153044450Y-98399998D03*
X153044450Y-98800000D03*
X153044450Y-99199999D03*
X153044450Y-99599998D03*
X153044450Y-100000000D03*
X153044450Y-100399999D03*
X153044450Y-100799998D03*
X153044450Y-101200000D03*
X153044450Y-101599999D03*
D29*
X150899999Y-103744450D03*
X150500000Y-103744450D03*
X150099998Y-103744450D03*
X149699999Y-103744450D03*
X149300000Y-103744450D03*
X148899998Y-103744450D03*
X148499999Y-103744450D03*
X148100000Y-103744450D03*
X147700000Y-103744450D03*
X147299999Y-103744450D03*
X146899999Y-103744450D03*
X146500000Y-103744450D03*
X146099999Y-103744450D03*
X145699999Y-103744450D03*
X145300000Y-103744450D03*
X144899998Y-103744450D03*
X144499999Y-103744450D03*
X144100000Y-103744450D03*
X143700001Y-103744450D03*
X143299999Y-103744450D03*
X142900000Y-103744450D03*
X142500001Y-103744450D03*
X142099999Y-103744450D03*
X141700000Y-103744450D03*
X141300001Y-103744450D03*
X140899999Y-103744450D03*
X140500000Y-103744450D03*
X140100000Y-103744450D03*
X139700001Y-103744450D03*
X139299999Y-103744450D03*
X138900000Y-103744450D03*
X138500001Y-103744450D03*
X138099999Y-103744450D03*
X137700000Y-103744450D03*
X137300001Y-103744450D03*
X136900002Y-103744450D03*
X136500000Y-103744450D03*
X136100001Y-103744450D03*
X135700002Y-103744450D03*
X135300000Y-103744450D03*
X134900001Y-103744450D03*
X134500001Y-103744450D03*
X134100000Y-103744450D03*
X133700001Y-103744450D03*
X133300001Y-103744450D03*
X132900002Y-103744450D03*
X132500000Y-103744450D03*
X132100001Y-103744450D03*
X131700002Y-103744450D03*
X131300000Y-103744450D03*
X130900001Y-103744450D03*
X130500002Y-103744450D03*
X130100000Y-103744450D03*
X129700001Y-103744450D03*
D30*
X127555550Y-101599999D03*
X127555550Y-101199997D03*
X127555550Y-100799998D03*
X127555550Y-100399999D03*
X127555550Y-100000000D03*
X127555550Y-99599998D03*
X127555550Y-99199999D03*
X127555550Y-98800000D03*
X127555550Y-98399998D03*
X127555550Y-97999999D03*
X127555550Y-97599999D03*
X127555550Y-97199998D03*
X127555550Y-96799999D03*
X127555550Y-96399999D03*
X127555550Y-96000000D03*
X127555550Y-95599998D03*
X127555550Y-95199999D03*
X127555550Y-94800000D03*
X127555550Y-94399998D03*
X127555550Y-93999999D03*
X127555550Y-93600000D03*
X127555550Y-93200001D03*
X127555550Y-92799999D03*
X127555550Y-92400000D03*
X127555550Y-92000001D03*
X127555550Y-91599999D03*
X127555550Y-91200000D03*
X127555550Y-90800000D03*
X127555550Y-90399999D03*
X127555550Y-89999999D03*
X127555550Y-89600000D03*
X127555550Y-89200001D03*
X127555550Y-88799999D03*
X127555550Y-88400000D03*
X127555550Y-88000001D03*
X127555550Y-87599999D03*
X127555550Y-87200000D03*
X127555550Y-86800001D03*
X127555550Y-86399999D03*
X127555550Y-86000000D03*
X127555550Y-85600001D03*
X127555550Y-85200001D03*
X127555550Y-84800000D03*
X127555550Y-84400001D03*
X127555550Y-84000001D03*
X127555550Y-83600000D03*
X127555550Y-83200000D03*
X127555550Y-82800001D03*
X127555550Y-82400002D03*
X127555550Y-82000000D03*
X127555550Y-81600001D03*
X127555550Y-81200002D03*
X127555550Y-80800000D03*
X127555550Y-80400001D03*
G36*
G01*
X111698801Y-105501600D02*
X110798799Y-105501600D01*
G75*
G02*
X110548800Y-105251601I0J249999D01*
G01*
X110548800Y-104601599D01*
G75*
G02*
X110798799Y-104351600I249999J0D01*
G01*
X111698801Y-104351600D01*
G75*
G02*
X111948800Y-104601599I0J-249999D01*
G01*
X111948800Y-105251601D01*
G75*
G02*
X111698801Y-105501600I-249999J0D01*
G01*
G37*
G36*
G01*
X111698801Y-107551600D02*
X110798799Y-107551600D01*
G75*
G02*
X110548800Y-107301601I0J249999D01*
G01*
X110548800Y-106651599D01*
G75*
G02*
X110798799Y-106401600I249999J0D01*
G01*
X111698801Y-106401600D01*
G75*
G02*
X111948800Y-106651599I0J-249999D01*
G01*
X111948800Y-107301601D01*
G75*
G02*
X111698801Y-107551600I-249999J0D01*
G01*
G37*
G36*
G01*
X111648801Y-110251600D02*
X110748799Y-110251600D01*
G75*
G02*
X110498800Y-110001601I0J249999D01*
G01*
X110498800Y-109351599D01*
G75*
G02*
X110748799Y-109101600I249999J0D01*
G01*
X111648801Y-109101600D01*
G75*
G02*
X111898800Y-109351599I0J-249999D01*
G01*
X111898800Y-110001601D01*
G75*
G02*
X111648801Y-110251600I-249999J0D01*
G01*
G37*
G36*
G01*
X111648801Y-112301600D02*
X110748799Y-112301600D01*
G75*
G02*
X110498800Y-112051601I0J249999D01*
G01*
X110498800Y-111401599D01*
G75*
G02*
X110748799Y-111151600I249999J0D01*
G01*
X111648801Y-111151600D01*
G75*
G02*
X111898800Y-111401599I0J-249999D01*
G01*
X111898800Y-112051601D01*
G75*
G02*
X111648801Y-112301600I-249999J0D01*
G01*
G37*
G36*
G01*
X97020801Y-106306200D02*
X96120799Y-106306200D01*
G75*
G02*
X95870800Y-106056201I0J249999D01*
G01*
X95870800Y-105406199D01*
G75*
G02*
X96120799Y-105156200I249999J0D01*
G01*
X97020801Y-105156200D01*
G75*
G02*
X97270800Y-105406199I0J-249999D01*
G01*
X97270800Y-106056201D01*
G75*
G02*
X97020801Y-106306200I-249999J0D01*
G01*
G37*
G36*
G01*
X97020801Y-108356200D02*
X96120799Y-108356200D01*
G75*
G02*
X95870800Y-108106201I0J249999D01*
G01*
X95870800Y-107456199D01*
G75*
G02*
X96120799Y-107206200I249999J0D01*
G01*
X97020801Y-107206200D01*
G75*
G02*
X97270800Y-107456199I0J-249999D01*
G01*
X97270800Y-108106201D01*
G75*
G02*
X97020801Y-108356200I-249999J0D01*
G01*
G37*
G36*
G01*
X154145401Y-72549600D02*
X153245399Y-72549600D01*
G75*
G02*
X152995400Y-72299601I0J249999D01*
G01*
X152995400Y-71649599D01*
G75*
G02*
X153245399Y-71399600I249999J0D01*
G01*
X154145401Y-71399600D01*
G75*
G02*
X154395400Y-71649599I0J-249999D01*
G01*
X154395400Y-72299601D01*
G75*
G02*
X154145401Y-72549600I-249999J0D01*
G01*
G37*
G36*
G01*
X154145401Y-74599600D02*
X153245399Y-74599600D01*
G75*
G02*
X152995400Y-74349601I0J249999D01*
G01*
X152995400Y-73699599D01*
G75*
G02*
X153245399Y-73449600I249999J0D01*
G01*
X154145401Y-73449600D01*
G75*
G02*
X154395400Y-73699599I0J-249999D01*
G01*
X154395400Y-74349601D01*
G75*
G02*
X154145401Y-74599600I-249999J0D01*
G01*
G37*
G36*
G01*
X155404400Y-110852799D02*
X155404400Y-111752801D01*
G75*
G02*
X155154401Y-112002800I-249999J0D01*
G01*
X154504399Y-112002800D01*
G75*
G02*
X154254400Y-111752801I0J249999D01*
G01*
X154254400Y-110852799D01*
G75*
G02*
X154504399Y-110602800I249999J0D01*
G01*
X155154401Y-110602800D01*
G75*
G02*
X155404400Y-110852799I0J-249999D01*
G01*
G37*
G36*
G01*
X157454400Y-110852799D02*
X157454400Y-111752801D01*
G75*
G02*
X157204401Y-112002800I-249999J0D01*
G01*
X156554399Y-112002800D01*
G75*
G02*
X156304400Y-111752801I0J249999D01*
G01*
X156304400Y-110852799D01*
G75*
G02*
X156554399Y-110602800I249999J0D01*
G01*
X157204401Y-110602800D01*
G75*
G02*
X157454400Y-110852799I0J-249999D01*
G01*
G37*
D31*
X102948800Y-122676600D03*
X102948800Y-118026600D03*
D32*
X99698800Y-112701600D03*
X105098800Y-112701600D03*
G36*
G01*
X125768400Y-104536400D02*
X125768400Y-103286400D01*
G75*
G02*
X126018400Y-103036400I250000J0D01*
G01*
X126943400Y-103036400D01*
G75*
G02*
X127193400Y-103286400I0J-250000D01*
G01*
X127193400Y-104536400D01*
G75*
G02*
X126943400Y-104786400I-250000J0D01*
G01*
X126018400Y-104786400D01*
G75*
G02*
X125768400Y-104536400I0J250000D01*
G01*
G37*
G36*
G01*
X122793400Y-104536400D02*
X122793400Y-103286400D01*
G75*
G02*
X123043400Y-103036400I250000J0D01*
G01*
X123968400Y-103036400D01*
G75*
G02*
X124218400Y-103286400I0J-250000D01*
G01*
X124218400Y-104536400D01*
G75*
G02*
X123968400Y-104786400I-250000J0D01*
G01*
X123043400Y-104786400D01*
G75*
G02*
X122793400Y-104536400I0J250000D01*
G01*
G37*
G36*
G01*
X126933800Y-108928200D02*
X128183800Y-108928200D01*
G75*
G02*
X128433800Y-109178200I0J-250000D01*
G01*
X128433800Y-110103200D01*
G75*
G02*
X128183800Y-110353200I-250000J0D01*
G01*
X126933800Y-110353200D01*
G75*
G02*
X126683800Y-110103200I0J250000D01*
G01*
X126683800Y-109178200D01*
G75*
G02*
X126933800Y-108928200I250000J0D01*
G01*
G37*
G36*
G01*
X126933800Y-105953200D02*
X128183800Y-105953200D01*
G75*
G02*
X128433800Y-106203200I0J-250000D01*
G01*
X128433800Y-107128200D01*
G75*
G02*
X128183800Y-107378200I-250000J0D01*
G01*
X126933800Y-107378200D01*
G75*
G02*
X126683800Y-107128200I0J250000D01*
G01*
X126683800Y-106203200D01*
G75*
G02*
X126933800Y-105953200I250000J0D01*
G01*
G37*
G36*
G01*
X121706800Y-108394200D02*
X120456800Y-108394200D01*
G75*
G02*
X120206800Y-108144200I0J250000D01*
G01*
X120206800Y-107219200D01*
G75*
G02*
X120456800Y-106969200I250000J0D01*
G01*
X121706800Y-106969200D01*
G75*
G02*
X121956800Y-107219200I0J-250000D01*
G01*
X121956800Y-108144200D01*
G75*
G02*
X121706800Y-108394200I-250000J0D01*
G01*
G37*
G36*
G01*
X121706800Y-111369200D02*
X120456800Y-111369200D01*
G75*
G02*
X120206800Y-111119200I0J250000D01*
G01*
X120206800Y-110194200D01*
G75*
G02*
X120456800Y-109944200I250000J0D01*
G01*
X121706800Y-109944200D01*
G75*
G02*
X121956800Y-110194200I0J-250000D01*
G01*
X121956800Y-111119200D01*
G75*
G02*
X121706800Y-111369200I-250000J0D01*
G01*
G37*
G36*
G01*
X110173799Y-122526600D02*
X112223801Y-122526600D01*
G75*
G02*
X112473800Y-122776599I0J-249999D01*
G01*
X112473800Y-124526601D01*
G75*
G02*
X112223801Y-124776600I-249999J0D01*
G01*
X110173799Y-124776600D01*
G75*
G02*
X109923800Y-124526601I0J249999D01*
G01*
X109923800Y-122776599D01*
G75*
G02*
X110173799Y-122526600I249999J0D01*
G01*
G37*
G36*
G01*
X110173799Y-116126600D02*
X112223801Y-116126600D01*
G75*
G02*
X112473800Y-116376599I0J-249999D01*
G01*
X112473800Y-118126601D01*
G75*
G02*
X112223801Y-118376600I-249999J0D01*
G01*
X110173799Y-118376600D01*
G75*
G02*
X109923800Y-118126601I0J249999D01*
G01*
X109923800Y-116376599D01*
G75*
G02*
X110173799Y-116126600I249999J0D01*
G01*
G37*
G36*
G01*
X100723801Y-101976600D02*
X98673799Y-101976600D01*
G75*
G02*
X98423800Y-101726601I0J249999D01*
G01*
X98423800Y-99976599D01*
G75*
G02*
X98673799Y-99726600I249999J0D01*
G01*
X100723801Y-99726600D01*
G75*
G02*
X100973800Y-99976599I0J-249999D01*
G01*
X100973800Y-101726601D01*
G75*
G02*
X100723801Y-101976600I-249999J0D01*
G01*
G37*
G36*
G01*
X100723801Y-108376600D02*
X98673799Y-108376600D01*
G75*
G02*
X98423800Y-108126601I0J249999D01*
G01*
X98423800Y-106376599D01*
G75*
G02*
X98673799Y-106126600I249999J0D01*
G01*
X100723801Y-106126600D01*
G75*
G02*
X100973800Y-106376599I0J-249999D01*
G01*
X100973800Y-108126601D01*
G75*
G02*
X100723801Y-108376600I-249999J0D01*
G01*
G37*
G36*
G01*
X136378200Y-106594900D02*
X136378200Y-107069900D01*
G75*
G02*
X136140700Y-107307400I-237500J0D01*
G01*
X135565700Y-107307400D01*
G75*
G02*
X135328200Y-107069900I0J237500D01*
G01*
X135328200Y-106594900D01*
G75*
G02*
X135565700Y-106357400I237500J0D01*
G01*
X136140700Y-106357400D01*
G75*
G02*
X136378200Y-106594900I0J-237500D01*
G01*
G37*
G36*
G01*
X138128200Y-106594900D02*
X138128200Y-107069900D01*
G75*
G02*
X137890700Y-107307400I-237500J0D01*
G01*
X137315700Y-107307400D01*
G75*
G02*
X137078200Y-107069900I0J237500D01*
G01*
X137078200Y-106594900D01*
G75*
G02*
X137315700Y-106357400I237500J0D01*
G01*
X137890700Y-106357400D01*
G75*
G02*
X138128200Y-106594900I0J-237500D01*
G01*
G37*
G36*
G01*
X132836400Y-107095300D02*
X132836400Y-106620300D01*
G75*
G02*
X133073900Y-106382800I237500J0D01*
G01*
X133648900Y-106382800D01*
G75*
G02*
X133886400Y-106620300I0J-237500D01*
G01*
X133886400Y-107095300D01*
G75*
G02*
X133648900Y-107332800I-237500J0D01*
G01*
X133073900Y-107332800D01*
G75*
G02*
X132836400Y-107095300I0J237500D01*
G01*
G37*
G36*
G01*
X131086400Y-107095300D02*
X131086400Y-106620300D01*
G75*
G02*
X131323900Y-106382800I237500J0D01*
G01*
X131898900Y-106382800D01*
G75*
G02*
X132136400Y-106620300I0J-237500D01*
G01*
X132136400Y-107095300D01*
G75*
G02*
X131898900Y-107332800I-237500J0D01*
G01*
X131323900Y-107332800D01*
G75*
G02*
X131086400Y-107095300I0J237500D01*
G01*
G37*
G36*
G01*
X155312100Y-71444600D02*
X155787100Y-71444600D01*
G75*
G02*
X156024600Y-71682100I0J-237500D01*
G01*
X156024600Y-72257100D01*
G75*
G02*
X155787100Y-72494600I-237500J0D01*
G01*
X155312100Y-72494600D01*
G75*
G02*
X155074600Y-72257100I0J237500D01*
G01*
X155074600Y-71682100D01*
G75*
G02*
X155312100Y-71444600I237500J0D01*
G01*
G37*
G36*
G01*
X155312100Y-69694600D02*
X155787100Y-69694600D01*
G75*
G02*
X156024600Y-69932100I0J-237500D01*
G01*
X156024600Y-70507100D01*
G75*
G02*
X155787100Y-70744600I-237500J0D01*
G01*
X155312100Y-70744600D01*
G75*
G02*
X155074600Y-70507100I0J237500D01*
G01*
X155074600Y-69932100D01*
G75*
G02*
X155312100Y-69694600I237500J0D01*
G01*
G37*
G36*
G01*
X155888700Y-74580000D02*
X155413700Y-74580000D01*
G75*
G02*
X155176200Y-74342500I0J237500D01*
G01*
X155176200Y-73767500D01*
G75*
G02*
X155413700Y-73530000I237500J0D01*
G01*
X155888700Y-73530000D01*
G75*
G02*
X156126200Y-73767500I0J-237500D01*
G01*
X156126200Y-74342500D01*
G75*
G02*
X155888700Y-74580000I-237500J0D01*
G01*
G37*
G36*
G01*
X155888700Y-76330000D02*
X155413700Y-76330000D01*
G75*
G02*
X155176200Y-76092500I0J237500D01*
G01*
X155176200Y-75517500D01*
G75*
G02*
X155413700Y-75280000I237500J0D01*
G01*
X155888700Y-75280000D01*
G75*
G02*
X156126200Y-75517500I0J-237500D01*
G01*
X156126200Y-76092500D01*
G75*
G02*
X155888700Y-76330000I-237500J0D01*
G01*
G37*
G36*
G01*
X156288100Y-108778200D02*
X156288100Y-107528200D01*
G75*
G02*
X156538100Y-107278200I250000J0D01*
G01*
X157463100Y-107278200D01*
G75*
G02*
X157713100Y-107528200I0J-250000D01*
G01*
X157713100Y-108778200D01*
G75*
G02*
X157463100Y-109028200I-250000J0D01*
G01*
X156538100Y-109028200D01*
G75*
G02*
X156288100Y-108778200I0J250000D01*
G01*
G37*
G36*
G01*
X153313100Y-108778200D02*
X153313100Y-107528200D01*
G75*
G02*
X153563100Y-107278200I250000J0D01*
G01*
X154488100Y-107278200D01*
G75*
G02*
X154738100Y-107528200I0J-250000D01*
G01*
X154738100Y-108778200D01*
G75*
G02*
X154488100Y-109028200I-250000J0D01*
G01*
X153563100Y-109028200D01*
G75*
G02*
X153313100Y-108778200I0J250000D01*
G01*
G37*
G36*
G01*
X142986600Y-118783400D02*
X144236600Y-118783400D01*
G75*
G02*
X144486600Y-119033400I0J-250000D01*
G01*
X144486600Y-119958400D01*
G75*
G02*
X144236600Y-120208400I-250000J0D01*
G01*
X142986600Y-120208400D01*
G75*
G02*
X142736600Y-119958400I0J250000D01*
G01*
X142736600Y-119033400D01*
G75*
G02*
X142986600Y-118783400I250000J0D01*
G01*
G37*
G36*
G01*
X142986600Y-115808400D02*
X144236600Y-115808400D01*
G75*
G02*
X144486600Y-116058400I0J-250000D01*
G01*
X144486600Y-116983400D01*
G75*
G02*
X144236600Y-117233400I-250000J0D01*
G01*
X142986600Y-117233400D01*
G75*
G02*
X142736600Y-116983400I0J250000D01*
G01*
X142736600Y-116058400D01*
G75*
G02*
X142986600Y-115808400I250000J0D01*
G01*
G37*
M02*
