G04 #@! TF.GenerationSoftware,KiCad,Pcbnew,5.1.10-88a1d61d58~90~ubuntu20.04.1*
G04 #@! TF.CreationDate,2021-09-12T22:34:26-04:00*
G04 #@! TF.ProjectId,UnwaryNuc,556e7761-7279-44e7-9563-2e6b69636164,rev?*
G04 #@! TF.SameCoordinates,Original*
G04 #@! TF.FileFunction,Legend,Bot*
G04 #@! TF.FilePolarity,Positive*
%FSLAX46Y46*%
G04 Gerber Fmt 4.6, Leading zero omitted, Abs format (unit mm)*
G04 Created by KiCad (PCBNEW 5.1.10-88a1d61d58~90~ubuntu20.04.1) date 2021-09-12 22:34:26*
%MOMM*%
%LPD*%
G01*
G04 APERTURE LIST*
%ADD10C,0.150000*%
%ADD11C,0.120000*%
G04 APERTURE END LIST*
D10*
X166249200Y-77741200D02*
X166249200Y-73541200D01*
X166249200Y-73541200D02*
X163849200Y-73541200D01*
X163849200Y-73541200D02*
X163849200Y-77741200D01*
X163849200Y-77741200D02*
X166249200Y-77741200D01*
D11*
X165711600Y-69018333D02*
X165711600Y-69360867D01*
X164691600Y-69018333D02*
X164691600Y-69360867D01*
X164673600Y-67659067D02*
X164673600Y-67316533D01*
X165693600Y-67659067D02*
X165693600Y-67316533D01*
X172881300Y-68967533D02*
X172881300Y-69310067D01*
X171861300Y-68967533D02*
X171861300Y-69310067D01*
X171861300Y-67608267D02*
X171861300Y-67265733D01*
X172881300Y-67608267D02*
X172881300Y-67265733D01*
X171426600Y-68967533D02*
X171426600Y-69310067D01*
X170406600Y-68967533D02*
X170406600Y-69310067D01*
X170414500Y-67608267D02*
X170414500Y-67265733D01*
X171434500Y-67608267D02*
X171434500Y-67265733D01*
X175287400Y-68916733D02*
X175287400Y-69259267D01*
X174267400Y-68916733D02*
X174267400Y-69259267D01*
X174273800Y-67557467D02*
X174273800Y-67214933D01*
X175293800Y-67557467D02*
X175293800Y-67214933D01*
X176735200Y-68916733D02*
X176735200Y-69259267D01*
X175715200Y-68916733D02*
X175715200Y-69259267D01*
X175689800Y-67557467D02*
X175689800Y-67214933D01*
X176709800Y-67557467D02*
X176709800Y-67214933D01*
X167108600Y-69018333D02*
X167108600Y-69360867D01*
X166088600Y-69018333D02*
X166088600Y-69360867D01*
X166097000Y-67659067D02*
X166097000Y-67316533D01*
X167117000Y-67659067D02*
X167117000Y-67316533D01*
X166116724Y-106389700D02*
X165607276Y-106389700D01*
X166116724Y-105344700D02*
X165607276Y-105344700D01*
X151738876Y-63434700D02*
X152248324Y-63434700D01*
X151738876Y-64479700D02*
X152248324Y-64479700D01*
X155804324Y-61838100D02*
X155294876Y-61838100D01*
X155804324Y-60793100D02*
X155294876Y-60793100D01*
X174115464Y-104417800D02*
X173661336Y-104417800D01*
X174115464Y-102947800D02*
X173661336Y-102947800D01*
X173762936Y-74753800D02*
X174217064Y-74753800D01*
X173762936Y-76223800D02*
X174217064Y-76223800D01*
X160056300Y-64008724D02*
X160056300Y-63499276D01*
X161101300Y-64008724D02*
X161101300Y-63499276D01*
X161834300Y-64008724D02*
X161834300Y-63499276D01*
X162879300Y-64008724D02*
X162879300Y-63499276D01*
X175614876Y-80655900D02*
X176124324Y-80655900D01*
X175614876Y-81700900D02*
X176124324Y-81700900D01*
X175614876Y-82230700D02*
X176124324Y-82230700D01*
X175614876Y-83275700D02*
X176124324Y-83275700D01*
X184795900Y-83007924D02*
X184795900Y-82498476D01*
X185840900Y-83007924D02*
X185840900Y-82498476D01*
X186523100Y-83007924D02*
X186523100Y-82498476D01*
X187568100Y-83007924D02*
X187568100Y-82498476D01*
X174614100Y-91032876D02*
X174614100Y-91542324D01*
X173569100Y-91032876D02*
X173569100Y-91542324D01*
X183039652Y-70280200D02*
X182517148Y-70280200D01*
X183039652Y-68810200D02*
X182517148Y-68810200D01*
X183259400Y-95344348D02*
X183259400Y-95866852D01*
X181789400Y-95344348D02*
X181789400Y-95866852D01*
X174542667Y-74322400D02*
X174250133Y-74322400D01*
X174542667Y-73302400D02*
X174250133Y-73302400D01*
X176015867Y-102516400D02*
X175723333Y-102516400D01*
X176015867Y-101496400D02*
X175723333Y-101496400D01*
X159412400Y-63506133D02*
X159412400Y-63798667D01*
X158392400Y-63506133D02*
X158392400Y-63798667D01*
X173837548Y-70921200D02*
X175260052Y-70921200D01*
X173837548Y-72741200D02*
X175260052Y-72741200D01*
X175767948Y-105008000D02*
X177190452Y-105008000D01*
X175767948Y-106828000D02*
X177190452Y-106828000D01*
X184202800Y-82657733D02*
X184202800Y-82950267D01*
X183182800Y-82657733D02*
X183182800Y-82950267D01*
X157602000Y-65329000D02*
X153802000Y-65329000D01*
X157602000Y-62179000D02*
X157602000Y-65329000D01*
X182189200Y-84328200D02*
X178389200Y-84328200D01*
X182189200Y-81178200D02*
X182189200Y-84328200D01*
D10*
X161933200Y-108070800D02*
X161933200Y-110470800D01*
X166133200Y-108070800D02*
X161933200Y-108070800D01*
X166133200Y-110470800D02*
X166133200Y-108070800D01*
X161933200Y-110470800D02*
X166133200Y-110470800D01*
D11*
X167083200Y-97847333D02*
X167083200Y-98189867D01*
X166063200Y-97847333D02*
X166063200Y-98189867D01*
X166063200Y-96437267D02*
X166063200Y-96094733D01*
X167083200Y-96437267D02*
X167083200Y-96094733D01*
X174398400Y-97872733D02*
X174398400Y-98215267D01*
X173378400Y-97872733D02*
X173378400Y-98215267D01*
X173378400Y-96462667D02*
X173378400Y-96120133D01*
X174398400Y-96462667D02*
X174398400Y-96120133D01*
X172950600Y-97861333D02*
X172950600Y-98203867D01*
X171930600Y-97861333D02*
X171930600Y-98203867D01*
X171930600Y-96437267D02*
X171930600Y-96094733D01*
X172950600Y-96437267D02*
X172950600Y-96094733D01*
X177141600Y-97948933D02*
X177141600Y-98291467D01*
X176121600Y-97948933D02*
X176121600Y-98291467D01*
X176096200Y-96538867D02*
X176096200Y-96196333D01*
X177116200Y-96538867D02*
X177116200Y-96196333D01*
X178589400Y-97948933D02*
X178589400Y-98291467D01*
X177569400Y-97948933D02*
X177569400Y-98291467D01*
X177588200Y-96538867D02*
X177588200Y-96196333D01*
X178608200Y-96538867D02*
X178608200Y-96196333D01*
X168505600Y-97898133D02*
X168505600Y-98240667D01*
X167485600Y-97898133D02*
X167485600Y-98240667D01*
X167485600Y-96488067D02*
X167485600Y-96145533D01*
X168505600Y-96488067D02*
X168505600Y-96145533D01*
X176070800Y-92932067D02*
X176070800Y-92589533D01*
X177090800Y-92932067D02*
X177090800Y-92589533D01*
X187420067Y-115148000D02*
X187077533Y-115148000D01*
X187420067Y-114128000D02*
X187077533Y-114128000D01*
X187077533Y-111910400D02*
X187420067Y-111910400D01*
X187077533Y-112930400D02*
X187420067Y-112930400D01*
X130306400Y-96664864D02*
X130306400Y-95460736D01*
X132126400Y-96664864D02*
X132126400Y-95460736D01*
X156997936Y-87840000D02*
X158202064Y-87840000D01*
X156997936Y-89660000D02*
X158202064Y-89660000D01*
X157047936Y-76240000D02*
X158252064Y-76240000D01*
X157047936Y-78060000D02*
X158252064Y-78060000D01*
X157047936Y-81310000D02*
X158252064Y-81310000D01*
X157047936Y-79490000D02*
X158252064Y-79490000D01*
X147014564Y-90860000D02*
X145810436Y-90860000D01*
X147014564Y-89040000D02*
X145810436Y-89040000D01*
X132197936Y-90590000D02*
X133402064Y-90590000D01*
X132197936Y-92410000D02*
X133402064Y-92410000D01*
X146613200Y-98403164D02*
X146613200Y-97199036D01*
X148433200Y-98403164D02*
X148433200Y-97199036D01*
X147102064Y-86960000D02*
X145897936Y-86960000D01*
X147102064Y-85140000D02*
X145897936Y-85140000D01*
X132147936Y-83090000D02*
X133352064Y-83090000D01*
X132147936Y-84910000D02*
X133352064Y-84910000D01*
X147102064Y-83360000D02*
X145897936Y-83360000D01*
X147102064Y-81540000D02*
X145897936Y-81540000D01*
X132197936Y-88760000D02*
X133402064Y-88760000D01*
X132197936Y-86940000D02*
X133402064Y-86940000D01*
X133964000Y-71976064D02*
X133964000Y-70771936D01*
X135784000Y-71976064D02*
X135784000Y-70771936D01*
X157047936Y-83840000D02*
X158252064Y-83840000D01*
X157047936Y-85660000D02*
X158252064Y-85660000D01*
X137690000Y-71964564D02*
X137690000Y-70760436D01*
X139510000Y-71964564D02*
X139510000Y-70760436D01*
X121664564Y-88860000D02*
X120460436Y-88860000D01*
X121664564Y-87040000D02*
X120460436Y-87040000D01*
X145740000Y-72064564D02*
X145740000Y-70860436D01*
X147560000Y-72064564D02*
X147560000Y-70860436D01*
X121664564Y-85260000D02*
X120460436Y-85260000D01*
X121664564Y-83440000D02*
X120460436Y-83440000D01*
X121614564Y-93010000D02*
X120410436Y-93010000D01*
X121614564Y-91190000D02*
X120410436Y-91190000D01*
X149840000Y-71914564D02*
X149840000Y-70710436D01*
X151660000Y-71914564D02*
X151660000Y-70710436D01*
X141990000Y-72052064D02*
X141990000Y-70847936D01*
X143810000Y-72052064D02*
X143810000Y-70847936D01*
X139140000Y-98302064D02*
X139140000Y-97097936D01*
X140960000Y-98302064D02*
X140960000Y-97097936D01*
X143090000Y-98302064D02*
X143090000Y-97097936D01*
X144910000Y-98302064D02*
X144910000Y-97097936D01*
D10*
X164501580Y-78036895D02*
X164501580Y-78608323D01*
X165501580Y-78322609D02*
X164501580Y-78322609D01*
X165501580Y-78941657D02*
X164501580Y-78941657D01*
X164501580Y-79322609D01*
X164549200Y-79417847D01*
X164596819Y-79465466D01*
X164692057Y-79513085D01*
X164834914Y-79513085D01*
X164930152Y-79465466D01*
X164977771Y-79417847D01*
X165025390Y-79322609D01*
X165025390Y-78941657D01*
X164501580Y-79846419D02*
X164501580Y-80465466D01*
X164882533Y-80132133D01*
X164882533Y-80274990D01*
X164930152Y-80370228D01*
X164977771Y-80417847D01*
X165073009Y-80465466D01*
X165311104Y-80465466D01*
X165406342Y-80417847D01*
X165453961Y-80370228D01*
X165501580Y-80274990D01*
X165501580Y-79989276D01*
X165453961Y-79894038D01*
X165406342Y-79846419D01*
X165857180Y-63720742D02*
X165380990Y-63387409D01*
X165857180Y-63149314D02*
X164857180Y-63149314D01*
X164857180Y-63530266D01*
X164904800Y-63625504D01*
X164952419Y-63673123D01*
X165047657Y-63720742D01*
X165190514Y-63720742D01*
X165285752Y-63673123D01*
X165333371Y-63625504D01*
X165380990Y-63530266D01*
X165380990Y-63149314D01*
X164857180Y-64625504D02*
X164857180Y-64149314D01*
X165333371Y-64101695D01*
X165285752Y-64149314D01*
X165238133Y-64244552D01*
X165238133Y-64482647D01*
X165285752Y-64577885D01*
X165333371Y-64625504D01*
X165428609Y-64673123D01*
X165666704Y-64673123D01*
X165761942Y-64625504D01*
X165809561Y-64577885D01*
X165857180Y-64482647D01*
X165857180Y-64244552D01*
X165809561Y-64149314D01*
X165761942Y-64101695D01*
X164857180Y-65006457D02*
X164857180Y-65625504D01*
X165238133Y-65292171D01*
X165238133Y-65435028D01*
X165285752Y-65530266D01*
X165333371Y-65577885D01*
X165428609Y-65625504D01*
X165666704Y-65625504D01*
X165761942Y-65577885D01*
X165809561Y-65530266D01*
X165857180Y-65435028D01*
X165857180Y-65149314D01*
X165809561Y-65054076D01*
X165761942Y-65006457D01*
X165806380Y-60926742D02*
X165330190Y-60593409D01*
X165806380Y-60355314D02*
X164806380Y-60355314D01*
X164806380Y-60736266D01*
X164854000Y-60831504D01*
X164901619Y-60879123D01*
X164996857Y-60926742D01*
X165139714Y-60926742D01*
X165234952Y-60879123D01*
X165282571Y-60831504D01*
X165330190Y-60736266D01*
X165330190Y-60355314D01*
X164806380Y-61831504D02*
X164806380Y-61355314D01*
X165282571Y-61307695D01*
X165234952Y-61355314D01*
X165187333Y-61450552D01*
X165187333Y-61688647D01*
X165234952Y-61783885D01*
X165282571Y-61831504D01*
X165377809Y-61879123D01*
X165615904Y-61879123D01*
X165711142Y-61831504D01*
X165758761Y-61783885D01*
X165806380Y-61688647D01*
X165806380Y-61450552D01*
X165758761Y-61355314D01*
X165711142Y-61307695D01*
X164901619Y-62260076D02*
X164854000Y-62307695D01*
X164806380Y-62402933D01*
X164806380Y-62641028D01*
X164854000Y-62736266D01*
X164901619Y-62783885D01*
X164996857Y-62831504D01*
X165092095Y-62831504D01*
X165234952Y-62783885D01*
X165806380Y-62212457D01*
X165806380Y-62831504D01*
X172664380Y-63720742D02*
X172188190Y-63387409D01*
X172664380Y-63149314D02*
X171664380Y-63149314D01*
X171664380Y-63530266D01*
X171712000Y-63625504D01*
X171759619Y-63673123D01*
X171854857Y-63720742D01*
X171997714Y-63720742D01*
X172092952Y-63673123D01*
X172140571Y-63625504D01*
X172188190Y-63530266D01*
X172188190Y-63149314D01*
X171664380Y-64625504D02*
X171664380Y-64149314D01*
X172140571Y-64101695D01*
X172092952Y-64149314D01*
X172045333Y-64244552D01*
X172045333Y-64482647D01*
X172092952Y-64577885D01*
X172140571Y-64625504D01*
X172235809Y-64673123D01*
X172473904Y-64673123D01*
X172569142Y-64625504D01*
X172616761Y-64577885D01*
X172664380Y-64482647D01*
X172664380Y-64244552D01*
X172616761Y-64149314D01*
X172569142Y-64101695D01*
X172664380Y-65625504D02*
X172664380Y-65054076D01*
X172664380Y-65339790D02*
X171664380Y-65339790D01*
X171807238Y-65244552D01*
X171902476Y-65149314D01*
X171950095Y-65054076D01*
X172613580Y-60926742D02*
X172137390Y-60593409D01*
X172613580Y-60355314D02*
X171613580Y-60355314D01*
X171613580Y-60736266D01*
X171661200Y-60831504D01*
X171708819Y-60879123D01*
X171804057Y-60926742D01*
X171946914Y-60926742D01*
X172042152Y-60879123D01*
X172089771Y-60831504D01*
X172137390Y-60736266D01*
X172137390Y-60355314D01*
X171613580Y-61831504D02*
X171613580Y-61355314D01*
X172089771Y-61307695D01*
X172042152Y-61355314D01*
X171994533Y-61450552D01*
X171994533Y-61688647D01*
X172042152Y-61783885D01*
X172089771Y-61831504D01*
X172185009Y-61879123D01*
X172423104Y-61879123D01*
X172518342Y-61831504D01*
X172565961Y-61783885D01*
X172613580Y-61688647D01*
X172613580Y-61450552D01*
X172565961Y-61355314D01*
X172518342Y-61307695D01*
X171613580Y-62498171D02*
X171613580Y-62593409D01*
X171661200Y-62688647D01*
X171708819Y-62736266D01*
X171804057Y-62783885D01*
X171994533Y-62831504D01*
X172232628Y-62831504D01*
X172423104Y-62783885D01*
X172518342Y-62736266D01*
X172565961Y-62688647D01*
X172613580Y-62593409D01*
X172613580Y-62498171D01*
X172565961Y-62402933D01*
X172518342Y-62355314D01*
X172423104Y-62307695D01*
X172232628Y-62260076D01*
X171994533Y-62260076D01*
X171804057Y-62307695D01*
X171708819Y-62355314D01*
X171661200Y-62402933D01*
X171613580Y-62498171D01*
X171292780Y-63771542D02*
X170816590Y-63438209D01*
X171292780Y-63200114D02*
X170292780Y-63200114D01*
X170292780Y-63581066D01*
X170340400Y-63676304D01*
X170388019Y-63723923D01*
X170483257Y-63771542D01*
X170626114Y-63771542D01*
X170721352Y-63723923D01*
X170768971Y-63676304D01*
X170816590Y-63581066D01*
X170816590Y-63200114D01*
X170626114Y-64628685D02*
X171292780Y-64628685D01*
X170245161Y-64390590D02*
X170959447Y-64152495D01*
X170959447Y-64771542D01*
X170292780Y-65057257D02*
X170292780Y-65723923D01*
X171292780Y-65295352D01*
X171191180Y-60977542D02*
X170714990Y-60644209D01*
X171191180Y-60406114D02*
X170191180Y-60406114D01*
X170191180Y-60787066D01*
X170238800Y-60882304D01*
X170286419Y-60929923D01*
X170381657Y-60977542D01*
X170524514Y-60977542D01*
X170619752Y-60929923D01*
X170667371Y-60882304D01*
X170714990Y-60787066D01*
X170714990Y-60406114D01*
X170524514Y-61834685D02*
X171191180Y-61834685D01*
X170143561Y-61596590D02*
X170857847Y-61358495D01*
X170857847Y-61977542D01*
X170191180Y-62787066D02*
X170191180Y-62596590D01*
X170238800Y-62501352D01*
X170286419Y-62453733D01*
X170429276Y-62358495D01*
X170619752Y-62310876D01*
X171000704Y-62310876D01*
X171095942Y-62358495D01*
X171143561Y-62406114D01*
X171191180Y-62501352D01*
X171191180Y-62691828D01*
X171143561Y-62787066D01*
X171095942Y-62834685D01*
X171000704Y-62882304D01*
X170762609Y-62882304D01*
X170667371Y-62834685D01*
X170619752Y-62787066D01*
X170572133Y-62691828D01*
X170572133Y-62501352D01*
X170619752Y-62406114D01*
X170667371Y-62358495D01*
X170762609Y-62310876D01*
X175204380Y-63923942D02*
X174728190Y-63590609D01*
X175204380Y-63352514D02*
X174204380Y-63352514D01*
X174204380Y-63733466D01*
X174252000Y-63828704D01*
X174299619Y-63876323D01*
X174394857Y-63923942D01*
X174537714Y-63923942D01*
X174632952Y-63876323D01*
X174680571Y-63828704D01*
X174728190Y-63733466D01*
X174728190Y-63352514D01*
X174537714Y-64781085D02*
X175204380Y-64781085D01*
X174156761Y-64542990D02*
X174871047Y-64304895D01*
X174871047Y-64923942D01*
X175204380Y-65828704D02*
X175204380Y-65257276D01*
X175204380Y-65542990D02*
X174204380Y-65542990D01*
X174347238Y-65447752D01*
X174442476Y-65352514D01*
X174490095Y-65257276D01*
X175102780Y-61129942D02*
X174626590Y-60796609D01*
X175102780Y-60558514D02*
X174102780Y-60558514D01*
X174102780Y-60939466D01*
X174150400Y-61034704D01*
X174198019Y-61082323D01*
X174293257Y-61129942D01*
X174436114Y-61129942D01*
X174531352Y-61082323D01*
X174578971Y-61034704D01*
X174626590Y-60939466D01*
X174626590Y-60558514D01*
X174436114Y-61987085D02*
X175102780Y-61987085D01*
X174055161Y-61748990D02*
X174769447Y-61510895D01*
X174769447Y-62129942D01*
X174102780Y-62701371D02*
X174102780Y-62796609D01*
X174150400Y-62891847D01*
X174198019Y-62939466D01*
X174293257Y-62987085D01*
X174483733Y-63034704D01*
X174721828Y-63034704D01*
X174912304Y-62987085D01*
X175007542Y-62939466D01*
X175055161Y-62891847D01*
X175102780Y-62796609D01*
X175102780Y-62701371D01*
X175055161Y-62606133D01*
X175007542Y-62558514D01*
X174912304Y-62510895D01*
X174721828Y-62463276D01*
X174483733Y-62463276D01*
X174293257Y-62510895D01*
X174198019Y-62558514D01*
X174150400Y-62606133D01*
X174102780Y-62701371D01*
X176728380Y-63771542D02*
X176252190Y-63438209D01*
X176728380Y-63200114D02*
X175728380Y-63200114D01*
X175728380Y-63581066D01*
X175776000Y-63676304D01*
X175823619Y-63723923D01*
X175918857Y-63771542D01*
X176061714Y-63771542D01*
X176156952Y-63723923D01*
X176204571Y-63676304D01*
X176252190Y-63581066D01*
X176252190Y-63200114D01*
X175728380Y-64104876D02*
X175728380Y-64723923D01*
X176109333Y-64390590D01*
X176109333Y-64533447D01*
X176156952Y-64628685D01*
X176204571Y-64676304D01*
X176299809Y-64723923D01*
X176537904Y-64723923D01*
X176633142Y-64676304D01*
X176680761Y-64628685D01*
X176728380Y-64533447D01*
X176728380Y-64247733D01*
X176680761Y-64152495D01*
X176633142Y-64104876D01*
X175728380Y-65057257D02*
X175728380Y-65723923D01*
X176728380Y-65295352D01*
X176626780Y-60926742D02*
X176150590Y-60593409D01*
X176626780Y-60355314D02*
X175626780Y-60355314D01*
X175626780Y-60736266D01*
X175674400Y-60831504D01*
X175722019Y-60879123D01*
X175817257Y-60926742D01*
X175960114Y-60926742D01*
X176055352Y-60879123D01*
X176102971Y-60831504D01*
X176150590Y-60736266D01*
X176150590Y-60355314D01*
X175626780Y-61260076D02*
X175626780Y-61879123D01*
X176007733Y-61545790D01*
X176007733Y-61688647D01*
X176055352Y-61783885D01*
X176102971Y-61831504D01*
X176198209Y-61879123D01*
X176436304Y-61879123D01*
X176531542Y-61831504D01*
X176579161Y-61783885D01*
X176626780Y-61688647D01*
X176626780Y-61402933D01*
X176579161Y-61307695D01*
X176531542Y-61260076D01*
X175626780Y-62736266D02*
X175626780Y-62545790D01*
X175674400Y-62450552D01*
X175722019Y-62402933D01*
X175864876Y-62307695D01*
X176055352Y-62260076D01*
X176436304Y-62260076D01*
X176531542Y-62307695D01*
X176579161Y-62355314D01*
X176626780Y-62450552D01*
X176626780Y-62641028D01*
X176579161Y-62736266D01*
X176531542Y-62783885D01*
X176436304Y-62831504D01*
X176198209Y-62831504D01*
X176102971Y-62783885D01*
X176055352Y-62736266D01*
X176007733Y-62641028D01*
X176007733Y-62450552D01*
X176055352Y-62355314D01*
X176102971Y-62307695D01*
X176198209Y-62260076D01*
X167177980Y-63771542D02*
X166701790Y-63438209D01*
X167177980Y-63200114D02*
X166177980Y-63200114D01*
X166177980Y-63581066D01*
X166225600Y-63676304D01*
X166273219Y-63723923D01*
X166368457Y-63771542D01*
X166511314Y-63771542D01*
X166606552Y-63723923D01*
X166654171Y-63676304D01*
X166701790Y-63581066D01*
X166701790Y-63200114D01*
X166177980Y-64104876D02*
X166177980Y-64723923D01*
X166558933Y-64390590D01*
X166558933Y-64533447D01*
X166606552Y-64628685D01*
X166654171Y-64676304D01*
X166749409Y-64723923D01*
X166987504Y-64723923D01*
X167082742Y-64676304D01*
X167130361Y-64628685D01*
X167177980Y-64533447D01*
X167177980Y-64247733D01*
X167130361Y-64152495D01*
X167082742Y-64104876D01*
X166177980Y-65057257D02*
X166177980Y-65676304D01*
X166558933Y-65342971D01*
X166558933Y-65485828D01*
X166606552Y-65581066D01*
X166654171Y-65628685D01*
X166749409Y-65676304D01*
X166987504Y-65676304D01*
X167082742Y-65628685D01*
X167130361Y-65581066D01*
X167177980Y-65485828D01*
X167177980Y-65200114D01*
X167130361Y-65104876D01*
X167082742Y-65057257D01*
X167076380Y-60926742D02*
X166600190Y-60593409D01*
X167076380Y-60355314D02*
X166076380Y-60355314D01*
X166076380Y-60736266D01*
X166124000Y-60831504D01*
X166171619Y-60879123D01*
X166266857Y-60926742D01*
X166409714Y-60926742D01*
X166504952Y-60879123D01*
X166552571Y-60831504D01*
X166600190Y-60736266D01*
X166600190Y-60355314D01*
X166076380Y-61260076D02*
X166076380Y-61879123D01*
X166457333Y-61545790D01*
X166457333Y-61688647D01*
X166504952Y-61783885D01*
X166552571Y-61831504D01*
X166647809Y-61879123D01*
X166885904Y-61879123D01*
X166981142Y-61831504D01*
X167028761Y-61783885D01*
X167076380Y-61688647D01*
X167076380Y-61402933D01*
X167028761Y-61307695D01*
X166981142Y-61260076D01*
X166171619Y-62260076D02*
X166124000Y-62307695D01*
X166076380Y-62402933D01*
X166076380Y-62641028D01*
X166124000Y-62736266D01*
X166171619Y-62783885D01*
X166266857Y-62831504D01*
X166362095Y-62831504D01*
X166504952Y-62783885D01*
X167076380Y-62212457D01*
X167076380Y-62831504D01*
X166504857Y-104889580D02*
X166838190Y-104413390D01*
X167076285Y-104889580D02*
X167076285Y-103889580D01*
X166695333Y-103889580D01*
X166600095Y-103937200D01*
X166552476Y-103984819D01*
X166504857Y-104080057D01*
X166504857Y-104222914D01*
X166552476Y-104318152D01*
X166600095Y-104365771D01*
X166695333Y-104413390D01*
X167076285Y-104413390D01*
X166171523Y-103889580D02*
X165504857Y-103889580D01*
X165933428Y-104889580D01*
X164695333Y-103889580D02*
X164885809Y-103889580D01*
X164981047Y-103937200D01*
X165028666Y-103984819D01*
X165123904Y-104127676D01*
X165171523Y-104318152D01*
X165171523Y-104699104D01*
X165123904Y-104794342D01*
X165076285Y-104841961D01*
X164981047Y-104889580D01*
X164790571Y-104889580D01*
X164695333Y-104841961D01*
X164647714Y-104794342D01*
X164600095Y-104699104D01*
X164600095Y-104461009D01*
X164647714Y-104365771D01*
X164695333Y-104318152D01*
X164790571Y-104270533D01*
X164981047Y-104270533D01*
X165076285Y-104318152D01*
X165123904Y-104365771D01*
X165171523Y-104461009D01*
X152636457Y-65839580D02*
X152969790Y-65363390D01*
X153207885Y-65839580D02*
X153207885Y-64839580D01*
X152826933Y-64839580D01*
X152731695Y-64887200D01*
X152684076Y-64934819D01*
X152636457Y-65030057D01*
X152636457Y-65172914D01*
X152684076Y-65268152D01*
X152731695Y-65315771D01*
X152826933Y-65363390D01*
X153207885Y-65363390D01*
X152303123Y-64839580D02*
X151636457Y-64839580D01*
X152065028Y-65839580D01*
X150826933Y-65172914D02*
X150826933Y-65839580D01*
X151065028Y-64791961D02*
X151303123Y-65506247D01*
X150684076Y-65506247D01*
X152788857Y-61767980D02*
X153122190Y-61291790D01*
X153360285Y-61767980D02*
X153360285Y-60767980D01*
X152979333Y-60767980D01*
X152884095Y-60815600D01*
X152836476Y-60863219D01*
X152788857Y-60958457D01*
X152788857Y-61101314D01*
X152836476Y-61196552D01*
X152884095Y-61244171D01*
X152979333Y-61291790D01*
X153360285Y-61291790D01*
X152455523Y-60767980D02*
X151788857Y-60767980D01*
X152217428Y-61767980D01*
X151503142Y-60767980D02*
X150884095Y-60767980D01*
X151217428Y-61148933D01*
X151074571Y-61148933D01*
X150979333Y-61196552D01*
X150931714Y-61244171D01*
X150884095Y-61339409D01*
X150884095Y-61577504D01*
X150931714Y-61672742D01*
X150979333Y-61720361D01*
X151074571Y-61767980D01*
X151360285Y-61767980D01*
X151455523Y-61720361D01*
X151503142Y-61672742D01*
X174531257Y-102485180D02*
X174864590Y-102008990D01*
X175102685Y-102485180D02*
X175102685Y-101485180D01*
X174721733Y-101485180D01*
X174626495Y-101532800D01*
X174578876Y-101580419D01*
X174531257Y-101675657D01*
X174531257Y-101818514D01*
X174578876Y-101913752D01*
X174626495Y-101961371D01*
X174721733Y-102008990D01*
X175102685Y-102008990D01*
X174197923Y-101485180D02*
X173531257Y-101485180D01*
X173959828Y-102485180D01*
X173197923Y-101580419D02*
X173150304Y-101532800D01*
X173055066Y-101485180D01*
X172816971Y-101485180D01*
X172721733Y-101532800D01*
X172674114Y-101580419D01*
X172626495Y-101675657D01*
X172626495Y-101770895D01*
X172674114Y-101913752D01*
X173245542Y-102485180D01*
X172626495Y-102485180D01*
X174632857Y-77591180D02*
X174966190Y-77114990D01*
X175204285Y-77591180D02*
X175204285Y-76591180D01*
X174823333Y-76591180D01*
X174728095Y-76638800D01*
X174680476Y-76686419D01*
X174632857Y-76781657D01*
X174632857Y-76924514D01*
X174680476Y-77019752D01*
X174728095Y-77067371D01*
X174823333Y-77114990D01*
X175204285Y-77114990D01*
X174299523Y-76591180D02*
X173632857Y-76591180D01*
X174061428Y-77591180D01*
X172728095Y-77591180D02*
X173299523Y-77591180D01*
X173013809Y-77591180D02*
X173013809Y-76591180D01*
X173109047Y-76734038D01*
X173204285Y-76829276D01*
X173299523Y-76876895D01*
X159974019Y-67394057D02*
X160450209Y-67727390D01*
X159974019Y-67965485D02*
X160974019Y-67965485D01*
X160974019Y-67584533D01*
X160926400Y-67489295D01*
X160878780Y-67441676D01*
X160783542Y-67394057D01*
X160640685Y-67394057D01*
X160545447Y-67441676D01*
X160497828Y-67489295D01*
X160450209Y-67584533D01*
X160450209Y-67965485D01*
X160974019Y-67060723D02*
X160974019Y-66394057D01*
X159974019Y-66822628D01*
X160974019Y-65822628D02*
X160974019Y-65727390D01*
X160926400Y-65632152D01*
X160878780Y-65584533D01*
X160783542Y-65536914D01*
X160593066Y-65489295D01*
X160354971Y-65489295D01*
X160164495Y-65536914D01*
X160069257Y-65584533D01*
X160021638Y-65632152D01*
X159974019Y-65727390D01*
X159974019Y-65822628D01*
X160021638Y-65917866D01*
X160069257Y-65965485D01*
X160164495Y-66013104D01*
X160354971Y-66060723D01*
X160593066Y-66060723D01*
X160783542Y-66013104D01*
X160878780Y-65965485D01*
X160926400Y-65917866D01*
X160974019Y-65822628D01*
X161904419Y-67749657D02*
X162380609Y-68082990D01*
X161904419Y-68321085D02*
X162904419Y-68321085D01*
X162904419Y-67940133D01*
X162856800Y-67844895D01*
X162809180Y-67797276D01*
X162713942Y-67749657D01*
X162571085Y-67749657D01*
X162475847Y-67797276D01*
X162428228Y-67844895D01*
X162380609Y-67940133D01*
X162380609Y-68321085D01*
X162904419Y-66892514D02*
X162904419Y-67082990D01*
X162856800Y-67178228D01*
X162809180Y-67225847D01*
X162666323Y-67321085D01*
X162475847Y-67368704D01*
X162094895Y-67368704D01*
X161999657Y-67321085D01*
X161952038Y-67273466D01*
X161904419Y-67178228D01*
X161904419Y-66987752D01*
X161952038Y-66892514D01*
X161999657Y-66844895D01*
X162094895Y-66797276D01*
X162332990Y-66797276D01*
X162428228Y-66844895D01*
X162475847Y-66892514D01*
X162523466Y-66987752D01*
X162523466Y-67178228D01*
X162475847Y-67273466D01*
X162428228Y-67321085D01*
X162332990Y-67368704D01*
X161904419Y-66321085D02*
X161904419Y-66130609D01*
X161952038Y-66035371D01*
X161999657Y-65987752D01*
X162142514Y-65892514D01*
X162332990Y-65844895D01*
X162713942Y-65844895D01*
X162809180Y-65892514D01*
X162856800Y-65940133D01*
X162904419Y-66035371D01*
X162904419Y-66225847D01*
X162856800Y-66321085D01*
X162809180Y-66368704D01*
X162713942Y-66416323D01*
X162475847Y-66416323D01*
X162380609Y-66368704D01*
X162332990Y-66321085D01*
X162285371Y-66225847D01*
X162285371Y-66035371D01*
X162332990Y-65940133D01*
X162380609Y-65892514D01*
X162475847Y-65844895D01*
X173007257Y-81529180D02*
X173340590Y-81052990D01*
X173578685Y-81529180D02*
X173578685Y-80529180D01*
X173197733Y-80529180D01*
X173102495Y-80576800D01*
X173054876Y-80624419D01*
X173007257Y-80719657D01*
X173007257Y-80862514D01*
X173054876Y-80957752D01*
X173102495Y-81005371D01*
X173197733Y-81052990D01*
X173578685Y-81052990D01*
X172150114Y-80529180D02*
X172340590Y-80529180D01*
X172435828Y-80576800D01*
X172483447Y-80624419D01*
X172578685Y-80767276D01*
X172626304Y-80957752D01*
X172626304Y-81338704D01*
X172578685Y-81433942D01*
X172531066Y-81481561D01*
X172435828Y-81529180D01*
X172245352Y-81529180D01*
X172150114Y-81481561D01*
X172102495Y-81433942D01*
X172054876Y-81338704D01*
X172054876Y-81100609D01*
X172102495Y-81005371D01*
X172150114Y-80957752D01*
X172245352Y-80910133D01*
X172435828Y-80910133D01*
X172531066Y-80957752D01*
X172578685Y-81005371D01*
X172626304Y-81100609D01*
X171483447Y-80957752D02*
X171578685Y-80910133D01*
X171626304Y-80862514D01*
X171673923Y-80767276D01*
X171673923Y-80719657D01*
X171626304Y-80624419D01*
X171578685Y-80576800D01*
X171483447Y-80529180D01*
X171292971Y-80529180D01*
X171197733Y-80576800D01*
X171150114Y-80624419D01*
X171102495Y-80719657D01*
X171102495Y-80767276D01*
X171150114Y-80862514D01*
X171197733Y-80910133D01*
X171292971Y-80957752D01*
X171483447Y-80957752D01*
X171578685Y-81005371D01*
X171626304Y-81052990D01*
X171673923Y-81148228D01*
X171673923Y-81338704D01*
X171626304Y-81433942D01*
X171578685Y-81481561D01*
X171483447Y-81529180D01*
X171292971Y-81529180D01*
X171197733Y-81481561D01*
X171150114Y-81433942D01*
X171102495Y-81338704D01*
X171102495Y-81148228D01*
X171150114Y-81052990D01*
X171197733Y-81005371D01*
X171292971Y-80957752D01*
X172651657Y-83002380D02*
X172984990Y-82526190D01*
X173223085Y-83002380D02*
X173223085Y-82002380D01*
X172842133Y-82002380D01*
X172746895Y-82050000D01*
X172699276Y-82097619D01*
X172651657Y-82192857D01*
X172651657Y-82335714D01*
X172699276Y-82430952D01*
X172746895Y-82478571D01*
X172842133Y-82526190D01*
X173223085Y-82526190D01*
X171794514Y-82002380D02*
X171984990Y-82002380D01*
X172080228Y-82050000D01*
X172127847Y-82097619D01*
X172223085Y-82240476D01*
X172270704Y-82430952D01*
X172270704Y-82811904D01*
X172223085Y-82907142D01*
X172175466Y-82954761D01*
X172080228Y-83002380D01*
X171889752Y-83002380D01*
X171794514Y-82954761D01*
X171746895Y-82907142D01*
X171699276Y-82811904D01*
X171699276Y-82573809D01*
X171746895Y-82478571D01*
X171794514Y-82430952D01*
X171889752Y-82383333D01*
X172080228Y-82383333D01*
X172175466Y-82430952D01*
X172223085Y-82478571D01*
X172270704Y-82573809D01*
X171365942Y-82002380D02*
X170699276Y-82002380D01*
X171127847Y-83002380D01*
X184662819Y-79789257D02*
X185139009Y-80122590D01*
X184662819Y-80360685D02*
X185662819Y-80360685D01*
X185662819Y-79979733D01*
X185615200Y-79884495D01*
X185567580Y-79836876D01*
X185472342Y-79789257D01*
X185329485Y-79789257D01*
X185234247Y-79836876D01*
X185186628Y-79884495D01*
X185139009Y-79979733D01*
X185139009Y-80360685D01*
X185662819Y-78932114D02*
X185662819Y-79122590D01*
X185615200Y-79217828D01*
X185567580Y-79265447D01*
X185424723Y-79360685D01*
X185234247Y-79408304D01*
X184853295Y-79408304D01*
X184758057Y-79360685D01*
X184710438Y-79313066D01*
X184662819Y-79217828D01*
X184662819Y-79027352D01*
X184710438Y-78932114D01*
X184758057Y-78884495D01*
X184853295Y-78836876D01*
X185091390Y-78836876D01*
X185186628Y-78884495D01*
X185234247Y-78932114D01*
X185281866Y-79027352D01*
X185281866Y-79217828D01*
X185234247Y-79313066D01*
X185186628Y-79360685D01*
X185091390Y-79408304D01*
X185329485Y-77979733D02*
X184662819Y-77979733D01*
X185710438Y-78217828D02*
X184996152Y-78455923D01*
X184996152Y-77836876D01*
X186593219Y-79789257D02*
X187069409Y-80122590D01*
X186593219Y-80360685D02*
X187593219Y-80360685D01*
X187593219Y-79979733D01*
X187545600Y-79884495D01*
X187497980Y-79836876D01*
X187402742Y-79789257D01*
X187259885Y-79789257D01*
X187164647Y-79836876D01*
X187117028Y-79884495D01*
X187069409Y-79979733D01*
X187069409Y-80360685D01*
X187593219Y-78932114D02*
X187593219Y-79122590D01*
X187545600Y-79217828D01*
X187497980Y-79265447D01*
X187355123Y-79360685D01*
X187164647Y-79408304D01*
X186783695Y-79408304D01*
X186688457Y-79360685D01*
X186640838Y-79313066D01*
X186593219Y-79217828D01*
X186593219Y-79027352D01*
X186640838Y-78932114D01*
X186688457Y-78884495D01*
X186783695Y-78836876D01*
X187021790Y-78836876D01*
X187117028Y-78884495D01*
X187164647Y-78932114D01*
X187212266Y-79027352D01*
X187212266Y-79217828D01*
X187164647Y-79313066D01*
X187117028Y-79360685D01*
X187021790Y-79408304D01*
X187593219Y-78503542D02*
X187593219Y-77884495D01*
X187212266Y-78217828D01*
X187212266Y-78074971D01*
X187164647Y-77979733D01*
X187117028Y-77932114D01*
X187021790Y-77884495D01*
X186783695Y-77884495D01*
X186688457Y-77932114D01*
X186640838Y-77979733D01*
X186593219Y-78074971D01*
X186593219Y-78360685D01*
X186640838Y-78455923D01*
X186688457Y-78503542D01*
X174442380Y-87647542D02*
X173966190Y-87314209D01*
X174442380Y-87076114D02*
X173442380Y-87076114D01*
X173442380Y-87457066D01*
X173490000Y-87552304D01*
X173537619Y-87599923D01*
X173632857Y-87647542D01*
X173775714Y-87647542D01*
X173870952Y-87599923D01*
X173918571Y-87552304D01*
X173966190Y-87457066D01*
X173966190Y-87076114D01*
X173442380Y-88504685D02*
X173442380Y-88314209D01*
X173490000Y-88218971D01*
X173537619Y-88171352D01*
X173680476Y-88076114D01*
X173870952Y-88028495D01*
X174251904Y-88028495D01*
X174347142Y-88076114D01*
X174394761Y-88123733D01*
X174442380Y-88218971D01*
X174442380Y-88409447D01*
X174394761Y-88504685D01*
X174347142Y-88552304D01*
X174251904Y-88599923D01*
X174013809Y-88599923D01*
X173918571Y-88552304D01*
X173870952Y-88504685D01*
X173823333Y-88409447D01*
X173823333Y-88218971D01*
X173870952Y-88123733D01*
X173918571Y-88076114D01*
X174013809Y-88028495D01*
X173537619Y-88980876D02*
X173490000Y-89028495D01*
X173442380Y-89123733D01*
X173442380Y-89361828D01*
X173490000Y-89457066D01*
X173537619Y-89504685D01*
X173632857Y-89552304D01*
X173728095Y-89552304D01*
X173870952Y-89504685D01*
X174442380Y-88933257D01*
X174442380Y-89552304D01*
X183421257Y-68222342D02*
X183468876Y-68269961D01*
X183611733Y-68317580D01*
X183706971Y-68317580D01*
X183849828Y-68269961D01*
X183945066Y-68174723D01*
X183992685Y-68079485D01*
X184040304Y-67889009D01*
X184040304Y-67746152D01*
X183992685Y-67555676D01*
X183945066Y-67460438D01*
X183849828Y-67365200D01*
X183706971Y-67317580D01*
X183611733Y-67317580D01*
X183468876Y-67365200D01*
X183421257Y-67412819D01*
X182516495Y-67317580D02*
X182992685Y-67317580D01*
X183040304Y-67793771D01*
X182992685Y-67746152D01*
X182897447Y-67698533D01*
X182659352Y-67698533D01*
X182564114Y-67746152D01*
X182516495Y-67793771D01*
X182468876Y-67889009D01*
X182468876Y-68127104D01*
X182516495Y-68222342D01*
X182564114Y-68269961D01*
X182659352Y-68317580D01*
X182897447Y-68317580D01*
X182992685Y-68269961D01*
X183040304Y-68222342D01*
X182135542Y-67317580D02*
X181516495Y-67317580D01*
X181849828Y-67698533D01*
X181706971Y-67698533D01*
X181611733Y-67746152D01*
X181564114Y-67793771D01*
X181516495Y-67889009D01*
X181516495Y-68127104D01*
X181564114Y-68222342D01*
X181611733Y-68269961D01*
X181706971Y-68317580D01*
X181992685Y-68317580D01*
X182087923Y-68269961D01*
X182135542Y-68222342D01*
X182881542Y-91152742D02*
X182929161Y-91105123D01*
X182976780Y-90962266D01*
X182976780Y-90867028D01*
X182929161Y-90724171D01*
X182833923Y-90628933D01*
X182738685Y-90581314D01*
X182548209Y-90533695D01*
X182405352Y-90533695D01*
X182214876Y-90581314D01*
X182119638Y-90628933D01*
X182024400Y-90724171D01*
X181976780Y-90867028D01*
X181976780Y-90962266D01*
X182024400Y-91105123D01*
X182072019Y-91152742D01*
X181976780Y-92057504D02*
X181976780Y-91581314D01*
X182452971Y-91533695D01*
X182405352Y-91581314D01*
X182357733Y-91676552D01*
X182357733Y-91914647D01*
X182405352Y-92009885D01*
X182452971Y-92057504D01*
X182548209Y-92105123D01*
X182786304Y-92105123D01*
X182881542Y-92057504D01*
X182929161Y-92009885D01*
X182976780Y-91914647D01*
X182976780Y-91676552D01*
X182929161Y-91581314D01*
X182881542Y-91533695D01*
X182072019Y-92486076D02*
X182024400Y-92533695D01*
X181976780Y-92628933D01*
X181976780Y-92867028D01*
X182024400Y-92962266D01*
X182072019Y-93009885D01*
X182167257Y-93057504D01*
X182262495Y-93057504D01*
X182405352Y-93009885D01*
X182976780Y-92438457D01*
X182976780Y-93057504D01*
X175039257Y-72739542D02*
X175086876Y-72787161D01*
X175229733Y-72834780D01*
X175324971Y-72834780D01*
X175467828Y-72787161D01*
X175563066Y-72691923D01*
X175610685Y-72596685D01*
X175658304Y-72406209D01*
X175658304Y-72263352D01*
X175610685Y-72072876D01*
X175563066Y-71977638D01*
X175467828Y-71882400D01*
X175324971Y-71834780D01*
X175229733Y-71834780D01*
X175086876Y-71882400D01*
X175039257Y-71930019D01*
X174182114Y-72168114D02*
X174182114Y-72834780D01*
X174420209Y-71787161D02*
X174658304Y-72501447D01*
X174039257Y-72501447D01*
X173753542Y-71834780D02*
X173086876Y-71834780D01*
X173515447Y-72834780D01*
X179052457Y-104090742D02*
X179100076Y-104138361D01*
X179242933Y-104185980D01*
X179338171Y-104185980D01*
X179481028Y-104138361D01*
X179576266Y-104043123D01*
X179623885Y-103947885D01*
X179671504Y-103757409D01*
X179671504Y-103614552D01*
X179623885Y-103424076D01*
X179576266Y-103328838D01*
X179481028Y-103233600D01*
X179338171Y-103185980D01*
X179242933Y-103185980D01*
X179100076Y-103233600D01*
X179052457Y-103281219D01*
X178195314Y-103519314D02*
X178195314Y-104185980D01*
X178433409Y-103138361D02*
X178671504Y-103852647D01*
X178052457Y-103852647D01*
X177242933Y-103185980D02*
X177433409Y-103185980D01*
X177528647Y-103233600D01*
X177576266Y-103281219D01*
X177671504Y-103424076D01*
X177719123Y-103614552D01*
X177719123Y-103995504D01*
X177671504Y-104090742D01*
X177623885Y-104138361D01*
X177528647Y-104185980D01*
X177338171Y-104185980D01*
X177242933Y-104138361D01*
X177195314Y-104090742D01*
X177147695Y-103995504D01*
X177147695Y-103757409D01*
X177195314Y-103662171D01*
X177242933Y-103614552D01*
X177338171Y-103566933D01*
X177528647Y-103566933D01*
X177623885Y-103614552D01*
X177671504Y-103662171D01*
X177719123Y-103757409D01*
X159208742Y-66057542D02*
X159256361Y-66009923D01*
X159303980Y-65867066D01*
X159303980Y-65771828D01*
X159256361Y-65628971D01*
X159161123Y-65533733D01*
X159065885Y-65486114D01*
X158875409Y-65438495D01*
X158732552Y-65438495D01*
X158542076Y-65486114D01*
X158446838Y-65533733D01*
X158351600Y-65628971D01*
X158303980Y-65771828D01*
X158303980Y-65867066D01*
X158351600Y-66009923D01*
X158399219Y-66057542D01*
X158637314Y-66914685D02*
X159303980Y-66914685D01*
X158256361Y-66676590D02*
X158970647Y-66438495D01*
X158970647Y-67057542D01*
X158303980Y-67914685D02*
X158303980Y-67438495D01*
X158780171Y-67390876D01*
X158732552Y-67438495D01*
X158684933Y-67533733D01*
X158684933Y-67771828D01*
X158732552Y-67867066D01*
X158780171Y-67914685D01*
X158875409Y-67962304D01*
X159113504Y-67962304D01*
X159208742Y-67914685D01*
X159256361Y-67867066D01*
X159303980Y-67771828D01*
X159303980Y-67533733D01*
X159256361Y-67438495D01*
X159208742Y-67390876D01*
X175191657Y-74038342D02*
X175239276Y-74085961D01*
X175382133Y-74133580D01*
X175477371Y-74133580D01*
X175620228Y-74085961D01*
X175715466Y-73990723D01*
X175763085Y-73895485D01*
X175810704Y-73705009D01*
X175810704Y-73562152D01*
X175763085Y-73371676D01*
X175715466Y-73276438D01*
X175620228Y-73181200D01*
X175477371Y-73133580D01*
X175382133Y-73133580D01*
X175239276Y-73181200D01*
X175191657Y-73228819D01*
X174334514Y-73466914D02*
X174334514Y-74133580D01*
X174572609Y-73085961D02*
X174810704Y-73800247D01*
X174191657Y-73800247D01*
X173382133Y-73466914D02*
X173382133Y-74133580D01*
X173620228Y-73085961D02*
X173858323Y-73800247D01*
X173239276Y-73800247D01*
X177122057Y-108125142D02*
X177169676Y-108172761D01*
X177312533Y-108220380D01*
X177407771Y-108220380D01*
X177550628Y-108172761D01*
X177645866Y-108077523D01*
X177693485Y-107982285D01*
X177741104Y-107791809D01*
X177741104Y-107648952D01*
X177693485Y-107458476D01*
X177645866Y-107363238D01*
X177550628Y-107268000D01*
X177407771Y-107220380D01*
X177312533Y-107220380D01*
X177169676Y-107268000D01*
X177122057Y-107315619D01*
X176264914Y-107553714D02*
X176264914Y-108220380D01*
X176503009Y-107172761D02*
X176741104Y-107887047D01*
X176122057Y-107887047D01*
X175836342Y-107220380D02*
X175217295Y-107220380D01*
X175550628Y-107601333D01*
X175407771Y-107601333D01*
X175312533Y-107648952D01*
X175264914Y-107696571D01*
X175217295Y-107791809D01*
X175217295Y-108029904D01*
X175264914Y-108125142D01*
X175312533Y-108172761D01*
X175407771Y-108220380D01*
X175693485Y-108220380D01*
X175788723Y-108172761D01*
X175836342Y-108125142D01*
X183897542Y-78554342D02*
X183945161Y-78506723D01*
X183992780Y-78363866D01*
X183992780Y-78268628D01*
X183945161Y-78125771D01*
X183849923Y-78030533D01*
X183754685Y-77982914D01*
X183564209Y-77935295D01*
X183421352Y-77935295D01*
X183230876Y-77982914D01*
X183135638Y-78030533D01*
X183040400Y-78125771D01*
X182992780Y-78268628D01*
X182992780Y-78363866D01*
X183040400Y-78506723D01*
X183088019Y-78554342D01*
X182992780Y-78887676D02*
X182992780Y-79506723D01*
X183373733Y-79173390D01*
X183373733Y-79316247D01*
X183421352Y-79411485D01*
X183468971Y-79459104D01*
X183564209Y-79506723D01*
X183802304Y-79506723D01*
X183897542Y-79459104D01*
X183945161Y-79411485D01*
X183992780Y-79316247D01*
X183992780Y-79030533D01*
X183945161Y-78935295D01*
X183897542Y-78887676D01*
X183421352Y-80078152D02*
X183373733Y-79982914D01*
X183326114Y-79935295D01*
X183230876Y-79887676D01*
X183183257Y-79887676D01*
X183088019Y-79935295D01*
X183040400Y-79982914D01*
X182992780Y-80078152D01*
X182992780Y-80268628D01*
X183040400Y-80363866D01*
X183088019Y-80411485D01*
X183183257Y-80459104D01*
X183230876Y-80459104D01*
X183326114Y-80411485D01*
X183373733Y-80363866D01*
X183421352Y-80268628D01*
X183421352Y-80078152D01*
X183468971Y-79982914D01*
X183516590Y-79935295D01*
X183611828Y-79887676D01*
X183802304Y-79887676D01*
X183897542Y-79935295D01*
X183945161Y-79982914D01*
X183992780Y-80078152D01*
X183992780Y-80268628D01*
X183945161Y-80363866D01*
X183897542Y-80411485D01*
X183802304Y-80459104D01*
X183611828Y-80459104D01*
X183516590Y-80411485D01*
X183468971Y-80363866D01*
X183421352Y-80268628D01*
X156613123Y-66152780D02*
X155946457Y-67152780D01*
X155946457Y-66152780D02*
X156613123Y-67152780D01*
X155613123Y-66248019D02*
X155565504Y-66200400D01*
X155470266Y-66152780D01*
X155232171Y-66152780D01*
X155136933Y-66200400D01*
X155089314Y-66248019D01*
X155041695Y-66343257D01*
X155041695Y-66438495D01*
X155089314Y-66581352D01*
X155660742Y-67152780D01*
X155041695Y-67152780D01*
X181098723Y-79755580D02*
X180432057Y-80755580D01*
X180432057Y-79755580D02*
X181098723Y-80755580D01*
X179527295Y-80755580D02*
X180098723Y-80755580D01*
X179813009Y-80755580D02*
X179813009Y-79755580D01*
X179908247Y-79898438D01*
X180003485Y-79993676D01*
X180098723Y-80041295D01*
X165295104Y-110973180D02*
X164723676Y-110973180D01*
X165009390Y-111973180D02*
X165009390Y-110973180D01*
X164390342Y-111973180D02*
X164390342Y-110973180D01*
X164009390Y-110973180D01*
X163914152Y-111020800D01*
X163866533Y-111068419D01*
X163818914Y-111163657D01*
X163818914Y-111306514D01*
X163866533Y-111401752D01*
X163914152Y-111449371D01*
X164009390Y-111496990D01*
X164390342Y-111496990D01*
X162961771Y-111306514D02*
X162961771Y-111973180D01*
X163199866Y-110925561D02*
X163437961Y-111639847D01*
X162818914Y-111639847D01*
X165145980Y-97756742D02*
X164669790Y-97423409D01*
X165145980Y-97185314D02*
X164145980Y-97185314D01*
X164145980Y-97566266D01*
X164193600Y-97661504D01*
X164241219Y-97709123D01*
X164336457Y-97756742D01*
X164479314Y-97756742D01*
X164574552Y-97709123D01*
X164622171Y-97661504D01*
X164669790Y-97566266D01*
X164669790Y-97185314D01*
X164479314Y-98613885D02*
X165145980Y-98613885D01*
X164098361Y-98375790D02*
X164812647Y-98137695D01*
X164812647Y-98756742D01*
X165145980Y-99185314D02*
X165145980Y-99375790D01*
X165098361Y-99471028D01*
X165050742Y-99518647D01*
X164907885Y-99613885D01*
X164717409Y-99661504D01*
X164336457Y-99661504D01*
X164241219Y-99613885D01*
X164193600Y-99566266D01*
X164145980Y-99471028D01*
X164145980Y-99280552D01*
X164193600Y-99185314D01*
X164241219Y-99137695D01*
X164336457Y-99090076D01*
X164574552Y-99090076D01*
X164669790Y-99137695D01*
X164717409Y-99185314D01*
X164765028Y-99280552D01*
X164765028Y-99471028D01*
X164717409Y-99566266D01*
X164669790Y-99613885D01*
X164574552Y-99661504D01*
X165196780Y-94759542D02*
X164720590Y-94426209D01*
X165196780Y-94188114D02*
X164196780Y-94188114D01*
X164196780Y-94569066D01*
X164244400Y-94664304D01*
X164292019Y-94711923D01*
X164387257Y-94759542D01*
X164530114Y-94759542D01*
X164625352Y-94711923D01*
X164672971Y-94664304D01*
X164720590Y-94569066D01*
X164720590Y-94188114D01*
X164530114Y-95616685D02*
X165196780Y-95616685D01*
X164149161Y-95378590D02*
X164863447Y-95140495D01*
X164863447Y-95759542D01*
X164625352Y-96283352D02*
X164577733Y-96188114D01*
X164530114Y-96140495D01*
X164434876Y-96092876D01*
X164387257Y-96092876D01*
X164292019Y-96140495D01*
X164244400Y-96188114D01*
X164196780Y-96283352D01*
X164196780Y-96473828D01*
X164244400Y-96569066D01*
X164292019Y-96616685D01*
X164387257Y-96664304D01*
X164434876Y-96664304D01*
X164530114Y-96616685D01*
X164577733Y-96569066D01*
X164625352Y-96473828D01*
X164625352Y-96283352D01*
X164672971Y-96188114D01*
X164720590Y-96140495D01*
X164815828Y-96092876D01*
X165006304Y-96092876D01*
X165101542Y-96140495D01*
X165149161Y-96188114D01*
X165196780Y-96283352D01*
X165196780Y-96473828D01*
X165149161Y-96569066D01*
X165101542Y-96616685D01*
X165006304Y-96664304D01*
X164815828Y-96664304D01*
X164720590Y-96616685D01*
X164672971Y-96569066D01*
X164625352Y-96473828D01*
X175813980Y-98264742D02*
X175337790Y-97931409D01*
X175813980Y-97693314D02*
X174813980Y-97693314D01*
X174813980Y-98074266D01*
X174861600Y-98169504D01*
X174909219Y-98217123D01*
X175004457Y-98264742D01*
X175147314Y-98264742D01*
X175242552Y-98217123D01*
X175290171Y-98169504D01*
X175337790Y-98074266D01*
X175337790Y-97693314D01*
X175147314Y-99121885D02*
X175813980Y-99121885D01*
X174766361Y-98883790D02*
X175480647Y-98645695D01*
X175480647Y-99264742D01*
X174813980Y-100121885D02*
X174813980Y-99645695D01*
X175290171Y-99598076D01*
X175242552Y-99645695D01*
X175194933Y-99740933D01*
X175194933Y-99979028D01*
X175242552Y-100074266D01*
X175290171Y-100121885D01*
X175385409Y-100169504D01*
X175623504Y-100169504D01*
X175718742Y-100121885D01*
X175766361Y-100074266D01*
X175813980Y-99979028D01*
X175813980Y-99740933D01*
X175766361Y-99645695D01*
X175718742Y-99598076D01*
X175813980Y-94810342D02*
X175337790Y-94477009D01*
X175813980Y-94238914D02*
X174813980Y-94238914D01*
X174813980Y-94619866D01*
X174861600Y-94715104D01*
X174909219Y-94762723D01*
X175004457Y-94810342D01*
X175147314Y-94810342D01*
X175242552Y-94762723D01*
X175290171Y-94715104D01*
X175337790Y-94619866D01*
X175337790Y-94238914D01*
X175147314Y-95667485D02*
X175813980Y-95667485D01*
X174766361Y-95429390D02*
X175480647Y-95191295D01*
X175480647Y-95810342D01*
X175147314Y-96619866D02*
X175813980Y-96619866D01*
X174766361Y-96381771D02*
X175480647Y-96143676D01*
X175480647Y-96762723D01*
X171394380Y-98112342D02*
X170918190Y-97779009D01*
X171394380Y-97540914D02*
X170394380Y-97540914D01*
X170394380Y-97921866D01*
X170442000Y-98017104D01*
X170489619Y-98064723D01*
X170584857Y-98112342D01*
X170727714Y-98112342D01*
X170822952Y-98064723D01*
X170870571Y-98017104D01*
X170918190Y-97921866D01*
X170918190Y-97540914D01*
X170727714Y-98969485D02*
X171394380Y-98969485D01*
X170346761Y-98731390D02*
X171061047Y-98493295D01*
X171061047Y-99112342D01*
X170394380Y-99398057D02*
X170394380Y-100017104D01*
X170775333Y-99683771D01*
X170775333Y-99826628D01*
X170822952Y-99921866D01*
X170870571Y-99969485D01*
X170965809Y-100017104D01*
X171203904Y-100017104D01*
X171299142Y-99969485D01*
X171346761Y-99921866D01*
X171394380Y-99826628D01*
X171394380Y-99540914D01*
X171346761Y-99445676D01*
X171299142Y-99398057D01*
X171343580Y-92727542D02*
X170867390Y-92394209D01*
X171343580Y-92156114D02*
X170343580Y-92156114D01*
X170343580Y-92537066D01*
X170391200Y-92632304D01*
X170438819Y-92679923D01*
X170534057Y-92727542D01*
X170676914Y-92727542D01*
X170772152Y-92679923D01*
X170819771Y-92632304D01*
X170867390Y-92537066D01*
X170867390Y-92156114D01*
X170676914Y-93584685D02*
X171343580Y-93584685D01*
X170295961Y-93346590D02*
X171010247Y-93108495D01*
X171010247Y-93727542D01*
X170438819Y-94060876D02*
X170391200Y-94108495D01*
X170343580Y-94203733D01*
X170343580Y-94441828D01*
X170391200Y-94537066D01*
X170438819Y-94584685D01*
X170534057Y-94632304D01*
X170629295Y-94632304D01*
X170772152Y-94584685D01*
X171343580Y-94013257D01*
X171343580Y-94632304D01*
X179979580Y-98366342D02*
X179503390Y-98033009D01*
X179979580Y-97794914D02*
X178979580Y-97794914D01*
X178979580Y-98175866D01*
X179027200Y-98271104D01*
X179074819Y-98318723D01*
X179170057Y-98366342D01*
X179312914Y-98366342D01*
X179408152Y-98318723D01*
X179455771Y-98271104D01*
X179503390Y-98175866D01*
X179503390Y-97794914D01*
X178979580Y-98699676D02*
X178979580Y-99318723D01*
X179360533Y-98985390D01*
X179360533Y-99128247D01*
X179408152Y-99223485D01*
X179455771Y-99271104D01*
X179551009Y-99318723D01*
X179789104Y-99318723D01*
X179884342Y-99271104D01*
X179931961Y-99223485D01*
X179979580Y-99128247D01*
X179979580Y-98842533D01*
X179931961Y-98747295D01*
X179884342Y-98699676D01*
X179979580Y-99794914D02*
X179979580Y-99985390D01*
X179931961Y-100080628D01*
X179884342Y-100128247D01*
X179741485Y-100223485D01*
X179551009Y-100271104D01*
X179170057Y-100271104D01*
X179074819Y-100223485D01*
X179027200Y-100175866D01*
X178979580Y-100080628D01*
X178979580Y-99890152D01*
X179027200Y-99794914D01*
X179074819Y-99747295D01*
X179170057Y-99699676D01*
X179408152Y-99699676D01*
X179503390Y-99747295D01*
X179551009Y-99794914D01*
X179598628Y-99890152D01*
X179598628Y-100080628D01*
X179551009Y-100175866D01*
X179503390Y-100223485D01*
X179408152Y-100271104D01*
X180030380Y-95369142D02*
X179554190Y-95035809D01*
X180030380Y-94797714D02*
X179030380Y-94797714D01*
X179030380Y-95178666D01*
X179078000Y-95273904D01*
X179125619Y-95321523D01*
X179220857Y-95369142D01*
X179363714Y-95369142D01*
X179458952Y-95321523D01*
X179506571Y-95273904D01*
X179554190Y-95178666D01*
X179554190Y-94797714D01*
X179030380Y-95702476D02*
X179030380Y-96321523D01*
X179411333Y-95988190D01*
X179411333Y-96131047D01*
X179458952Y-96226285D01*
X179506571Y-96273904D01*
X179601809Y-96321523D01*
X179839904Y-96321523D01*
X179935142Y-96273904D01*
X179982761Y-96226285D01*
X180030380Y-96131047D01*
X180030380Y-95845333D01*
X179982761Y-95750095D01*
X179935142Y-95702476D01*
X179458952Y-96892952D02*
X179411333Y-96797714D01*
X179363714Y-96750095D01*
X179268476Y-96702476D01*
X179220857Y-96702476D01*
X179125619Y-96750095D01*
X179078000Y-96797714D01*
X179030380Y-96892952D01*
X179030380Y-97083428D01*
X179078000Y-97178666D01*
X179125619Y-97226285D01*
X179220857Y-97273904D01*
X179268476Y-97273904D01*
X179363714Y-97226285D01*
X179411333Y-97178666D01*
X179458952Y-97083428D01*
X179458952Y-96892952D01*
X179506571Y-96797714D01*
X179554190Y-96750095D01*
X179649428Y-96702476D01*
X179839904Y-96702476D01*
X179935142Y-96750095D01*
X179982761Y-96797714D01*
X180030380Y-96892952D01*
X180030380Y-97083428D01*
X179982761Y-97178666D01*
X179935142Y-97226285D01*
X179839904Y-97273904D01*
X179649428Y-97273904D01*
X179554190Y-97226285D01*
X179506571Y-97178666D01*
X179458952Y-97083428D01*
X181401980Y-98315542D02*
X180925790Y-97982209D01*
X181401980Y-97744114D02*
X180401980Y-97744114D01*
X180401980Y-98125066D01*
X180449600Y-98220304D01*
X180497219Y-98267923D01*
X180592457Y-98315542D01*
X180735314Y-98315542D01*
X180830552Y-98267923D01*
X180878171Y-98220304D01*
X180925790Y-98125066D01*
X180925790Y-97744114D01*
X180401980Y-98648876D02*
X180401980Y-99267923D01*
X180782933Y-98934590D01*
X180782933Y-99077447D01*
X180830552Y-99172685D01*
X180878171Y-99220304D01*
X180973409Y-99267923D01*
X181211504Y-99267923D01*
X181306742Y-99220304D01*
X181354361Y-99172685D01*
X181401980Y-99077447D01*
X181401980Y-98791733D01*
X181354361Y-98696495D01*
X181306742Y-98648876D01*
X180401980Y-100172685D02*
X180401980Y-99696495D01*
X180878171Y-99648876D01*
X180830552Y-99696495D01*
X180782933Y-99791733D01*
X180782933Y-100029828D01*
X180830552Y-100125066D01*
X180878171Y-100172685D01*
X180973409Y-100220304D01*
X181211504Y-100220304D01*
X181306742Y-100172685D01*
X181354361Y-100125066D01*
X181401980Y-100029828D01*
X181401980Y-99791733D01*
X181354361Y-99696495D01*
X181306742Y-99648876D01*
X181401980Y-95369142D02*
X180925790Y-95035809D01*
X181401980Y-94797714D02*
X180401980Y-94797714D01*
X180401980Y-95178666D01*
X180449600Y-95273904D01*
X180497219Y-95321523D01*
X180592457Y-95369142D01*
X180735314Y-95369142D01*
X180830552Y-95321523D01*
X180878171Y-95273904D01*
X180925790Y-95178666D01*
X180925790Y-94797714D01*
X180401980Y-95702476D02*
X180401980Y-96321523D01*
X180782933Y-95988190D01*
X180782933Y-96131047D01*
X180830552Y-96226285D01*
X180878171Y-96273904D01*
X180973409Y-96321523D01*
X181211504Y-96321523D01*
X181306742Y-96273904D01*
X181354361Y-96226285D01*
X181401980Y-96131047D01*
X181401980Y-95845333D01*
X181354361Y-95750095D01*
X181306742Y-95702476D01*
X180735314Y-97178666D02*
X181401980Y-97178666D01*
X180354361Y-96940571D02*
X181068647Y-96702476D01*
X181068647Y-97321523D01*
X170022780Y-98213942D02*
X169546590Y-97880609D01*
X170022780Y-97642514D02*
X169022780Y-97642514D01*
X169022780Y-98023466D01*
X169070400Y-98118704D01*
X169118019Y-98166323D01*
X169213257Y-98213942D01*
X169356114Y-98213942D01*
X169451352Y-98166323D01*
X169498971Y-98118704D01*
X169546590Y-98023466D01*
X169546590Y-97642514D01*
X169022780Y-98547276D02*
X169022780Y-99166323D01*
X169403733Y-98832990D01*
X169403733Y-98975847D01*
X169451352Y-99071085D01*
X169498971Y-99118704D01*
X169594209Y-99166323D01*
X169832304Y-99166323D01*
X169927542Y-99118704D01*
X169975161Y-99071085D01*
X170022780Y-98975847D01*
X170022780Y-98690133D01*
X169975161Y-98594895D01*
X169927542Y-98547276D01*
X170022780Y-100118704D02*
X170022780Y-99547276D01*
X170022780Y-99832990D02*
X169022780Y-99832990D01*
X169165638Y-99737752D01*
X169260876Y-99642514D01*
X169308495Y-99547276D01*
X170022780Y-92676742D02*
X169546590Y-92343409D01*
X170022780Y-92105314D02*
X169022780Y-92105314D01*
X169022780Y-92486266D01*
X169070400Y-92581504D01*
X169118019Y-92629123D01*
X169213257Y-92676742D01*
X169356114Y-92676742D01*
X169451352Y-92629123D01*
X169498971Y-92581504D01*
X169546590Y-92486266D01*
X169546590Y-92105314D01*
X169022780Y-93010076D02*
X169022780Y-93629123D01*
X169403733Y-93295790D01*
X169403733Y-93438647D01*
X169451352Y-93533885D01*
X169498971Y-93581504D01*
X169594209Y-93629123D01*
X169832304Y-93629123D01*
X169927542Y-93581504D01*
X169975161Y-93533885D01*
X170022780Y-93438647D01*
X170022780Y-93152933D01*
X169975161Y-93057695D01*
X169927542Y-93010076D01*
X169022780Y-94248171D02*
X169022780Y-94343409D01*
X169070400Y-94438647D01*
X169118019Y-94486266D01*
X169213257Y-94533885D01*
X169403733Y-94581504D01*
X169641828Y-94581504D01*
X169832304Y-94533885D01*
X169927542Y-94486266D01*
X169975161Y-94438647D01*
X170022780Y-94343409D01*
X170022780Y-94248171D01*
X169975161Y-94152933D01*
X169927542Y-94105314D01*
X169832304Y-94057695D01*
X169641828Y-94010076D01*
X169403733Y-94010076D01*
X169213257Y-94057695D01*
X169118019Y-94105314D01*
X169070400Y-94152933D01*
X169022780Y-94248171D01*
X177185580Y-89120742D02*
X176709390Y-88787409D01*
X177185580Y-88549314D02*
X176185580Y-88549314D01*
X176185580Y-88930266D01*
X176233200Y-89025504D01*
X176280819Y-89073123D01*
X176376057Y-89120742D01*
X176518914Y-89120742D01*
X176614152Y-89073123D01*
X176661771Y-89025504D01*
X176709390Y-88930266D01*
X176709390Y-88549314D01*
X176280819Y-89501695D02*
X176233200Y-89549314D01*
X176185580Y-89644552D01*
X176185580Y-89882647D01*
X176233200Y-89977885D01*
X176280819Y-90025504D01*
X176376057Y-90073123D01*
X176471295Y-90073123D01*
X176614152Y-90025504D01*
X177185580Y-89454076D01*
X177185580Y-90073123D01*
X177185580Y-90549314D02*
X177185580Y-90739790D01*
X177137961Y-90835028D01*
X177090342Y-90882647D01*
X176947485Y-90977885D01*
X176757009Y-91025504D01*
X176376057Y-91025504D01*
X176280819Y-90977885D01*
X176233200Y-90930266D01*
X176185580Y-90835028D01*
X176185580Y-90644552D01*
X176233200Y-90549314D01*
X176280819Y-90501695D01*
X176376057Y-90454076D01*
X176614152Y-90454076D01*
X176709390Y-90501695D01*
X176757009Y-90549314D01*
X176804628Y-90644552D01*
X176804628Y-90835028D01*
X176757009Y-90930266D01*
X176709390Y-90977885D01*
X176614152Y-91025504D01*
X187942457Y-116784380D02*
X188275790Y-116308190D01*
X188513885Y-116784380D02*
X188513885Y-115784380D01*
X188132933Y-115784380D01*
X188037695Y-115832000D01*
X187990076Y-115879619D01*
X187942457Y-115974857D01*
X187942457Y-116117714D01*
X187990076Y-116212952D01*
X188037695Y-116260571D01*
X188132933Y-116308190D01*
X188513885Y-116308190D01*
X186990076Y-116784380D02*
X187561504Y-116784380D01*
X187275790Y-116784380D02*
X187275790Y-115784380D01*
X187371028Y-115927238D01*
X187466266Y-116022476D01*
X187561504Y-116070095D01*
X186513885Y-116784380D02*
X186323409Y-116784380D01*
X186228171Y-116736761D01*
X186180552Y-116689142D01*
X186085314Y-116546285D01*
X186037695Y-116355809D01*
X186037695Y-115974857D01*
X186085314Y-115879619D01*
X186132933Y-115832000D01*
X186228171Y-115784380D01*
X186418647Y-115784380D01*
X186513885Y-115832000D01*
X186561504Y-115879619D01*
X186609123Y-115974857D01*
X186609123Y-116212952D01*
X186561504Y-116308190D01*
X186513885Y-116355809D01*
X186418647Y-116403428D01*
X186228171Y-116403428D01*
X186132933Y-116355809D01*
X186085314Y-116308190D01*
X186037695Y-116212952D01*
X187942457Y-111399580D02*
X188275790Y-110923390D01*
X188513885Y-111399580D02*
X188513885Y-110399580D01*
X188132933Y-110399580D01*
X188037695Y-110447200D01*
X187990076Y-110494819D01*
X187942457Y-110590057D01*
X187942457Y-110732914D01*
X187990076Y-110828152D01*
X188037695Y-110875771D01*
X188132933Y-110923390D01*
X188513885Y-110923390D01*
X186990076Y-111399580D02*
X187561504Y-111399580D01*
X187275790Y-111399580D02*
X187275790Y-110399580D01*
X187371028Y-110542438D01*
X187466266Y-110637676D01*
X187561504Y-110685295D01*
X186656742Y-110399580D02*
X185990076Y-110399580D01*
X186418647Y-111399580D01*
X132964971Y-95229466D02*
X132964971Y-94896133D01*
X133488780Y-94896133D02*
X132488780Y-94896133D01*
X132488780Y-95372323D01*
X132964971Y-96086609D02*
X133012590Y-96229466D01*
X133060209Y-96277085D01*
X133155447Y-96324704D01*
X133298304Y-96324704D01*
X133393542Y-96277085D01*
X133441161Y-96229466D01*
X133488780Y-96134228D01*
X133488780Y-95753276D01*
X132488780Y-95753276D01*
X132488780Y-96086609D01*
X132536400Y-96181847D01*
X132584019Y-96229466D01*
X132679257Y-96277085D01*
X132774495Y-96277085D01*
X132869733Y-96229466D01*
X132917352Y-96181847D01*
X132964971Y-96086609D01*
X132964971Y-95753276D01*
X133488780Y-97277085D02*
X133488780Y-96705657D01*
X133488780Y-96991371D02*
X132488780Y-96991371D01*
X132631638Y-96896133D01*
X132726876Y-96800895D01*
X132774495Y-96705657D01*
X158242857Y-90927142D02*
X158290476Y-90974761D01*
X158433333Y-91022380D01*
X158528571Y-91022380D01*
X158671428Y-90974761D01*
X158766666Y-90879523D01*
X158814285Y-90784285D01*
X158861904Y-90593809D01*
X158861904Y-90450952D01*
X158814285Y-90260476D01*
X158766666Y-90165238D01*
X158671428Y-90070000D01*
X158528571Y-90022380D01*
X158433333Y-90022380D01*
X158290476Y-90070000D01*
X158242857Y-90117619D01*
X157909523Y-90022380D02*
X157290476Y-90022380D01*
X157623809Y-90403333D01*
X157480952Y-90403333D01*
X157385714Y-90450952D01*
X157338095Y-90498571D01*
X157290476Y-90593809D01*
X157290476Y-90831904D01*
X157338095Y-90927142D01*
X157385714Y-90974761D01*
X157480952Y-91022380D01*
X157766666Y-91022380D01*
X157861904Y-90974761D01*
X157909523Y-90927142D01*
X156909523Y-90117619D02*
X156861904Y-90070000D01*
X156766666Y-90022380D01*
X156528571Y-90022380D01*
X156433333Y-90070000D01*
X156385714Y-90117619D01*
X156338095Y-90212857D01*
X156338095Y-90308095D01*
X156385714Y-90450952D01*
X156957142Y-91022380D01*
X156338095Y-91022380D01*
X158292857Y-79327142D02*
X158340476Y-79374761D01*
X158483333Y-79422380D01*
X158578571Y-79422380D01*
X158721428Y-79374761D01*
X158816666Y-79279523D01*
X158864285Y-79184285D01*
X158911904Y-78993809D01*
X158911904Y-78850952D01*
X158864285Y-78660476D01*
X158816666Y-78565238D01*
X158721428Y-78470000D01*
X158578571Y-78422380D01*
X158483333Y-78422380D01*
X158340476Y-78470000D01*
X158292857Y-78517619D01*
X157959523Y-78422380D02*
X157340476Y-78422380D01*
X157673809Y-78803333D01*
X157530952Y-78803333D01*
X157435714Y-78850952D01*
X157388095Y-78898571D01*
X157340476Y-78993809D01*
X157340476Y-79231904D01*
X157388095Y-79327142D01*
X157435714Y-79374761D01*
X157530952Y-79422380D01*
X157816666Y-79422380D01*
X157911904Y-79374761D01*
X157959523Y-79327142D01*
X156388095Y-79422380D02*
X156959523Y-79422380D01*
X156673809Y-79422380D02*
X156673809Y-78422380D01*
X156769047Y-78565238D01*
X156864285Y-78660476D01*
X156959523Y-78708095D01*
X158292857Y-82577142D02*
X158340476Y-82624761D01*
X158483333Y-82672380D01*
X158578571Y-82672380D01*
X158721428Y-82624761D01*
X158816666Y-82529523D01*
X158864285Y-82434285D01*
X158911904Y-82243809D01*
X158911904Y-82100952D01*
X158864285Y-81910476D01*
X158816666Y-81815238D01*
X158721428Y-81720000D01*
X158578571Y-81672380D01*
X158483333Y-81672380D01*
X158340476Y-81720000D01*
X158292857Y-81767619D01*
X157959523Y-81672380D02*
X157340476Y-81672380D01*
X157673809Y-82053333D01*
X157530952Y-82053333D01*
X157435714Y-82100952D01*
X157388095Y-82148571D01*
X157340476Y-82243809D01*
X157340476Y-82481904D01*
X157388095Y-82577142D01*
X157435714Y-82624761D01*
X157530952Y-82672380D01*
X157816666Y-82672380D01*
X157911904Y-82624761D01*
X157959523Y-82577142D01*
X156721428Y-81672380D02*
X156626190Y-81672380D01*
X156530952Y-81720000D01*
X156483333Y-81767619D01*
X156435714Y-81862857D01*
X156388095Y-82053333D01*
X156388095Y-82291428D01*
X156435714Y-82481904D01*
X156483333Y-82577142D01*
X156530952Y-82624761D01*
X156626190Y-82672380D01*
X156721428Y-82672380D01*
X156816666Y-82624761D01*
X156864285Y-82577142D01*
X156911904Y-82481904D01*
X156959523Y-82291428D01*
X156959523Y-82053333D01*
X156911904Y-81862857D01*
X156864285Y-81767619D01*
X156816666Y-81720000D01*
X156721428Y-81672380D01*
X147055357Y-88487142D02*
X147102976Y-88534761D01*
X147245833Y-88582380D01*
X147341071Y-88582380D01*
X147483928Y-88534761D01*
X147579166Y-88439523D01*
X147626785Y-88344285D01*
X147674404Y-88153809D01*
X147674404Y-88010952D01*
X147626785Y-87820476D01*
X147579166Y-87725238D01*
X147483928Y-87630000D01*
X147341071Y-87582380D01*
X147245833Y-87582380D01*
X147102976Y-87630000D01*
X147055357Y-87677619D01*
X146674404Y-87677619D02*
X146626785Y-87630000D01*
X146531547Y-87582380D01*
X146293452Y-87582380D01*
X146198214Y-87630000D01*
X146150595Y-87677619D01*
X146102976Y-87772857D01*
X146102976Y-87868095D01*
X146150595Y-88010952D01*
X146722023Y-88582380D01*
X146102976Y-88582380D01*
X145150595Y-88582380D02*
X145722023Y-88582380D01*
X145436309Y-88582380D02*
X145436309Y-87582380D01*
X145531547Y-87725238D01*
X145626785Y-87820476D01*
X145722023Y-87868095D01*
X133442857Y-93677142D02*
X133490476Y-93724761D01*
X133633333Y-93772380D01*
X133728571Y-93772380D01*
X133871428Y-93724761D01*
X133966666Y-93629523D01*
X134014285Y-93534285D01*
X134061904Y-93343809D01*
X134061904Y-93200952D01*
X134014285Y-93010476D01*
X133966666Y-92915238D01*
X133871428Y-92820000D01*
X133728571Y-92772380D01*
X133633333Y-92772380D01*
X133490476Y-92820000D01*
X133442857Y-92867619D01*
X133061904Y-92867619D02*
X133014285Y-92820000D01*
X132919047Y-92772380D01*
X132680952Y-92772380D01*
X132585714Y-92820000D01*
X132538095Y-92867619D01*
X132490476Y-92962857D01*
X132490476Y-93058095D01*
X132538095Y-93200952D01*
X133109523Y-93772380D01*
X132490476Y-93772380D01*
X131871428Y-92772380D02*
X131776190Y-92772380D01*
X131680952Y-92820000D01*
X131633333Y-92867619D01*
X131585714Y-92962857D01*
X131538095Y-93153333D01*
X131538095Y-93391428D01*
X131585714Y-93581904D01*
X131633333Y-93677142D01*
X131680952Y-93724761D01*
X131776190Y-93772380D01*
X131871428Y-93772380D01*
X131966666Y-93724761D01*
X132014285Y-93677142D01*
X132061904Y-93581904D01*
X132109523Y-93391428D01*
X132109523Y-93153333D01*
X132061904Y-92962857D01*
X132014285Y-92867619D01*
X131966666Y-92820000D01*
X131871428Y-92772380D01*
X147931142Y-100957142D02*
X147978761Y-100909523D01*
X148026380Y-100766666D01*
X148026380Y-100671428D01*
X147978761Y-100528571D01*
X147883523Y-100433333D01*
X147788285Y-100385714D01*
X147597809Y-100338095D01*
X147454952Y-100338095D01*
X147264476Y-100385714D01*
X147169238Y-100433333D01*
X147074000Y-100528571D01*
X147026380Y-100671428D01*
X147026380Y-100766666D01*
X147074000Y-100909523D01*
X147121619Y-100957142D01*
X148026380Y-101909523D02*
X148026380Y-101338095D01*
X148026380Y-101623809D02*
X147026380Y-101623809D01*
X147169238Y-101528571D01*
X147264476Y-101433333D01*
X147312095Y-101338095D01*
X148026380Y-102385714D02*
X148026380Y-102576190D01*
X147978761Y-102671428D01*
X147931142Y-102719047D01*
X147788285Y-102814285D01*
X147597809Y-102861904D01*
X147216857Y-102861904D01*
X147121619Y-102814285D01*
X147074000Y-102766666D01*
X147026380Y-102671428D01*
X147026380Y-102480952D01*
X147074000Y-102385714D01*
X147121619Y-102338095D01*
X147216857Y-102290476D01*
X147454952Y-102290476D01*
X147550190Y-102338095D01*
X147597809Y-102385714D01*
X147645428Y-102480952D01*
X147645428Y-102671428D01*
X147597809Y-102766666D01*
X147550190Y-102814285D01*
X147454952Y-102861904D01*
X147142857Y-84587142D02*
X147190476Y-84634761D01*
X147333333Y-84682380D01*
X147428571Y-84682380D01*
X147571428Y-84634761D01*
X147666666Y-84539523D01*
X147714285Y-84444285D01*
X147761904Y-84253809D01*
X147761904Y-84110952D01*
X147714285Y-83920476D01*
X147666666Y-83825238D01*
X147571428Y-83730000D01*
X147428571Y-83682380D01*
X147333333Y-83682380D01*
X147190476Y-83730000D01*
X147142857Y-83777619D01*
X146190476Y-84682380D02*
X146761904Y-84682380D01*
X146476190Y-84682380D02*
X146476190Y-83682380D01*
X146571428Y-83825238D01*
X146666666Y-83920476D01*
X146761904Y-83968095D01*
X145619047Y-84110952D02*
X145714285Y-84063333D01*
X145761904Y-84015714D01*
X145809523Y-83920476D01*
X145809523Y-83872857D01*
X145761904Y-83777619D01*
X145714285Y-83730000D01*
X145619047Y-83682380D01*
X145428571Y-83682380D01*
X145333333Y-83730000D01*
X145285714Y-83777619D01*
X145238095Y-83872857D01*
X145238095Y-83920476D01*
X145285714Y-84015714D01*
X145333333Y-84063333D01*
X145428571Y-84110952D01*
X145619047Y-84110952D01*
X145714285Y-84158571D01*
X145761904Y-84206190D01*
X145809523Y-84301428D01*
X145809523Y-84491904D01*
X145761904Y-84587142D01*
X145714285Y-84634761D01*
X145619047Y-84682380D01*
X145428571Y-84682380D01*
X145333333Y-84634761D01*
X145285714Y-84587142D01*
X145238095Y-84491904D01*
X145238095Y-84301428D01*
X145285714Y-84206190D01*
X145333333Y-84158571D01*
X145428571Y-84110952D01*
X133392857Y-86177142D02*
X133440476Y-86224761D01*
X133583333Y-86272380D01*
X133678571Y-86272380D01*
X133821428Y-86224761D01*
X133916666Y-86129523D01*
X133964285Y-86034285D01*
X134011904Y-85843809D01*
X134011904Y-85700952D01*
X133964285Y-85510476D01*
X133916666Y-85415238D01*
X133821428Y-85320000D01*
X133678571Y-85272380D01*
X133583333Y-85272380D01*
X133440476Y-85320000D01*
X133392857Y-85367619D01*
X132440476Y-86272380D02*
X133011904Y-86272380D01*
X132726190Y-86272380D02*
X132726190Y-85272380D01*
X132821428Y-85415238D01*
X132916666Y-85510476D01*
X133011904Y-85558095D01*
X132107142Y-85272380D02*
X131440476Y-85272380D01*
X131869047Y-86272380D01*
X147142857Y-80987142D02*
X147190476Y-81034761D01*
X147333333Y-81082380D01*
X147428571Y-81082380D01*
X147571428Y-81034761D01*
X147666666Y-80939523D01*
X147714285Y-80844285D01*
X147761904Y-80653809D01*
X147761904Y-80510952D01*
X147714285Y-80320476D01*
X147666666Y-80225238D01*
X147571428Y-80130000D01*
X147428571Y-80082380D01*
X147333333Y-80082380D01*
X147190476Y-80130000D01*
X147142857Y-80177619D01*
X146190476Y-81082380D02*
X146761904Y-81082380D01*
X146476190Y-81082380D02*
X146476190Y-80082380D01*
X146571428Y-80225238D01*
X146666666Y-80320476D01*
X146761904Y-80368095D01*
X145333333Y-80082380D02*
X145523809Y-80082380D01*
X145619047Y-80130000D01*
X145666666Y-80177619D01*
X145761904Y-80320476D01*
X145809523Y-80510952D01*
X145809523Y-80891904D01*
X145761904Y-80987142D01*
X145714285Y-81034761D01*
X145619047Y-81082380D01*
X145428571Y-81082380D01*
X145333333Y-81034761D01*
X145285714Y-80987142D01*
X145238095Y-80891904D01*
X145238095Y-80653809D01*
X145285714Y-80558571D01*
X145333333Y-80510952D01*
X145428571Y-80463333D01*
X145619047Y-80463333D01*
X145714285Y-80510952D01*
X145761904Y-80558571D01*
X145809523Y-80653809D01*
X133442857Y-90027142D02*
X133490476Y-90074761D01*
X133633333Y-90122380D01*
X133728571Y-90122380D01*
X133871428Y-90074761D01*
X133966666Y-89979523D01*
X134014285Y-89884285D01*
X134061904Y-89693809D01*
X134061904Y-89550952D01*
X134014285Y-89360476D01*
X133966666Y-89265238D01*
X133871428Y-89170000D01*
X133728571Y-89122380D01*
X133633333Y-89122380D01*
X133490476Y-89170000D01*
X133442857Y-89217619D01*
X132490476Y-90122380D02*
X133061904Y-90122380D01*
X132776190Y-90122380D02*
X132776190Y-89122380D01*
X132871428Y-89265238D01*
X132966666Y-89360476D01*
X133061904Y-89408095D01*
X131585714Y-89122380D02*
X132061904Y-89122380D01*
X132109523Y-89598571D01*
X132061904Y-89550952D01*
X131966666Y-89503333D01*
X131728571Y-89503333D01*
X131633333Y-89550952D01*
X131585714Y-89598571D01*
X131538095Y-89693809D01*
X131538095Y-89931904D01*
X131585714Y-90027142D01*
X131633333Y-90074761D01*
X131728571Y-90122380D01*
X131966666Y-90122380D01*
X132061904Y-90074761D01*
X132109523Y-90027142D01*
X137051142Y-70731142D02*
X137098761Y-70683523D01*
X137146380Y-70540666D01*
X137146380Y-70445428D01*
X137098761Y-70302571D01*
X137003523Y-70207333D01*
X136908285Y-70159714D01*
X136717809Y-70112095D01*
X136574952Y-70112095D01*
X136384476Y-70159714D01*
X136289238Y-70207333D01*
X136194000Y-70302571D01*
X136146380Y-70445428D01*
X136146380Y-70540666D01*
X136194000Y-70683523D01*
X136241619Y-70731142D01*
X137146380Y-71683523D02*
X137146380Y-71112095D01*
X137146380Y-71397809D02*
X136146380Y-71397809D01*
X136289238Y-71302571D01*
X136384476Y-71207333D01*
X136432095Y-71112095D01*
X136479714Y-72540666D02*
X137146380Y-72540666D01*
X136098761Y-72302571D02*
X136813047Y-72064476D01*
X136813047Y-72683523D01*
X158292857Y-86927142D02*
X158340476Y-86974761D01*
X158483333Y-87022380D01*
X158578571Y-87022380D01*
X158721428Y-86974761D01*
X158816666Y-86879523D01*
X158864285Y-86784285D01*
X158911904Y-86593809D01*
X158911904Y-86450952D01*
X158864285Y-86260476D01*
X158816666Y-86165238D01*
X158721428Y-86070000D01*
X158578571Y-86022380D01*
X158483333Y-86022380D01*
X158340476Y-86070000D01*
X158292857Y-86117619D01*
X157340476Y-87022380D02*
X157911904Y-87022380D01*
X157626190Y-87022380D02*
X157626190Y-86022380D01*
X157721428Y-86165238D01*
X157816666Y-86260476D01*
X157911904Y-86308095D01*
X157007142Y-86022380D02*
X156388095Y-86022380D01*
X156721428Y-86403333D01*
X156578571Y-86403333D01*
X156483333Y-86450952D01*
X156435714Y-86498571D01*
X156388095Y-86593809D01*
X156388095Y-86831904D01*
X156435714Y-86927142D01*
X156483333Y-86974761D01*
X156578571Y-87022380D01*
X156864285Y-87022380D01*
X156959523Y-86974761D01*
X157007142Y-86927142D01*
X140777142Y-70719642D02*
X140824761Y-70672023D01*
X140872380Y-70529166D01*
X140872380Y-70433928D01*
X140824761Y-70291071D01*
X140729523Y-70195833D01*
X140634285Y-70148214D01*
X140443809Y-70100595D01*
X140300952Y-70100595D01*
X140110476Y-70148214D01*
X140015238Y-70195833D01*
X139920000Y-70291071D01*
X139872380Y-70433928D01*
X139872380Y-70529166D01*
X139920000Y-70672023D01*
X139967619Y-70719642D01*
X140872380Y-71672023D02*
X140872380Y-71100595D01*
X140872380Y-71386309D02*
X139872380Y-71386309D01*
X140015238Y-71291071D01*
X140110476Y-71195833D01*
X140158095Y-71100595D01*
X139967619Y-72052976D02*
X139920000Y-72100595D01*
X139872380Y-72195833D01*
X139872380Y-72433928D01*
X139920000Y-72529166D01*
X139967619Y-72576785D01*
X140062857Y-72624404D01*
X140158095Y-72624404D01*
X140300952Y-72576785D01*
X140872380Y-72005357D01*
X140872380Y-72624404D01*
X121705357Y-86487142D02*
X121752976Y-86534761D01*
X121895833Y-86582380D01*
X121991071Y-86582380D01*
X122133928Y-86534761D01*
X122229166Y-86439523D01*
X122276785Y-86344285D01*
X122324404Y-86153809D01*
X122324404Y-86010952D01*
X122276785Y-85820476D01*
X122229166Y-85725238D01*
X122133928Y-85630000D01*
X121991071Y-85582380D01*
X121895833Y-85582380D01*
X121752976Y-85630000D01*
X121705357Y-85677619D01*
X120752976Y-86582380D02*
X121324404Y-86582380D01*
X121038690Y-86582380D02*
X121038690Y-85582380D01*
X121133928Y-85725238D01*
X121229166Y-85820476D01*
X121324404Y-85868095D01*
X119800595Y-86582380D02*
X120372023Y-86582380D01*
X120086309Y-86582380D02*
X120086309Y-85582380D01*
X120181547Y-85725238D01*
X120276785Y-85820476D01*
X120372023Y-85868095D01*
X148827142Y-70819642D02*
X148874761Y-70772023D01*
X148922380Y-70629166D01*
X148922380Y-70533928D01*
X148874761Y-70391071D01*
X148779523Y-70295833D01*
X148684285Y-70248214D01*
X148493809Y-70200595D01*
X148350952Y-70200595D01*
X148160476Y-70248214D01*
X148065238Y-70295833D01*
X147970000Y-70391071D01*
X147922380Y-70533928D01*
X147922380Y-70629166D01*
X147970000Y-70772023D01*
X148017619Y-70819642D01*
X148922380Y-71772023D02*
X148922380Y-71200595D01*
X148922380Y-71486309D02*
X147922380Y-71486309D01*
X148065238Y-71391071D01*
X148160476Y-71295833D01*
X148208095Y-71200595D01*
X147922380Y-72391071D02*
X147922380Y-72486309D01*
X147970000Y-72581547D01*
X148017619Y-72629166D01*
X148112857Y-72676785D01*
X148303333Y-72724404D01*
X148541428Y-72724404D01*
X148731904Y-72676785D01*
X148827142Y-72629166D01*
X148874761Y-72581547D01*
X148922380Y-72486309D01*
X148922380Y-72391071D01*
X148874761Y-72295833D01*
X148827142Y-72248214D01*
X148731904Y-72200595D01*
X148541428Y-72152976D01*
X148303333Y-72152976D01*
X148112857Y-72200595D01*
X148017619Y-72248214D01*
X147970000Y-72295833D01*
X147922380Y-72391071D01*
X121229166Y-82887142D02*
X121276785Y-82934761D01*
X121419642Y-82982380D01*
X121514880Y-82982380D01*
X121657738Y-82934761D01*
X121752976Y-82839523D01*
X121800595Y-82744285D01*
X121848214Y-82553809D01*
X121848214Y-82410952D01*
X121800595Y-82220476D01*
X121752976Y-82125238D01*
X121657738Y-82030000D01*
X121514880Y-81982380D01*
X121419642Y-81982380D01*
X121276785Y-82030000D01*
X121229166Y-82077619D01*
X120752976Y-82982380D02*
X120562500Y-82982380D01*
X120467261Y-82934761D01*
X120419642Y-82887142D01*
X120324404Y-82744285D01*
X120276785Y-82553809D01*
X120276785Y-82172857D01*
X120324404Y-82077619D01*
X120372023Y-82030000D01*
X120467261Y-81982380D01*
X120657738Y-81982380D01*
X120752976Y-82030000D01*
X120800595Y-82077619D01*
X120848214Y-82172857D01*
X120848214Y-82410952D01*
X120800595Y-82506190D01*
X120752976Y-82553809D01*
X120657738Y-82601428D01*
X120467261Y-82601428D01*
X120372023Y-82553809D01*
X120324404Y-82506190D01*
X120276785Y-82410952D01*
X121179166Y-90637142D02*
X121226785Y-90684761D01*
X121369642Y-90732380D01*
X121464880Y-90732380D01*
X121607738Y-90684761D01*
X121702976Y-90589523D01*
X121750595Y-90494285D01*
X121798214Y-90303809D01*
X121798214Y-90160952D01*
X121750595Y-89970476D01*
X121702976Y-89875238D01*
X121607738Y-89780000D01*
X121464880Y-89732380D01*
X121369642Y-89732380D01*
X121226785Y-89780000D01*
X121179166Y-89827619D01*
X120607738Y-90160952D02*
X120702976Y-90113333D01*
X120750595Y-90065714D01*
X120798214Y-89970476D01*
X120798214Y-89922857D01*
X120750595Y-89827619D01*
X120702976Y-89780000D01*
X120607738Y-89732380D01*
X120417261Y-89732380D01*
X120322023Y-89780000D01*
X120274404Y-89827619D01*
X120226785Y-89922857D01*
X120226785Y-89970476D01*
X120274404Y-90065714D01*
X120322023Y-90113333D01*
X120417261Y-90160952D01*
X120607738Y-90160952D01*
X120702976Y-90208571D01*
X120750595Y-90256190D01*
X120798214Y-90351428D01*
X120798214Y-90541904D01*
X120750595Y-90637142D01*
X120702976Y-90684761D01*
X120607738Y-90732380D01*
X120417261Y-90732380D01*
X120322023Y-90684761D01*
X120274404Y-90637142D01*
X120226785Y-90541904D01*
X120226785Y-90351428D01*
X120274404Y-90256190D01*
X120322023Y-90208571D01*
X120417261Y-90160952D01*
X152927142Y-71145833D02*
X152974761Y-71098214D01*
X153022380Y-70955357D01*
X153022380Y-70860119D01*
X152974761Y-70717261D01*
X152879523Y-70622023D01*
X152784285Y-70574404D01*
X152593809Y-70526785D01*
X152450952Y-70526785D01*
X152260476Y-70574404D01*
X152165238Y-70622023D01*
X152070000Y-70717261D01*
X152022380Y-70860119D01*
X152022380Y-70955357D01*
X152070000Y-71098214D01*
X152117619Y-71145833D01*
X152022380Y-71479166D02*
X152022380Y-72145833D01*
X153022380Y-71717261D01*
X145077142Y-71283333D02*
X145124761Y-71235714D01*
X145172380Y-71092857D01*
X145172380Y-70997619D01*
X145124761Y-70854761D01*
X145029523Y-70759523D01*
X144934285Y-70711904D01*
X144743809Y-70664285D01*
X144600952Y-70664285D01*
X144410476Y-70711904D01*
X144315238Y-70759523D01*
X144220000Y-70854761D01*
X144172380Y-70997619D01*
X144172380Y-71092857D01*
X144220000Y-71235714D01*
X144267619Y-71283333D01*
X144172380Y-72140476D02*
X144172380Y-71950000D01*
X144220000Y-71854761D01*
X144267619Y-71807142D01*
X144410476Y-71711904D01*
X144600952Y-71664285D01*
X144981904Y-71664285D01*
X145077142Y-71711904D01*
X145124761Y-71759523D01*
X145172380Y-71854761D01*
X145172380Y-72045238D01*
X145124761Y-72140476D01*
X145077142Y-72188095D01*
X144981904Y-72235714D01*
X144743809Y-72235714D01*
X144648571Y-72188095D01*
X144600952Y-72140476D01*
X144553333Y-72045238D01*
X144553333Y-71854761D01*
X144600952Y-71759523D01*
X144648571Y-71711904D01*
X144743809Y-71664285D01*
X140463542Y-100976133D02*
X140511161Y-100928514D01*
X140558780Y-100785657D01*
X140558780Y-100690419D01*
X140511161Y-100547561D01*
X140415923Y-100452323D01*
X140320685Y-100404704D01*
X140130209Y-100357085D01*
X139987352Y-100357085D01*
X139796876Y-100404704D01*
X139701638Y-100452323D01*
X139606400Y-100547561D01*
X139558780Y-100690419D01*
X139558780Y-100785657D01*
X139606400Y-100928514D01*
X139654019Y-100976133D01*
X139558780Y-101880895D02*
X139558780Y-101404704D01*
X140034971Y-101357085D01*
X139987352Y-101404704D01*
X139939733Y-101499942D01*
X139939733Y-101738038D01*
X139987352Y-101833276D01*
X140034971Y-101880895D01*
X140130209Y-101928514D01*
X140368304Y-101928514D01*
X140463542Y-101880895D01*
X140511161Y-101833276D01*
X140558780Y-101738038D01*
X140558780Y-101499942D01*
X140511161Y-101404704D01*
X140463542Y-101357085D01*
X144375142Y-101026933D02*
X144422761Y-100979314D01*
X144470380Y-100836457D01*
X144470380Y-100741219D01*
X144422761Y-100598361D01*
X144327523Y-100503123D01*
X144232285Y-100455504D01*
X144041809Y-100407885D01*
X143898952Y-100407885D01*
X143708476Y-100455504D01*
X143613238Y-100503123D01*
X143518000Y-100598361D01*
X143470380Y-100741219D01*
X143470380Y-100836457D01*
X143518000Y-100979314D01*
X143565619Y-101026933D01*
X143803714Y-101884076D02*
X144470380Y-101884076D01*
X143422761Y-101645980D02*
X144137047Y-101407885D01*
X144137047Y-102026933D01*
M02*
