G04 #@! TF.GenerationSoftware,KiCad,Pcbnew,5.1.10-88a1d61d58~90~ubuntu20.04.1*
G04 #@! TF.CreationDate,2021-09-12T22:34:26-04:00*
G04 #@! TF.ProjectId,UnwaryNuc,556e7761-7279-44e7-9563-2e6b69636164,rev?*
G04 #@! TF.SameCoordinates,Original*
G04 #@! TF.FileFunction,Paste,Bot*
G04 #@! TF.FilePolarity,Positive*
%FSLAX46Y46*%
G04 Gerber Fmt 4.6, Leading zero omitted, Abs format (unit mm)*
G04 Created by KiCad (PCBNEW 5.1.10-88a1d61d58~90~ubuntu20.04.1) date 2021-09-12 22:34:26*
%MOMM*%
%LPD*%
G01*
G04 APERTURE LIST*
%ADD10R,2.000000X3.800000*%
%ADD11R,1.300000X1.100000*%
%ADD12R,3.800000X2.000000*%
G04 APERTURE END LIST*
D10*
X165049200Y-75641200D03*
G36*
G01*
X164964100Y-69539600D02*
X165439100Y-69539600D01*
G75*
G02*
X165676600Y-69777100I0J-237500D01*
G01*
X165676600Y-70352100D01*
G75*
G02*
X165439100Y-70589600I-237500J0D01*
G01*
X164964100Y-70589600D01*
G75*
G02*
X164726600Y-70352100I0J237500D01*
G01*
X164726600Y-69777100D01*
G75*
G02*
X164964100Y-69539600I237500J0D01*
G01*
G37*
G36*
G01*
X164964100Y-67789600D02*
X165439100Y-67789600D01*
G75*
G02*
X165676600Y-68027100I0J-237500D01*
G01*
X165676600Y-68602100D01*
G75*
G02*
X165439100Y-68839600I-237500J0D01*
G01*
X164964100Y-68839600D01*
G75*
G02*
X164726600Y-68602100I0J237500D01*
G01*
X164726600Y-68027100D01*
G75*
G02*
X164964100Y-67789600I237500J0D01*
G01*
G37*
G36*
G01*
X165421100Y-67137800D02*
X164946100Y-67137800D01*
G75*
G02*
X164708600Y-66900300I0J237500D01*
G01*
X164708600Y-66325300D01*
G75*
G02*
X164946100Y-66087800I237500J0D01*
G01*
X165421100Y-66087800D01*
G75*
G02*
X165658600Y-66325300I0J-237500D01*
G01*
X165658600Y-66900300D01*
G75*
G02*
X165421100Y-67137800I-237500J0D01*
G01*
G37*
G36*
G01*
X165421100Y-68887800D02*
X164946100Y-68887800D01*
G75*
G02*
X164708600Y-68650300I0J237500D01*
G01*
X164708600Y-68075300D01*
G75*
G02*
X164946100Y-67837800I237500J0D01*
G01*
X165421100Y-67837800D01*
G75*
G02*
X165658600Y-68075300I0J-237500D01*
G01*
X165658600Y-68650300D01*
G75*
G02*
X165421100Y-68887800I-237500J0D01*
G01*
G37*
G36*
G01*
X172133800Y-69488800D02*
X172608800Y-69488800D01*
G75*
G02*
X172846300Y-69726300I0J-237500D01*
G01*
X172846300Y-70301300D01*
G75*
G02*
X172608800Y-70538800I-237500J0D01*
G01*
X172133800Y-70538800D01*
G75*
G02*
X171896300Y-70301300I0J237500D01*
G01*
X171896300Y-69726300D01*
G75*
G02*
X172133800Y-69488800I237500J0D01*
G01*
G37*
G36*
G01*
X172133800Y-67738800D02*
X172608800Y-67738800D01*
G75*
G02*
X172846300Y-67976300I0J-237500D01*
G01*
X172846300Y-68551300D01*
G75*
G02*
X172608800Y-68788800I-237500J0D01*
G01*
X172133800Y-68788800D01*
G75*
G02*
X171896300Y-68551300I0J237500D01*
G01*
X171896300Y-67976300D01*
G75*
G02*
X172133800Y-67738800I237500J0D01*
G01*
G37*
G36*
G01*
X172608800Y-67087000D02*
X172133800Y-67087000D01*
G75*
G02*
X171896300Y-66849500I0J237500D01*
G01*
X171896300Y-66274500D01*
G75*
G02*
X172133800Y-66037000I237500J0D01*
G01*
X172608800Y-66037000D01*
G75*
G02*
X172846300Y-66274500I0J-237500D01*
G01*
X172846300Y-66849500D01*
G75*
G02*
X172608800Y-67087000I-237500J0D01*
G01*
G37*
G36*
G01*
X172608800Y-68837000D02*
X172133800Y-68837000D01*
G75*
G02*
X171896300Y-68599500I0J237500D01*
G01*
X171896300Y-68024500D01*
G75*
G02*
X172133800Y-67787000I237500J0D01*
G01*
X172608800Y-67787000D01*
G75*
G02*
X172846300Y-68024500I0J-237500D01*
G01*
X172846300Y-68599500D01*
G75*
G02*
X172608800Y-68837000I-237500J0D01*
G01*
G37*
G36*
G01*
X170679100Y-69488800D02*
X171154100Y-69488800D01*
G75*
G02*
X171391600Y-69726300I0J-237500D01*
G01*
X171391600Y-70301300D01*
G75*
G02*
X171154100Y-70538800I-237500J0D01*
G01*
X170679100Y-70538800D01*
G75*
G02*
X170441600Y-70301300I0J237500D01*
G01*
X170441600Y-69726300D01*
G75*
G02*
X170679100Y-69488800I237500J0D01*
G01*
G37*
G36*
G01*
X170679100Y-67738800D02*
X171154100Y-67738800D01*
G75*
G02*
X171391600Y-67976300I0J-237500D01*
G01*
X171391600Y-68551300D01*
G75*
G02*
X171154100Y-68788800I-237500J0D01*
G01*
X170679100Y-68788800D01*
G75*
G02*
X170441600Y-68551300I0J237500D01*
G01*
X170441600Y-67976300D01*
G75*
G02*
X170679100Y-67738800I237500J0D01*
G01*
G37*
G36*
G01*
X171162000Y-67087000D02*
X170687000Y-67087000D01*
G75*
G02*
X170449500Y-66849500I0J237500D01*
G01*
X170449500Y-66274500D01*
G75*
G02*
X170687000Y-66037000I237500J0D01*
G01*
X171162000Y-66037000D01*
G75*
G02*
X171399500Y-66274500I0J-237500D01*
G01*
X171399500Y-66849500D01*
G75*
G02*
X171162000Y-67087000I-237500J0D01*
G01*
G37*
G36*
G01*
X171162000Y-68837000D02*
X170687000Y-68837000D01*
G75*
G02*
X170449500Y-68599500I0J237500D01*
G01*
X170449500Y-68024500D01*
G75*
G02*
X170687000Y-67787000I237500J0D01*
G01*
X171162000Y-67787000D01*
G75*
G02*
X171399500Y-68024500I0J-237500D01*
G01*
X171399500Y-68599500D01*
G75*
G02*
X171162000Y-68837000I-237500J0D01*
G01*
G37*
G36*
G01*
X174539900Y-69438000D02*
X175014900Y-69438000D01*
G75*
G02*
X175252400Y-69675500I0J-237500D01*
G01*
X175252400Y-70250500D01*
G75*
G02*
X175014900Y-70488000I-237500J0D01*
G01*
X174539900Y-70488000D01*
G75*
G02*
X174302400Y-70250500I0J237500D01*
G01*
X174302400Y-69675500D01*
G75*
G02*
X174539900Y-69438000I237500J0D01*
G01*
G37*
G36*
G01*
X174539900Y-67688000D02*
X175014900Y-67688000D01*
G75*
G02*
X175252400Y-67925500I0J-237500D01*
G01*
X175252400Y-68500500D01*
G75*
G02*
X175014900Y-68738000I-237500J0D01*
G01*
X174539900Y-68738000D01*
G75*
G02*
X174302400Y-68500500I0J237500D01*
G01*
X174302400Y-67925500D01*
G75*
G02*
X174539900Y-67688000I237500J0D01*
G01*
G37*
G36*
G01*
X175021300Y-67036200D02*
X174546300Y-67036200D01*
G75*
G02*
X174308800Y-66798700I0J237500D01*
G01*
X174308800Y-66223700D01*
G75*
G02*
X174546300Y-65986200I237500J0D01*
G01*
X175021300Y-65986200D01*
G75*
G02*
X175258800Y-66223700I0J-237500D01*
G01*
X175258800Y-66798700D01*
G75*
G02*
X175021300Y-67036200I-237500J0D01*
G01*
G37*
G36*
G01*
X175021300Y-68786200D02*
X174546300Y-68786200D01*
G75*
G02*
X174308800Y-68548700I0J237500D01*
G01*
X174308800Y-67973700D01*
G75*
G02*
X174546300Y-67736200I237500J0D01*
G01*
X175021300Y-67736200D01*
G75*
G02*
X175258800Y-67973700I0J-237500D01*
G01*
X175258800Y-68548700D01*
G75*
G02*
X175021300Y-68786200I-237500J0D01*
G01*
G37*
G36*
G01*
X175987700Y-69438000D02*
X176462700Y-69438000D01*
G75*
G02*
X176700200Y-69675500I0J-237500D01*
G01*
X176700200Y-70250500D01*
G75*
G02*
X176462700Y-70488000I-237500J0D01*
G01*
X175987700Y-70488000D01*
G75*
G02*
X175750200Y-70250500I0J237500D01*
G01*
X175750200Y-69675500D01*
G75*
G02*
X175987700Y-69438000I237500J0D01*
G01*
G37*
G36*
G01*
X175987700Y-67688000D02*
X176462700Y-67688000D01*
G75*
G02*
X176700200Y-67925500I0J-237500D01*
G01*
X176700200Y-68500500D01*
G75*
G02*
X176462700Y-68738000I-237500J0D01*
G01*
X175987700Y-68738000D01*
G75*
G02*
X175750200Y-68500500I0J237500D01*
G01*
X175750200Y-67925500D01*
G75*
G02*
X175987700Y-67688000I237500J0D01*
G01*
G37*
G36*
G01*
X176437300Y-67036200D02*
X175962300Y-67036200D01*
G75*
G02*
X175724800Y-66798700I0J237500D01*
G01*
X175724800Y-66223700D01*
G75*
G02*
X175962300Y-65986200I237500J0D01*
G01*
X176437300Y-65986200D01*
G75*
G02*
X176674800Y-66223700I0J-237500D01*
G01*
X176674800Y-66798700D01*
G75*
G02*
X176437300Y-67036200I-237500J0D01*
G01*
G37*
G36*
G01*
X176437300Y-68786200D02*
X175962300Y-68786200D01*
G75*
G02*
X175724800Y-68548700I0J237500D01*
G01*
X175724800Y-67973700D01*
G75*
G02*
X175962300Y-67736200I237500J0D01*
G01*
X176437300Y-67736200D01*
G75*
G02*
X176674800Y-67973700I0J-237500D01*
G01*
X176674800Y-68548700D01*
G75*
G02*
X176437300Y-68786200I-237500J0D01*
G01*
G37*
G36*
G01*
X166361100Y-69539600D02*
X166836100Y-69539600D01*
G75*
G02*
X167073600Y-69777100I0J-237500D01*
G01*
X167073600Y-70352100D01*
G75*
G02*
X166836100Y-70589600I-237500J0D01*
G01*
X166361100Y-70589600D01*
G75*
G02*
X166123600Y-70352100I0J237500D01*
G01*
X166123600Y-69777100D01*
G75*
G02*
X166361100Y-69539600I237500J0D01*
G01*
G37*
G36*
G01*
X166361100Y-67789600D02*
X166836100Y-67789600D01*
G75*
G02*
X167073600Y-68027100I0J-237500D01*
G01*
X167073600Y-68602100D01*
G75*
G02*
X166836100Y-68839600I-237500J0D01*
G01*
X166361100Y-68839600D01*
G75*
G02*
X166123600Y-68602100I0J237500D01*
G01*
X166123600Y-68027100D01*
G75*
G02*
X166361100Y-67789600I237500J0D01*
G01*
G37*
G36*
G01*
X166844500Y-67137800D02*
X166369500Y-67137800D01*
G75*
G02*
X166132000Y-66900300I0J237500D01*
G01*
X166132000Y-66325300D01*
G75*
G02*
X166369500Y-66087800I237500J0D01*
G01*
X166844500Y-66087800D01*
G75*
G02*
X167082000Y-66325300I0J-237500D01*
G01*
X167082000Y-66900300D01*
G75*
G02*
X166844500Y-67137800I-237500J0D01*
G01*
G37*
G36*
G01*
X166844500Y-68887800D02*
X166369500Y-68887800D01*
G75*
G02*
X166132000Y-68650300I0J237500D01*
G01*
X166132000Y-68075300D01*
G75*
G02*
X166369500Y-67837800I237500J0D01*
G01*
X166844500Y-67837800D01*
G75*
G02*
X167082000Y-68075300I0J-237500D01*
G01*
X167082000Y-68650300D01*
G75*
G02*
X166844500Y-68887800I-237500J0D01*
G01*
G37*
G36*
G01*
X165437000Y-105629700D02*
X165437000Y-106104700D01*
G75*
G02*
X165199500Y-106342200I-237500J0D01*
G01*
X164699500Y-106342200D01*
G75*
G02*
X164462000Y-106104700I0J237500D01*
G01*
X164462000Y-105629700D01*
G75*
G02*
X164699500Y-105392200I237500J0D01*
G01*
X165199500Y-105392200D01*
G75*
G02*
X165437000Y-105629700I0J-237500D01*
G01*
G37*
G36*
G01*
X167262000Y-105629700D02*
X167262000Y-106104700D01*
G75*
G02*
X167024500Y-106342200I-237500J0D01*
G01*
X166524500Y-106342200D01*
G75*
G02*
X166287000Y-106104700I0J237500D01*
G01*
X166287000Y-105629700D01*
G75*
G02*
X166524500Y-105392200I237500J0D01*
G01*
X167024500Y-105392200D01*
G75*
G02*
X167262000Y-105629700I0J-237500D01*
G01*
G37*
G36*
G01*
X152418600Y-64194700D02*
X152418600Y-63719700D01*
G75*
G02*
X152656100Y-63482200I237500J0D01*
G01*
X153156100Y-63482200D01*
G75*
G02*
X153393600Y-63719700I0J-237500D01*
G01*
X153393600Y-64194700D01*
G75*
G02*
X153156100Y-64432200I-237500J0D01*
G01*
X152656100Y-64432200D01*
G75*
G02*
X152418600Y-64194700I0J237500D01*
G01*
G37*
G36*
G01*
X150593600Y-64194700D02*
X150593600Y-63719700D01*
G75*
G02*
X150831100Y-63482200I237500J0D01*
G01*
X151331100Y-63482200D01*
G75*
G02*
X151568600Y-63719700I0J-237500D01*
G01*
X151568600Y-64194700D01*
G75*
G02*
X151331100Y-64432200I-237500J0D01*
G01*
X150831100Y-64432200D01*
G75*
G02*
X150593600Y-64194700I0J237500D01*
G01*
G37*
G36*
G01*
X155124600Y-61078100D02*
X155124600Y-61553100D01*
G75*
G02*
X154887100Y-61790600I-237500J0D01*
G01*
X154387100Y-61790600D01*
G75*
G02*
X154149600Y-61553100I0J237500D01*
G01*
X154149600Y-61078100D01*
G75*
G02*
X154387100Y-60840600I237500J0D01*
G01*
X154887100Y-60840600D01*
G75*
G02*
X155124600Y-61078100I0J-237500D01*
G01*
G37*
G36*
G01*
X156949600Y-61078100D02*
X156949600Y-61553100D01*
G75*
G02*
X156712100Y-61790600I-237500J0D01*
G01*
X156212100Y-61790600D01*
G75*
G02*
X155974600Y-61553100I0J237500D01*
G01*
X155974600Y-61078100D01*
G75*
G02*
X156212100Y-60840600I237500J0D01*
G01*
X156712100Y-60840600D01*
G75*
G02*
X156949600Y-61078100I0J-237500D01*
G01*
G37*
G36*
G01*
X173488400Y-103232799D02*
X173488400Y-104132801D01*
G75*
G02*
X173238401Y-104382800I-249999J0D01*
G01*
X172538399Y-104382800D01*
G75*
G02*
X172288400Y-104132801I0J249999D01*
G01*
X172288400Y-103232799D01*
G75*
G02*
X172538399Y-102982800I249999J0D01*
G01*
X173238401Y-102982800D01*
G75*
G02*
X173488400Y-103232799I0J-249999D01*
G01*
G37*
G36*
G01*
X175488400Y-103232799D02*
X175488400Y-104132801D01*
G75*
G02*
X175238401Y-104382800I-249999J0D01*
G01*
X174538399Y-104382800D01*
G75*
G02*
X174288400Y-104132801I0J249999D01*
G01*
X174288400Y-103232799D01*
G75*
G02*
X174538399Y-102982800I249999J0D01*
G01*
X175238401Y-102982800D01*
G75*
G02*
X175488400Y-103232799I0J-249999D01*
G01*
G37*
G36*
G01*
X174390000Y-75938801D02*
X174390000Y-75038799D01*
G75*
G02*
X174639999Y-74788800I249999J0D01*
G01*
X175340001Y-74788800D01*
G75*
G02*
X175590000Y-75038799I0J-249999D01*
G01*
X175590000Y-75938801D01*
G75*
G02*
X175340001Y-76188800I-249999J0D01*
G01*
X174639999Y-76188800D01*
G75*
G02*
X174390000Y-75938801I0J249999D01*
G01*
G37*
G36*
G01*
X172390000Y-75938801D02*
X172390000Y-75038799D01*
G75*
G02*
X172639999Y-74788800I249999J0D01*
G01*
X173340001Y-74788800D01*
G75*
G02*
X173590000Y-75038799I0J-249999D01*
G01*
X173590000Y-75938801D01*
G75*
G02*
X173340001Y-76188800I-249999J0D01*
G01*
X172639999Y-76188800D01*
G75*
G02*
X172390000Y-75938801I0J249999D01*
G01*
G37*
G36*
G01*
X160816300Y-63329000D02*
X160341300Y-63329000D01*
G75*
G02*
X160103800Y-63091500I0J237500D01*
G01*
X160103800Y-62591500D01*
G75*
G02*
X160341300Y-62354000I237500J0D01*
G01*
X160816300Y-62354000D01*
G75*
G02*
X161053800Y-62591500I0J-237500D01*
G01*
X161053800Y-63091500D01*
G75*
G02*
X160816300Y-63329000I-237500J0D01*
G01*
G37*
G36*
G01*
X160816300Y-65154000D02*
X160341300Y-65154000D01*
G75*
G02*
X160103800Y-64916500I0J237500D01*
G01*
X160103800Y-64416500D01*
G75*
G02*
X160341300Y-64179000I237500J0D01*
G01*
X160816300Y-64179000D01*
G75*
G02*
X161053800Y-64416500I0J-237500D01*
G01*
X161053800Y-64916500D01*
G75*
G02*
X160816300Y-65154000I-237500J0D01*
G01*
G37*
G36*
G01*
X162594300Y-63329000D02*
X162119300Y-63329000D01*
G75*
G02*
X161881800Y-63091500I0J237500D01*
G01*
X161881800Y-62591500D01*
G75*
G02*
X162119300Y-62354000I237500J0D01*
G01*
X162594300Y-62354000D01*
G75*
G02*
X162831800Y-62591500I0J-237500D01*
G01*
X162831800Y-63091500D01*
G75*
G02*
X162594300Y-63329000I-237500J0D01*
G01*
G37*
G36*
G01*
X162594300Y-65154000D02*
X162119300Y-65154000D01*
G75*
G02*
X161881800Y-64916500I0J237500D01*
G01*
X161881800Y-64416500D01*
G75*
G02*
X162119300Y-64179000I237500J0D01*
G01*
X162594300Y-64179000D01*
G75*
G02*
X162831800Y-64416500I0J-237500D01*
G01*
X162831800Y-64916500D01*
G75*
G02*
X162594300Y-65154000I-237500J0D01*
G01*
G37*
G36*
G01*
X176294600Y-81415900D02*
X176294600Y-80940900D01*
G75*
G02*
X176532100Y-80703400I237500J0D01*
G01*
X177032100Y-80703400D01*
G75*
G02*
X177269600Y-80940900I0J-237500D01*
G01*
X177269600Y-81415900D01*
G75*
G02*
X177032100Y-81653400I-237500J0D01*
G01*
X176532100Y-81653400D01*
G75*
G02*
X176294600Y-81415900I0J237500D01*
G01*
G37*
G36*
G01*
X174469600Y-81415900D02*
X174469600Y-80940900D01*
G75*
G02*
X174707100Y-80703400I237500J0D01*
G01*
X175207100Y-80703400D01*
G75*
G02*
X175444600Y-80940900I0J-237500D01*
G01*
X175444600Y-81415900D01*
G75*
G02*
X175207100Y-81653400I-237500J0D01*
G01*
X174707100Y-81653400D01*
G75*
G02*
X174469600Y-81415900I0J237500D01*
G01*
G37*
G36*
G01*
X176294600Y-82990700D02*
X176294600Y-82515700D01*
G75*
G02*
X176532100Y-82278200I237500J0D01*
G01*
X177032100Y-82278200D01*
G75*
G02*
X177269600Y-82515700I0J-237500D01*
G01*
X177269600Y-82990700D01*
G75*
G02*
X177032100Y-83228200I-237500J0D01*
G01*
X176532100Y-83228200D01*
G75*
G02*
X176294600Y-82990700I0J237500D01*
G01*
G37*
G36*
G01*
X174469600Y-82990700D02*
X174469600Y-82515700D01*
G75*
G02*
X174707100Y-82278200I237500J0D01*
G01*
X175207100Y-82278200D01*
G75*
G02*
X175444600Y-82515700I0J-237500D01*
G01*
X175444600Y-82990700D01*
G75*
G02*
X175207100Y-83228200I-237500J0D01*
G01*
X174707100Y-83228200D01*
G75*
G02*
X174469600Y-82990700I0J237500D01*
G01*
G37*
G36*
G01*
X185555900Y-82328200D02*
X185080900Y-82328200D01*
G75*
G02*
X184843400Y-82090700I0J237500D01*
G01*
X184843400Y-81590700D01*
G75*
G02*
X185080900Y-81353200I237500J0D01*
G01*
X185555900Y-81353200D01*
G75*
G02*
X185793400Y-81590700I0J-237500D01*
G01*
X185793400Y-82090700D01*
G75*
G02*
X185555900Y-82328200I-237500J0D01*
G01*
G37*
G36*
G01*
X185555900Y-84153200D02*
X185080900Y-84153200D01*
G75*
G02*
X184843400Y-83915700I0J237500D01*
G01*
X184843400Y-83415700D01*
G75*
G02*
X185080900Y-83178200I237500J0D01*
G01*
X185555900Y-83178200D01*
G75*
G02*
X185793400Y-83415700I0J-237500D01*
G01*
X185793400Y-83915700D01*
G75*
G02*
X185555900Y-84153200I-237500J0D01*
G01*
G37*
G36*
G01*
X187283100Y-82328200D02*
X186808100Y-82328200D01*
G75*
G02*
X186570600Y-82090700I0J237500D01*
G01*
X186570600Y-81590700D01*
G75*
G02*
X186808100Y-81353200I237500J0D01*
G01*
X187283100Y-81353200D01*
G75*
G02*
X187520600Y-81590700I0J-237500D01*
G01*
X187520600Y-82090700D01*
G75*
G02*
X187283100Y-82328200I-237500J0D01*
G01*
G37*
G36*
G01*
X187283100Y-84153200D02*
X186808100Y-84153200D01*
G75*
G02*
X186570600Y-83915700I0J237500D01*
G01*
X186570600Y-83415700D01*
G75*
G02*
X186808100Y-83178200I237500J0D01*
G01*
X187283100Y-83178200D01*
G75*
G02*
X187520600Y-83415700I0J-237500D01*
G01*
X187520600Y-83915700D01*
G75*
G02*
X187283100Y-84153200I-237500J0D01*
G01*
G37*
G36*
G01*
X173854100Y-91712600D02*
X174329100Y-91712600D01*
G75*
G02*
X174566600Y-91950100I0J-237500D01*
G01*
X174566600Y-92450100D01*
G75*
G02*
X174329100Y-92687600I-237500J0D01*
G01*
X173854100Y-92687600D01*
G75*
G02*
X173616600Y-92450100I0J237500D01*
G01*
X173616600Y-91950100D01*
G75*
G02*
X173854100Y-91712600I237500J0D01*
G01*
G37*
G36*
G01*
X173854100Y-89887600D02*
X174329100Y-89887600D01*
G75*
G02*
X174566600Y-90125100I0J-237500D01*
G01*
X174566600Y-90625100D01*
G75*
G02*
X174329100Y-90862600I-237500J0D01*
G01*
X173854100Y-90862600D01*
G75*
G02*
X173616600Y-90625100I0J237500D01*
G01*
X173616600Y-90125100D01*
G75*
G02*
X173854100Y-89887600I237500J0D01*
G01*
G37*
G36*
G01*
X182328400Y-69070200D02*
X182328400Y-70020200D01*
G75*
G02*
X182078400Y-70270200I-250000J0D01*
G01*
X181403400Y-70270200D01*
G75*
G02*
X181153400Y-70020200I0J250000D01*
G01*
X181153400Y-69070200D01*
G75*
G02*
X181403400Y-68820200I250000J0D01*
G01*
X182078400Y-68820200D01*
G75*
G02*
X182328400Y-69070200I0J-250000D01*
G01*
G37*
G36*
G01*
X184403400Y-69070200D02*
X184403400Y-70020200D01*
G75*
G02*
X184153400Y-70270200I-250000J0D01*
G01*
X183478400Y-70270200D01*
G75*
G02*
X183228400Y-70020200I0J250000D01*
G01*
X183228400Y-69070200D01*
G75*
G02*
X183478400Y-68820200I250000J0D01*
G01*
X184153400Y-68820200D01*
G75*
G02*
X184403400Y-69070200I0J-250000D01*
G01*
G37*
G36*
G01*
X182049400Y-96055600D02*
X182999400Y-96055600D01*
G75*
G02*
X183249400Y-96305600I0J-250000D01*
G01*
X183249400Y-96980600D01*
G75*
G02*
X182999400Y-97230600I-250000J0D01*
G01*
X182049400Y-97230600D01*
G75*
G02*
X181799400Y-96980600I0J250000D01*
G01*
X181799400Y-96305600D01*
G75*
G02*
X182049400Y-96055600I250000J0D01*
G01*
G37*
G36*
G01*
X182049400Y-93980600D02*
X182999400Y-93980600D01*
G75*
G02*
X183249400Y-94230600I0J-250000D01*
G01*
X183249400Y-94905600D01*
G75*
G02*
X182999400Y-95155600I-250000J0D01*
G01*
X182049400Y-95155600D01*
G75*
G02*
X181799400Y-94905600I0J250000D01*
G01*
X181799400Y-94230600D01*
G75*
G02*
X182049400Y-93980600I250000J0D01*
G01*
G37*
G36*
G01*
X174071400Y-73574900D02*
X174071400Y-74049900D01*
G75*
G02*
X173833900Y-74287400I-237500J0D01*
G01*
X173233900Y-74287400D01*
G75*
G02*
X172996400Y-74049900I0J237500D01*
G01*
X172996400Y-73574900D01*
G75*
G02*
X173233900Y-73337400I237500J0D01*
G01*
X173833900Y-73337400D01*
G75*
G02*
X174071400Y-73574900I0J-237500D01*
G01*
G37*
G36*
G01*
X175796400Y-73574900D02*
X175796400Y-74049900D01*
G75*
G02*
X175558900Y-74287400I-237500J0D01*
G01*
X174958900Y-74287400D01*
G75*
G02*
X174721400Y-74049900I0J237500D01*
G01*
X174721400Y-73574900D01*
G75*
G02*
X174958900Y-73337400I237500J0D01*
G01*
X175558900Y-73337400D01*
G75*
G02*
X175796400Y-73574900I0J-237500D01*
G01*
G37*
G36*
G01*
X175544600Y-101768900D02*
X175544600Y-102243900D01*
G75*
G02*
X175307100Y-102481400I-237500J0D01*
G01*
X174707100Y-102481400D01*
G75*
G02*
X174469600Y-102243900I0J237500D01*
G01*
X174469600Y-101768900D01*
G75*
G02*
X174707100Y-101531400I237500J0D01*
G01*
X175307100Y-101531400D01*
G75*
G02*
X175544600Y-101768900I0J-237500D01*
G01*
G37*
G36*
G01*
X177269600Y-101768900D02*
X177269600Y-102243900D01*
G75*
G02*
X177032100Y-102481400I-237500J0D01*
G01*
X176432100Y-102481400D01*
G75*
G02*
X176194600Y-102243900I0J237500D01*
G01*
X176194600Y-101768900D01*
G75*
G02*
X176432100Y-101531400I237500J0D01*
G01*
X177032100Y-101531400D01*
G75*
G02*
X177269600Y-101768900I0J-237500D01*
G01*
G37*
G36*
G01*
X158664900Y-63977400D02*
X159139900Y-63977400D01*
G75*
G02*
X159377400Y-64214900I0J-237500D01*
G01*
X159377400Y-64814900D01*
G75*
G02*
X159139900Y-65052400I-237500J0D01*
G01*
X158664900Y-65052400D01*
G75*
G02*
X158427400Y-64814900I0J237500D01*
G01*
X158427400Y-64214900D01*
G75*
G02*
X158664900Y-63977400I237500J0D01*
G01*
G37*
G36*
G01*
X158664900Y-62252400D02*
X159139900Y-62252400D01*
G75*
G02*
X159377400Y-62489900I0J-237500D01*
G01*
X159377400Y-63089900D01*
G75*
G02*
X159139900Y-63327400I-237500J0D01*
G01*
X158664900Y-63327400D01*
G75*
G02*
X158427400Y-63089900I0J237500D01*
G01*
X158427400Y-62489900D01*
G75*
G02*
X158664900Y-62252400I237500J0D01*
G01*
G37*
G36*
G01*
X175448800Y-72481201D02*
X175448800Y-71181199D01*
G75*
G02*
X175698799Y-70931200I249999J0D01*
G01*
X176523801Y-70931200D01*
G75*
G02*
X176773800Y-71181199I0J-249999D01*
G01*
X176773800Y-72481201D01*
G75*
G02*
X176523801Y-72731200I-249999J0D01*
G01*
X175698799Y-72731200D01*
G75*
G02*
X175448800Y-72481201I0J249999D01*
G01*
G37*
G36*
G01*
X172323800Y-72481201D02*
X172323800Y-71181199D01*
G75*
G02*
X172573799Y-70931200I249999J0D01*
G01*
X173398801Y-70931200D01*
G75*
G02*
X173648800Y-71181199I0J-249999D01*
G01*
X173648800Y-72481201D01*
G75*
G02*
X173398801Y-72731200I-249999J0D01*
G01*
X172573799Y-72731200D01*
G75*
G02*
X172323800Y-72481201I0J249999D01*
G01*
G37*
G36*
G01*
X177379200Y-106568001D02*
X177379200Y-105267999D01*
G75*
G02*
X177629199Y-105018000I249999J0D01*
G01*
X178454201Y-105018000D01*
G75*
G02*
X178704200Y-105267999I0J-249999D01*
G01*
X178704200Y-106568001D01*
G75*
G02*
X178454201Y-106818000I-249999J0D01*
G01*
X177629199Y-106818000D01*
G75*
G02*
X177379200Y-106568001I0J249999D01*
G01*
G37*
G36*
G01*
X174254200Y-106568001D02*
X174254200Y-105267999D01*
G75*
G02*
X174504199Y-105018000I249999J0D01*
G01*
X175329201Y-105018000D01*
G75*
G02*
X175579200Y-105267999I0J-249999D01*
G01*
X175579200Y-106568001D01*
G75*
G02*
X175329201Y-106818000I-249999J0D01*
G01*
X174504199Y-106818000D01*
G75*
G02*
X174254200Y-106568001I0J249999D01*
G01*
G37*
G36*
G01*
X183455300Y-83129000D02*
X183930300Y-83129000D01*
G75*
G02*
X184167800Y-83366500I0J-237500D01*
G01*
X184167800Y-83966500D01*
G75*
G02*
X183930300Y-84204000I-237500J0D01*
G01*
X183455300Y-84204000D01*
G75*
G02*
X183217800Y-83966500I0J237500D01*
G01*
X183217800Y-83366500D01*
G75*
G02*
X183455300Y-83129000I237500J0D01*
G01*
G37*
G36*
G01*
X183455300Y-81404000D02*
X183930300Y-81404000D01*
G75*
G02*
X184167800Y-81641500I0J-237500D01*
G01*
X184167800Y-82241500D01*
G75*
G02*
X183930300Y-82479000I-237500J0D01*
G01*
X183455300Y-82479000D01*
G75*
G02*
X183217800Y-82241500I0J237500D01*
G01*
X183217800Y-81641500D01*
G75*
G02*
X183455300Y-81404000I237500J0D01*
G01*
G37*
D11*
X156752000Y-62929000D03*
X154652000Y-62929000D03*
X154652000Y-64579000D03*
X156752000Y-64579000D03*
X181339200Y-81928200D03*
X179239200Y-81928200D03*
X179239200Y-83578200D03*
X181339200Y-83578200D03*
D12*
X164033200Y-109270800D03*
G36*
G01*
X166335700Y-98368600D02*
X166810700Y-98368600D01*
G75*
G02*
X167048200Y-98606100I0J-237500D01*
G01*
X167048200Y-99181100D01*
G75*
G02*
X166810700Y-99418600I-237500J0D01*
G01*
X166335700Y-99418600D01*
G75*
G02*
X166098200Y-99181100I0J237500D01*
G01*
X166098200Y-98606100D01*
G75*
G02*
X166335700Y-98368600I237500J0D01*
G01*
G37*
G36*
G01*
X166335700Y-96618600D02*
X166810700Y-96618600D01*
G75*
G02*
X167048200Y-96856100I0J-237500D01*
G01*
X167048200Y-97431100D01*
G75*
G02*
X166810700Y-97668600I-237500J0D01*
G01*
X166335700Y-97668600D01*
G75*
G02*
X166098200Y-97431100I0J237500D01*
G01*
X166098200Y-96856100D01*
G75*
G02*
X166335700Y-96618600I237500J0D01*
G01*
G37*
G36*
G01*
X166810700Y-95916000D02*
X166335700Y-95916000D01*
G75*
G02*
X166098200Y-95678500I0J237500D01*
G01*
X166098200Y-95103500D01*
G75*
G02*
X166335700Y-94866000I237500J0D01*
G01*
X166810700Y-94866000D01*
G75*
G02*
X167048200Y-95103500I0J-237500D01*
G01*
X167048200Y-95678500D01*
G75*
G02*
X166810700Y-95916000I-237500J0D01*
G01*
G37*
G36*
G01*
X166810700Y-97666000D02*
X166335700Y-97666000D01*
G75*
G02*
X166098200Y-97428500I0J237500D01*
G01*
X166098200Y-96853500D01*
G75*
G02*
X166335700Y-96616000I237500J0D01*
G01*
X166810700Y-96616000D01*
G75*
G02*
X167048200Y-96853500I0J-237500D01*
G01*
X167048200Y-97428500D01*
G75*
G02*
X166810700Y-97666000I-237500J0D01*
G01*
G37*
G36*
G01*
X173650900Y-98394000D02*
X174125900Y-98394000D01*
G75*
G02*
X174363400Y-98631500I0J-237500D01*
G01*
X174363400Y-99206500D01*
G75*
G02*
X174125900Y-99444000I-237500J0D01*
G01*
X173650900Y-99444000D01*
G75*
G02*
X173413400Y-99206500I0J237500D01*
G01*
X173413400Y-98631500D01*
G75*
G02*
X173650900Y-98394000I237500J0D01*
G01*
G37*
G36*
G01*
X173650900Y-96644000D02*
X174125900Y-96644000D01*
G75*
G02*
X174363400Y-96881500I0J-237500D01*
G01*
X174363400Y-97456500D01*
G75*
G02*
X174125900Y-97694000I-237500J0D01*
G01*
X173650900Y-97694000D01*
G75*
G02*
X173413400Y-97456500I0J237500D01*
G01*
X173413400Y-96881500D01*
G75*
G02*
X173650900Y-96644000I237500J0D01*
G01*
G37*
G36*
G01*
X174125900Y-95941400D02*
X173650900Y-95941400D01*
G75*
G02*
X173413400Y-95703900I0J237500D01*
G01*
X173413400Y-95128900D01*
G75*
G02*
X173650900Y-94891400I237500J0D01*
G01*
X174125900Y-94891400D01*
G75*
G02*
X174363400Y-95128900I0J-237500D01*
G01*
X174363400Y-95703900D01*
G75*
G02*
X174125900Y-95941400I-237500J0D01*
G01*
G37*
G36*
G01*
X174125900Y-97691400D02*
X173650900Y-97691400D01*
G75*
G02*
X173413400Y-97453900I0J237500D01*
G01*
X173413400Y-96878900D01*
G75*
G02*
X173650900Y-96641400I237500J0D01*
G01*
X174125900Y-96641400D01*
G75*
G02*
X174363400Y-96878900I0J-237500D01*
G01*
X174363400Y-97453900D01*
G75*
G02*
X174125900Y-97691400I-237500J0D01*
G01*
G37*
G36*
G01*
X172203100Y-98382600D02*
X172678100Y-98382600D01*
G75*
G02*
X172915600Y-98620100I0J-237500D01*
G01*
X172915600Y-99195100D01*
G75*
G02*
X172678100Y-99432600I-237500J0D01*
G01*
X172203100Y-99432600D01*
G75*
G02*
X171965600Y-99195100I0J237500D01*
G01*
X171965600Y-98620100D01*
G75*
G02*
X172203100Y-98382600I237500J0D01*
G01*
G37*
G36*
G01*
X172203100Y-96632600D02*
X172678100Y-96632600D01*
G75*
G02*
X172915600Y-96870100I0J-237500D01*
G01*
X172915600Y-97445100D01*
G75*
G02*
X172678100Y-97682600I-237500J0D01*
G01*
X172203100Y-97682600D01*
G75*
G02*
X171965600Y-97445100I0J237500D01*
G01*
X171965600Y-96870100D01*
G75*
G02*
X172203100Y-96632600I237500J0D01*
G01*
G37*
G36*
G01*
X172678100Y-95916000D02*
X172203100Y-95916000D01*
G75*
G02*
X171965600Y-95678500I0J237500D01*
G01*
X171965600Y-95103500D01*
G75*
G02*
X172203100Y-94866000I237500J0D01*
G01*
X172678100Y-94866000D01*
G75*
G02*
X172915600Y-95103500I0J-237500D01*
G01*
X172915600Y-95678500D01*
G75*
G02*
X172678100Y-95916000I-237500J0D01*
G01*
G37*
G36*
G01*
X172678100Y-97666000D02*
X172203100Y-97666000D01*
G75*
G02*
X171965600Y-97428500I0J237500D01*
G01*
X171965600Y-96853500D01*
G75*
G02*
X172203100Y-96616000I237500J0D01*
G01*
X172678100Y-96616000D01*
G75*
G02*
X172915600Y-96853500I0J-237500D01*
G01*
X172915600Y-97428500D01*
G75*
G02*
X172678100Y-97666000I-237500J0D01*
G01*
G37*
G36*
G01*
X176394100Y-98470200D02*
X176869100Y-98470200D01*
G75*
G02*
X177106600Y-98707700I0J-237500D01*
G01*
X177106600Y-99282700D01*
G75*
G02*
X176869100Y-99520200I-237500J0D01*
G01*
X176394100Y-99520200D01*
G75*
G02*
X176156600Y-99282700I0J237500D01*
G01*
X176156600Y-98707700D01*
G75*
G02*
X176394100Y-98470200I237500J0D01*
G01*
G37*
G36*
G01*
X176394100Y-96720200D02*
X176869100Y-96720200D01*
G75*
G02*
X177106600Y-96957700I0J-237500D01*
G01*
X177106600Y-97532700D01*
G75*
G02*
X176869100Y-97770200I-237500J0D01*
G01*
X176394100Y-97770200D01*
G75*
G02*
X176156600Y-97532700I0J237500D01*
G01*
X176156600Y-96957700D01*
G75*
G02*
X176394100Y-96720200I237500J0D01*
G01*
G37*
G36*
G01*
X176843700Y-96017600D02*
X176368700Y-96017600D01*
G75*
G02*
X176131200Y-95780100I0J237500D01*
G01*
X176131200Y-95205100D01*
G75*
G02*
X176368700Y-94967600I237500J0D01*
G01*
X176843700Y-94967600D01*
G75*
G02*
X177081200Y-95205100I0J-237500D01*
G01*
X177081200Y-95780100D01*
G75*
G02*
X176843700Y-96017600I-237500J0D01*
G01*
G37*
G36*
G01*
X176843700Y-97767600D02*
X176368700Y-97767600D01*
G75*
G02*
X176131200Y-97530100I0J237500D01*
G01*
X176131200Y-96955100D01*
G75*
G02*
X176368700Y-96717600I237500J0D01*
G01*
X176843700Y-96717600D01*
G75*
G02*
X177081200Y-96955100I0J-237500D01*
G01*
X177081200Y-97530100D01*
G75*
G02*
X176843700Y-97767600I-237500J0D01*
G01*
G37*
G36*
G01*
X177841900Y-98470200D02*
X178316900Y-98470200D01*
G75*
G02*
X178554400Y-98707700I0J-237500D01*
G01*
X178554400Y-99282700D01*
G75*
G02*
X178316900Y-99520200I-237500J0D01*
G01*
X177841900Y-99520200D01*
G75*
G02*
X177604400Y-99282700I0J237500D01*
G01*
X177604400Y-98707700D01*
G75*
G02*
X177841900Y-98470200I237500J0D01*
G01*
G37*
G36*
G01*
X177841900Y-96720200D02*
X178316900Y-96720200D01*
G75*
G02*
X178554400Y-96957700I0J-237500D01*
G01*
X178554400Y-97532700D01*
G75*
G02*
X178316900Y-97770200I-237500J0D01*
G01*
X177841900Y-97770200D01*
G75*
G02*
X177604400Y-97532700I0J237500D01*
G01*
X177604400Y-96957700D01*
G75*
G02*
X177841900Y-96720200I237500J0D01*
G01*
G37*
G36*
G01*
X178335700Y-96017600D02*
X177860700Y-96017600D01*
G75*
G02*
X177623200Y-95780100I0J237500D01*
G01*
X177623200Y-95205100D01*
G75*
G02*
X177860700Y-94967600I237500J0D01*
G01*
X178335700Y-94967600D01*
G75*
G02*
X178573200Y-95205100I0J-237500D01*
G01*
X178573200Y-95780100D01*
G75*
G02*
X178335700Y-96017600I-237500J0D01*
G01*
G37*
G36*
G01*
X178335700Y-97767600D02*
X177860700Y-97767600D01*
G75*
G02*
X177623200Y-97530100I0J237500D01*
G01*
X177623200Y-96955100D01*
G75*
G02*
X177860700Y-96717600I237500J0D01*
G01*
X178335700Y-96717600D01*
G75*
G02*
X178573200Y-96955100I0J-237500D01*
G01*
X178573200Y-97530100D01*
G75*
G02*
X178335700Y-97767600I-237500J0D01*
G01*
G37*
G36*
G01*
X167758100Y-98419400D02*
X168233100Y-98419400D01*
G75*
G02*
X168470600Y-98656900I0J-237500D01*
G01*
X168470600Y-99231900D01*
G75*
G02*
X168233100Y-99469400I-237500J0D01*
G01*
X167758100Y-99469400D01*
G75*
G02*
X167520600Y-99231900I0J237500D01*
G01*
X167520600Y-98656900D01*
G75*
G02*
X167758100Y-98419400I237500J0D01*
G01*
G37*
G36*
G01*
X167758100Y-96669400D02*
X168233100Y-96669400D01*
G75*
G02*
X168470600Y-96906900I0J-237500D01*
G01*
X168470600Y-97481900D01*
G75*
G02*
X168233100Y-97719400I-237500J0D01*
G01*
X167758100Y-97719400D01*
G75*
G02*
X167520600Y-97481900I0J237500D01*
G01*
X167520600Y-96906900D01*
G75*
G02*
X167758100Y-96669400I237500J0D01*
G01*
G37*
G36*
G01*
X168233100Y-95966800D02*
X167758100Y-95966800D01*
G75*
G02*
X167520600Y-95729300I0J237500D01*
G01*
X167520600Y-95154300D01*
G75*
G02*
X167758100Y-94916800I237500J0D01*
G01*
X168233100Y-94916800D01*
G75*
G02*
X168470600Y-95154300I0J-237500D01*
G01*
X168470600Y-95729300D01*
G75*
G02*
X168233100Y-95966800I-237500J0D01*
G01*
G37*
G36*
G01*
X168233100Y-97716800D02*
X167758100Y-97716800D01*
G75*
G02*
X167520600Y-97479300I0J237500D01*
G01*
X167520600Y-96904300D01*
G75*
G02*
X167758100Y-96666800I237500J0D01*
G01*
X168233100Y-96666800D01*
G75*
G02*
X168470600Y-96904300I0J-237500D01*
G01*
X168470600Y-97479300D01*
G75*
G02*
X168233100Y-97716800I-237500J0D01*
G01*
G37*
G36*
G01*
X176818300Y-92410800D02*
X176343300Y-92410800D01*
G75*
G02*
X176105800Y-92173300I0J237500D01*
G01*
X176105800Y-91598300D01*
G75*
G02*
X176343300Y-91360800I237500J0D01*
G01*
X176818300Y-91360800D01*
G75*
G02*
X177055800Y-91598300I0J-237500D01*
G01*
X177055800Y-92173300D01*
G75*
G02*
X176818300Y-92410800I-237500J0D01*
G01*
G37*
G36*
G01*
X176818300Y-94160800D02*
X176343300Y-94160800D01*
G75*
G02*
X176105800Y-93923300I0J237500D01*
G01*
X176105800Y-93348300D01*
G75*
G02*
X176343300Y-93110800I237500J0D01*
G01*
X176818300Y-93110800D01*
G75*
G02*
X177055800Y-93348300I0J-237500D01*
G01*
X177055800Y-93923300D01*
G75*
G02*
X176818300Y-94160800I-237500J0D01*
G01*
G37*
G36*
G01*
X186898800Y-114400500D02*
X186898800Y-114875500D01*
G75*
G02*
X186661300Y-115113000I-237500J0D01*
G01*
X186086300Y-115113000D01*
G75*
G02*
X185848800Y-114875500I0J237500D01*
G01*
X185848800Y-114400500D01*
G75*
G02*
X186086300Y-114163000I237500J0D01*
G01*
X186661300Y-114163000D01*
G75*
G02*
X186898800Y-114400500I0J-237500D01*
G01*
G37*
G36*
G01*
X188648800Y-114400500D02*
X188648800Y-114875500D01*
G75*
G02*
X188411300Y-115113000I-237500J0D01*
G01*
X187836300Y-115113000D01*
G75*
G02*
X187598800Y-114875500I0J237500D01*
G01*
X187598800Y-114400500D01*
G75*
G02*
X187836300Y-114163000I237500J0D01*
G01*
X188411300Y-114163000D01*
G75*
G02*
X188648800Y-114400500I0J-237500D01*
G01*
G37*
G36*
G01*
X187598800Y-112657900D02*
X187598800Y-112182900D01*
G75*
G02*
X187836300Y-111945400I237500J0D01*
G01*
X188411300Y-111945400D01*
G75*
G02*
X188648800Y-112182900I0J-237500D01*
G01*
X188648800Y-112657900D01*
G75*
G02*
X188411300Y-112895400I-237500J0D01*
G01*
X187836300Y-112895400D01*
G75*
G02*
X187598800Y-112657900I0J237500D01*
G01*
G37*
G36*
G01*
X185848800Y-112657900D02*
X185848800Y-112182900D01*
G75*
G02*
X186086300Y-111945400I237500J0D01*
G01*
X186661300Y-111945400D01*
G75*
G02*
X186898800Y-112182900I0J-237500D01*
G01*
X186898800Y-112657900D01*
G75*
G02*
X186661300Y-112895400I-237500J0D01*
G01*
X186086300Y-112895400D01*
G75*
G02*
X185848800Y-112657900I0J237500D01*
G01*
G37*
G36*
G01*
X131841400Y-95287800D02*
X130591400Y-95287800D01*
G75*
G02*
X130341400Y-95037800I0J250000D01*
G01*
X130341400Y-94112800D01*
G75*
G02*
X130591400Y-93862800I250000J0D01*
G01*
X131841400Y-93862800D01*
G75*
G02*
X132091400Y-94112800I0J-250000D01*
G01*
X132091400Y-95037800D01*
G75*
G02*
X131841400Y-95287800I-250000J0D01*
G01*
G37*
G36*
G01*
X131841400Y-98262800D02*
X130591400Y-98262800D01*
G75*
G02*
X130341400Y-98012800I0J250000D01*
G01*
X130341400Y-97087800D01*
G75*
G02*
X130591400Y-96837800I250000J0D01*
G01*
X131841400Y-96837800D01*
G75*
G02*
X132091400Y-97087800I0J-250000D01*
G01*
X132091400Y-98012800D01*
G75*
G02*
X131841400Y-98262800I-250000J0D01*
G01*
G37*
G36*
G01*
X158375000Y-89375000D02*
X158375000Y-88125000D01*
G75*
G02*
X158625000Y-87875000I250000J0D01*
G01*
X159550000Y-87875000D01*
G75*
G02*
X159800000Y-88125000I0J-250000D01*
G01*
X159800000Y-89375000D01*
G75*
G02*
X159550000Y-89625000I-250000J0D01*
G01*
X158625000Y-89625000D01*
G75*
G02*
X158375000Y-89375000I0J250000D01*
G01*
G37*
G36*
G01*
X155400000Y-89375000D02*
X155400000Y-88125000D01*
G75*
G02*
X155650000Y-87875000I250000J0D01*
G01*
X156575000Y-87875000D01*
G75*
G02*
X156825000Y-88125000I0J-250000D01*
G01*
X156825000Y-89375000D01*
G75*
G02*
X156575000Y-89625000I-250000J0D01*
G01*
X155650000Y-89625000D01*
G75*
G02*
X155400000Y-89375000I0J250000D01*
G01*
G37*
G36*
G01*
X158425000Y-77775000D02*
X158425000Y-76525000D01*
G75*
G02*
X158675000Y-76275000I250000J0D01*
G01*
X159600000Y-76275000D01*
G75*
G02*
X159850000Y-76525000I0J-250000D01*
G01*
X159850000Y-77775000D01*
G75*
G02*
X159600000Y-78025000I-250000J0D01*
G01*
X158675000Y-78025000D01*
G75*
G02*
X158425000Y-77775000I0J250000D01*
G01*
G37*
G36*
G01*
X155450000Y-77775000D02*
X155450000Y-76525000D01*
G75*
G02*
X155700000Y-76275000I250000J0D01*
G01*
X156625000Y-76275000D01*
G75*
G02*
X156875000Y-76525000I0J-250000D01*
G01*
X156875000Y-77775000D01*
G75*
G02*
X156625000Y-78025000I-250000J0D01*
G01*
X155700000Y-78025000D01*
G75*
G02*
X155450000Y-77775000I0J250000D01*
G01*
G37*
G36*
G01*
X155450000Y-81025000D02*
X155450000Y-79775000D01*
G75*
G02*
X155700000Y-79525000I250000J0D01*
G01*
X156625000Y-79525000D01*
G75*
G02*
X156875000Y-79775000I0J-250000D01*
G01*
X156875000Y-81025000D01*
G75*
G02*
X156625000Y-81275000I-250000J0D01*
G01*
X155700000Y-81275000D01*
G75*
G02*
X155450000Y-81025000I0J250000D01*
G01*
G37*
G36*
G01*
X158425000Y-81025000D02*
X158425000Y-79775000D01*
G75*
G02*
X158675000Y-79525000I250000J0D01*
G01*
X159600000Y-79525000D01*
G75*
G02*
X159850000Y-79775000I0J-250000D01*
G01*
X159850000Y-81025000D01*
G75*
G02*
X159600000Y-81275000I-250000J0D01*
G01*
X158675000Y-81275000D01*
G75*
G02*
X158425000Y-81025000I0J250000D01*
G01*
G37*
G36*
G01*
X145637500Y-89325000D02*
X145637500Y-90575000D01*
G75*
G02*
X145387500Y-90825000I-250000J0D01*
G01*
X144462500Y-90825000D01*
G75*
G02*
X144212500Y-90575000I0J250000D01*
G01*
X144212500Y-89325000D01*
G75*
G02*
X144462500Y-89075000I250000J0D01*
G01*
X145387500Y-89075000D01*
G75*
G02*
X145637500Y-89325000I0J-250000D01*
G01*
G37*
G36*
G01*
X148612500Y-89325000D02*
X148612500Y-90575000D01*
G75*
G02*
X148362500Y-90825000I-250000J0D01*
G01*
X147437500Y-90825000D01*
G75*
G02*
X147187500Y-90575000I0J250000D01*
G01*
X147187500Y-89325000D01*
G75*
G02*
X147437500Y-89075000I250000J0D01*
G01*
X148362500Y-89075000D01*
G75*
G02*
X148612500Y-89325000I0J-250000D01*
G01*
G37*
G36*
G01*
X133575000Y-92125000D02*
X133575000Y-90875000D01*
G75*
G02*
X133825000Y-90625000I250000J0D01*
G01*
X134750000Y-90625000D01*
G75*
G02*
X135000000Y-90875000I0J-250000D01*
G01*
X135000000Y-92125000D01*
G75*
G02*
X134750000Y-92375000I-250000J0D01*
G01*
X133825000Y-92375000D01*
G75*
G02*
X133575000Y-92125000I0J250000D01*
G01*
G37*
G36*
G01*
X130600000Y-92125000D02*
X130600000Y-90875000D01*
G75*
G02*
X130850000Y-90625000I250000J0D01*
G01*
X131775000Y-90625000D01*
G75*
G02*
X132025000Y-90875000I0J-250000D01*
G01*
X132025000Y-92125000D01*
G75*
G02*
X131775000Y-92375000I-250000J0D01*
G01*
X130850000Y-92375000D01*
G75*
G02*
X130600000Y-92125000I0J250000D01*
G01*
G37*
G36*
G01*
X148148200Y-97026100D02*
X146898200Y-97026100D01*
G75*
G02*
X146648200Y-96776100I0J250000D01*
G01*
X146648200Y-95851100D01*
G75*
G02*
X146898200Y-95601100I250000J0D01*
G01*
X148148200Y-95601100D01*
G75*
G02*
X148398200Y-95851100I0J-250000D01*
G01*
X148398200Y-96776100D01*
G75*
G02*
X148148200Y-97026100I-250000J0D01*
G01*
G37*
G36*
G01*
X148148200Y-100001100D02*
X146898200Y-100001100D01*
G75*
G02*
X146648200Y-99751100I0J250000D01*
G01*
X146648200Y-98826100D01*
G75*
G02*
X146898200Y-98576100I250000J0D01*
G01*
X148148200Y-98576100D01*
G75*
G02*
X148398200Y-98826100I0J-250000D01*
G01*
X148398200Y-99751100D01*
G75*
G02*
X148148200Y-100001100I-250000J0D01*
G01*
G37*
G36*
G01*
X145725000Y-85425000D02*
X145725000Y-86675000D01*
G75*
G02*
X145475000Y-86925000I-250000J0D01*
G01*
X144550000Y-86925000D01*
G75*
G02*
X144300000Y-86675000I0J250000D01*
G01*
X144300000Y-85425000D01*
G75*
G02*
X144550000Y-85175000I250000J0D01*
G01*
X145475000Y-85175000D01*
G75*
G02*
X145725000Y-85425000I0J-250000D01*
G01*
G37*
G36*
G01*
X148700000Y-85425000D02*
X148700000Y-86675000D01*
G75*
G02*
X148450000Y-86925000I-250000J0D01*
G01*
X147525000Y-86925000D01*
G75*
G02*
X147275000Y-86675000I0J250000D01*
G01*
X147275000Y-85425000D01*
G75*
G02*
X147525000Y-85175000I250000J0D01*
G01*
X148450000Y-85175000D01*
G75*
G02*
X148700000Y-85425000I0J-250000D01*
G01*
G37*
G36*
G01*
X133525000Y-84625000D02*
X133525000Y-83375000D01*
G75*
G02*
X133775000Y-83125000I250000J0D01*
G01*
X134700000Y-83125000D01*
G75*
G02*
X134950000Y-83375000I0J-250000D01*
G01*
X134950000Y-84625000D01*
G75*
G02*
X134700000Y-84875000I-250000J0D01*
G01*
X133775000Y-84875000D01*
G75*
G02*
X133525000Y-84625000I0J250000D01*
G01*
G37*
G36*
G01*
X130550000Y-84625000D02*
X130550000Y-83375000D01*
G75*
G02*
X130800000Y-83125000I250000J0D01*
G01*
X131725000Y-83125000D01*
G75*
G02*
X131975000Y-83375000I0J-250000D01*
G01*
X131975000Y-84625000D01*
G75*
G02*
X131725000Y-84875000I-250000J0D01*
G01*
X130800000Y-84875000D01*
G75*
G02*
X130550000Y-84625000I0J250000D01*
G01*
G37*
G36*
G01*
X145725000Y-81825000D02*
X145725000Y-83075000D01*
G75*
G02*
X145475000Y-83325000I-250000J0D01*
G01*
X144550000Y-83325000D01*
G75*
G02*
X144300000Y-83075000I0J250000D01*
G01*
X144300000Y-81825000D01*
G75*
G02*
X144550000Y-81575000I250000J0D01*
G01*
X145475000Y-81575000D01*
G75*
G02*
X145725000Y-81825000I0J-250000D01*
G01*
G37*
G36*
G01*
X148700000Y-81825000D02*
X148700000Y-83075000D01*
G75*
G02*
X148450000Y-83325000I-250000J0D01*
G01*
X147525000Y-83325000D01*
G75*
G02*
X147275000Y-83075000I0J250000D01*
G01*
X147275000Y-81825000D01*
G75*
G02*
X147525000Y-81575000I250000J0D01*
G01*
X148450000Y-81575000D01*
G75*
G02*
X148700000Y-81825000I0J-250000D01*
G01*
G37*
G36*
G01*
X130600000Y-88475000D02*
X130600000Y-87225000D01*
G75*
G02*
X130850000Y-86975000I250000J0D01*
G01*
X131775000Y-86975000D01*
G75*
G02*
X132025000Y-87225000I0J-250000D01*
G01*
X132025000Y-88475000D01*
G75*
G02*
X131775000Y-88725000I-250000J0D01*
G01*
X130850000Y-88725000D01*
G75*
G02*
X130600000Y-88475000I0J250000D01*
G01*
G37*
G36*
G01*
X133575000Y-88475000D02*
X133575000Y-87225000D01*
G75*
G02*
X133825000Y-86975000I250000J0D01*
G01*
X134750000Y-86975000D01*
G75*
G02*
X135000000Y-87225000I0J-250000D01*
G01*
X135000000Y-88475000D01*
G75*
G02*
X134750000Y-88725000I-250000J0D01*
G01*
X133825000Y-88725000D01*
G75*
G02*
X133575000Y-88475000I0J250000D01*
G01*
G37*
G36*
G01*
X135499000Y-70599000D02*
X134249000Y-70599000D01*
G75*
G02*
X133999000Y-70349000I0J250000D01*
G01*
X133999000Y-69424000D01*
G75*
G02*
X134249000Y-69174000I250000J0D01*
G01*
X135499000Y-69174000D01*
G75*
G02*
X135749000Y-69424000I0J-250000D01*
G01*
X135749000Y-70349000D01*
G75*
G02*
X135499000Y-70599000I-250000J0D01*
G01*
G37*
G36*
G01*
X135499000Y-73574000D02*
X134249000Y-73574000D01*
G75*
G02*
X133999000Y-73324000I0J250000D01*
G01*
X133999000Y-72399000D01*
G75*
G02*
X134249000Y-72149000I250000J0D01*
G01*
X135499000Y-72149000D01*
G75*
G02*
X135749000Y-72399000I0J-250000D01*
G01*
X135749000Y-73324000D01*
G75*
G02*
X135499000Y-73574000I-250000J0D01*
G01*
G37*
G36*
G01*
X158425000Y-85375000D02*
X158425000Y-84125000D01*
G75*
G02*
X158675000Y-83875000I250000J0D01*
G01*
X159600000Y-83875000D01*
G75*
G02*
X159850000Y-84125000I0J-250000D01*
G01*
X159850000Y-85375000D01*
G75*
G02*
X159600000Y-85625000I-250000J0D01*
G01*
X158675000Y-85625000D01*
G75*
G02*
X158425000Y-85375000I0J250000D01*
G01*
G37*
G36*
G01*
X155450000Y-85375000D02*
X155450000Y-84125000D01*
G75*
G02*
X155700000Y-83875000I250000J0D01*
G01*
X156625000Y-83875000D01*
G75*
G02*
X156875000Y-84125000I0J-250000D01*
G01*
X156875000Y-85375000D01*
G75*
G02*
X156625000Y-85625000I-250000J0D01*
G01*
X155700000Y-85625000D01*
G75*
G02*
X155450000Y-85375000I0J250000D01*
G01*
G37*
G36*
G01*
X139225000Y-70587500D02*
X137975000Y-70587500D01*
G75*
G02*
X137725000Y-70337500I0J250000D01*
G01*
X137725000Y-69412500D01*
G75*
G02*
X137975000Y-69162500I250000J0D01*
G01*
X139225000Y-69162500D01*
G75*
G02*
X139475000Y-69412500I0J-250000D01*
G01*
X139475000Y-70337500D01*
G75*
G02*
X139225000Y-70587500I-250000J0D01*
G01*
G37*
G36*
G01*
X139225000Y-73562500D02*
X137975000Y-73562500D01*
G75*
G02*
X137725000Y-73312500I0J250000D01*
G01*
X137725000Y-72387500D01*
G75*
G02*
X137975000Y-72137500I250000J0D01*
G01*
X139225000Y-72137500D01*
G75*
G02*
X139475000Y-72387500I0J-250000D01*
G01*
X139475000Y-73312500D01*
G75*
G02*
X139225000Y-73562500I-250000J0D01*
G01*
G37*
G36*
G01*
X120287500Y-87325000D02*
X120287500Y-88575000D01*
G75*
G02*
X120037500Y-88825000I-250000J0D01*
G01*
X119112500Y-88825000D01*
G75*
G02*
X118862500Y-88575000I0J250000D01*
G01*
X118862500Y-87325000D01*
G75*
G02*
X119112500Y-87075000I250000J0D01*
G01*
X120037500Y-87075000D01*
G75*
G02*
X120287500Y-87325000I0J-250000D01*
G01*
G37*
G36*
G01*
X123262500Y-87325000D02*
X123262500Y-88575000D01*
G75*
G02*
X123012500Y-88825000I-250000J0D01*
G01*
X122087500Y-88825000D01*
G75*
G02*
X121837500Y-88575000I0J250000D01*
G01*
X121837500Y-87325000D01*
G75*
G02*
X122087500Y-87075000I250000J0D01*
G01*
X123012500Y-87075000D01*
G75*
G02*
X123262500Y-87325000I0J-250000D01*
G01*
G37*
G36*
G01*
X147275000Y-70687500D02*
X146025000Y-70687500D01*
G75*
G02*
X145775000Y-70437500I0J250000D01*
G01*
X145775000Y-69512500D01*
G75*
G02*
X146025000Y-69262500I250000J0D01*
G01*
X147275000Y-69262500D01*
G75*
G02*
X147525000Y-69512500I0J-250000D01*
G01*
X147525000Y-70437500D01*
G75*
G02*
X147275000Y-70687500I-250000J0D01*
G01*
G37*
G36*
G01*
X147275000Y-73662500D02*
X146025000Y-73662500D01*
G75*
G02*
X145775000Y-73412500I0J250000D01*
G01*
X145775000Y-72487500D01*
G75*
G02*
X146025000Y-72237500I250000J0D01*
G01*
X147275000Y-72237500D01*
G75*
G02*
X147525000Y-72487500I0J-250000D01*
G01*
X147525000Y-73412500D01*
G75*
G02*
X147275000Y-73662500I-250000J0D01*
G01*
G37*
G36*
G01*
X120287500Y-83725000D02*
X120287500Y-84975000D01*
G75*
G02*
X120037500Y-85225000I-250000J0D01*
G01*
X119112500Y-85225000D01*
G75*
G02*
X118862500Y-84975000I0J250000D01*
G01*
X118862500Y-83725000D01*
G75*
G02*
X119112500Y-83475000I250000J0D01*
G01*
X120037500Y-83475000D01*
G75*
G02*
X120287500Y-83725000I0J-250000D01*
G01*
G37*
G36*
G01*
X123262500Y-83725000D02*
X123262500Y-84975000D01*
G75*
G02*
X123012500Y-85225000I-250000J0D01*
G01*
X122087500Y-85225000D01*
G75*
G02*
X121837500Y-84975000I0J250000D01*
G01*
X121837500Y-83725000D01*
G75*
G02*
X122087500Y-83475000I250000J0D01*
G01*
X123012500Y-83475000D01*
G75*
G02*
X123262500Y-83725000I0J-250000D01*
G01*
G37*
G36*
G01*
X120237500Y-91475000D02*
X120237500Y-92725000D01*
G75*
G02*
X119987500Y-92975000I-250000J0D01*
G01*
X119062500Y-92975000D01*
G75*
G02*
X118812500Y-92725000I0J250000D01*
G01*
X118812500Y-91475000D01*
G75*
G02*
X119062500Y-91225000I250000J0D01*
G01*
X119987500Y-91225000D01*
G75*
G02*
X120237500Y-91475000I0J-250000D01*
G01*
G37*
G36*
G01*
X123212500Y-91475000D02*
X123212500Y-92725000D01*
G75*
G02*
X122962500Y-92975000I-250000J0D01*
G01*
X122037500Y-92975000D01*
G75*
G02*
X121787500Y-92725000I0J250000D01*
G01*
X121787500Y-91475000D01*
G75*
G02*
X122037500Y-91225000I250000J0D01*
G01*
X122962500Y-91225000D01*
G75*
G02*
X123212500Y-91475000I0J-250000D01*
G01*
G37*
G36*
G01*
X151375000Y-70537500D02*
X150125000Y-70537500D01*
G75*
G02*
X149875000Y-70287500I0J250000D01*
G01*
X149875000Y-69362500D01*
G75*
G02*
X150125000Y-69112500I250000J0D01*
G01*
X151375000Y-69112500D01*
G75*
G02*
X151625000Y-69362500I0J-250000D01*
G01*
X151625000Y-70287500D01*
G75*
G02*
X151375000Y-70537500I-250000J0D01*
G01*
G37*
G36*
G01*
X151375000Y-73512500D02*
X150125000Y-73512500D01*
G75*
G02*
X149875000Y-73262500I0J250000D01*
G01*
X149875000Y-72337500D01*
G75*
G02*
X150125000Y-72087500I250000J0D01*
G01*
X151375000Y-72087500D01*
G75*
G02*
X151625000Y-72337500I0J-250000D01*
G01*
X151625000Y-73262500D01*
G75*
G02*
X151375000Y-73512500I-250000J0D01*
G01*
G37*
G36*
G01*
X143525000Y-70675000D02*
X142275000Y-70675000D01*
G75*
G02*
X142025000Y-70425000I0J250000D01*
G01*
X142025000Y-69500000D01*
G75*
G02*
X142275000Y-69250000I250000J0D01*
G01*
X143525000Y-69250000D01*
G75*
G02*
X143775000Y-69500000I0J-250000D01*
G01*
X143775000Y-70425000D01*
G75*
G02*
X143525000Y-70675000I-250000J0D01*
G01*
G37*
G36*
G01*
X143525000Y-73650000D02*
X142275000Y-73650000D01*
G75*
G02*
X142025000Y-73400000I0J250000D01*
G01*
X142025000Y-72475000D01*
G75*
G02*
X142275000Y-72225000I250000J0D01*
G01*
X143525000Y-72225000D01*
G75*
G02*
X143775000Y-72475000I0J-250000D01*
G01*
X143775000Y-73400000D01*
G75*
G02*
X143525000Y-73650000I-250000J0D01*
G01*
G37*
G36*
G01*
X140675000Y-96925000D02*
X139425000Y-96925000D01*
G75*
G02*
X139175000Y-96675000I0J250000D01*
G01*
X139175000Y-95750000D01*
G75*
G02*
X139425000Y-95500000I250000J0D01*
G01*
X140675000Y-95500000D01*
G75*
G02*
X140925000Y-95750000I0J-250000D01*
G01*
X140925000Y-96675000D01*
G75*
G02*
X140675000Y-96925000I-250000J0D01*
G01*
G37*
G36*
G01*
X140675000Y-99900000D02*
X139425000Y-99900000D01*
G75*
G02*
X139175000Y-99650000I0J250000D01*
G01*
X139175000Y-98725000D01*
G75*
G02*
X139425000Y-98475000I250000J0D01*
G01*
X140675000Y-98475000D01*
G75*
G02*
X140925000Y-98725000I0J-250000D01*
G01*
X140925000Y-99650000D01*
G75*
G02*
X140675000Y-99900000I-250000J0D01*
G01*
G37*
G36*
G01*
X144625000Y-96925000D02*
X143375000Y-96925000D01*
G75*
G02*
X143125000Y-96675000I0J250000D01*
G01*
X143125000Y-95750000D01*
G75*
G02*
X143375000Y-95500000I250000J0D01*
G01*
X144625000Y-95500000D01*
G75*
G02*
X144875000Y-95750000I0J-250000D01*
G01*
X144875000Y-96675000D01*
G75*
G02*
X144625000Y-96925000I-250000J0D01*
G01*
G37*
G36*
G01*
X144625000Y-99900000D02*
X143375000Y-99900000D01*
G75*
G02*
X143125000Y-99650000I0J250000D01*
G01*
X143125000Y-98725000D01*
G75*
G02*
X143375000Y-98475000I250000J0D01*
G01*
X144625000Y-98475000D01*
G75*
G02*
X144875000Y-98725000I0J-250000D01*
G01*
X144875000Y-99650000D01*
G75*
G02*
X144625000Y-99900000I-250000J0D01*
G01*
G37*
M02*
