G04 #@! TF.GenerationSoftware,KiCad,Pcbnew,5.1.10-88a1d61d58~90~ubuntu20.04.1*
G04 #@! TF.CreationDate,2021-09-12T22:34:26-04:00*
G04 #@! TF.ProjectId,UnwaryNuc,556e7761-7279-44e7-9563-2e6b69636164,rev?*
G04 #@! TF.SameCoordinates,Original*
G04 #@! TF.FileFunction,Copper,L4,Bot*
G04 #@! TF.FilePolarity,Positive*
%FSLAX46Y46*%
G04 Gerber Fmt 4.6, Leading zero omitted, Abs format (unit mm)*
G04 Created by KiCad (PCBNEW 5.1.10-88a1d61d58~90~ubuntu20.04.1) date 2021-09-12 22:34:26*
%MOMM*%
%LPD*%
G01*
G04 APERTURE LIST*
G04 #@! TA.AperFunction,ComponentPad*
%ADD10O,1.700000X1.700000*%
G04 #@! TD*
G04 #@! TA.AperFunction,ComponentPad*
%ADD11R,1.700000X1.700000*%
G04 #@! TD*
G04 #@! TA.AperFunction,SMDPad,CuDef*
%ADD12R,2.000000X3.800000*%
G04 #@! TD*
G04 #@! TA.AperFunction,SMDPad,CuDef*
%ADD13R,1.300000X1.100000*%
G04 #@! TD*
G04 #@! TA.AperFunction,SMDPad,CuDef*
%ADD14R,3.800000X2.000000*%
G04 #@! TD*
G04 #@! TA.AperFunction,ComponentPad*
%ADD15C,1.600000*%
G04 #@! TD*
G04 #@! TA.AperFunction,ComponentPad*
%ADD16R,2.700000X2.700000*%
G04 #@! TD*
G04 #@! TA.AperFunction,ComponentPad*
%ADD17C,3.000000*%
G04 #@! TD*
G04 #@! TA.AperFunction,ComponentPad*
%ADD18R,1.500000X1.500000*%
G04 #@! TD*
G04 #@! TA.AperFunction,ComponentPad*
%ADD19C,1.500000*%
G04 #@! TD*
G04 #@! TA.AperFunction,ComponentPad*
%ADD20C,2.600000*%
G04 #@! TD*
G04 #@! TA.AperFunction,ComponentPad*
%ADD21C,1.890000*%
G04 #@! TD*
G04 #@! TA.AperFunction,ComponentPad*
%ADD22C,1.900000*%
G04 #@! TD*
G04 #@! TA.AperFunction,ComponentPad*
%ADD23R,1.900000X1.900000*%
G04 #@! TD*
G04 #@! TA.AperFunction,ComponentPad*
%ADD24R,1.500000X1.050000*%
G04 #@! TD*
G04 #@! TA.AperFunction,ComponentPad*
%ADD25O,1.500000X1.050000*%
G04 #@! TD*
G04 #@! TA.AperFunction,ViaPad*
%ADD26C,4.000000*%
G04 #@! TD*
G04 #@! TA.AperFunction,ViaPad*
%ADD27C,0.800000*%
G04 #@! TD*
G04 #@! TA.AperFunction,Conductor*
%ADD28C,1.000000*%
G04 #@! TD*
G04 #@! TA.AperFunction,Conductor*
%ADD29C,0.508000*%
G04 #@! TD*
G04 #@! TA.AperFunction,Conductor*
%ADD30C,0.300000*%
G04 #@! TD*
G04 #@! TA.AperFunction,Conductor*
%ADD31C,0.127000*%
G04 #@! TD*
G04 #@! TA.AperFunction,Conductor*
%ADD32C,0.200000*%
G04 #@! TD*
G04 #@! TA.AperFunction,Conductor*
%ADD33C,0.250000*%
G04 #@! TD*
G04 #@! TA.AperFunction,Conductor*
%ADD34C,0.254000*%
G04 #@! TD*
G04 #@! TA.AperFunction,Conductor*
%ADD35C,0.100000*%
G04 #@! TD*
G04 APERTURE END LIST*
D10*
X179019200Y-119430800D03*
X176479200Y-119430800D03*
X173939200Y-119430800D03*
X171399200Y-119430800D03*
X168859200Y-119430800D03*
X166319200Y-119430800D03*
X163779200Y-119430800D03*
X161239200Y-119430800D03*
X158699200Y-119430800D03*
D11*
X156159200Y-119430800D03*
D10*
X108712000Y-76200000D03*
X111252000Y-76200000D03*
X113792000Y-76200000D03*
D11*
X116332000Y-76200000D03*
D12*
X165049200Y-75641200D03*
D10*
X135026400Y-64211200D03*
X135026400Y-66751200D03*
X132486400Y-64211200D03*
X132486400Y-66751200D03*
X129946400Y-64211200D03*
X129946400Y-66751200D03*
X127406400Y-64211200D03*
D11*
X127406400Y-66751200D03*
D10*
X121462800Y-64312800D03*
X121462800Y-66852800D03*
X118922800Y-64312800D03*
X118922800Y-66852800D03*
X116382800Y-64312800D03*
X116382800Y-66852800D03*
X113842800Y-64312800D03*
D11*
X113842800Y-66852800D03*
D10*
X93675200Y-96062800D03*
X91135200Y-96062800D03*
X93675200Y-93522800D03*
X91135200Y-93522800D03*
X93675200Y-90982800D03*
X91135200Y-90982800D03*
X93675200Y-88442800D03*
D11*
X91135200Y-88442800D03*
G04 #@! TA.AperFunction,SMDPad,CuDef*
G36*
G01*
X164964100Y-69539600D02*
X165439100Y-69539600D01*
G75*
G02*
X165676600Y-69777100I0J-237500D01*
G01*
X165676600Y-70352100D01*
G75*
G02*
X165439100Y-70589600I-237500J0D01*
G01*
X164964100Y-70589600D01*
G75*
G02*
X164726600Y-70352100I0J237500D01*
G01*
X164726600Y-69777100D01*
G75*
G02*
X164964100Y-69539600I237500J0D01*
G01*
G37*
G04 #@! TD.AperFunction*
G04 #@! TA.AperFunction,SMDPad,CuDef*
G36*
G01*
X164964100Y-67789600D02*
X165439100Y-67789600D01*
G75*
G02*
X165676600Y-68027100I0J-237500D01*
G01*
X165676600Y-68602100D01*
G75*
G02*
X165439100Y-68839600I-237500J0D01*
G01*
X164964100Y-68839600D01*
G75*
G02*
X164726600Y-68602100I0J237500D01*
G01*
X164726600Y-68027100D01*
G75*
G02*
X164964100Y-67789600I237500J0D01*
G01*
G37*
G04 #@! TD.AperFunction*
G04 #@! TA.AperFunction,SMDPad,CuDef*
G36*
G01*
X165421100Y-67137800D02*
X164946100Y-67137800D01*
G75*
G02*
X164708600Y-66900300I0J237500D01*
G01*
X164708600Y-66325300D01*
G75*
G02*
X164946100Y-66087800I237500J0D01*
G01*
X165421100Y-66087800D01*
G75*
G02*
X165658600Y-66325300I0J-237500D01*
G01*
X165658600Y-66900300D01*
G75*
G02*
X165421100Y-67137800I-237500J0D01*
G01*
G37*
G04 #@! TD.AperFunction*
G04 #@! TA.AperFunction,SMDPad,CuDef*
G36*
G01*
X165421100Y-68887800D02*
X164946100Y-68887800D01*
G75*
G02*
X164708600Y-68650300I0J237500D01*
G01*
X164708600Y-68075300D01*
G75*
G02*
X164946100Y-67837800I237500J0D01*
G01*
X165421100Y-67837800D01*
G75*
G02*
X165658600Y-68075300I0J-237500D01*
G01*
X165658600Y-68650300D01*
G75*
G02*
X165421100Y-68887800I-237500J0D01*
G01*
G37*
G04 #@! TD.AperFunction*
G04 #@! TA.AperFunction,SMDPad,CuDef*
G36*
G01*
X172133800Y-69488800D02*
X172608800Y-69488800D01*
G75*
G02*
X172846300Y-69726300I0J-237500D01*
G01*
X172846300Y-70301300D01*
G75*
G02*
X172608800Y-70538800I-237500J0D01*
G01*
X172133800Y-70538800D01*
G75*
G02*
X171896300Y-70301300I0J237500D01*
G01*
X171896300Y-69726300D01*
G75*
G02*
X172133800Y-69488800I237500J0D01*
G01*
G37*
G04 #@! TD.AperFunction*
G04 #@! TA.AperFunction,SMDPad,CuDef*
G36*
G01*
X172133800Y-67738800D02*
X172608800Y-67738800D01*
G75*
G02*
X172846300Y-67976300I0J-237500D01*
G01*
X172846300Y-68551300D01*
G75*
G02*
X172608800Y-68788800I-237500J0D01*
G01*
X172133800Y-68788800D01*
G75*
G02*
X171896300Y-68551300I0J237500D01*
G01*
X171896300Y-67976300D01*
G75*
G02*
X172133800Y-67738800I237500J0D01*
G01*
G37*
G04 #@! TD.AperFunction*
G04 #@! TA.AperFunction,SMDPad,CuDef*
G36*
G01*
X172608800Y-67087000D02*
X172133800Y-67087000D01*
G75*
G02*
X171896300Y-66849500I0J237500D01*
G01*
X171896300Y-66274500D01*
G75*
G02*
X172133800Y-66037000I237500J0D01*
G01*
X172608800Y-66037000D01*
G75*
G02*
X172846300Y-66274500I0J-237500D01*
G01*
X172846300Y-66849500D01*
G75*
G02*
X172608800Y-67087000I-237500J0D01*
G01*
G37*
G04 #@! TD.AperFunction*
G04 #@! TA.AperFunction,SMDPad,CuDef*
G36*
G01*
X172608800Y-68837000D02*
X172133800Y-68837000D01*
G75*
G02*
X171896300Y-68599500I0J237500D01*
G01*
X171896300Y-68024500D01*
G75*
G02*
X172133800Y-67787000I237500J0D01*
G01*
X172608800Y-67787000D01*
G75*
G02*
X172846300Y-68024500I0J-237500D01*
G01*
X172846300Y-68599500D01*
G75*
G02*
X172608800Y-68837000I-237500J0D01*
G01*
G37*
G04 #@! TD.AperFunction*
G04 #@! TA.AperFunction,SMDPad,CuDef*
G36*
G01*
X170679100Y-69488800D02*
X171154100Y-69488800D01*
G75*
G02*
X171391600Y-69726300I0J-237500D01*
G01*
X171391600Y-70301300D01*
G75*
G02*
X171154100Y-70538800I-237500J0D01*
G01*
X170679100Y-70538800D01*
G75*
G02*
X170441600Y-70301300I0J237500D01*
G01*
X170441600Y-69726300D01*
G75*
G02*
X170679100Y-69488800I237500J0D01*
G01*
G37*
G04 #@! TD.AperFunction*
G04 #@! TA.AperFunction,SMDPad,CuDef*
G36*
G01*
X170679100Y-67738800D02*
X171154100Y-67738800D01*
G75*
G02*
X171391600Y-67976300I0J-237500D01*
G01*
X171391600Y-68551300D01*
G75*
G02*
X171154100Y-68788800I-237500J0D01*
G01*
X170679100Y-68788800D01*
G75*
G02*
X170441600Y-68551300I0J237500D01*
G01*
X170441600Y-67976300D01*
G75*
G02*
X170679100Y-67738800I237500J0D01*
G01*
G37*
G04 #@! TD.AperFunction*
G04 #@! TA.AperFunction,SMDPad,CuDef*
G36*
G01*
X171162000Y-67087000D02*
X170687000Y-67087000D01*
G75*
G02*
X170449500Y-66849500I0J237500D01*
G01*
X170449500Y-66274500D01*
G75*
G02*
X170687000Y-66037000I237500J0D01*
G01*
X171162000Y-66037000D01*
G75*
G02*
X171399500Y-66274500I0J-237500D01*
G01*
X171399500Y-66849500D01*
G75*
G02*
X171162000Y-67087000I-237500J0D01*
G01*
G37*
G04 #@! TD.AperFunction*
G04 #@! TA.AperFunction,SMDPad,CuDef*
G36*
G01*
X171162000Y-68837000D02*
X170687000Y-68837000D01*
G75*
G02*
X170449500Y-68599500I0J237500D01*
G01*
X170449500Y-68024500D01*
G75*
G02*
X170687000Y-67787000I237500J0D01*
G01*
X171162000Y-67787000D01*
G75*
G02*
X171399500Y-68024500I0J-237500D01*
G01*
X171399500Y-68599500D01*
G75*
G02*
X171162000Y-68837000I-237500J0D01*
G01*
G37*
G04 #@! TD.AperFunction*
G04 #@! TA.AperFunction,SMDPad,CuDef*
G36*
G01*
X174539900Y-69438000D02*
X175014900Y-69438000D01*
G75*
G02*
X175252400Y-69675500I0J-237500D01*
G01*
X175252400Y-70250500D01*
G75*
G02*
X175014900Y-70488000I-237500J0D01*
G01*
X174539900Y-70488000D01*
G75*
G02*
X174302400Y-70250500I0J237500D01*
G01*
X174302400Y-69675500D01*
G75*
G02*
X174539900Y-69438000I237500J0D01*
G01*
G37*
G04 #@! TD.AperFunction*
G04 #@! TA.AperFunction,SMDPad,CuDef*
G36*
G01*
X174539900Y-67688000D02*
X175014900Y-67688000D01*
G75*
G02*
X175252400Y-67925500I0J-237500D01*
G01*
X175252400Y-68500500D01*
G75*
G02*
X175014900Y-68738000I-237500J0D01*
G01*
X174539900Y-68738000D01*
G75*
G02*
X174302400Y-68500500I0J237500D01*
G01*
X174302400Y-67925500D01*
G75*
G02*
X174539900Y-67688000I237500J0D01*
G01*
G37*
G04 #@! TD.AperFunction*
G04 #@! TA.AperFunction,SMDPad,CuDef*
G36*
G01*
X175021300Y-67036200D02*
X174546300Y-67036200D01*
G75*
G02*
X174308800Y-66798700I0J237500D01*
G01*
X174308800Y-66223700D01*
G75*
G02*
X174546300Y-65986200I237500J0D01*
G01*
X175021300Y-65986200D01*
G75*
G02*
X175258800Y-66223700I0J-237500D01*
G01*
X175258800Y-66798700D01*
G75*
G02*
X175021300Y-67036200I-237500J0D01*
G01*
G37*
G04 #@! TD.AperFunction*
G04 #@! TA.AperFunction,SMDPad,CuDef*
G36*
G01*
X175021300Y-68786200D02*
X174546300Y-68786200D01*
G75*
G02*
X174308800Y-68548700I0J237500D01*
G01*
X174308800Y-67973700D01*
G75*
G02*
X174546300Y-67736200I237500J0D01*
G01*
X175021300Y-67736200D01*
G75*
G02*
X175258800Y-67973700I0J-237500D01*
G01*
X175258800Y-68548700D01*
G75*
G02*
X175021300Y-68786200I-237500J0D01*
G01*
G37*
G04 #@! TD.AperFunction*
G04 #@! TA.AperFunction,SMDPad,CuDef*
G36*
G01*
X175987700Y-69438000D02*
X176462700Y-69438000D01*
G75*
G02*
X176700200Y-69675500I0J-237500D01*
G01*
X176700200Y-70250500D01*
G75*
G02*
X176462700Y-70488000I-237500J0D01*
G01*
X175987700Y-70488000D01*
G75*
G02*
X175750200Y-70250500I0J237500D01*
G01*
X175750200Y-69675500D01*
G75*
G02*
X175987700Y-69438000I237500J0D01*
G01*
G37*
G04 #@! TD.AperFunction*
G04 #@! TA.AperFunction,SMDPad,CuDef*
G36*
G01*
X175987700Y-67688000D02*
X176462700Y-67688000D01*
G75*
G02*
X176700200Y-67925500I0J-237500D01*
G01*
X176700200Y-68500500D01*
G75*
G02*
X176462700Y-68738000I-237500J0D01*
G01*
X175987700Y-68738000D01*
G75*
G02*
X175750200Y-68500500I0J237500D01*
G01*
X175750200Y-67925500D01*
G75*
G02*
X175987700Y-67688000I237500J0D01*
G01*
G37*
G04 #@! TD.AperFunction*
G04 #@! TA.AperFunction,SMDPad,CuDef*
G36*
G01*
X176437300Y-67036200D02*
X175962300Y-67036200D01*
G75*
G02*
X175724800Y-66798700I0J237500D01*
G01*
X175724800Y-66223700D01*
G75*
G02*
X175962300Y-65986200I237500J0D01*
G01*
X176437300Y-65986200D01*
G75*
G02*
X176674800Y-66223700I0J-237500D01*
G01*
X176674800Y-66798700D01*
G75*
G02*
X176437300Y-67036200I-237500J0D01*
G01*
G37*
G04 #@! TD.AperFunction*
G04 #@! TA.AperFunction,SMDPad,CuDef*
G36*
G01*
X176437300Y-68786200D02*
X175962300Y-68786200D01*
G75*
G02*
X175724800Y-68548700I0J237500D01*
G01*
X175724800Y-67973700D01*
G75*
G02*
X175962300Y-67736200I237500J0D01*
G01*
X176437300Y-67736200D01*
G75*
G02*
X176674800Y-67973700I0J-237500D01*
G01*
X176674800Y-68548700D01*
G75*
G02*
X176437300Y-68786200I-237500J0D01*
G01*
G37*
G04 #@! TD.AperFunction*
G04 #@! TA.AperFunction,SMDPad,CuDef*
G36*
G01*
X166361100Y-69539600D02*
X166836100Y-69539600D01*
G75*
G02*
X167073600Y-69777100I0J-237500D01*
G01*
X167073600Y-70352100D01*
G75*
G02*
X166836100Y-70589600I-237500J0D01*
G01*
X166361100Y-70589600D01*
G75*
G02*
X166123600Y-70352100I0J237500D01*
G01*
X166123600Y-69777100D01*
G75*
G02*
X166361100Y-69539600I237500J0D01*
G01*
G37*
G04 #@! TD.AperFunction*
G04 #@! TA.AperFunction,SMDPad,CuDef*
G36*
G01*
X166361100Y-67789600D02*
X166836100Y-67789600D01*
G75*
G02*
X167073600Y-68027100I0J-237500D01*
G01*
X167073600Y-68602100D01*
G75*
G02*
X166836100Y-68839600I-237500J0D01*
G01*
X166361100Y-68839600D01*
G75*
G02*
X166123600Y-68602100I0J237500D01*
G01*
X166123600Y-68027100D01*
G75*
G02*
X166361100Y-67789600I237500J0D01*
G01*
G37*
G04 #@! TD.AperFunction*
G04 #@! TA.AperFunction,SMDPad,CuDef*
G36*
G01*
X166844500Y-67137800D02*
X166369500Y-67137800D01*
G75*
G02*
X166132000Y-66900300I0J237500D01*
G01*
X166132000Y-66325300D01*
G75*
G02*
X166369500Y-66087800I237500J0D01*
G01*
X166844500Y-66087800D01*
G75*
G02*
X167082000Y-66325300I0J-237500D01*
G01*
X167082000Y-66900300D01*
G75*
G02*
X166844500Y-67137800I-237500J0D01*
G01*
G37*
G04 #@! TD.AperFunction*
G04 #@! TA.AperFunction,SMDPad,CuDef*
G36*
G01*
X166844500Y-68887800D02*
X166369500Y-68887800D01*
G75*
G02*
X166132000Y-68650300I0J237500D01*
G01*
X166132000Y-68075300D01*
G75*
G02*
X166369500Y-67837800I237500J0D01*
G01*
X166844500Y-67837800D01*
G75*
G02*
X167082000Y-68075300I0J-237500D01*
G01*
X167082000Y-68650300D01*
G75*
G02*
X166844500Y-68887800I-237500J0D01*
G01*
G37*
G04 #@! TD.AperFunction*
G04 #@! TA.AperFunction,SMDPad,CuDef*
G36*
G01*
X165437000Y-105629700D02*
X165437000Y-106104700D01*
G75*
G02*
X165199500Y-106342200I-237500J0D01*
G01*
X164699500Y-106342200D01*
G75*
G02*
X164462000Y-106104700I0J237500D01*
G01*
X164462000Y-105629700D01*
G75*
G02*
X164699500Y-105392200I237500J0D01*
G01*
X165199500Y-105392200D01*
G75*
G02*
X165437000Y-105629700I0J-237500D01*
G01*
G37*
G04 #@! TD.AperFunction*
G04 #@! TA.AperFunction,SMDPad,CuDef*
G36*
G01*
X167262000Y-105629700D02*
X167262000Y-106104700D01*
G75*
G02*
X167024500Y-106342200I-237500J0D01*
G01*
X166524500Y-106342200D01*
G75*
G02*
X166287000Y-106104700I0J237500D01*
G01*
X166287000Y-105629700D01*
G75*
G02*
X166524500Y-105392200I237500J0D01*
G01*
X167024500Y-105392200D01*
G75*
G02*
X167262000Y-105629700I0J-237500D01*
G01*
G37*
G04 #@! TD.AperFunction*
G04 #@! TA.AperFunction,SMDPad,CuDef*
G36*
G01*
X152418600Y-64194700D02*
X152418600Y-63719700D01*
G75*
G02*
X152656100Y-63482200I237500J0D01*
G01*
X153156100Y-63482200D01*
G75*
G02*
X153393600Y-63719700I0J-237500D01*
G01*
X153393600Y-64194700D01*
G75*
G02*
X153156100Y-64432200I-237500J0D01*
G01*
X152656100Y-64432200D01*
G75*
G02*
X152418600Y-64194700I0J237500D01*
G01*
G37*
G04 #@! TD.AperFunction*
G04 #@! TA.AperFunction,SMDPad,CuDef*
G36*
G01*
X150593600Y-64194700D02*
X150593600Y-63719700D01*
G75*
G02*
X150831100Y-63482200I237500J0D01*
G01*
X151331100Y-63482200D01*
G75*
G02*
X151568600Y-63719700I0J-237500D01*
G01*
X151568600Y-64194700D01*
G75*
G02*
X151331100Y-64432200I-237500J0D01*
G01*
X150831100Y-64432200D01*
G75*
G02*
X150593600Y-64194700I0J237500D01*
G01*
G37*
G04 #@! TD.AperFunction*
G04 #@! TA.AperFunction,SMDPad,CuDef*
G36*
G01*
X155124600Y-61078100D02*
X155124600Y-61553100D01*
G75*
G02*
X154887100Y-61790600I-237500J0D01*
G01*
X154387100Y-61790600D01*
G75*
G02*
X154149600Y-61553100I0J237500D01*
G01*
X154149600Y-61078100D01*
G75*
G02*
X154387100Y-60840600I237500J0D01*
G01*
X154887100Y-60840600D01*
G75*
G02*
X155124600Y-61078100I0J-237500D01*
G01*
G37*
G04 #@! TD.AperFunction*
G04 #@! TA.AperFunction,SMDPad,CuDef*
G36*
G01*
X156949600Y-61078100D02*
X156949600Y-61553100D01*
G75*
G02*
X156712100Y-61790600I-237500J0D01*
G01*
X156212100Y-61790600D01*
G75*
G02*
X155974600Y-61553100I0J237500D01*
G01*
X155974600Y-61078100D01*
G75*
G02*
X156212100Y-60840600I237500J0D01*
G01*
X156712100Y-60840600D01*
G75*
G02*
X156949600Y-61078100I0J-237500D01*
G01*
G37*
G04 #@! TD.AperFunction*
G04 #@! TA.AperFunction,SMDPad,CuDef*
G36*
G01*
X173488400Y-103232799D02*
X173488400Y-104132801D01*
G75*
G02*
X173238401Y-104382800I-249999J0D01*
G01*
X172538399Y-104382800D01*
G75*
G02*
X172288400Y-104132801I0J249999D01*
G01*
X172288400Y-103232799D01*
G75*
G02*
X172538399Y-102982800I249999J0D01*
G01*
X173238401Y-102982800D01*
G75*
G02*
X173488400Y-103232799I0J-249999D01*
G01*
G37*
G04 #@! TD.AperFunction*
G04 #@! TA.AperFunction,SMDPad,CuDef*
G36*
G01*
X175488400Y-103232799D02*
X175488400Y-104132801D01*
G75*
G02*
X175238401Y-104382800I-249999J0D01*
G01*
X174538399Y-104382800D01*
G75*
G02*
X174288400Y-104132801I0J249999D01*
G01*
X174288400Y-103232799D01*
G75*
G02*
X174538399Y-102982800I249999J0D01*
G01*
X175238401Y-102982800D01*
G75*
G02*
X175488400Y-103232799I0J-249999D01*
G01*
G37*
G04 #@! TD.AperFunction*
G04 #@! TA.AperFunction,SMDPad,CuDef*
G36*
G01*
X174390000Y-75938801D02*
X174390000Y-75038799D01*
G75*
G02*
X174639999Y-74788800I249999J0D01*
G01*
X175340001Y-74788800D01*
G75*
G02*
X175590000Y-75038799I0J-249999D01*
G01*
X175590000Y-75938801D01*
G75*
G02*
X175340001Y-76188800I-249999J0D01*
G01*
X174639999Y-76188800D01*
G75*
G02*
X174390000Y-75938801I0J249999D01*
G01*
G37*
G04 #@! TD.AperFunction*
G04 #@! TA.AperFunction,SMDPad,CuDef*
G36*
G01*
X172390000Y-75938801D02*
X172390000Y-75038799D01*
G75*
G02*
X172639999Y-74788800I249999J0D01*
G01*
X173340001Y-74788800D01*
G75*
G02*
X173590000Y-75038799I0J-249999D01*
G01*
X173590000Y-75938801D01*
G75*
G02*
X173340001Y-76188800I-249999J0D01*
G01*
X172639999Y-76188800D01*
G75*
G02*
X172390000Y-75938801I0J249999D01*
G01*
G37*
G04 #@! TD.AperFunction*
G04 #@! TA.AperFunction,SMDPad,CuDef*
G36*
G01*
X160816300Y-63329000D02*
X160341300Y-63329000D01*
G75*
G02*
X160103800Y-63091500I0J237500D01*
G01*
X160103800Y-62591500D01*
G75*
G02*
X160341300Y-62354000I237500J0D01*
G01*
X160816300Y-62354000D01*
G75*
G02*
X161053800Y-62591500I0J-237500D01*
G01*
X161053800Y-63091500D01*
G75*
G02*
X160816300Y-63329000I-237500J0D01*
G01*
G37*
G04 #@! TD.AperFunction*
G04 #@! TA.AperFunction,SMDPad,CuDef*
G36*
G01*
X160816300Y-65154000D02*
X160341300Y-65154000D01*
G75*
G02*
X160103800Y-64916500I0J237500D01*
G01*
X160103800Y-64416500D01*
G75*
G02*
X160341300Y-64179000I237500J0D01*
G01*
X160816300Y-64179000D01*
G75*
G02*
X161053800Y-64416500I0J-237500D01*
G01*
X161053800Y-64916500D01*
G75*
G02*
X160816300Y-65154000I-237500J0D01*
G01*
G37*
G04 #@! TD.AperFunction*
G04 #@! TA.AperFunction,SMDPad,CuDef*
G36*
G01*
X162594300Y-63329000D02*
X162119300Y-63329000D01*
G75*
G02*
X161881800Y-63091500I0J237500D01*
G01*
X161881800Y-62591500D01*
G75*
G02*
X162119300Y-62354000I237500J0D01*
G01*
X162594300Y-62354000D01*
G75*
G02*
X162831800Y-62591500I0J-237500D01*
G01*
X162831800Y-63091500D01*
G75*
G02*
X162594300Y-63329000I-237500J0D01*
G01*
G37*
G04 #@! TD.AperFunction*
G04 #@! TA.AperFunction,SMDPad,CuDef*
G36*
G01*
X162594300Y-65154000D02*
X162119300Y-65154000D01*
G75*
G02*
X161881800Y-64916500I0J237500D01*
G01*
X161881800Y-64416500D01*
G75*
G02*
X162119300Y-64179000I237500J0D01*
G01*
X162594300Y-64179000D01*
G75*
G02*
X162831800Y-64416500I0J-237500D01*
G01*
X162831800Y-64916500D01*
G75*
G02*
X162594300Y-65154000I-237500J0D01*
G01*
G37*
G04 #@! TD.AperFunction*
G04 #@! TA.AperFunction,SMDPad,CuDef*
G36*
G01*
X176294600Y-81415900D02*
X176294600Y-80940900D01*
G75*
G02*
X176532100Y-80703400I237500J0D01*
G01*
X177032100Y-80703400D01*
G75*
G02*
X177269600Y-80940900I0J-237500D01*
G01*
X177269600Y-81415900D01*
G75*
G02*
X177032100Y-81653400I-237500J0D01*
G01*
X176532100Y-81653400D01*
G75*
G02*
X176294600Y-81415900I0J237500D01*
G01*
G37*
G04 #@! TD.AperFunction*
G04 #@! TA.AperFunction,SMDPad,CuDef*
G36*
G01*
X174469600Y-81415900D02*
X174469600Y-80940900D01*
G75*
G02*
X174707100Y-80703400I237500J0D01*
G01*
X175207100Y-80703400D01*
G75*
G02*
X175444600Y-80940900I0J-237500D01*
G01*
X175444600Y-81415900D01*
G75*
G02*
X175207100Y-81653400I-237500J0D01*
G01*
X174707100Y-81653400D01*
G75*
G02*
X174469600Y-81415900I0J237500D01*
G01*
G37*
G04 #@! TD.AperFunction*
G04 #@! TA.AperFunction,SMDPad,CuDef*
G36*
G01*
X176294600Y-82990700D02*
X176294600Y-82515700D01*
G75*
G02*
X176532100Y-82278200I237500J0D01*
G01*
X177032100Y-82278200D01*
G75*
G02*
X177269600Y-82515700I0J-237500D01*
G01*
X177269600Y-82990700D01*
G75*
G02*
X177032100Y-83228200I-237500J0D01*
G01*
X176532100Y-83228200D01*
G75*
G02*
X176294600Y-82990700I0J237500D01*
G01*
G37*
G04 #@! TD.AperFunction*
G04 #@! TA.AperFunction,SMDPad,CuDef*
G36*
G01*
X174469600Y-82990700D02*
X174469600Y-82515700D01*
G75*
G02*
X174707100Y-82278200I237500J0D01*
G01*
X175207100Y-82278200D01*
G75*
G02*
X175444600Y-82515700I0J-237500D01*
G01*
X175444600Y-82990700D01*
G75*
G02*
X175207100Y-83228200I-237500J0D01*
G01*
X174707100Y-83228200D01*
G75*
G02*
X174469600Y-82990700I0J237500D01*
G01*
G37*
G04 #@! TD.AperFunction*
G04 #@! TA.AperFunction,SMDPad,CuDef*
G36*
G01*
X185555900Y-82328200D02*
X185080900Y-82328200D01*
G75*
G02*
X184843400Y-82090700I0J237500D01*
G01*
X184843400Y-81590700D01*
G75*
G02*
X185080900Y-81353200I237500J0D01*
G01*
X185555900Y-81353200D01*
G75*
G02*
X185793400Y-81590700I0J-237500D01*
G01*
X185793400Y-82090700D01*
G75*
G02*
X185555900Y-82328200I-237500J0D01*
G01*
G37*
G04 #@! TD.AperFunction*
G04 #@! TA.AperFunction,SMDPad,CuDef*
G36*
G01*
X185555900Y-84153200D02*
X185080900Y-84153200D01*
G75*
G02*
X184843400Y-83915700I0J237500D01*
G01*
X184843400Y-83415700D01*
G75*
G02*
X185080900Y-83178200I237500J0D01*
G01*
X185555900Y-83178200D01*
G75*
G02*
X185793400Y-83415700I0J-237500D01*
G01*
X185793400Y-83915700D01*
G75*
G02*
X185555900Y-84153200I-237500J0D01*
G01*
G37*
G04 #@! TD.AperFunction*
G04 #@! TA.AperFunction,SMDPad,CuDef*
G36*
G01*
X187283100Y-82328200D02*
X186808100Y-82328200D01*
G75*
G02*
X186570600Y-82090700I0J237500D01*
G01*
X186570600Y-81590700D01*
G75*
G02*
X186808100Y-81353200I237500J0D01*
G01*
X187283100Y-81353200D01*
G75*
G02*
X187520600Y-81590700I0J-237500D01*
G01*
X187520600Y-82090700D01*
G75*
G02*
X187283100Y-82328200I-237500J0D01*
G01*
G37*
G04 #@! TD.AperFunction*
G04 #@! TA.AperFunction,SMDPad,CuDef*
G36*
G01*
X187283100Y-84153200D02*
X186808100Y-84153200D01*
G75*
G02*
X186570600Y-83915700I0J237500D01*
G01*
X186570600Y-83415700D01*
G75*
G02*
X186808100Y-83178200I237500J0D01*
G01*
X187283100Y-83178200D01*
G75*
G02*
X187520600Y-83415700I0J-237500D01*
G01*
X187520600Y-83915700D01*
G75*
G02*
X187283100Y-84153200I-237500J0D01*
G01*
G37*
G04 #@! TD.AperFunction*
G04 #@! TA.AperFunction,SMDPad,CuDef*
G36*
G01*
X173854100Y-91712600D02*
X174329100Y-91712600D01*
G75*
G02*
X174566600Y-91950100I0J-237500D01*
G01*
X174566600Y-92450100D01*
G75*
G02*
X174329100Y-92687600I-237500J0D01*
G01*
X173854100Y-92687600D01*
G75*
G02*
X173616600Y-92450100I0J237500D01*
G01*
X173616600Y-91950100D01*
G75*
G02*
X173854100Y-91712600I237500J0D01*
G01*
G37*
G04 #@! TD.AperFunction*
G04 #@! TA.AperFunction,SMDPad,CuDef*
G36*
G01*
X173854100Y-89887600D02*
X174329100Y-89887600D01*
G75*
G02*
X174566600Y-90125100I0J-237500D01*
G01*
X174566600Y-90625100D01*
G75*
G02*
X174329100Y-90862600I-237500J0D01*
G01*
X173854100Y-90862600D01*
G75*
G02*
X173616600Y-90625100I0J237500D01*
G01*
X173616600Y-90125100D01*
G75*
G02*
X173854100Y-89887600I237500J0D01*
G01*
G37*
G04 #@! TD.AperFunction*
G04 #@! TA.AperFunction,SMDPad,CuDef*
G36*
G01*
X182328400Y-69070200D02*
X182328400Y-70020200D01*
G75*
G02*
X182078400Y-70270200I-250000J0D01*
G01*
X181403400Y-70270200D01*
G75*
G02*
X181153400Y-70020200I0J250000D01*
G01*
X181153400Y-69070200D01*
G75*
G02*
X181403400Y-68820200I250000J0D01*
G01*
X182078400Y-68820200D01*
G75*
G02*
X182328400Y-69070200I0J-250000D01*
G01*
G37*
G04 #@! TD.AperFunction*
G04 #@! TA.AperFunction,SMDPad,CuDef*
G36*
G01*
X184403400Y-69070200D02*
X184403400Y-70020200D01*
G75*
G02*
X184153400Y-70270200I-250000J0D01*
G01*
X183478400Y-70270200D01*
G75*
G02*
X183228400Y-70020200I0J250000D01*
G01*
X183228400Y-69070200D01*
G75*
G02*
X183478400Y-68820200I250000J0D01*
G01*
X184153400Y-68820200D01*
G75*
G02*
X184403400Y-69070200I0J-250000D01*
G01*
G37*
G04 #@! TD.AperFunction*
G04 #@! TA.AperFunction,SMDPad,CuDef*
G36*
G01*
X182049400Y-96055600D02*
X182999400Y-96055600D01*
G75*
G02*
X183249400Y-96305600I0J-250000D01*
G01*
X183249400Y-96980600D01*
G75*
G02*
X182999400Y-97230600I-250000J0D01*
G01*
X182049400Y-97230600D01*
G75*
G02*
X181799400Y-96980600I0J250000D01*
G01*
X181799400Y-96305600D01*
G75*
G02*
X182049400Y-96055600I250000J0D01*
G01*
G37*
G04 #@! TD.AperFunction*
G04 #@! TA.AperFunction,SMDPad,CuDef*
G36*
G01*
X182049400Y-93980600D02*
X182999400Y-93980600D01*
G75*
G02*
X183249400Y-94230600I0J-250000D01*
G01*
X183249400Y-94905600D01*
G75*
G02*
X182999400Y-95155600I-250000J0D01*
G01*
X182049400Y-95155600D01*
G75*
G02*
X181799400Y-94905600I0J250000D01*
G01*
X181799400Y-94230600D01*
G75*
G02*
X182049400Y-93980600I250000J0D01*
G01*
G37*
G04 #@! TD.AperFunction*
G04 #@! TA.AperFunction,SMDPad,CuDef*
G36*
G01*
X174071400Y-73574900D02*
X174071400Y-74049900D01*
G75*
G02*
X173833900Y-74287400I-237500J0D01*
G01*
X173233900Y-74287400D01*
G75*
G02*
X172996400Y-74049900I0J237500D01*
G01*
X172996400Y-73574900D01*
G75*
G02*
X173233900Y-73337400I237500J0D01*
G01*
X173833900Y-73337400D01*
G75*
G02*
X174071400Y-73574900I0J-237500D01*
G01*
G37*
G04 #@! TD.AperFunction*
G04 #@! TA.AperFunction,SMDPad,CuDef*
G36*
G01*
X175796400Y-73574900D02*
X175796400Y-74049900D01*
G75*
G02*
X175558900Y-74287400I-237500J0D01*
G01*
X174958900Y-74287400D01*
G75*
G02*
X174721400Y-74049900I0J237500D01*
G01*
X174721400Y-73574900D01*
G75*
G02*
X174958900Y-73337400I237500J0D01*
G01*
X175558900Y-73337400D01*
G75*
G02*
X175796400Y-73574900I0J-237500D01*
G01*
G37*
G04 #@! TD.AperFunction*
G04 #@! TA.AperFunction,SMDPad,CuDef*
G36*
G01*
X175544600Y-101768900D02*
X175544600Y-102243900D01*
G75*
G02*
X175307100Y-102481400I-237500J0D01*
G01*
X174707100Y-102481400D01*
G75*
G02*
X174469600Y-102243900I0J237500D01*
G01*
X174469600Y-101768900D01*
G75*
G02*
X174707100Y-101531400I237500J0D01*
G01*
X175307100Y-101531400D01*
G75*
G02*
X175544600Y-101768900I0J-237500D01*
G01*
G37*
G04 #@! TD.AperFunction*
G04 #@! TA.AperFunction,SMDPad,CuDef*
G36*
G01*
X177269600Y-101768900D02*
X177269600Y-102243900D01*
G75*
G02*
X177032100Y-102481400I-237500J0D01*
G01*
X176432100Y-102481400D01*
G75*
G02*
X176194600Y-102243900I0J237500D01*
G01*
X176194600Y-101768900D01*
G75*
G02*
X176432100Y-101531400I237500J0D01*
G01*
X177032100Y-101531400D01*
G75*
G02*
X177269600Y-101768900I0J-237500D01*
G01*
G37*
G04 #@! TD.AperFunction*
G04 #@! TA.AperFunction,SMDPad,CuDef*
G36*
G01*
X158664900Y-63977400D02*
X159139900Y-63977400D01*
G75*
G02*
X159377400Y-64214900I0J-237500D01*
G01*
X159377400Y-64814900D01*
G75*
G02*
X159139900Y-65052400I-237500J0D01*
G01*
X158664900Y-65052400D01*
G75*
G02*
X158427400Y-64814900I0J237500D01*
G01*
X158427400Y-64214900D01*
G75*
G02*
X158664900Y-63977400I237500J0D01*
G01*
G37*
G04 #@! TD.AperFunction*
G04 #@! TA.AperFunction,SMDPad,CuDef*
G36*
G01*
X158664900Y-62252400D02*
X159139900Y-62252400D01*
G75*
G02*
X159377400Y-62489900I0J-237500D01*
G01*
X159377400Y-63089900D01*
G75*
G02*
X159139900Y-63327400I-237500J0D01*
G01*
X158664900Y-63327400D01*
G75*
G02*
X158427400Y-63089900I0J237500D01*
G01*
X158427400Y-62489900D01*
G75*
G02*
X158664900Y-62252400I237500J0D01*
G01*
G37*
G04 #@! TD.AperFunction*
G04 #@! TA.AperFunction,SMDPad,CuDef*
G36*
G01*
X175448800Y-72481201D02*
X175448800Y-71181199D01*
G75*
G02*
X175698799Y-70931200I249999J0D01*
G01*
X176523801Y-70931200D01*
G75*
G02*
X176773800Y-71181199I0J-249999D01*
G01*
X176773800Y-72481201D01*
G75*
G02*
X176523801Y-72731200I-249999J0D01*
G01*
X175698799Y-72731200D01*
G75*
G02*
X175448800Y-72481201I0J249999D01*
G01*
G37*
G04 #@! TD.AperFunction*
G04 #@! TA.AperFunction,SMDPad,CuDef*
G36*
G01*
X172323800Y-72481201D02*
X172323800Y-71181199D01*
G75*
G02*
X172573799Y-70931200I249999J0D01*
G01*
X173398801Y-70931200D01*
G75*
G02*
X173648800Y-71181199I0J-249999D01*
G01*
X173648800Y-72481201D01*
G75*
G02*
X173398801Y-72731200I-249999J0D01*
G01*
X172573799Y-72731200D01*
G75*
G02*
X172323800Y-72481201I0J249999D01*
G01*
G37*
G04 #@! TD.AperFunction*
G04 #@! TA.AperFunction,SMDPad,CuDef*
G36*
G01*
X177379200Y-106568001D02*
X177379200Y-105267999D01*
G75*
G02*
X177629199Y-105018000I249999J0D01*
G01*
X178454201Y-105018000D01*
G75*
G02*
X178704200Y-105267999I0J-249999D01*
G01*
X178704200Y-106568001D01*
G75*
G02*
X178454201Y-106818000I-249999J0D01*
G01*
X177629199Y-106818000D01*
G75*
G02*
X177379200Y-106568001I0J249999D01*
G01*
G37*
G04 #@! TD.AperFunction*
G04 #@! TA.AperFunction,SMDPad,CuDef*
G36*
G01*
X174254200Y-106568001D02*
X174254200Y-105267999D01*
G75*
G02*
X174504199Y-105018000I249999J0D01*
G01*
X175329201Y-105018000D01*
G75*
G02*
X175579200Y-105267999I0J-249999D01*
G01*
X175579200Y-106568001D01*
G75*
G02*
X175329201Y-106818000I-249999J0D01*
G01*
X174504199Y-106818000D01*
G75*
G02*
X174254200Y-106568001I0J249999D01*
G01*
G37*
G04 #@! TD.AperFunction*
G04 #@! TA.AperFunction,SMDPad,CuDef*
G36*
G01*
X183455300Y-83129000D02*
X183930300Y-83129000D01*
G75*
G02*
X184167800Y-83366500I0J-237500D01*
G01*
X184167800Y-83966500D01*
G75*
G02*
X183930300Y-84204000I-237500J0D01*
G01*
X183455300Y-84204000D01*
G75*
G02*
X183217800Y-83966500I0J237500D01*
G01*
X183217800Y-83366500D01*
G75*
G02*
X183455300Y-83129000I237500J0D01*
G01*
G37*
G04 #@! TD.AperFunction*
G04 #@! TA.AperFunction,SMDPad,CuDef*
G36*
G01*
X183455300Y-81404000D02*
X183930300Y-81404000D01*
G75*
G02*
X184167800Y-81641500I0J-237500D01*
G01*
X184167800Y-82241500D01*
G75*
G02*
X183930300Y-82479000I-237500J0D01*
G01*
X183455300Y-82479000D01*
G75*
G02*
X183217800Y-82241500I0J237500D01*
G01*
X183217800Y-81641500D01*
G75*
G02*
X183455300Y-81404000I237500J0D01*
G01*
G37*
G04 #@! TD.AperFunction*
D13*
X156752000Y-62929000D03*
X154652000Y-62929000D03*
X154652000Y-64579000D03*
X156752000Y-64579000D03*
X181339200Y-81928200D03*
X179239200Y-81928200D03*
X179239200Y-83578200D03*
X181339200Y-83578200D03*
D14*
X164033200Y-109270800D03*
G04 #@! TA.AperFunction,SMDPad,CuDef*
G36*
G01*
X166335700Y-98368600D02*
X166810700Y-98368600D01*
G75*
G02*
X167048200Y-98606100I0J-237500D01*
G01*
X167048200Y-99181100D01*
G75*
G02*
X166810700Y-99418600I-237500J0D01*
G01*
X166335700Y-99418600D01*
G75*
G02*
X166098200Y-99181100I0J237500D01*
G01*
X166098200Y-98606100D01*
G75*
G02*
X166335700Y-98368600I237500J0D01*
G01*
G37*
G04 #@! TD.AperFunction*
G04 #@! TA.AperFunction,SMDPad,CuDef*
G36*
G01*
X166335700Y-96618600D02*
X166810700Y-96618600D01*
G75*
G02*
X167048200Y-96856100I0J-237500D01*
G01*
X167048200Y-97431100D01*
G75*
G02*
X166810700Y-97668600I-237500J0D01*
G01*
X166335700Y-97668600D01*
G75*
G02*
X166098200Y-97431100I0J237500D01*
G01*
X166098200Y-96856100D01*
G75*
G02*
X166335700Y-96618600I237500J0D01*
G01*
G37*
G04 #@! TD.AperFunction*
G04 #@! TA.AperFunction,SMDPad,CuDef*
G36*
G01*
X166810700Y-95916000D02*
X166335700Y-95916000D01*
G75*
G02*
X166098200Y-95678500I0J237500D01*
G01*
X166098200Y-95103500D01*
G75*
G02*
X166335700Y-94866000I237500J0D01*
G01*
X166810700Y-94866000D01*
G75*
G02*
X167048200Y-95103500I0J-237500D01*
G01*
X167048200Y-95678500D01*
G75*
G02*
X166810700Y-95916000I-237500J0D01*
G01*
G37*
G04 #@! TD.AperFunction*
G04 #@! TA.AperFunction,SMDPad,CuDef*
G36*
G01*
X166810700Y-97666000D02*
X166335700Y-97666000D01*
G75*
G02*
X166098200Y-97428500I0J237500D01*
G01*
X166098200Y-96853500D01*
G75*
G02*
X166335700Y-96616000I237500J0D01*
G01*
X166810700Y-96616000D01*
G75*
G02*
X167048200Y-96853500I0J-237500D01*
G01*
X167048200Y-97428500D01*
G75*
G02*
X166810700Y-97666000I-237500J0D01*
G01*
G37*
G04 #@! TD.AperFunction*
G04 #@! TA.AperFunction,SMDPad,CuDef*
G36*
G01*
X173650900Y-98394000D02*
X174125900Y-98394000D01*
G75*
G02*
X174363400Y-98631500I0J-237500D01*
G01*
X174363400Y-99206500D01*
G75*
G02*
X174125900Y-99444000I-237500J0D01*
G01*
X173650900Y-99444000D01*
G75*
G02*
X173413400Y-99206500I0J237500D01*
G01*
X173413400Y-98631500D01*
G75*
G02*
X173650900Y-98394000I237500J0D01*
G01*
G37*
G04 #@! TD.AperFunction*
G04 #@! TA.AperFunction,SMDPad,CuDef*
G36*
G01*
X173650900Y-96644000D02*
X174125900Y-96644000D01*
G75*
G02*
X174363400Y-96881500I0J-237500D01*
G01*
X174363400Y-97456500D01*
G75*
G02*
X174125900Y-97694000I-237500J0D01*
G01*
X173650900Y-97694000D01*
G75*
G02*
X173413400Y-97456500I0J237500D01*
G01*
X173413400Y-96881500D01*
G75*
G02*
X173650900Y-96644000I237500J0D01*
G01*
G37*
G04 #@! TD.AperFunction*
G04 #@! TA.AperFunction,SMDPad,CuDef*
G36*
G01*
X174125900Y-95941400D02*
X173650900Y-95941400D01*
G75*
G02*
X173413400Y-95703900I0J237500D01*
G01*
X173413400Y-95128900D01*
G75*
G02*
X173650900Y-94891400I237500J0D01*
G01*
X174125900Y-94891400D01*
G75*
G02*
X174363400Y-95128900I0J-237500D01*
G01*
X174363400Y-95703900D01*
G75*
G02*
X174125900Y-95941400I-237500J0D01*
G01*
G37*
G04 #@! TD.AperFunction*
G04 #@! TA.AperFunction,SMDPad,CuDef*
G36*
G01*
X174125900Y-97691400D02*
X173650900Y-97691400D01*
G75*
G02*
X173413400Y-97453900I0J237500D01*
G01*
X173413400Y-96878900D01*
G75*
G02*
X173650900Y-96641400I237500J0D01*
G01*
X174125900Y-96641400D01*
G75*
G02*
X174363400Y-96878900I0J-237500D01*
G01*
X174363400Y-97453900D01*
G75*
G02*
X174125900Y-97691400I-237500J0D01*
G01*
G37*
G04 #@! TD.AperFunction*
G04 #@! TA.AperFunction,SMDPad,CuDef*
G36*
G01*
X172203100Y-98382600D02*
X172678100Y-98382600D01*
G75*
G02*
X172915600Y-98620100I0J-237500D01*
G01*
X172915600Y-99195100D01*
G75*
G02*
X172678100Y-99432600I-237500J0D01*
G01*
X172203100Y-99432600D01*
G75*
G02*
X171965600Y-99195100I0J237500D01*
G01*
X171965600Y-98620100D01*
G75*
G02*
X172203100Y-98382600I237500J0D01*
G01*
G37*
G04 #@! TD.AperFunction*
G04 #@! TA.AperFunction,SMDPad,CuDef*
G36*
G01*
X172203100Y-96632600D02*
X172678100Y-96632600D01*
G75*
G02*
X172915600Y-96870100I0J-237500D01*
G01*
X172915600Y-97445100D01*
G75*
G02*
X172678100Y-97682600I-237500J0D01*
G01*
X172203100Y-97682600D01*
G75*
G02*
X171965600Y-97445100I0J237500D01*
G01*
X171965600Y-96870100D01*
G75*
G02*
X172203100Y-96632600I237500J0D01*
G01*
G37*
G04 #@! TD.AperFunction*
G04 #@! TA.AperFunction,SMDPad,CuDef*
G36*
G01*
X172678100Y-95916000D02*
X172203100Y-95916000D01*
G75*
G02*
X171965600Y-95678500I0J237500D01*
G01*
X171965600Y-95103500D01*
G75*
G02*
X172203100Y-94866000I237500J0D01*
G01*
X172678100Y-94866000D01*
G75*
G02*
X172915600Y-95103500I0J-237500D01*
G01*
X172915600Y-95678500D01*
G75*
G02*
X172678100Y-95916000I-237500J0D01*
G01*
G37*
G04 #@! TD.AperFunction*
G04 #@! TA.AperFunction,SMDPad,CuDef*
G36*
G01*
X172678100Y-97666000D02*
X172203100Y-97666000D01*
G75*
G02*
X171965600Y-97428500I0J237500D01*
G01*
X171965600Y-96853500D01*
G75*
G02*
X172203100Y-96616000I237500J0D01*
G01*
X172678100Y-96616000D01*
G75*
G02*
X172915600Y-96853500I0J-237500D01*
G01*
X172915600Y-97428500D01*
G75*
G02*
X172678100Y-97666000I-237500J0D01*
G01*
G37*
G04 #@! TD.AperFunction*
G04 #@! TA.AperFunction,SMDPad,CuDef*
G36*
G01*
X176394100Y-98470200D02*
X176869100Y-98470200D01*
G75*
G02*
X177106600Y-98707700I0J-237500D01*
G01*
X177106600Y-99282700D01*
G75*
G02*
X176869100Y-99520200I-237500J0D01*
G01*
X176394100Y-99520200D01*
G75*
G02*
X176156600Y-99282700I0J237500D01*
G01*
X176156600Y-98707700D01*
G75*
G02*
X176394100Y-98470200I237500J0D01*
G01*
G37*
G04 #@! TD.AperFunction*
G04 #@! TA.AperFunction,SMDPad,CuDef*
G36*
G01*
X176394100Y-96720200D02*
X176869100Y-96720200D01*
G75*
G02*
X177106600Y-96957700I0J-237500D01*
G01*
X177106600Y-97532700D01*
G75*
G02*
X176869100Y-97770200I-237500J0D01*
G01*
X176394100Y-97770200D01*
G75*
G02*
X176156600Y-97532700I0J237500D01*
G01*
X176156600Y-96957700D01*
G75*
G02*
X176394100Y-96720200I237500J0D01*
G01*
G37*
G04 #@! TD.AperFunction*
G04 #@! TA.AperFunction,SMDPad,CuDef*
G36*
G01*
X176843700Y-96017600D02*
X176368700Y-96017600D01*
G75*
G02*
X176131200Y-95780100I0J237500D01*
G01*
X176131200Y-95205100D01*
G75*
G02*
X176368700Y-94967600I237500J0D01*
G01*
X176843700Y-94967600D01*
G75*
G02*
X177081200Y-95205100I0J-237500D01*
G01*
X177081200Y-95780100D01*
G75*
G02*
X176843700Y-96017600I-237500J0D01*
G01*
G37*
G04 #@! TD.AperFunction*
G04 #@! TA.AperFunction,SMDPad,CuDef*
G36*
G01*
X176843700Y-97767600D02*
X176368700Y-97767600D01*
G75*
G02*
X176131200Y-97530100I0J237500D01*
G01*
X176131200Y-96955100D01*
G75*
G02*
X176368700Y-96717600I237500J0D01*
G01*
X176843700Y-96717600D01*
G75*
G02*
X177081200Y-96955100I0J-237500D01*
G01*
X177081200Y-97530100D01*
G75*
G02*
X176843700Y-97767600I-237500J0D01*
G01*
G37*
G04 #@! TD.AperFunction*
G04 #@! TA.AperFunction,SMDPad,CuDef*
G36*
G01*
X177841900Y-98470200D02*
X178316900Y-98470200D01*
G75*
G02*
X178554400Y-98707700I0J-237500D01*
G01*
X178554400Y-99282700D01*
G75*
G02*
X178316900Y-99520200I-237500J0D01*
G01*
X177841900Y-99520200D01*
G75*
G02*
X177604400Y-99282700I0J237500D01*
G01*
X177604400Y-98707700D01*
G75*
G02*
X177841900Y-98470200I237500J0D01*
G01*
G37*
G04 #@! TD.AperFunction*
G04 #@! TA.AperFunction,SMDPad,CuDef*
G36*
G01*
X177841900Y-96720200D02*
X178316900Y-96720200D01*
G75*
G02*
X178554400Y-96957700I0J-237500D01*
G01*
X178554400Y-97532700D01*
G75*
G02*
X178316900Y-97770200I-237500J0D01*
G01*
X177841900Y-97770200D01*
G75*
G02*
X177604400Y-97532700I0J237500D01*
G01*
X177604400Y-96957700D01*
G75*
G02*
X177841900Y-96720200I237500J0D01*
G01*
G37*
G04 #@! TD.AperFunction*
G04 #@! TA.AperFunction,SMDPad,CuDef*
G36*
G01*
X178335700Y-96017600D02*
X177860700Y-96017600D01*
G75*
G02*
X177623200Y-95780100I0J237500D01*
G01*
X177623200Y-95205100D01*
G75*
G02*
X177860700Y-94967600I237500J0D01*
G01*
X178335700Y-94967600D01*
G75*
G02*
X178573200Y-95205100I0J-237500D01*
G01*
X178573200Y-95780100D01*
G75*
G02*
X178335700Y-96017600I-237500J0D01*
G01*
G37*
G04 #@! TD.AperFunction*
G04 #@! TA.AperFunction,SMDPad,CuDef*
G36*
G01*
X178335700Y-97767600D02*
X177860700Y-97767600D01*
G75*
G02*
X177623200Y-97530100I0J237500D01*
G01*
X177623200Y-96955100D01*
G75*
G02*
X177860700Y-96717600I237500J0D01*
G01*
X178335700Y-96717600D01*
G75*
G02*
X178573200Y-96955100I0J-237500D01*
G01*
X178573200Y-97530100D01*
G75*
G02*
X178335700Y-97767600I-237500J0D01*
G01*
G37*
G04 #@! TD.AperFunction*
G04 #@! TA.AperFunction,SMDPad,CuDef*
G36*
G01*
X167758100Y-98419400D02*
X168233100Y-98419400D01*
G75*
G02*
X168470600Y-98656900I0J-237500D01*
G01*
X168470600Y-99231900D01*
G75*
G02*
X168233100Y-99469400I-237500J0D01*
G01*
X167758100Y-99469400D01*
G75*
G02*
X167520600Y-99231900I0J237500D01*
G01*
X167520600Y-98656900D01*
G75*
G02*
X167758100Y-98419400I237500J0D01*
G01*
G37*
G04 #@! TD.AperFunction*
G04 #@! TA.AperFunction,SMDPad,CuDef*
G36*
G01*
X167758100Y-96669400D02*
X168233100Y-96669400D01*
G75*
G02*
X168470600Y-96906900I0J-237500D01*
G01*
X168470600Y-97481900D01*
G75*
G02*
X168233100Y-97719400I-237500J0D01*
G01*
X167758100Y-97719400D01*
G75*
G02*
X167520600Y-97481900I0J237500D01*
G01*
X167520600Y-96906900D01*
G75*
G02*
X167758100Y-96669400I237500J0D01*
G01*
G37*
G04 #@! TD.AperFunction*
G04 #@! TA.AperFunction,SMDPad,CuDef*
G36*
G01*
X168233100Y-95966800D02*
X167758100Y-95966800D01*
G75*
G02*
X167520600Y-95729300I0J237500D01*
G01*
X167520600Y-95154300D01*
G75*
G02*
X167758100Y-94916800I237500J0D01*
G01*
X168233100Y-94916800D01*
G75*
G02*
X168470600Y-95154300I0J-237500D01*
G01*
X168470600Y-95729300D01*
G75*
G02*
X168233100Y-95966800I-237500J0D01*
G01*
G37*
G04 #@! TD.AperFunction*
G04 #@! TA.AperFunction,SMDPad,CuDef*
G36*
G01*
X168233100Y-97716800D02*
X167758100Y-97716800D01*
G75*
G02*
X167520600Y-97479300I0J237500D01*
G01*
X167520600Y-96904300D01*
G75*
G02*
X167758100Y-96666800I237500J0D01*
G01*
X168233100Y-96666800D01*
G75*
G02*
X168470600Y-96904300I0J-237500D01*
G01*
X168470600Y-97479300D01*
G75*
G02*
X168233100Y-97716800I-237500J0D01*
G01*
G37*
G04 #@! TD.AperFunction*
G04 #@! TA.AperFunction,SMDPad,CuDef*
G36*
G01*
X176818300Y-92410800D02*
X176343300Y-92410800D01*
G75*
G02*
X176105800Y-92173300I0J237500D01*
G01*
X176105800Y-91598300D01*
G75*
G02*
X176343300Y-91360800I237500J0D01*
G01*
X176818300Y-91360800D01*
G75*
G02*
X177055800Y-91598300I0J-237500D01*
G01*
X177055800Y-92173300D01*
G75*
G02*
X176818300Y-92410800I-237500J0D01*
G01*
G37*
G04 #@! TD.AperFunction*
G04 #@! TA.AperFunction,SMDPad,CuDef*
G36*
G01*
X176818300Y-94160800D02*
X176343300Y-94160800D01*
G75*
G02*
X176105800Y-93923300I0J237500D01*
G01*
X176105800Y-93348300D01*
G75*
G02*
X176343300Y-93110800I237500J0D01*
G01*
X176818300Y-93110800D01*
G75*
G02*
X177055800Y-93348300I0J-237500D01*
G01*
X177055800Y-93923300D01*
G75*
G02*
X176818300Y-94160800I-237500J0D01*
G01*
G37*
G04 #@! TD.AperFunction*
G04 #@! TA.AperFunction,SMDPad,CuDef*
G36*
G01*
X186898800Y-114400500D02*
X186898800Y-114875500D01*
G75*
G02*
X186661300Y-115113000I-237500J0D01*
G01*
X186086300Y-115113000D01*
G75*
G02*
X185848800Y-114875500I0J237500D01*
G01*
X185848800Y-114400500D01*
G75*
G02*
X186086300Y-114163000I237500J0D01*
G01*
X186661300Y-114163000D01*
G75*
G02*
X186898800Y-114400500I0J-237500D01*
G01*
G37*
G04 #@! TD.AperFunction*
G04 #@! TA.AperFunction,SMDPad,CuDef*
G36*
G01*
X188648800Y-114400500D02*
X188648800Y-114875500D01*
G75*
G02*
X188411300Y-115113000I-237500J0D01*
G01*
X187836300Y-115113000D01*
G75*
G02*
X187598800Y-114875500I0J237500D01*
G01*
X187598800Y-114400500D01*
G75*
G02*
X187836300Y-114163000I237500J0D01*
G01*
X188411300Y-114163000D01*
G75*
G02*
X188648800Y-114400500I0J-237500D01*
G01*
G37*
G04 #@! TD.AperFunction*
G04 #@! TA.AperFunction,SMDPad,CuDef*
G36*
G01*
X187598800Y-112657900D02*
X187598800Y-112182900D01*
G75*
G02*
X187836300Y-111945400I237500J0D01*
G01*
X188411300Y-111945400D01*
G75*
G02*
X188648800Y-112182900I0J-237500D01*
G01*
X188648800Y-112657900D01*
G75*
G02*
X188411300Y-112895400I-237500J0D01*
G01*
X187836300Y-112895400D01*
G75*
G02*
X187598800Y-112657900I0J237500D01*
G01*
G37*
G04 #@! TD.AperFunction*
G04 #@! TA.AperFunction,SMDPad,CuDef*
G36*
G01*
X185848800Y-112657900D02*
X185848800Y-112182900D01*
G75*
G02*
X186086300Y-111945400I237500J0D01*
G01*
X186661300Y-111945400D01*
G75*
G02*
X186898800Y-112182900I0J-237500D01*
G01*
X186898800Y-112657900D01*
G75*
G02*
X186661300Y-112895400I-237500J0D01*
G01*
X186086300Y-112895400D01*
G75*
G02*
X185848800Y-112657900I0J237500D01*
G01*
G37*
G04 #@! TD.AperFunction*
D10*
X90932000Y-78333600D03*
X90932000Y-75793600D03*
X90932000Y-73253600D03*
X90932000Y-70713600D03*
X90932000Y-68173600D03*
D11*
X90932000Y-65633600D03*
D15*
X137759600Y-124601600D03*
D16*
X147929600Y-120751600D03*
D17*
X192303200Y-106868000D03*
X192303200Y-120008000D03*
D18*
X192653200Y-116938000D03*
D19*
X192653200Y-114438000D03*
X192653200Y-112438000D03*
X192653200Y-109938000D03*
D17*
X197983200Y-120008000D03*
X197983200Y-106868000D03*
D19*
X195273200Y-116938000D03*
X195273200Y-114438000D03*
X195273200Y-112438000D03*
X195273200Y-109938000D03*
D20*
X192316800Y-85265200D03*
X192316800Y-100815200D03*
D21*
X200266800Y-99365200D03*
X198746800Y-96825200D03*
X200266800Y-89255200D03*
X198746800Y-86715200D03*
D22*
X186486800Y-88595200D03*
X189026800Y-89865200D03*
X186486800Y-91135200D03*
X189026800Y-92405200D03*
X186486800Y-93675200D03*
X189026800Y-94945200D03*
X186486800Y-96215200D03*
D23*
X189026800Y-97485200D03*
D20*
X192343200Y-62212400D03*
X192343200Y-77762400D03*
D21*
X200293200Y-76312400D03*
X198773200Y-73772400D03*
X200293200Y-66202400D03*
X198773200Y-63662400D03*
D22*
X186513200Y-65542400D03*
X189053200Y-66812400D03*
X186513200Y-68082400D03*
X189053200Y-69352400D03*
X186513200Y-70622400D03*
X189053200Y-71892400D03*
X186513200Y-73162400D03*
D23*
X189053200Y-74432400D03*
G04 #@! TA.AperFunction,SMDPad,CuDef*
G36*
G01*
X131841400Y-95287800D02*
X130591400Y-95287800D01*
G75*
G02*
X130341400Y-95037800I0J250000D01*
G01*
X130341400Y-94112800D01*
G75*
G02*
X130591400Y-93862800I250000J0D01*
G01*
X131841400Y-93862800D01*
G75*
G02*
X132091400Y-94112800I0J-250000D01*
G01*
X132091400Y-95037800D01*
G75*
G02*
X131841400Y-95287800I-250000J0D01*
G01*
G37*
G04 #@! TD.AperFunction*
G04 #@! TA.AperFunction,SMDPad,CuDef*
G36*
G01*
X131841400Y-98262800D02*
X130591400Y-98262800D01*
G75*
G02*
X130341400Y-98012800I0J250000D01*
G01*
X130341400Y-97087800D01*
G75*
G02*
X130591400Y-96837800I250000J0D01*
G01*
X131841400Y-96837800D01*
G75*
G02*
X132091400Y-97087800I0J-250000D01*
G01*
X132091400Y-98012800D01*
G75*
G02*
X131841400Y-98262800I-250000J0D01*
G01*
G37*
G04 #@! TD.AperFunction*
D24*
X160528000Y-103682800D03*
D25*
X160528000Y-106222800D03*
X160528000Y-104952800D03*
G04 #@! TA.AperFunction,SMDPad,CuDef*
G36*
G01*
X158375000Y-89375000D02*
X158375000Y-88125000D01*
G75*
G02*
X158625000Y-87875000I250000J0D01*
G01*
X159550000Y-87875000D01*
G75*
G02*
X159800000Y-88125000I0J-250000D01*
G01*
X159800000Y-89375000D01*
G75*
G02*
X159550000Y-89625000I-250000J0D01*
G01*
X158625000Y-89625000D01*
G75*
G02*
X158375000Y-89375000I0J250000D01*
G01*
G37*
G04 #@! TD.AperFunction*
G04 #@! TA.AperFunction,SMDPad,CuDef*
G36*
G01*
X155400000Y-89375000D02*
X155400000Y-88125000D01*
G75*
G02*
X155650000Y-87875000I250000J0D01*
G01*
X156575000Y-87875000D01*
G75*
G02*
X156825000Y-88125000I0J-250000D01*
G01*
X156825000Y-89375000D01*
G75*
G02*
X156575000Y-89625000I-250000J0D01*
G01*
X155650000Y-89625000D01*
G75*
G02*
X155400000Y-89375000I0J250000D01*
G01*
G37*
G04 #@! TD.AperFunction*
G04 #@! TA.AperFunction,SMDPad,CuDef*
G36*
G01*
X158425000Y-77775000D02*
X158425000Y-76525000D01*
G75*
G02*
X158675000Y-76275000I250000J0D01*
G01*
X159600000Y-76275000D01*
G75*
G02*
X159850000Y-76525000I0J-250000D01*
G01*
X159850000Y-77775000D01*
G75*
G02*
X159600000Y-78025000I-250000J0D01*
G01*
X158675000Y-78025000D01*
G75*
G02*
X158425000Y-77775000I0J250000D01*
G01*
G37*
G04 #@! TD.AperFunction*
G04 #@! TA.AperFunction,SMDPad,CuDef*
G36*
G01*
X155450000Y-77775000D02*
X155450000Y-76525000D01*
G75*
G02*
X155700000Y-76275000I250000J0D01*
G01*
X156625000Y-76275000D01*
G75*
G02*
X156875000Y-76525000I0J-250000D01*
G01*
X156875000Y-77775000D01*
G75*
G02*
X156625000Y-78025000I-250000J0D01*
G01*
X155700000Y-78025000D01*
G75*
G02*
X155450000Y-77775000I0J250000D01*
G01*
G37*
G04 #@! TD.AperFunction*
G04 #@! TA.AperFunction,SMDPad,CuDef*
G36*
G01*
X155450000Y-81025000D02*
X155450000Y-79775000D01*
G75*
G02*
X155700000Y-79525000I250000J0D01*
G01*
X156625000Y-79525000D01*
G75*
G02*
X156875000Y-79775000I0J-250000D01*
G01*
X156875000Y-81025000D01*
G75*
G02*
X156625000Y-81275000I-250000J0D01*
G01*
X155700000Y-81275000D01*
G75*
G02*
X155450000Y-81025000I0J250000D01*
G01*
G37*
G04 #@! TD.AperFunction*
G04 #@! TA.AperFunction,SMDPad,CuDef*
G36*
G01*
X158425000Y-81025000D02*
X158425000Y-79775000D01*
G75*
G02*
X158675000Y-79525000I250000J0D01*
G01*
X159600000Y-79525000D01*
G75*
G02*
X159850000Y-79775000I0J-250000D01*
G01*
X159850000Y-81025000D01*
G75*
G02*
X159600000Y-81275000I-250000J0D01*
G01*
X158675000Y-81275000D01*
G75*
G02*
X158425000Y-81025000I0J250000D01*
G01*
G37*
G04 #@! TD.AperFunction*
G04 #@! TA.AperFunction,SMDPad,CuDef*
G36*
G01*
X145637500Y-89325000D02*
X145637500Y-90575000D01*
G75*
G02*
X145387500Y-90825000I-250000J0D01*
G01*
X144462500Y-90825000D01*
G75*
G02*
X144212500Y-90575000I0J250000D01*
G01*
X144212500Y-89325000D01*
G75*
G02*
X144462500Y-89075000I250000J0D01*
G01*
X145387500Y-89075000D01*
G75*
G02*
X145637500Y-89325000I0J-250000D01*
G01*
G37*
G04 #@! TD.AperFunction*
G04 #@! TA.AperFunction,SMDPad,CuDef*
G36*
G01*
X148612500Y-89325000D02*
X148612500Y-90575000D01*
G75*
G02*
X148362500Y-90825000I-250000J0D01*
G01*
X147437500Y-90825000D01*
G75*
G02*
X147187500Y-90575000I0J250000D01*
G01*
X147187500Y-89325000D01*
G75*
G02*
X147437500Y-89075000I250000J0D01*
G01*
X148362500Y-89075000D01*
G75*
G02*
X148612500Y-89325000I0J-250000D01*
G01*
G37*
G04 #@! TD.AperFunction*
G04 #@! TA.AperFunction,SMDPad,CuDef*
G36*
G01*
X133575000Y-92125000D02*
X133575000Y-90875000D01*
G75*
G02*
X133825000Y-90625000I250000J0D01*
G01*
X134750000Y-90625000D01*
G75*
G02*
X135000000Y-90875000I0J-250000D01*
G01*
X135000000Y-92125000D01*
G75*
G02*
X134750000Y-92375000I-250000J0D01*
G01*
X133825000Y-92375000D01*
G75*
G02*
X133575000Y-92125000I0J250000D01*
G01*
G37*
G04 #@! TD.AperFunction*
G04 #@! TA.AperFunction,SMDPad,CuDef*
G36*
G01*
X130600000Y-92125000D02*
X130600000Y-90875000D01*
G75*
G02*
X130850000Y-90625000I250000J0D01*
G01*
X131775000Y-90625000D01*
G75*
G02*
X132025000Y-90875000I0J-250000D01*
G01*
X132025000Y-92125000D01*
G75*
G02*
X131775000Y-92375000I-250000J0D01*
G01*
X130850000Y-92375000D01*
G75*
G02*
X130600000Y-92125000I0J250000D01*
G01*
G37*
G04 #@! TD.AperFunction*
G04 #@! TA.AperFunction,SMDPad,CuDef*
G36*
G01*
X148148200Y-97026100D02*
X146898200Y-97026100D01*
G75*
G02*
X146648200Y-96776100I0J250000D01*
G01*
X146648200Y-95851100D01*
G75*
G02*
X146898200Y-95601100I250000J0D01*
G01*
X148148200Y-95601100D01*
G75*
G02*
X148398200Y-95851100I0J-250000D01*
G01*
X148398200Y-96776100D01*
G75*
G02*
X148148200Y-97026100I-250000J0D01*
G01*
G37*
G04 #@! TD.AperFunction*
G04 #@! TA.AperFunction,SMDPad,CuDef*
G36*
G01*
X148148200Y-100001100D02*
X146898200Y-100001100D01*
G75*
G02*
X146648200Y-99751100I0J250000D01*
G01*
X146648200Y-98826100D01*
G75*
G02*
X146898200Y-98576100I250000J0D01*
G01*
X148148200Y-98576100D01*
G75*
G02*
X148398200Y-98826100I0J-250000D01*
G01*
X148398200Y-99751100D01*
G75*
G02*
X148148200Y-100001100I-250000J0D01*
G01*
G37*
G04 #@! TD.AperFunction*
G04 #@! TA.AperFunction,SMDPad,CuDef*
G36*
G01*
X145725000Y-85425000D02*
X145725000Y-86675000D01*
G75*
G02*
X145475000Y-86925000I-250000J0D01*
G01*
X144550000Y-86925000D01*
G75*
G02*
X144300000Y-86675000I0J250000D01*
G01*
X144300000Y-85425000D01*
G75*
G02*
X144550000Y-85175000I250000J0D01*
G01*
X145475000Y-85175000D01*
G75*
G02*
X145725000Y-85425000I0J-250000D01*
G01*
G37*
G04 #@! TD.AperFunction*
G04 #@! TA.AperFunction,SMDPad,CuDef*
G36*
G01*
X148700000Y-85425000D02*
X148700000Y-86675000D01*
G75*
G02*
X148450000Y-86925000I-250000J0D01*
G01*
X147525000Y-86925000D01*
G75*
G02*
X147275000Y-86675000I0J250000D01*
G01*
X147275000Y-85425000D01*
G75*
G02*
X147525000Y-85175000I250000J0D01*
G01*
X148450000Y-85175000D01*
G75*
G02*
X148700000Y-85425000I0J-250000D01*
G01*
G37*
G04 #@! TD.AperFunction*
G04 #@! TA.AperFunction,SMDPad,CuDef*
G36*
G01*
X133525000Y-84625000D02*
X133525000Y-83375000D01*
G75*
G02*
X133775000Y-83125000I250000J0D01*
G01*
X134700000Y-83125000D01*
G75*
G02*
X134950000Y-83375000I0J-250000D01*
G01*
X134950000Y-84625000D01*
G75*
G02*
X134700000Y-84875000I-250000J0D01*
G01*
X133775000Y-84875000D01*
G75*
G02*
X133525000Y-84625000I0J250000D01*
G01*
G37*
G04 #@! TD.AperFunction*
G04 #@! TA.AperFunction,SMDPad,CuDef*
G36*
G01*
X130550000Y-84625000D02*
X130550000Y-83375000D01*
G75*
G02*
X130800000Y-83125000I250000J0D01*
G01*
X131725000Y-83125000D01*
G75*
G02*
X131975000Y-83375000I0J-250000D01*
G01*
X131975000Y-84625000D01*
G75*
G02*
X131725000Y-84875000I-250000J0D01*
G01*
X130800000Y-84875000D01*
G75*
G02*
X130550000Y-84625000I0J250000D01*
G01*
G37*
G04 #@! TD.AperFunction*
G04 #@! TA.AperFunction,SMDPad,CuDef*
G36*
G01*
X145725000Y-81825000D02*
X145725000Y-83075000D01*
G75*
G02*
X145475000Y-83325000I-250000J0D01*
G01*
X144550000Y-83325000D01*
G75*
G02*
X144300000Y-83075000I0J250000D01*
G01*
X144300000Y-81825000D01*
G75*
G02*
X144550000Y-81575000I250000J0D01*
G01*
X145475000Y-81575000D01*
G75*
G02*
X145725000Y-81825000I0J-250000D01*
G01*
G37*
G04 #@! TD.AperFunction*
G04 #@! TA.AperFunction,SMDPad,CuDef*
G36*
G01*
X148700000Y-81825000D02*
X148700000Y-83075000D01*
G75*
G02*
X148450000Y-83325000I-250000J0D01*
G01*
X147525000Y-83325000D01*
G75*
G02*
X147275000Y-83075000I0J250000D01*
G01*
X147275000Y-81825000D01*
G75*
G02*
X147525000Y-81575000I250000J0D01*
G01*
X148450000Y-81575000D01*
G75*
G02*
X148700000Y-81825000I0J-250000D01*
G01*
G37*
G04 #@! TD.AperFunction*
G04 #@! TA.AperFunction,SMDPad,CuDef*
G36*
G01*
X130600000Y-88475000D02*
X130600000Y-87225000D01*
G75*
G02*
X130850000Y-86975000I250000J0D01*
G01*
X131775000Y-86975000D01*
G75*
G02*
X132025000Y-87225000I0J-250000D01*
G01*
X132025000Y-88475000D01*
G75*
G02*
X131775000Y-88725000I-250000J0D01*
G01*
X130850000Y-88725000D01*
G75*
G02*
X130600000Y-88475000I0J250000D01*
G01*
G37*
G04 #@! TD.AperFunction*
G04 #@! TA.AperFunction,SMDPad,CuDef*
G36*
G01*
X133575000Y-88475000D02*
X133575000Y-87225000D01*
G75*
G02*
X133825000Y-86975000I250000J0D01*
G01*
X134750000Y-86975000D01*
G75*
G02*
X135000000Y-87225000I0J-250000D01*
G01*
X135000000Y-88475000D01*
G75*
G02*
X134750000Y-88725000I-250000J0D01*
G01*
X133825000Y-88725000D01*
G75*
G02*
X133575000Y-88475000I0J250000D01*
G01*
G37*
G04 #@! TD.AperFunction*
G04 #@! TA.AperFunction,SMDPad,CuDef*
G36*
G01*
X135499000Y-70599000D02*
X134249000Y-70599000D01*
G75*
G02*
X133999000Y-70349000I0J250000D01*
G01*
X133999000Y-69424000D01*
G75*
G02*
X134249000Y-69174000I250000J0D01*
G01*
X135499000Y-69174000D01*
G75*
G02*
X135749000Y-69424000I0J-250000D01*
G01*
X135749000Y-70349000D01*
G75*
G02*
X135499000Y-70599000I-250000J0D01*
G01*
G37*
G04 #@! TD.AperFunction*
G04 #@! TA.AperFunction,SMDPad,CuDef*
G36*
G01*
X135499000Y-73574000D02*
X134249000Y-73574000D01*
G75*
G02*
X133999000Y-73324000I0J250000D01*
G01*
X133999000Y-72399000D01*
G75*
G02*
X134249000Y-72149000I250000J0D01*
G01*
X135499000Y-72149000D01*
G75*
G02*
X135749000Y-72399000I0J-250000D01*
G01*
X135749000Y-73324000D01*
G75*
G02*
X135499000Y-73574000I-250000J0D01*
G01*
G37*
G04 #@! TD.AperFunction*
G04 #@! TA.AperFunction,SMDPad,CuDef*
G36*
G01*
X158425000Y-85375000D02*
X158425000Y-84125000D01*
G75*
G02*
X158675000Y-83875000I250000J0D01*
G01*
X159600000Y-83875000D01*
G75*
G02*
X159850000Y-84125000I0J-250000D01*
G01*
X159850000Y-85375000D01*
G75*
G02*
X159600000Y-85625000I-250000J0D01*
G01*
X158675000Y-85625000D01*
G75*
G02*
X158425000Y-85375000I0J250000D01*
G01*
G37*
G04 #@! TD.AperFunction*
G04 #@! TA.AperFunction,SMDPad,CuDef*
G36*
G01*
X155450000Y-85375000D02*
X155450000Y-84125000D01*
G75*
G02*
X155700000Y-83875000I250000J0D01*
G01*
X156625000Y-83875000D01*
G75*
G02*
X156875000Y-84125000I0J-250000D01*
G01*
X156875000Y-85375000D01*
G75*
G02*
X156625000Y-85625000I-250000J0D01*
G01*
X155700000Y-85625000D01*
G75*
G02*
X155450000Y-85375000I0J250000D01*
G01*
G37*
G04 #@! TD.AperFunction*
G04 #@! TA.AperFunction,SMDPad,CuDef*
G36*
G01*
X139225000Y-70587500D02*
X137975000Y-70587500D01*
G75*
G02*
X137725000Y-70337500I0J250000D01*
G01*
X137725000Y-69412500D01*
G75*
G02*
X137975000Y-69162500I250000J0D01*
G01*
X139225000Y-69162500D01*
G75*
G02*
X139475000Y-69412500I0J-250000D01*
G01*
X139475000Y-70337500D01*
G75*
G02*
X139225000Y-70587500I-250000J0D01*
G01*
G37*
G04 #@! TD.AperFunction*
G04 #@! TA.AperFunction,SMDPad,CuDef*
G36*
G01*
X139225000Y-73562500D02*
X137975000Y-73562500D01*
G75*
G02*
X137725000Y-73312500I0J250000D01*
G01*
X137725000Y-72387500D01*
G75*
G02*
X137975000Y-72137500I250000J0D01*
G01*
X139225000Y-72137500D01*
G75*
G02*
X139475000Y-72387500I0J-250000D01*
G01*
X139475000Y-73312500D01*
G75*
G02*
X139225000Y-73562500I-250000J0D01*
G01*
G37*
G04 #@! TD.AperFunction*
G04 #@! TA.AperFunction,SMDPad,CuDef*
G36*
G01*
X120287500Y-87325000D02*
X120287500Y-88575000D01*
G75*
G02*
X120037500Y-88825000I-250000J0D01*
G01*
X119112500Y-88825000D01*
G75*
G02*
X118862500Y-88575000I0J250000D01*
G01*
X118862500Y-87325000D01*
G75*
G02*
X119112500Y-87075000I250000J0D01*
G01*
X120037500Y-87075000D01*
G75*
G02*
X120287500Y-87325000I0J-250000D01*
G01*
G37*
G04 #@! TD.AperFunction*
G04 #@! TA.AperFunction,SMDPad,CuDef*
G36*
G01*
X123262500Y-87325000D02*
X123262500Y-88575000D01*
G75*
G02*
X123012500Y-88825000I-250000J0D01*
G01*
X122087500Y-88825000D01*
G75*
G02*
X121837500Y-88575000I0J250000D01*
G01*
X121837500Y-87325000D01*
G75*
G02*
X122087500Y-87075000I250000J0D01*
G01*
X123012500Y-87075000D01*
G75*
G02*
X123262500Y-87325000I0J-250000D01*
G01*
G37*
G04 #@! TD.AperFunction*
G04 #@! TA.AperFunction,SMDPad,CuDef*
G36*
G01*
X147275000Y-70687500D02*
X146025000Y-70687500D01*
G75*
G02*
X145775000Y-70437500I0J250000D01*
G01*
X145775000Y-69512500D01*
G75*
G02*
X146025000Y-69262500I250000J0D01*
G01*
X147275000Y-69262500D01*
G75*
G02*
X147525000Y-69512500I0J-250000D01*
G01*
X147525000Y-70437500D01*
G75*
G02*
X147275000Y-70687500I-250000J0D01*
G01*
G37*
G04 #@! TD.AperFunction*
G04 #@! TA.AperFunction,SMDPad,CuDef*
G36*
G01*
X147275000Y-73662500D02*
X146025000Y-73662500D01*
G75*
G02*
X145775000Y-73412500I0J250000D01*
G01*
X145775000Y-72487500D01*
G75*
G02*
X146025000Y-72237500I250000J0D01*
G01*
X147275000Y-72237500D01*
G75*
G02*
X147525000Y-72487500I0J-250000D01*
G01*
X147525000Y-73412500D01*
G75*
G02*
X147275000Y-73662500I-250000J0D01*
G01*
G37*
G04 #@! TD.AperFunction*
G04 #@! TA.AperFunction,SMDPad,CuDef*
G36*
G01*
X120287500Y-83725000D02*
X120287500Y-84975000D01*
G75*
G02*
X120037500Y-85225000I-250000J0D01*
G01*
X119112500Y-85225000D01*
G75*
G02*
X118862500Y-84975000I0J250000D01*
G01*
X118862500Y-83725000D01*
G75*
G02*
X119112500Y-83475000I250000J0D01*
G01*
X120037500Y-83475000D01*
G75*
G02*
X120287500Y-83725000I0J-250000D01*
G01*
G37*
G04 #@! TD.AperFunction*
G04 #@! TA.AperFunction,SMDPad,CuDef*
G36*
G01*
X123262500Y-83725000D02*
X123262500Y-84975000D01*
G75*
G02*
X123012500Y-85225000I-250000J0D01*
G01*
X122087500Y-85225000D01*
G75*
G02*
X121837500Y-84975000I0J250000D01*
G01*
X121837500Y-83725000D01*
G75*
G02*
X122087500Y-83475000I250000J0D01*
G01*
X123012500Y-83475000D01*
G75*
G02*
X123262500Y-83725000I0J-250000D01*
G01*
G37*
G04 #@! TD.AperFunction*
G04 #@! TA.AperFunction,SMDPad,CuDef*
G36*
G01*
X120237500Y-91475000D02*
X120237500Y-92725000D01*
G75*
G02*
X119987500Y-92975000I-250000J0D01*
G01*
X119062500Y-92975000D01*
G75*
G02*
X118812500Y-92725000I0J250000D01*
G01*
X118812500Y-91475000D01*
G75*
G02*
X119062500Y-91225000I250000J0D01*
G01*
X119987500Y-91225000D01*
G75*
G02*
X120237500Y-91475000I0J-250000D01*
G01*
G37*
G04 #@! TD.AperFunction*
G04 #@! TA.AperFunction,SMDPad,CuDef*
G36*
G01*
X123212500Y-91475000D02*
X123212500Y-92725000D01*
G75*
G02*
X122962500Y-92975000I-250000J0D01*
G01*
X122037500Y-92975000D01*
G75*
G02*
X121787500Y-92725000I0J250000D01*
G01*
X121787500Y-91475000D01*
G75*
G02*
X122037500Y-91225000I250000J0D01*
G01*
X122962500Y-91225000D01*
G75*
G02*
X123212500Y-91475000I0J-250000D01*
G01*
G37*
G04 #@! TD.AperFunction*
G04 #@! TA.AperFunction,SMDPad,CuDef*
G36*
G01*
X151375000Y-70537500D02*
X150125000Y-70537500D01*
G75*
G02*
X149875000Y-70287500I0J250000D01*
G01*
X149875000Y-69362500D01*
G75*
G02*
X150125000Y-69112500I250000J0D01*
G01*
X151375000Y-69112500D01*
G75*
G02*
X151625000Y-69362500I0J-250000D01*
G01*
X151625000Y-70287500D01*
G75*
G02*
X151375000Y-70537500I-250000J0D01*
G01*
G37*
G04 #@! TD.AperFunction*
G04 #@! TA.AperFunction,SMDPad,CuDef*
G36*
G01*
X151375000Y-73512500D02*
X150125000Y-73512500D01*
G75*
G02*
X149875000Y-73262500I0J250000D01*
G01*
X149875000Y-72337500D01*
G75*
G02*
X150125000Y-72087500I250000J0D01*
G01*
X151375000Y-72087500D01*
G75*
G02*
X151625000Y-72337500I0J-250000D01*
G01*
X151625000Y-73262500D01*
G75*
G02*
X151375000Y-73512500I-250000J0D01*
G01*
G37*
G04 #@! TD.AperFunction*
G04 #@! TA.AperFunction,SMDPad,CuDef*
G36*
G01*
X143525000Y-70675000D02*
X142275000Y-70675000D01*
G75*
G02*
X142025000Y-70425000I0J250000D01*
G01*
X142025000Y-69500000D01*
G75*
G02*
X142275000Y-69250000I250000J0D01*
G01*
X143525000Y-69250000D01*
G75*
G02*
X143775000Y-69500000I0J-250000D01*
G01*
X143775000Y-70425000D01*
G75*
G02*
X143525000Y-70675000I-250000J0D01*
G01*
G37*
G04 #@! TD.AperFunction*
G04 #@! TA.AperFunction,SMDPad,CuDef*
G36*
G01*
X143525000Y-73650000D02*
X142275000Y-73650000D01*
G75*
G02*
X142025000Y-73400000I0J250000D01*
G01*
X142025000Y-72475000D01*
G75*
G02*
X142275000Y-72225000I250000J0D01*
G01*
X143525000Y-72225000D01*
G75*
G02*
X143775000Y-72475000I0J-250000D01*
G01*
X143775000Y-73400000D01*
G75*
G02*
X143525000Y-73650000I-250000J0D01*
G01*
G37*
G04 #@! TD.AperFunction*
G04 #@! TA.AperFunction,SMDPad,CuDef*
G36*
G01*
X140675000Y-96925000D02*
X139425000Y-96925000D01*
G75*
G02*
X139175000Y-96675000I0J250000D01*
G01*
X139175000Y-95750000D01*
G75*
G02*
X139425000Y-95500000I250000J0D01*
G01*
X140675000Y-95500000D01*
G75*
G02*
X140925000Y-95750000I0J-250000D01*
G01*
X140925000Y-96675000D01*
G75*
G02*
X140675000Y-96925000I-250000J0D01*
G01*
G37*
G04 #@! TD.AperFunction*
G04 #@! TA.AperFunction,SMDPad,CuDef*
G36*
G01*
X140675000Y-99900000D02*
X139425000Y-99900000D01*
G75*
G02*
X139175000Y-99650000I0J250000D01*
G01*
X139175000Y-98725000D01*
G75*
G02*
X139425000Y-98475000I250000J0D01*
G01*
X140675000Y-98475000D01*
G75*
G02*
X140925000Y-98725000I0J-250000D01*
G01*
X140925000Y-99650000D01*
G75*
G02*
X140675000Y-99900000I-250000J0D01*
G01*
G37*
G04 #@! TD.AperFunction*
G04 #@! TA.AperFunction,SMDPad,CuDef*
G36*
G01*
X144625000Y-96925000D02*
X143375000Y-96925000D01*
G75*
G02*
X143125000Y-96675000I0J250000D01*
G01*
X143125000Y-95750000D01*
G75*
G02*
X143375000Y-95500000I250000J0D01*
G01*
X144625000Y-95500000D01*
G75*
G02*
X144875000Y-95750000I0J-250000D01*
G01*
X144875000Y-96675000D01*
G75*
G02*
X144625000Y-96925000I-250000J0D01*
G01*
G37*
G04 #@! TD.AperFunction*
G04 #@! TA.AperFunction,SMDPad,CuDef*
G36*
G01*
X144625000Y-99900000D02*
X143375000Y-99900000D01*
G75*
G02*
X143125000Y-99650000I0J250000D01*
G01*
X143125000Y-98725000D01*
G75*
G02*
X143375000Y-98475000I250000J0D01*
G01*
X144625000Y-98475000D01*
G75*
G02*
X144875000Y-98725000I0J-250000D01*
G01*
X144875000Y-99650000D01*
G75*
G02*
X144625000Y-99900000I-250000J0D01*
G01*
G37*
G04 #@! TD.AperFunction*
D26*
X90017600Y-120091200D03*
X204114400Y-123037600D03*
X204520800Y-62839600D03*
X95504000Y-67919600D03*
D27*
X169672000Y-72771000D03*
X168503600Y-73964800D03*
X169672000Y-75158600D03*
X167284400Y-75158600D03*
X167335200Y-72821800D03*
X160248600Y-88392000D03*
X160299400Y-79933800D03*
X152095200Y-69875400D03*
X146227800Y-71170800D03*
X141605000Y-70027800D03*
X138582400Y-68707000D03*
X118313200Y-92100400D03*
X118364000Y-84404200D03*
X118389400Y-87960200D03*
X135483600Y-87833200D03*
X135458200Y-84023200D03*
X143789400Y-86080600D03*
X143789400Y-82448400D03*
X143738600Y-89941400D03*
X140055600Y-95021400D03*
X143992600Y-94945200D03*
X137566400Y-105105200D03*
X147523200Y-94894400D03*
X111277400Y-103733600D03*
X113792000Y-109931200D03*
X118084600Y-106730800D03*
X119583200Y-107696000D03*
X120370600Y-113182400D03*
X127685800Y-110972600D03*
X124180600Y-112191800D03*
X96596200Y-104521000D03*
X168757600Y-67157600D03*
X98044000Y-89204800D03*
X145694400Y-79756000D03*
X147726400Y-79603600D03*
X151638000Y-78232000D03*
X150520400Y-79654400D03*
X170074616Y-94642434D03*
X165658800Y-99822000D03*
X173888400Y-100025200D03*
X178079400Y-99949000D03*
X168097200Y-106375200D03*
X179273200Y-84886800D03*
X183692800Y-84886800D03*
X188214000Y-81838800D03*
X176733200Y-100773000D03*
X166979600Y-109270800D03*
X180492400Y-69545200D03*
X183388000Y-97840800D03*
X177038000Y-75844400D03*
X131064000Y-73660000D03*
X153568400Y-111252000D03*
X152552400Y-114452400D03*
X184251600Y-109474000D03*
X111099600Y-82346800D03*
X95326200Y-82016600D03*
X125095000Y-78181200D03*
X179476400Y-105206800D03*
X179406525Y-106203725D03*
X105613200Y-71475600D03*
X87782400Y-108102400D03*
X93218000Y-108102400D03*
X97028000Y-112725200D03*
X90576400Y-106273600D03*
X90576400Y-110032800D03*
X97891600Y-63855600D03*
X105867200Y-63906400D03*
X99698800Y-102637600D03*
X113233200Y-123647200D03*
X109321600Y-123596400D03*
X114757200Y-117449600D03*
X117094000Y-114554000D03*
X100584000Y-65532000D03*
X168706800Y-101600000D03*
X171043600Y-101549200D03*
X169875200Y-102743000D03*
X168656000Y-103936800D03*
X171043600Y-103936800D03*
X142087600Y-105105200D03*
X146487320Y-102452028D03*
X151638000Y-101193600D03*
X186994800Y-122529600D03*
X177139600Y-74625200D03*
X177495200Y-71831200D03*
X153162000Y-65144889D03*
X163423600Y-63754000D03*
X155549600Y-69037200D03*
X154533600Y-75793600D03*
X178409600Y-77735200D03*
X177342800Y-86207600D03*
X177342800Y-89662000D03*
X154533600Y-84785200D03*
X151638000Y-93980000D03*
X142900000Y-102362000D03*
X126136400Y-89204800D03*
X150368002Y-87731600D03*
X136652000Y-75133200D03*
X162864800Y-69951600D03*
X129184400Y-97383600D03*
X135686800Y-91490800D03*
X184951595Y-118352796D03*
X161435009Y-76527421D03*
X166725600Y-77419200D03*
X131622800Y-69443600D03*
X118414800Y-69900800D03*
X140512800Y-102108000D03*
X138458789Y-102209600D03*
X127698234Y-104000567D03*
X104089200Y-100260112D03*
X107873800Y-100260112D03*
X105384600Y-100260112D03*
X106654600Y-100260112D03*
X118821200Y-93218000D03*
X118618000Y-94589600D03*
X135128000Y-101885710D03*
X136405689Y-101938421D03*
X143611600Y-120007010D03*
X127304800Y-120497600D03*
X160426396Y-115265200D03*
X131622800Y-105867200D03*
X133705600Y-105460800D03*
X129540000Y-112318800D03*
X138099800Y-99364800D03*
X145694400Y-99441000D03*
X154584400Y-80797400D03*
X154533600Y-79425800D03*
X113766600Y-108229400D03*
X115138200Y-106756200D03*
X122529600Y-82499200D03*
X122631200Y-86156800D03*
X122529600Y-90322400D03*
X133502400Y-76758800D03*
X137922000Y-76708000D03*
X144068800Y-79603600D03*
X154025600Y-109728000D03*
X148894800Y-79705200D03*
X165303200Y-111810800D03*
X154704440Y-89001331D03*
X147320000Y-100761800D03*
X119507000Y-110693200D03*
X124023800Y-115773200D03*
X121310400Y-118440200D03*
X113207800Y-117246400D03*
X111466300Y-114212700D03*
X109550200Y-115798600D03*
X112903000Y-118872000D03*
X167690800Y-70002400D03*
X129540000Y-83921600D03*
X129540000Y-87782400D03*
X129540000Y-91592400D03*
X150977600Y-82448400D03*
X150977600Y-86055200D03*
X150977600Y-89560400D03*
X169113200Y-98094800D03*
X160985200Y-89712800D03*
X174091600Y-93878400D03*
X178098200Y-92601800D03*
X171500800Y-71221600D03*
X163918166Y-66839366D03*
X177393600Y-66497200D03*
X173376838Y-67338235D03*
X169621200Y-87630000D03*
X175669500Y-87942278D03*
X185318400Y-80568800D03*
X181305200Y-80619600D03*
X95707200Y-85140800D03*
X104140000Y-85394800D03*
X165150800Y-64058800D03*
X167995600Y-94132400D03*
X131165600Y-98907600D03*
X160578800Y-75996800D03*
X162915600Y-73555300D03*
X122174000Y-103936800D03*
X123545600Y-102438200D03*
X125173524Y-89474746D03*
X157677355Y-87584067D03*
X109677200Y-64262000D03*
X109677200Y-63246000D03*
X111099600Y-63246000D03*
X111099600Y-64312800D03*
X90627200Y-103987600D03*
X93065600Y-102260400D03*
X87985600Y-102260400D03*
X147269200Y-76962000D03*
X115011200Y-84175600D03*
X148285200Y-76962000D03*
X116027200Y-82296000D03*
X155346400Y-94183200D03*
X171551600Y-113977790D03*
X171551600Y-113038400D03*
X154904832Y-93253168D03*
X164063643Y-70835557D03*
X136942554Y-68260954D03*
X161696400Y-66903600D03*
X148590000Y-64922400D03*
X159961223Y-66798900D03*
X146151600Y-64668400D03*
X144932400Y-65176400D03*
X158191200Y-66798900D03*
X143357600Y-65836800D03*
X160832800Y-67411600D03*
X139700000Y-71424800D03*
X173211853Y-93311526D03*
X166370000Y-100990400D03*
X172618400Y-92049600D03*
X167284400Y-100237998D03*
X164287200Y-79908400D03*
X164388800Y-87494382D03*
X162153600Y-78482900D03*
X164592000Y-103784400D03*
X163068000Y-79146400D03*
X165862000Y-103022400D03*
X166065200Y-81280000D03*
X167589200Y-68884800D03*
X148793200Y-69900800D03*
X164287200Y-69138800D03*
X173532800Y-68326000D03*
X143306800Y-67513200D03*
X169865715Y-68360288D03*
X172351700Y-100237998D03*
X173595742Y-69709389D03*
X181813200Y-66192400D03*
X181813200Y-73304400D03*
X180390800Y-90322400D03*
X180177000Y-96875600D03*
X168859200Y-97028000D03*
X164236400Y-85699600D03*
X165608000Y-98094800D03*
X179019200Y-98044000D03*
X177342800Y-68986400D03*
X175463200Y-99009200D03*
X171399200Y-98247200D03*
X175006000Y-97180400D03*
X164642800Y-82702400D03*
X164998400Y-72745600D03*
X166420800Y-102006400D03*
X108407200Y-86664800D03*
X151993600Y-109524800D03*
X151993600Y-110540800D03*
X150418800Y-111556800D03*
X108559600Y-89204800D03*
X149910800Y-110185200D03*
X173888400Y-102158800D03*
X179933600Y-100634800D03*
X172415200Y-73358300D03*
X177393600Y-73253600D03*
X131541066Y-107980364D03*
X171246800Y-78757579D03*
X172161200Y-78249000D03*
X168196155Y-78971819D03*
X168938619Y-78229355D03*
X171077400Y-106781600D03*
X172127400Y-106781600D03*
X169279615Y-108021431D03*
X170329615Y-108021431D03*
X128320800Y-71568800D03*
X128320800Y-70518800D03*
X140512799Y-100888800D03*
X141935200Y-100736400D03*
X140208000Y-105594100D03*
X121259600Y-73710800D03*
X121056400Y-69748400D03*
X141782800Y-102057200D03*
X139039600Y-105003600D03*
X119888000Y-73914000D03*
X93573600Y-119227600D03*
X100685600Y-98266300D03*
X111201200Y-96774000D03*
X102920800Y-97974100D03*
X93929200Y-117449600D03*
X110490000Y-98196400D03*
X111963200Y-98196400D03*
X96824800Y-118719600D03*
X101743818Y-98043176D03*
D28*
X158829400Y-88392000D02*
X160248600Y-88392000D01*
X159156400Y-85321800D02*
X159156400Y-86741000D01*
X158880200Y-79933800D02*
X160299400Y-79933800D01*
X150676000Y-69875400D02*
X152095200Y-69875400D01*
X146227800Y-69751600D02*
X146227800Y-71170800D01*
X143024200Y-70027800D02*
X141605000Y-70027800D01*
X138582400Y-70126200D02*
X138582400Y-68707000D01*
X119732400Y-92100400D02*
X118313200Y-92100400D01*
X119783200Y-84404200D02*
X118364000Y-84404200D01*
X119808600Y-87960200D02*
X118389400Y-87960200D01*
X134064400Y-87833200D02*
X135483600Y-87833200D01*
X134039000Y-84023200D02*
X135458200Y-84023200D01*
X145208600Y-86080600D02*
X143789400Y-86080600D01*
X145208600Y-82448400D02*
X143789400Y-82448400D01*
X145157800Y-89941400D02*
X143738600Y-89941400D01*
X140055600Y-96440600D02*
X140055600Y-95021400D01*
X143992600Y-96364400D02*
X143992600Y-94945200D01*
X147523200Y-96313600D02*
X147523200Y-94894400D01*
X166624000Y-98944400D02*
X166573200Y-98893600D01*
X167995600Y-98944400D02*
X166624000Y-98944400D01*
X166573200Y-98907600D02*
X165658800Y-99822000D01*
X166573200Y-98893600D02*
X166573200Y-98907600D01*
X173877000Y-98907600D02*
X173888400Y-98919000D01*
X172440600Y-98907600D02*
X173877000Y-98907600D01*
X173888400Y-98919000D02*
X173888400Y-100025200D01*
X176631600Y-98995200D02*
X178079400Y-98995200D01*
X178079400Y-98995200D02*
X178079400Y-99949000D01*
X159137500Y-77150000D02*
X159137500Y-76676100D01*
X179239200Y-84852800D02*
X179273200Y-84886800D01*
X179239200Y-83578200D02*
X179239200Y-84852800D01*
X183692800Y-83666500D02*
X183692800Y-84886800D01*
X188212100Y-81840700D02*
X188214000Y-81838800D01*
X187045600Y-81840700D02*
X188212100Y-81840700D01*
X176732100Y-100774100D02*
X176733200Y-100773000D01*
X176732100Y-102006400D02*
X176732100Y-100774100D01*
X181740900Y-69545200D02*
X180492400Y-69545200D01*
X182524400Y-96977200D02*
X183388000Y-97840800D01*
X182524400Y-96643100D02*
X182524400Y-96977200D01*
D29*
X179120800Y-105918000D02*
X179406525Y-106203725D01*
X178041700Y-105918000D02*
X179120800Y-105918000D01*
D28*
X175258900Y-73812400D02*
X176072800Y-73812400D01*
X176326800Y-73812400D02*
X177139600Y-74625200D01*
X176072800Y-73812400D02*
X176326800Y-73812400D01*
D29*
X176111300Y-71831200D02*
X177495200Y-71831200D01*
X154086111Y-65144889D02*
X153162000Y-65144889D01*
X154652000Y-64579000D02*
X154086111Y-65144889D01*
D30*
X158902400Y-64514900D02*
X159612500Y-63804800D01*
X161393500Y-63804800D02*
X162356800Y-62841500D01*
X159612500Y-63804800D02*
X161393500Y-63804800D01*
X162511100Y-62841500D02*
X163423600Y-63754000D01*
X162356800Y-62841500D02*
X162511100Y-62841500D01*
D28*
X159137500Y-77150000D02*
X159137500Y-84750000D01*
X174777400Y-69963000D02*
X176225200Y-69963000D01*
X176225200Y-71717300D02*
X176111300Y-71831200D01*
X176225200Y-69963000D02*
X176225200Y-71717300D01*
X170916600Y-70013800D02*
X172371300Y-70013800D01*
D30*
X174281010Y-70459390D02*
X174777400Y-69963000D01*
X172816890Y-70459390D02*
X174281010Y-70459390D01*
X172371300Y-70013800D02*
X172816890Y-70459390D01*
D28*
X165201600Y-70064600D02*
X166590799Y-70064600D01*
D30*
X162977800Y-70064600D02*
X162864800Y-69951600D01*
X165201600Y-70064600D02*
X162977800Y-70064600D01*
D28*
X135677600Y-91500000D02*
X135686800Y-91490800D01*
X134287500Y-91500000D02*
X135677600Y-91500000D01*
X134874000Y-66903600D02*
X135026400Y-66751200D01*
X134874000Y-69886500D02*
X134874000Y-66903600D01*
X144000000Y-99187500D02*
X144000000Y-103309200D01*
D29*
X139872700Y-99364800D02*
X140050000Y-99187500D01*
X138099800Y-99364800D02*
X139872700Y-99364800D01*
X145440900Y-99187500D02*
X145694400Y-99441000D01*
X144000000Y-99187500D02*
X145440900Y-99187500D01*
D28*
X156112500Y-84800000D02*
X156162500Y-84750000D01*
X156112500Y-86660700D02*
X152980100Y-86660700D01*
X156112500Y-88750000D02*
X156112500Y-86660700D01*
X156112500Y-86660700D02*
X156112500Y-84800000D01*
D29*
X155765100Y-80797400D02*
X156162500Y-80400000D01*
X154584400Y-80797400D02*
X155765100Y-80797400D01*
D28*
X156162500Y-77150000D02*
X156162500Y-80400000D01*
X156162500Y-84750000D02*
X156162500Y-80400000D01*
D29*
X156162500Y-77150000D02*
X155031400Y-77150000D01*
X154533600Y-77647800D02*
X154533600Y-79425800D01*
X155031400Y-77150000D02*
X154533600Y-77647800D01*
D28*
X122550000Y-84350000D02*
X125345600Y-84350000D01*
X122550000Y-87950000D02*
X125359200Y-87950000D01*
X122500000Y-92100000D02*
X125933600Y-92100000D01*
D29*
X122529600Y-84329600D02*
X122550000Y-84350000D01*
X122529600Y-82499200D02*
X122529600Y-84329600D01*
X122631200Y-87868800D02*
X122550000Y-87950000D01*
X122631200Y-86156800D02*
X122631200Y-87868800D01*
X122529600Y-92070400D02*
X122500000Y-92100000D01*
X122529600Y-90322400D02*
X122529600Y-92070400D01*
D28*
X138600000Y-72850000D02*
X138600000Y-75150800D01*
X142900000Y-72937500D02*
X142900000Y-75386800D01*
X146650000Y-72950000D02*
X146650000Y-75072800D01*
X150750000Y-72800000D02*
X150750000Y-74903600D01*
X172888400Y-103682800D02*
X172770800Y-103682800D01*
D29*
X169418000Y-107035600D02*
X168700722Y-107035600D01*
X172770800Y-103682800D02*
X169418000Y-107035600D01*
D28*
X153924000Y-107594400D02*
X153365200Y-107035600D01*
D29*
X168141922Y-107594400D02*
X168700722Y-107035600D01*
X144068800Y-79603600D02*
X144068800Y-77876400D01*
D30*
X154025600Y-107696000D02*
X153924000Y-107594400D01*
X154025600Y-109728000D02*
X154025600Y-107696000D01*
D29*
X148894800Y-79705200D02*
X148894800Y-78079600D01*
D28*
X168079601Y-109389999D02*
X168079601Y-110863199D01*
X168141922Y-109327678D02*
X168079601Y-109389999D01*
X168141922Y-107594400D02*
X168141922Y-109327678D01*
X168079601Y-110863199D02*
X167132000Y-111810800D01*
X167132000Y-111810800D02*
X160985200Y-111810800D01*
D29*
X174990000Y-75488800D02*
X174990000Y-76317600D01*
X174664790Y-76642810D02*
X169810010Y-76642810D01*
X174990000Y-76317600D02*
X174664790Y-76642810D01*
X169810010Y-76642810D02*
X168918312Y-76642810D01*
D28*
X154955771Y-88750000D02*
X154704440Y-89001331D01*
X156112500Y-88750000D02*
X154955771Y-88750000D01*
X158415701Y-74896799D02*
X156162500Y-77150000D01*
X161256799Y-74896799D02*
X158415701Y-74896799D01*
X163422199Y-78042801D02*
X163422199Y-77062199D01*
X163825599Y-78446201D02*
X163422199Y-78042801D01*
X167269361Y-78446201D02*
X163825599Y-78446201D01*
X169109162Y-76606400D02*
X167269361Y-78446201D01*
X163422199Y-77062199D02*
X161256799Y-74896799D01*
X169824400Y-76606400D02*
X169109162Y-76606400D01*
X140050000Y-99187500D02*
X139485799Y-99751701D01*
X139485799Y-103290799D02*
X140050000Y-103855000D01*
X139485799Y-99751701D02*
X139485799Y-103290799D01*
X134874000Y-72861500D02*
X134874000Y-75590400D01*
X131262500Y-84000000D02*
X131262500Y-83291300D01*
D29*
X147320000Y-99491800D02*
X147523200Y-99288600D01*
X147320000Y-100761800D02*
X147320000Y-99491800D01*
X129618400Y-84000000D02*
X129540000Y-83921600D01*
X131262500Y-84000000D02*
X129618400Y-84000000D01*
X129607600Y-87850000D02*
X129540000Y-87782400D01*
X131312500Y-87850000D02*
X129607600Y-87850000D01*
X129632400Y-91500000D02*
X129540000Y-91592400D01*
X131312500Y-91500000D02*
X129632400Y-91500000D01*
X150976000Y-82450000D02*
X150977600Y-82448400D01*
X147987500Y-82450000D02*
X150976000Y-82450000D01*
X150972400Y-86050000D02*
X150977600Y-86055200D01*
X147987500Y-86050000D02*
X150972400Y-86050000D01*
X150588000Y-89950000D02*
X150977600Y-89560400D01*
X147900000Y-89950000D02*
X150588000Y-89950000D01*
D28*
X147523200Y-99288600D02*
X149656800Y-97155000D01*
X149656800Y-92811600D02*
X148539200Y-91694000D01*
X149656800Y-97155000D02*
X149656800Y-92811600D01*
X166624000Y-95441800D02*
X166573200Y-95391000D01*
X167995600Y-95441800D02*
X166624000Y-95441800D01*
X173863000Y-95391000D02*
X173888400Y-95416400D01*
X172440600Y-95391000D02*
X173863000Y-95391000D01*
X176606200Y-95492600D02*
X178098200Y-95492600D01*
X185230900Y-81928200D02*
X185318400Y-81840700D01*
X181339200Y-81928200D02*
X185230900Y-81928200D01*
X176580800Y-91885800D02*
X177382200Y-91885800D01*
X178098200Y-92601800D02*
X178098200Y-95492600D01*
X177382200Y-91885800D02*
X178098200Y-92601800D01*
D29*
X173888400Y-94081600D02*
X174091600Y-93878400D01*
X173888400Y-95416400D02*
X173888400Y-94081600D01*
X174091600Y-92200100D02*
X174091600Y-93878400D01*
X164957034Y-66839366D02*
X165183600Y-66612800D01*
X163918166Y-66839366D02*
X164957034Y-66839366D01*
X166607000Y-66612800D02*
X165183600Y-66612800D01*
X166607000Y-66612800D02*
X166916201Y-66303599D01*
X177379600Y-66511200D02*
X177393600Y-66497200D01*
X174783800Y-66511200D02*
X177379600Y-66511200D01*
X170924500Y-66463900D02*
X171084801Y-66303599D01*
X170924500Y-66562000D02*
X170924500Y-66463900D01*
X171084801Y-66303599D02*
X172112899Y-66303599D01*
X166916201Y-66303599D02*
X171084801Y-66303599D01*
X172371300Y-66562000D02*
X172112899Y-66303599D01*
D28*
X158954000Y-62841500D02*
X158902400Y-62789900D01*
X160578800Y-62841500D02*
X158954000Y-62841500D01*
X156891100Y-62789900D02*
X156752000Y-62929000D01*
X158902400Y-62789900D02*
X156891100Y-62789900D01*
X185318400Y-81840700D02*
X185318400Y-80568800D01*
X181339200Y-80653600D02*
X181305200Y-80619600D01*
X181339200Y-81928200D02*
X181339200Y-80653600D01*
X93675200Y-87071200D02*
X95605600Y-85140800D01*
X95605600Y-85140800D02*
X95707200Y-85140800D01*
X93675200Y-88442800D02*
X93675200Y-87071200D01*
X95859600Y-84988400D02*
X95707200Y-85140800D01*
X103733600Y-84988400D02*
X95859600Y-84988400D01*
X104140000Y-85394800D02*
X103733600Y-84988400D01*
D30*
X160578800Y-62841500D02*
X160578800Y-62280800D01*
X160855610Y-62003990D02*
X163095990Y-62003990D01*
X160578800Y-62280800D02*
X160855610Y-62003990D01*
X163095990Y-62003990D02*
X165150800Y-64058800D01*
D28*
X167995600Y-95441800D02*
X167995600Y-94132400D01*
X131262500Y-94594300D02*
X131216400Y-94640400D01*
X131262500Y-84000000D02*
X131262500Y-94594300D01*
X131165600Y-97601100D02*
X131216400Y-97550300D01*
X131165600Y-98907600D02*
X131165600Y-97601100D01*
D31*
X160598121Y-106222800D02*
X160528000Y-106222800D01*
X161648701Y-105172220D02*
X160598121Y-106222800D01*
X161648701Y-88750701D02*
X161648701Y-105172220D01*
X161062910Y-88164910D02*
X161648701Y-88750701D01*
X164254520Y-105172220D02*
X164949500Y-105867200D01*
X161648701Y-105172220D02*
X164254520Y-105172220D01*
X161062910Y-77801710D02*
X161062910Y-88164910D01*
X160578800Y-77317600D02*
X161062910Y-77801710D01*
X160578800Y-75996800D02*
X160578800Y-77317600D01*
D28*
X195273200Y-116938000D02*
X192653200Y-116938000D01*
D31*
X194259699Y-115451501D02*
X190584701Y-115451501D01*
X195273200Y-114438000D02*
X194259699Y-115451501D01*
X189771200Y-114638000D02*
X188123800Y-114638000D01*
X190584701Y-115451501D02*
X189771200Y-114638000D01*
X194138000Y-111302800D02*
X195273200Y-112438000D01*
X189484000Y-112420400D02*
X190601600Y-111302800D01*
X188123800Y-112420400D02*
X189484000Y-112420400D01*
X190601600Y-111302800D02*
X194138000Y-111302800D01*
X145034000Y-79197200D02*
X147269200Y-76962000D01*
X145030899Y-79200301D02*
X145034000Y-79197200D01*
X143459200Y-80619600D02*
X144627600Y-80619600D01*
X141681200Y-78841600D02*
X143459200Y-80619600D01*
X117195600Y-85801200D02*
X117195600Y-94183200D01*
X117195600Y-94183200D02*
X118364000Y-95351600D01*
X115570000Y-84175600D02*
X117195600Y-85801200D01*
X118364000Y-95351600D02*
X127355600Y-95351600D01*
X127355600Y-95351600D02*
X128320800Y-94386400D01*
X128320800Y-94386400D02*
X128320800Y-79705200D01*
X115011200Y-84175600D02*
X115570000Y-84175600D01*
X129184400Y-78841600D02*
X141681200Y-78841600D01*
X145030899Y-80216301D02*
X145030899Y-79200301D01*
X128320800Y-79705200D02*
X129184400Y-78841600D01*
X144627600Y-80619600D02*
X145030899Y-80216301D01*
X115874800Y-84937600D02*
X114808000Y-84937600D01*
X148285200Y-76962000D02*
X146710400Y-78536800D01*
X146710400Y-78536800D02*
X146710400Y-79721982D01*
X128647810Y-94521851D02*
X127513261Y-95656400D01*
X114808000Y-84937600D02*
X114420699Y-84550299D01*
X146710400Y-79721982D02*
X145406382Y-81026000D01*
X145406382Y-81026000D02*
X143154400Y-81026000D01*
X141297010Y-79168610D02*
X129365390Y-79168610D01*
X143154400Y-81026000D02*
X141297010Y-79168610D01*
X116890800Y-94284800D02*
X116890800Y-85953600D01*
X114418609Y-83786209D02*
X115908818Y-82296000D01*
X114420699Y-84550299D02*
X114420699Y-83788299D01*
X129365390Y-79168610D02*
X128647810Y-79886190D01*
X127513261Y-95656400D02*
X118262400Y-95656400D01*
X115908818Y-82296000D02*
X116027200Y-82296000D01*
X114420699Y-83788299D02*
X114418609Y-83786209D01*
X128647810Y-79886190D02*
X128647810Y-94521851D01*
X118262400Y-95656400D02*
X116890800Y-94284800D01*
X116890800Y-85953600D02*
X115874800Y-84937600D01*
D32*
X155346400Y-109030200D02*
X160293990Y-113977790D01*
X155346400Y-94183200D02*
X155346400Y-109030200D01*
X160293990Y-113977790D02*
X171551600Y-113977790D01*
X171251600Y-113338400D02*
X160291000Y-113338400D01*
X171551600Y-113038400D02*
X171251600Y-113338400D01*
X160291000Y-113338400D02*
X158721000Y-111768400D01*
X158721000Y-111768400D02*
X158721000Y-96680801D01*
X158721000Y-96680801D02*
X158650301Y-96680801D01*
X158650301Y-96680801D02*
X156362400Y-94392900D01*
X156362400Y-93655198D02*
X155772802Y-93065600D01*
X156362400Y-94392900D02*
X156362400Y-93655198D01*
X155092400Y-93065600D02*
X154904832Y-93253168D01*
X155772802Y-93065600D02*
X155092400Y-93065600D01*
D31*
X140657355Y-67860955D02*
X137342553Y-67860955D01*
X153670000Y-68275200D02*
X141071600Y-68275200D01*
X156230357Y-70835557D02*
X153670000Y-68275200D01*
X164063643Y-70835557D02*
X156230357Y-70835557D01*
X141071600Y-68275200D02*
X140657355Y-67860955D01*
X137342553Y-67860955D02*
X136942554Y-68260954D01*
X160601189Y-65808389D02*
X149475989Y-65808389D01*
X149475989Y-65808389D02*
X148590000Y-64922400D01*
X160731200Y-65938400D02*
X160601189Y-65808389D01*
X161696400Y-66903600D02*
X160731200Y-65938400D01*
X160731200Y-65938400D02*
X160629600Y-65836800D01*
X159297722Y-66135399D02*
X147618599Y-66135399D01*
X147618599Y-66135399D02*
X146151600Y-64668400D01*
X159961223Y-66798900D02*
X159297722Y-66135399D01*
X157934100Y-67056000D02*
X158191200Y-66798900D01*
X146812000Y-67056000D02*
X157934100Y-67056000D01*
X144932400Y-65176400D02*
X146812000Y-67056000D01*
X143357600Y-65836800D02*
X144983200Y-67462400D01*
X160782000Y-67462400D02*
X160832800Y-67411600D01*
X144983200Y-67462400D02*
X160782000Y-67462400D01*
X151081100Y-63957200D02*
X143459200Y-63957200D01*
X142468600Y-64947800D02*
X142544800Y-64871600D01*
X143459200Y-63957200D02*
X142468600Y-64947800D01*
X140099999Y-67316401D02*
X142468600Y-64947800D01*
X137061501Y-67306899D02*
X140154099Y-67306899D01*
X136296400Y-68072000D02*
X137061501Y-67306899D01*
X136296400Y-70866000D02*
X136296400Y-68072000D01*
X136855200Y-71424800D02*
X136296400Y-70866000D01*
X139700000Y-71424800D02*
X136855200Y-71424800D01*
X167662043Y-100990400D02*
X166370000Y-100990400D01*
X167674018Y-100990400D02*
X167662043Y-100990400D01*
X170992800Y-95530579D02*
X170992800Y-97671618D01*
X170992800Y-97671618D02*
X167674018Y-100990400D01*
X173211853Y-93311526D02*
X170992800Y-95530579D01*
X170634099Y-94999101D02*
X172618400Y-93014800D01*
X170634099Y-97555883D02*
X170634099Y-94999101D01*
X167951984Y-100237998D02*
X170634099Y-97555883D01*
X172618400Y-93014800D02*
X172618400Y-92049600D01*
X167284400Y-100237998D02*
X167951984Y-100237998D01*
D30*
X172618400Y-91848300D02*
X174091600Y-90375100D01*
X172618400Y-92049600D02*
X172618400Y-91848300D01*
D31*
X163623699Y-80571901D02*
X164287200Y-79908400D01*
X163623699Y-84020099D02*
X163623699Y-80571901D01*
X163502990Y-84140808D02*
X163623699Y-84020099D01*
X163502990Y-86608572D02*
X163502990Y-84140808D01*
X164388800Y-87494382D02*
X163502990Y-86608572D01*
X162153600Y-101346000D02*
X164592000Y-103784400D01*
X162153600Y-78482900D02*
X162153600Y-101346000D01*
X163068000Y-79146400D02*
X163068000Y-85919582D01*
X163068000Y-100228400D02*
X165862000Y-103022400D01*
X163068000Y-85970382D02*
X163068000Y-100228400D01*
X174855500Y-81280000D02*
X174957100Y-81178400D01*
X166065200Y-81280000D02*
X174855500Y-81280000D01*
X167168800Y-68884800D02*
X166598600Y-68314600D01*
X167589200Y-68884800D02*
X167168800Y-68884800D01*
X168354301Y-69649901D02*
X167589200Y-68884800D01*
X168354301Y-70320881D02*
X168354301Y-69649901D01*
X167097982Y-71577200D02*
X168354301Y-70320881D01*
X163880800Y-71577200D02*
X156509539Y-71577200D01*
X163728400Y-71577200D02*
X163880800Y-71577200D01*
X156509539Y-71577200D02*
X155903347Y-70971007D01*
X163880800Y-71577200D02*
X167097982Y-71577200D01*
X153781330Y-68848990D02*
X149845010Y-68848990D01*
X149845010Y-68848990D02*
X149783800Y-68910200D01*
X155903347Y-70971007D02*
X153781330Y-68848990D01*
X148793200Y-69900800D02*
X149783800Y-68910200D01*
D32*
X165111400Y-68314600D02*
X164287200Y-69138800D01*
X165201600Y-68314600D02*
X165111400Y-68314600D01*
X164408590Y-69017410D02*
X164287200Y-69138800D01*
D31*
X172433500Y-68326000D02*
X172371300Y-68263800D01*
X173532800Y-68326000D02*
X172433500Y-68326000D01*
X161744099Y-68075101D02*
X162509200Y-67310000D01*
X160514319Y-68075101D02*
X161744099Y-68075101D01*
X160352417Y-67913199D02*
X160514319Y-68075101D01*
X143306800Y-67513200D02*
X143706799Y-67913199D01*
X162509200Y-67310000D02*
X164045710Y-65773490D01*
X143706799Y-67913199D02*
X160352417Y-67913199D01*
X174040339Y-67818461D02*
X174040339Y-66242739D01*
X173532800Y-68326000D02*
X174040339Y-67818461D01*
X173571090Y-65773490D02*
X172453490Y-65773490D01*
X174040339Y-66242739D02*
X173571090Y-65773490D01*
X172453490Y-65773490D02*
X172816328Y-65773490D01*
X164045710Y-65773490D02*
X172453490Y-65773490D01*
X170820112Y-68360288D02*
X170916600Y-68263800D01*
X169865715Y-68360288D02*
X170820112Y-68360288D01*
D32*
X172351700Y-100237998D02*
X173104102Y-100990400D01*
X173104102Y-100990400D02*
X174142400Y-100990400D01*
X174763199Y-100369601D02*
X174763199Y-98591601D01*
X174142400Y-100990400D02*
X174763199Y-100369601D01*
D31*
X176366200Y-93980000D02*
X176366200Y-94042200D01*
X175669501Y-94738899D02*
X175669501Y-97685299D01*
X175669501Y-97685299D02*
X174763199Y-98591601D01*
X176366200Y-94042200D02*
X175669501Y-94738899D01*
X174777400Y-68527731D02*
X174777400Y-68213000D01*
X173595742Y-69709389D02*
X174777400Y-68527731D01*
D28*
X185593900Y-94568100D02*
X186486800Y-93675200D01*
X182524400Y-94568100D02*
X185593900Y-94568100D01*
X181813200Y-73304400D02*
X183815900Y-71301700D01*
X183898600Y-70622400D02*
X183815900Y-70539700D01*
X183815900Y-70539700D02*
X183815900Y-69545200D01*
X186513200Y-70622400D02*
X183898600Y-70622400D01*
X183815900Y-71301700D02*
X183815900Y-70539700D01*
X183591200Y-87122000D02*
X180390800Y-90322400D01*
X183768001Y-86945199D02*
X183591200Y-87122000D01*
X189611999Y-86945199D02*
X183768001Y-86945199D01*
X191363600Y-88696800D02*
X189611999Y-86945199D01*
X191363600Y-90068400D02*
X191363600Y-88696800D01*
X189026800Y-92405200D02*
X191363600Y-90068400D01*
D32*
X168692800Y-97194400D02*
X168859200Y-97028000D01*
X167995600Y-97194400D02*
X168692800Y-97194400D01*
D31*
X168859200Y-88290400D02*
X168859200Y-97028000D01*
X166268400Y-85699600D02*
X168859200Y-88290400D01*
X166268400Y-85699600D02*
X164236400Y-85699600D01*
D32*
X166559200Y-97143600D02*
X165608000Y-98094800D01*
X166573200Y-97143600D02*
X166559200Y-97143600D01*
X178217800Y-97242600D02*
X179019200Y-98044000D01*
X178098200Y-97242600D02*
X178217800Y-97242600D01*
D31*
X176569400Y-68213000D02*
X177342800Y-68986400D01*
X176225200Y-68213000D02*
X176569400Y-68213000D01*
D32*
X176631600Y-97245200D02*
X176414400Y-97245200D01*
D31*
X176606200Y-97242600D02*
X176606200Y-97787062D01*
X175463200Y-98930062D02*
X175463200Y-99009200D01*
X176606200Y-97787062D02*
X175463200Y-98930062D01*
X172387200Y-97157600D02*
X172440600Y-97157600D01*
X171297600Y-98247200D02*
X172387200Y-97157600D01*
D32*
X175197800Y-97169000D02*
X175209200Y-97180400D01*
X173888400Y-97169000D02*
X175197800Y-97169000D01*
D31*
X169875200Y-82702400D02*
X164287200Y-82702400D01*
X175006000Y-87833200D02*
X169875200Y-82702400D01*
X175006000Y-97180400D02*
X175006000Y-87833200D01*
D33*
X164998400Y-75590400D02*
X165049200Y-75641200D01*
X164998400Y-72745600D02*
X164998400Y-75590400D01*
D31*
X166774500Y-102360100D02*
X166774500Y-105867200D01*
X166420800Y-102006400D02*
X166774500Y-102360100D01*
D29*
X164033200Y-109270800D02*
X164846000Y-109270800D01*
X165703522Y-109270800D02*
X164033200Y-109270800D01*
X165709600Y-109264722D02*
X165703522Y-109270800D01*
X165709600Y-107492800D02*
X165709600Y-109264722D01*
X166774500Y-106427900D02*
X165709600Y-107492800D01*
X166774500Y-105867200D02*
X166774500Y-106427900D01*
D31*
X115112800Y-98196400D02*
X109524800Y-92608400D01*
X109524800Y-87071200D02*
X109118400Y-86664800D01*
X124460000Y-98196400D02*
X115112800Y-98196400D01*
X128730301Y-102466701D02*
X124460000Y-98196400D01*
X134775501Y-102466701D02*
X128730301Y-102466701D01*
X109524800Y-92608400D02*
X109524800Y-87071200D01*
X136347200Y-104038400D02*
X134775501Y-102466701D01*
X109118400Y-86664800D02*
X108407200Y-86664800D01*
X136347200Y-107137200D02*
X136347200Y-104038400D01*
X138633200Y-109423200D02*
X136347200Y-107137200D01*
X151333200Y-109423200D02*
X138633200Y-109423200D01*
X151434800Y-109524800D02*
X151333200Y-109423200D01*
X151993600Y-109524800D02*
X151434800Y-109524800D01*
X151025299Y-110848701D02*
X151130000Y-110744000D01*
X151333200Y-110540800D02*
X151025299Y-110848701D01*
X151993600Y-110540800D02*
X151333200Y-110540800D01*
X135693180Y-104349580D02*
X135693180Y-107408102D01*
X134464321Y-103120721D02*
X135693180Y-104349580D01*
X124206000Y-98856800D02*
X128469921Y-103120721D01*
X91592400Y-98856800D02*
X124206000Y-98856800D01*
X89408000Y-96672400D02*
X91592400Y-98856800D01*
X128469921Y-103120721D02*
X134464321Y-103120721D01*
X89408000Y-95250000D02*
X89408000Y-96672400D01*
X139133779Y-110848701D02*
X151025299Y-110848701D01*
X135693180Y-107408102D02*
X139133779Y-110848701D01*
X91135200Y-93522800D02*
X89408000Y-95250000D01*
X90373200Y-98145600D02*
X90525600Y-98298000D01*
X88900000Y-93218000D02*
X91135200Y-90982800D01*
X88900000Y-96672400D02*
X88900000Y-93218000D01*
X90373200Y-98145600D02*
X88900000Y-96672400D01*
X124155200Y-99263200D02*
X91490800Y-99263200D01*
X128339731Y-103447731D02*
X124155200Y-99263200D01*
X134328871Y-103447731D02*
X128339731Y-103447731D01*
X135366170Y-104485030D02*
X134328871Y-103447731D01*
X135366170Y-107629370D02*
X135366170Y-104485030D01*
X91490800Y-99263200D02*
X90322400Y-98094800D01*
X139293600Y-111556800D02*
X135366170Y-107629370D01*
X90322400Y-98094800D02*
X90373200Y-98145600D01*
X150418800Y-111556800D02*
X139293600Y-111556800D01*
X138497749Y-109750210D02*
X149475810Y-109750210D01*
X136020190Y-107272651D02*
X138497749Y-109750210D01*
X134640051Y-102793711D02*
X136020190Y-104173850D01*
X128549311Y-102793711D02*
X134640051Y-102793711D01*
X124307600Y-98552000D02*
X128549311Y-102793711D01*
X115722400Y-98552000D02*
X124307600Y-98552000D01*
X149475810Y-109750210D02*
X149910800Y-110185200D01*
X136020190Y-104173850D02*
X136020190Y-107272651D01*
X115109175Y-98552000D02*
X115773200Y-98552000D01*
X108559600Y-92002425D02*
X115109175Y-98552000D01*
X108559600Y-89204800D02*
X108559600Y-92002425D01*
D28*
X174040800Y-102006400D02*
X173888400Y-102158800D01*
X175007100Y-102006400D02*
X174040800Y-102006400D01*
X174888400Y-102125100D02*
X175007100Y-102006400D01*
X174888400Y-103682800D02*
X174888400Y-102125100D01*
X174916700Y-103711100D02*
X174888400Y-103682800D01*
X174916700Y-105918000D02*
X174916700Y-103711100D01*
D31*
X174957100Y-82753200D02*
X174957100Y-86006300D01*
X179513499Y-90562699D02*
X179298600Y-90347800D01*
X179513499Y-97194081D02*
X179513499Y-90562699D01*
X179933600Y-97614182D02*
X179513499Y-97194081D01*
X179933600Y-100634800D02*
X179933600Y-97614182D01*
X174957100Y-86006300D02*
X179298600Y-90347800D01*
D29*
X173025900Y-71870800D02*
X172986300Y-71831200D01*
D28*
X172415200Y-72402300D02*
X172986300Y-71831200D01*
X172415200Y-73358300D02*
X172415200Y-72402300D01*
X173079800Y-73358300D02*
X173533900Y-73812400D01*
X172415200Y-73358300D02*
X173079800Y-73358300D01*
X173533900Y-74944900D02*
X172990000Y-75488800D01*
X173533900Y-73812400D02*
X173533900Y-74944900D01*
D31*
X156462100Y-61315600D02*
X174244000Y-61315600D01*
X174244000Y-61315600D02*
X178206400Y-65278000D01*
X178206400Y-72440800D02*
X177393600Y-73253600D01*
X178206400Y-65278000D02*
X178206400Y-72440800D01*
D32*
X179239200Y-81928200D02*
X177863000Y-81928200D01*
X177113200Y-81178400D02*
X177863000Y-81928200D01*
X176782100Y-81178400D02*
X177113200Y-81178400D01*
X177038000Y-82753200D02*
X177863000Y-81928200D01*
X176782100Y-82753200D02*
X177038000Y-82753200D01*
D28*
X185318400Y-83665700D02*
X187045600Y-83665700D01*
D30*
X185318400Y-83665700D02*
X185318400Y-84937600D01*
X184519190Y-85736810D02*
X183018810Y-85736810D01*
X185318400Y-84937600D02*
X184519190Y-85736810D01*
X181339200Y-84057200D02*
X181339200Y-83578200D01*
X183018810Y-85736810D02*
X181339200Y-84057200D01*
D29*
X154652000Y-61330500D02*
X154637100Y-61315600D01*
X154652000Y-62929000D02*
X154652000Y-61330500D01*
X152906100Y-63957200D02*
X152906100Y-63298700D01*
X153275800Y-62929000D02*
X154652000Y-62929000D01*
X152906100Y-63298700D02*
X153275800Y-62929000D01*
D30*
X160578800Y-64666500D02*
X162356800Y-64666500D01*
D32*
X159892890Y-65352410D02*
X160578800Y-64666500D01*
X157656010Y-65352410D02*
X159892890Y-65352410D01*
X156882600Y-64579000D02*
X157656010Y-65352410D01*
X156752000Y-64579000D02*
X156882600Y-64579000D01*
D31*
X91135200Y-88442800D02*
X88493600Y-91084400D01*
X88493600Y-91084400D02*
X88493600Y-97536000D01*
X131541066Y-107008290D02*
X131541066Y-107980364D01*
X124202376Y-99669600D02*
X131541066Y-107008290D01*
X88493600Y-97536000D02*
X90627200Y-99669600D01*
X90627200Y-99669600D02*
X124202376Y-99669600D01*
D32*
X178641800Y-75656100D02*
X176748901Y-77548999D01*
X171825199Y-77548999D02*
X171246800Y-78127398D01*
X180602400Y-67288200D02*
X178641800Y-69248800D01*
X185563201Y-67132401D02*
X184602199Y-67132401D01*
X178641800Y-69248800D02*
X178641800Y-75656100D01*
X176748901Y-77548999D02*
X171825199Y-77548999D01*
X184602199Y-67132401D02*
X184446400Y-67288200D01*
X171246800Y-78127398D02*
X171246800Y-78757579D01*
X186513200Y-68082400D02*
X185563201Y-67132401D01*
X184446400Y-67288200D02*
X180602400Y-67288200D01*
X188103201Y-70362399D02*
X188103201Y-70942401D01*
X179091800Y-71904000D02*
X179091800Y-69435200D01*
X172830988Y-78918788D02*
X175944812Y-78918788D01*
X179120800Y-71933000D02*
X179091800Y-71904000D01*
X179120800Y-75742800D02*
X179120800Y-71933000D01*
X179091800Y-69435200D02*
X180788800Y-67738200D01*
X180788800Y-67738200D02*
X184260000Y-67738200D01*
X184260000Y-67738200D02*
X185464200Y-68942400D01*
X188103201Y-70942401D02*
X189053200Y-71892400D01*
X172161200Y-78249000D02*
X172830988Y-78918788D01*
X185913199Y-69332401D02*
X187073203Y-69332401D01*
X185523198Y-68942400D02*
X185913199Y-69332401D01*
X185464200Y-68942400D02*
X185523198Y-68942400D01*
X175944812Y-78918788D02*
X179120800Y-75742800D01*
X187073203Y-69332401D02*
X188103201Y-70362399D01*
X191489000Y-73162400D02*
X191995000Y-73668400D01*
X180245300Y-79806800D02*
X169031136Y-79806800D01*
X191995000Y-74921600D02*
X187147810Y-79768790D01*
X191995000Y-73668400D02*
X191995000Y-74921600D01*
X169031136Y-79806800D02*
X168196155Y-78971819D01*
X186513200Y-73162400D02*
X191489000Y-73162400D01*
X187147810Y-79768790D02*
X180283310Y-79768790D01*
X180283310Y-79768790D02*
X180245300Y-79806800D01*
X170166853Y-79457589D02*
X168938619Y-78229355D01*
X189053200Y-74432400D02*
X189873200Y-73612400D01*
X179218367Y-79457589D02*
X170166853Y-79457589D01*
X179357157Y-79318799D02*
X179218367Y-79457589D01*
X186961401Y-79318799D02*
X179357157Y-79318799D01*
X189873200Y-73612400D02*
X191302600Y-73612400D01*
X191545000Y-73854800D02*
X191545000Y-74735200D01*
X191302600Y-73612400D02*
X191545000Y-73854800D01*
X191545000Y-74735200D02*
X186961401Y-79318799D01*
X171377400Y-106481600D02*
X171077400Y-106781600D01*
X180877000Y-93226400D02*
X180877000Y-97476800D01*
X182558200Y-91545200D02*
X180877000Y-93226400D01*
X186486800Y-91135200D02*
X186076800Y-91545200D01*
X186076800Y-91545200D02*
X182558200Y-91545200D01*
X182431876Y-99031676D02*
X182085900Y-98685700D01*
X173880000Y-107877400D02*
X178722800Y-107877400D01*
X178722800Y-107877400D02*
X182431876Y-104168324D01*
X173351400Y-107348800D02*
X173880000Y-107877400D01*
X172819345Y-105699145D02*
X173351400Y-106231200D01*
X173351400Y-106231200D02*
X173351400Y-107348800D01*
X172159855Y-105699145D02*
X172819345Y-105699145D01*
X182431876Y-104168324D02*
X182431876Y-99031676D01*
X171077400Y-106781600D02*
X172159855Y-105699145D01*
X180877000Y-97476800D02*
X182085900Y-98685700D01*
X181327000Y-93412800D02*
X181327000Y-97290400D01*
X182744600Y-91995200D02*
X181327000Y-93412800D01*
X189026800Y-94945200D02*
X187736801Y-93655201D01*
X187736801Y-93655201D02*
X187736801Y-93075199D01*
X187736801Y-93075199D02*
X187046803Y-92385201D01*
X187046803Y-92385201D02*
X185886799Y-92385201D01*
X185886799Y-92385201D02*
X185496798Y-91995200D01*
X185496798Y-91995200D02*
X182744600Y-91995200D01*
X172346252Y-106149145D02*
X172632945Y-106149145D01*
X172127400Y-106781600D02*
X172127400Y-106367997D01*
X178909200Y-108327400D02*
X182881876Y-104354724D01*
X172901400Y-106417600D02*
X172901400Y-107535200D01*
X172632945Y-106149145D02*
X172901400Y-106417600D01*
X172127400Y-106367997D02*
X172346252Y-106149145D01*
X172901400Y-107535200D02*
X173693600Y-108327400D01*
X173693600Y-108327400D02*
X178909200Y-108327400D01*
X182886700Y-100631852D02*
X182886700Y-98850100D01*
X182881876Y-100636676D02*
X182886700Y-100631852D01*
X182881876Y-100738276D02*
X182881876Y-100636676D01*
X181327000Y-97290400D02*
X182886700Y-98850100D01*
X182881876Y-104354724D02*
X182881876Y-100738276D01*
X182881876Y-100738276D02*
X182881876Y-100544724D01*
X191478600Y-96215200D02*
X192147400Y-96884000D01*
X186486800Y-96215200D02*
X191478600Y-96215200D01*
X192147400Y-96884000D02*
X192147400Y-97832400D01*
X192147400Y-97832400D02*
X180484000Y-109495800D01*
X180484000Y-109495800D02*
X170290000Y-109495800D01*
X169579615Y-108321431D02*
X169279615Y-108021431D01*
X169579615Y-108785415D02*
X169579615Y-108321431D01*
X170290000Y-109495800D02*
X169579615Y-108785415D01*
X189846800Y-96665200D02*
X191292200Y-96665200D01*
X189026800Y-97485200D02*
X189846800Y-96665200D01*
X191292200Y-96665200D02*
X191697400Y-97070400D01*
X191697400Y-97070400D02*
X191697400Y-97646000D01*
X191697400Y-97646000D02*
X180297600Y-109045800D01*
X180297600Y-109045800D02*
X170476400Y-109045800D01*
X170029615Y-108321431D02*
X170329615Y-108021431D01*
X170029615Y-108599015D02*
X170029615Y-108321431D01*
X170476400Y-109045800D02*
X170029615Y-108599015D01*
X125269200Y-101786200D02*
X125269200Y-103064338D01*
X139146462Y-116941600D02*
X183738338Y-116941600D01*
X87245400Y-97138000D02*
X90994513Y-100887113D01*
X124350000Y-100867000D02*
X125269200Y-101786200D01*
X87245400Y-85030800D02*
X87245400Y-97138000D01*
X128320800Y-71568800D02*
X128320800Y-72134485D01*
X185490000Y-115189938D02*
X185490000Y-113304200D01*
X183738338Y-116941600D02*
X185490000Y-115189938D01*
X130864638Y-108780202D02*
X130985064Y-108780202D01*
X130284598Y-108200162D02*
X130864638Y-108780202D01*
X108194874Y-100867000D02*
X124350000Y-100867000D01*
X127709685Y-72745600D02*
X99530600Y-72745600D01*
X130985064Y-108780202D02*
X139146462Y-116941600D01*
X130284598Y-108079736D02*
X130284598Y-108200162D01*
X128320800Y-72134485D02*
X127709685Y-72745600D01*
X108174761Y-100887113D02*
X108194874Y-100867000D01*
X90994513Y-100887113D02*
X108174761Y-100887113D01*
X125269200Y-103064338D02*
X130284598Y-108079736D01*
X99530600Y-72745600D02*
X87245400Y-85030800D01*
X185490000Y-113304200D02*
X186373800Y-112420400D01*
D31*
X128320800Y-70518800D02*
X127526979Y-71312621D01*
D32*
X99082211Y-72418589D02*
X127073011Y-72418589D01*
X86795400Y-97324400D02*
X86795400Y-84705400D01*
X86795400Y-84705400D02*
X99082211Y-72418589D01*
X90788000Y-101317000D02*
X86795400Y-97324400D01*
X127073011Y-72418589D02*
X127526979Y-71964621D01*
X124163600Y-101317000D02*
X90788000Y-101317000D01*
X124819200Y-101972600D02*
X124163600Y-101317000D01*
X124819200Y-103330800D02*
X124819200Y-101972600D01*
X138988800Y-117500400D02*
X124819200Y-103330800D01*
X183986400Y-117500400D02*
X138988800Y-117500400D01*
X127526979Y-71964621D02*
X127526979Y-71312621D01*
X186373800Y-115113000D02*
X183986400Y-117500400D01*
X186373800Y-114638000D02*
X186373800Y-115113000D01*
X120954800Y-68884800D02*
X118922800Y-66852800D01*
X129286000Y-70556038D02*
X127614762Y-68884800D01*
X113029999Y-92506802D02*
X113029999Y-83413601D01*
X141579600Y-95097601D02*
X140360400Y-93878401D01*
X139242802Y-93878401D02*
X132791203Y-100330000D01*
X113029999Y-83413601D02*
X123291600Y-73152000D01*
X129286000Y-72085200D02*
X129286000Y-70556038D01*
X132791203Y-100330000D02*
X128625600Y-100330000D01*
X128625600Y-100330000D02*
X125498211Y-97202611D01*
X125498211Y-97202611D02*
X117725808Y-97202611D01*
X140360400Y-93878401D02*
X139242802Y-93878401D01*
X117725808Y-97202611D02*
X113029999Y-92506802D01*
X140512799Y-100888800D02*
X141579600Y-99821999D01*
X123291600Y-73152000D02*
X128219200Y-73152000D01*
X127614762Y-68884800D02*
X120954800Y-68884800D01*
X141579600Y-99821999D02*
X141579600Y-95097601D01*
X128219200Y-73152000D02*
X129286000Y-72085200D01*
X141935200Y-100736400D02*
X141935200Y-94990738D01*
X141935200Y-94990738D02*
X140495852Y-93551390D01*
X113357010Y-83549052D02*
X123427051Y-73479011D01*
X140495852Y-93551390D02*
X139107350Y-93551390D01*
X129613011Y-72220652D02*
X129613010Y-69624590D01*
X129613010Y-69624590D02*
X132486400Y-66751200D01*
X139107350Y-93551390D02*
X132655751Y-100002989D01*
X129060589Y-100002989D02*
X125933200Y-96875600D01*
X132655751Y-100002989D02*
X129060589Y-100002989D01*
X125933200Y-96875600D02*
X117861260Y-96875600D01*
X113357010Y-92371350D02*
X113357010Y-83549052D01*
X123427051Y-73479011D02*
X128354652Y-73479011D01*
X117861260Y-96875600D02*
X113357010Y-92371350D01*
X128354652Y-73479011D02*
X129613011Y-72220652D01*
X117786811Y-65716811D02*
X116382800Y-64312800D01*
X126332186Y-65716812D02*
X117786811Y-65716811D01*
X128438001Y-65674199D02*
X126374799Y-65674199D01*
X126374799Y-65674199D02*
X126332186Y-65716812D01*
X128460701Y-65696899D02*
X128438001Y-65674199D01*
X129946400Y-64211200D02*
X128460701Y-65696899D01*
D31*
X121056400Y-69748400D02*
X119634000Y-69748400D01*
X117786811Y-67901211D02*
X117786811Y-65716811D01*
X119634000Y-69748400D02*
X117786811Y-67901211D01*
X117152721Y-97493121D02*
X112522000Y-92862400D01*
X112522000Y-82807624D02*
X121259600Y-74070024D01*
X128375224Y-100838000D02*
X125030345Y-97493121D01*
X137769600Y-102108000D02*
X136501412Y-100839812D01*
X139801600Y-105187700D02*
X139801600Y-104583128D01*
X140208000Y-105594100D02*
X139801600Y-105187700D01*
X137769600Y-102551128D02*
X137769600Y-102108000D01*
X139801600Y-104583128D02*
X137769600Y-102551128D01*
X121259600Y-74070024D02*
X121259600Y-73710800D01*
X136503224Y-100838000D02*
X128375224Y-100838000D01*
X112522000Y-92862400D02*
X112522000Y-82807624D01*
X125030345Y-97493121D02*
X117152721Y-97493121D01*
X136501412Y-100839812D02*
X136503224Y-100838000D01*
D32*
X121462800Y-64312800D02*
X123190000Y-62585600D01*
X133400800Y-62585600D02*
X135026400Y-64211200D01*
X123190000Y-62585600D02*
X133400800Y-62585600D01*
D31*
X133705600Y-69697600D02*
X133705600Y-65532000D01*
X129438400Y-73964800D02*
X133705600Y-69697600D01*
X133705600Y-65532000D02*
X135026400Y-64211200D01*
X142525701Y-101314299D02*
X142525701Y-94468901D01*
X117967302Y-96570800D02*
X113842800Y-92446298D01*
X113842800Y-92446298D02*
X113842800Y-83566000D01*
X141782800Y-102057200D02*
X142525701Y-101314299D01*
X142525701Y-94468901D02*
X141317680Y-93260880D01*
X141317680Y-93260880D02*
X138387120Y-93260880D01*
X126349302Y-96570800D02*
X117967302Y-96570800D01*
X113842800Y-83566000D02*
X123444000Y-73964800D01*
X138387120Y-93260880D02*
X132003800Y-99644200D01*
X132003800Y-99644200D02*
X132029200Y-99669600D01*
X123444000Y-73964800D02*
X129438400Y-73964800D01*
X132029200Y-99669600D02*
X129448102Y-99669600D01*
X129448102Y-99669600D02*
X126349302Y-96570800D01*
D32*
X119999801Y-65389801D02*
X118922800Y-64312800D01*
X123332199Y-65389801D02*
X119999801Y-65389801D01*
X125809390Y-62912610D02*
X123332199Y-65389801D01*
X131187810Y-62912610D02*
X125809390Y-62912610D01*
X132486400Y-64211200D02*
X131187810Y-62912610D01*
D31*
X111912400Y-83058000D02*
X119888000Y-75082400D01*
X136597576Y-101295200D02*
X128473200Y-101295200D01*
X119888000Y-75082400D02*
X119888000Y-74479685D01*
X137312400Y-102010024D02*
X136597576Y-101295200D01*
X128473200Y-101295200D02*
X124968000Y-97790000D01*
X139039600Y-105003600D02*
X137312400Y-103276400D01*
X116636800Y-97790000D02*
X111912400Y-93065600D01*
X119888000Y-74479685D02*
X119888000Y-73914000D01*
X111912400Y-93065600D02*
X111912400Y-83058000D01*
X124968000Y-97790000D02*
X116636800Y-97790000D01*
X137312400Y-103276400D02*
X137312400Y-102010024D01*
X111150400Y-96723200D02*
X111201200Y-96774000D01*
X102885252Y-96723200D02*
X111150400Y-96723200D01*
X102228700Y-96723200D02*
X102870000Y-96723200D01*
X100685600Y-98266300D02*
X102228700Y-96723200D01*
X114147600Y-124612400D02*
X98958400Y-124612400D01*
X115214400Y-123545600D02*
X114147600Y-124612400D01*
X98958400Y-124612400D02*
X93573600Y-119227600D01*
X171246800Y-123545600D02*
X115214400Y-123545600D01*
X173939200Y-120853200D02*
X171246800Y-123545600D01*
X173939200Y-119430800D02*
X173939200Y-120853200D01*
X93929200Y-117449600D02*
X99314000Y-122834400D01*
X165455600Y-122834400D02*
X168859200Y-119430800D01*
X99314000Y-122834400D02*
X165455600Y-122834400D01*
X110267700Y-97974100D02*
X110490000Y-98196400D01*
X102920800Y-97974100D02*
X110267700Y-97974100D01*
X102230297Y-97383600D02*
X102768400Y-97383600D01*
X101743818Y-97870079D02*
X102230297Y-97383600D01*
X101743818Y-98043176D02*
X101743818Y-97870079D01*
X102708194Y-97383600D02*
X111150400Y-97383600D01*
X111150400Y-97383600D02*
X111963200Y-98196400D01*
X96824800Y-119024400D02*
X96824800Y-118719600D01*
X99669600Y-121869200D02*
X96824800Y-119024400D01*
X139852400Y-121869200D02*
X99669600Y-121869200D01*
X153111200Y-121716800D02*
X150114000Y-118719600D01*
X143002000Y-118719600D02*
X139852400Y-121869200D01*
X150114000Y-118719600D02*
X143002000Y-118719600D01*
X158089600Y-121716800D02*
X153111200Y-121716800D01*
X158699200Y-121107200D02*
X158089600Y-121716800D01*
X158699200Y-119430800D02*
X158699200Y-121107200D01*
D34*
X142636234Y-81495663D02*
X142658097Y-81522303D01*
X142684737Y-81544166D01*
X142684745Y-81544174D01*
X142764456Y-81609591D01*
X142843323Y-81651746D01*
X142885803Y-81674452D01*
X142942230Y-81691569D01*
X142841116Y-81814777D01*
X142735724Y-82011953D01*
X142670823Y-82225901D01*
X142648909Y-82448400D01*
X142670823Y-82670899D01*
X142735724Y-82884847D01*
X142841116Y-83082023D01*
X142982951Y-83254849D01*
X143155777Y-83396684D01*
X143352953Y-83502076D01*
X143566901Y-83566977D01*
X143733648Y-83583400D01*
X143823917Y-83583400D01*
X143922038Y-83702962D01*
X144056614Y-83813405D01*
X144210150Y-83895472D01*
X144376746Y-83946008D01*
X144550000Y-83963072D01*
X145475000Y-83963072D01*
X145648254Y-83946008D01*
X145814850Y-83895472D01*
X145968386Y-83813405D01*
X146102962Y-83702962D01*
X146213405Y-83568386D01*
X146295472Y-83414850D01*
X146322727Y-83325000D01*
X146636928Y-83325000D01*
X146649188Y-83449482D01*
X146685498Y-83569180D01*
X146744463Y-83679494D01*
X146823815Y-83776185D01*
X146920506Y-83855537D01*
X147030820Y-83914502D01*
X147150518Y-83950812D01*
X147275000Y-83963072D01*
X147701750Y-83960000D01*
X147860500Y-83801250D01*
X147860500Y-82577000D01*
X146798750Y-82577000D01*
X146640000Y-82735750D01*
X146636928Y-83325000D01*
X146322727Y-83325000D01*
X146346008Y-83248254D01*
X146363072Y-83075000D01*
X146363072Y-81825000D01*
X146346008Y-81651746D01*
X146322728Y-81575000D01*
X146636928Y-81575000D01*
X146640000Y-82164250D01*
X146798750Y-82323000D01*
X147860500Y-82323000D01*
X147860500Y-81098750D01*
X147701750Y-80940000D01*
X147275000Y-80936928D01*
X147150518Y-80949188D01*
X147030820Y-80985498D01*
X146920506Y-81044463D01*
X146823815Y-81123815D01*
X146744463Y-81220506D01*
X146685498Y-81330820D01*
X146649188Y-81450518D01*
X146636928Y-81575000D01*
X146322728Y-81575000D01*
X146295472Y-81485150D01*
X146213405Y-81331614D01*
X146157147Y-81263063D01*
X147039649Y-80380560D01*
X147066626Y-80407537D01*
X147236144Y-80520805D01*
X147424502Y-80598826D01*
X147624461Y-80638600D01*
X147828339Y-80638600D01*
X148028298Y-80598826D01*
X148216656Y-80520805D01*
X148234662Y-80508773D01*
X148235026Y-80509137D01*
X148404544Y-80622405D01*
X148584918Y-80697119D01*
X148586399Y-80937746D01*
X148273250Y-80940000D01*
X148114500Y-81098750D01*
X148114500Y-82323000D01*
X148134500Y-82323000D01*
X148134500Y-82577000D01*
X148114500Y-82577000D01*
X148114500Y-83801250D01*
X148273250Y-83960000D01*
X148605017Y-83962388D01*
X148608557Y-84537586D01*
X148273250Y-84540000D01*
X148114500Y-84698750D01*
X148114500Y-85923000D01*
X148134500Y-85923000D01*
X148134500Y-86177000D01*
X148114500Y-86177000D01*
X148114500Y-87401250D01*
X148273250Y-87560000D01*
X148627177Y-87562548D01*
X148632571Y-88438905D01*
X148612500Y-88436928D01*
X148185750Y-88440000D01*
X148027000Y-88598750D01*
X148027000Y-89823000D01*
X148047000Y-89823000D01*
X148047000Y-90077000D01*
X148027000Y-90077000D01*
X148027000Y-91301250D01*
X148185750Y-91460000D01*
X148612500Y-91463072D01*
X148651162Y-91459264D01*
X148655883Y-92226185D01*
X136641477Y-92112461D01*
X136740476Y-91927246D01*
X136805377Y-91713298D01*
X136827291Y-91490800D01*
X136805377Y-91268301D01*
X136740476Y-91054354D01*
X136635084Y-90857178D01*
X136493249Y-90684351D01*
X136320422Y-90542516D01*
X136123246Y-90437124D01*
X135909299Y-90372223D01*
X135686800Y-90350309D01*
X135537639Y-90365000D01*
X135474770Y-90365000D01*
X135377962Y-90247038D01*
X135243386Y-90136595D01*
X135089850Y-90054528D01*
X134923254Y-90003992D01*
X134750000Y-89986928D01*
X133825000Y-89986928D01*
X133651746Y-90003992D01*
X133485150Y-90054528D01*
X133331614Y-90136595D01*
X133197038Y-90247038D01*
X133086595Y-90381614D01*
X133004528Y-90535150D01*
X132953992Y-90701746D01*
X132936928Y-90875000D01*
X132936928Y-92077395D01*
X132808310Y-92076178D01*
X132787589Y-90743439D01*
X132784764Y-90718703D01*
X132777167Y-90694994D01*
X132765091Y-90673223D01*
X132749000Y-90654225D01*
X132729511Y-90638732D01*
X132707375Y-90627339D01*
X132683441Y-90620483D01*
X132662456Y-90618745D01*
X132650812Y-90500518D01*
X132614502Y-90380820D01*
X132555537Y-90270506D01*
X132476185Y-90173815D01*
X132379494Y-90094463D01*
X132269180Y-90035498D01*
X132149482Y-89999188D01*
X132025000Y-89986928D01*
X131598250Y-89990000D01*
X131439500Y-90148750D01*
X131439500Y-91373000D01*
X131459500Y-91373000D01*
X131459500Y-91627000D01*
X131439500Y-91627000D01*
X131439500Y-91647000D01*
X131185500Y-91647000D01*
X131185500Y-91627000D01*
X131165500Y-91627000D01*
X131165500Y-91373000D01*
X131185500Y-91373000D01*
X131185500Y-90148750D01*
X131026750Y-89990000D01*
X130600000Y-89986928D01*
X130522081Y-89994602D01*
X130522182Y-89941400D01*
X142598109Y-89941400D01*
X142620023Y-90163899D01*
X142684924Y-90377847D01*
X142790316Y-90575023D01*
X142932151Y-90747849D01*
X143104977Y-90889684D01*
X143302153Y-90995076D01*
X143516101Y-91059977D01*
X143682848Y-91076400D01*
X143730672Y-91076400D01*
X143834538Y-91202962D01*
X143969114Y-91313405D01*
X144122650Y-91395472D01*
X144289246Y-91446008D01*
X144462500Y-91463072D01*
X145387500Y-91463072D01*
X145560754Y-91446008D01*
X145727350Y-91395472D01*
X145880886Y-91313405D01*
X146015462Y-91202962D01*
X146125905Y-91068386D01*
X146207972Y-90914850D01*
X146235227Y-90825000D01*
X146549428Y-90825000D01*
X146561688Y-90949482D01*
X146597998Y-91069180D01*
X146656963Y-91179494D01*
X146736315Y-91276185D01*
X146833006Y-91355537D01*
X146943320Y-91414502D01*
X147063018Y-91450812D01*
X147187500Y-91463072D01*
X147614250Y-91460000D01*
X147773000Y-91301250D01*
X147773000Y-90077000D01*
X146711250Y-90077000D01*
X146552500Y-90235750D01*
X146549428Y-90825000D01*
X146235227Y-90825000D01*
X146258508Y-90748254D01*
X146275572Y-90575000D01*
X146275572Y-90166553D01*
X146276377Y-90163899D01*
X146298291Y-89941400D01*
X146276377Y-89718901D01*
X146275572Y-89716247D01*
X146275572Y-89325000D01*
X146258508Y-89151746D01*
X146235228Y-89075000D01*
X146549428Y-89075000D01*
X146552500Y-89664250D01*
X146711250Y-89823000D01*
X147773000Y-89823000D01*
X147773000Y-88598750D01*
X147614250Y-88440000D01*
X147187500Y-88436928D01*
X147063018Y-88449188D01*
X146943320Y-88485498D01*
X146833006Y-88544463D01*
X146736315Y-88623815D01*
X146656963Y-88720506D01*
X146597998Y-88830820D01*
X146561688Y-88950518D01*
X146549428Y-89075000D01*
X146235228Y-89075000D01*
X146207972Y-88985150D01*
X146125905Y-88831614D01*
X146015462Y-88697038D01*
X145880886Y-88586595D01*
X145727350Y-88504528D01*
X145560754Y-88453992D01*
X145387500Y-88436928D01*
X144462500Y-88436928D01*
X144289246Y-88453992D01*
X144122650Y-88504528D01*
X143969114Y-88586595D01*
X143834538Y-88697038D01*
X143744787Y-88806400D01*
X143682848Y-88806400D01*
X143516101Y-88822823D01*
X143302153Y-88887724D01*
X143104977Y-88993116D01*
X142932151Y-89134951D01*
X142790316Y-89307777D01*
X142684924Y-89504953D01*
X142620023Y-89718901D01*
X142598109Y-89941400D01*
X130522182Y-89941400D01*
X130523305Y-89355518D01*
X130600000Y-89363072D01*
X131026750Y-89360000D01*
X131185500Y-89201250D01*
X131185500Y-87977000D01*
X131439500Y-87977000D01*
X131439500Y-89201250D01*
X131598250Y-89360000D01*
X132025000Y-89363072D01*
X132149482Y-89350812D01*
X132269180Y-89314502D01*
X132379494Y-89255537D01*
X132476185Y-89176185D01*
X132555537Y-89079494D01*
X132614502Y-88969180D01*
X132650812Y-88849482D01*
X132663072Y-88725000D01*
X132660000Y-88135750D01*
X132501250Y-87977000D01*
X131439500Y-87977000D01*
X131185500Y-87977000D01*
X131165500Y-87977000D01*
X131165500Y-87833200D01*
X132923909Y-87833200D01*
X132936928Y-87965386D01*
X132936928Y-88475000D01*
X132953992Y-88648254D01*
X133004528Y-88814850D01*
X133086595Y-88968386D01*
X133197038Y-89102962D01*
X133331614Y-89213405D01*
X133485150Y-89295472D01*
X133651746Y-89346008D01*
X133825000Y-89363072D01*
X134750000Y-89363072D01*
X134923254Y-89346008D01*
X135089850Y-89295472D01*
X135243386Y-89213405D01*
X135377962Y-89102962D01*
X135488405Y-88968386D01*
X135488504Y-88968200D01*
X135539352Y-88968200D01*
X135706099Y-88951777D01*
X135920047Y-88886876D01*
X136117223Y-88781484D01*
X136290049Y-88639649D01*
X136431884Y-88466823D01*
X136537276Y-88269647D01*
X136602177Y-88055699D01*
X136624091Y-87833200D01*
X136602177Y-87610701D01*
X136537276Y-87396753D01*
X136431884Y-87199577D01*
X136290049Y-87026751D01*
X136117223Y-86884916D01*
X135920047Y-86779524D01*
X135706099Y-86714623D01*
X135539352Y-86698200D01*
X135460983Y-86698200D01*
X135377962Y-86597038D01*
X135243386Y-86486595D01*
X135089850Y-86404528D01*
X134923254Y-86353992D01*
X134750000Y-86336928D01*
X133825000Y-86336928D01*
X133651746Y-86353992D01*
X133485150Y-86404528D01*
X133331614Y-86486595D01*
X133197038Y-86597038D01*
X133086595Y-86731614D01*
X133004528Y-86885150D01*
X132953992Y-87051746D01*
X132936928Y-87225000D01*
X132936928Y-87701014D01*
X132923909Y-87833200D01*
X131165500Y-87833200D01*
X131165500Y-87723000D01*
X131185500Y-87723000D01*
X131185500Y-86498750D01*
X131439500Y-86498750D01*
X131439500Y-87723000D01*
X132501250Y-87723000D01*
X132660000Y-87564250D01*
X132663072Y-86975000D01*
X132650812Y-86850518D01*
X132614502Y-86730820D01*
X132555537Y-86620506D01*
X132476185Y-86523815D01*
X132379494Y-86444463D01*
X132269180Y-86385498D01*
X132149482Y-86349188D01*
X132025000Y-86336928D01*
X131598250Y-86340000D01*
X131439500Y-86498750D01*
X131185500Y-86498750D01*
X131026750Y-86340000D01*
X130600000Y-86336928D01*
X130529074Y-86343913D01*
X130529578Y-86080600D01*
X142648909Y-86080600D01*
X142670823Y-86303099D01*
X142735724Y-86517047D01*
X142841116Y-86714223D01*
X142982951Y-86887049D01*
X143155777Y-87028884D01*
X143352953Y-87134276D01*
X143566901Y-87199177D01*
X143733648Y-87215600D01*
X143850342Y-87215600D01*
X143922038Y-87302962D01*
X144056614Y-87413405D01*
X144210150Y-87495472D01*
X144376746Y-87546008D01*
X144550000Y-87563072D01*
X145475000Y-87563072D01*
X145648254Y-87546008D01*
X145814850Y-87495472D01*
X145968386Y-87413405D01*
X146102962Y-87302962D01*
X146213405Y-87168386D01*
X146295472Y-87014850D01*
X146322727Y-86925000D01*
X146636928Y-86925000D01*
X146649188Y-87049482D01*
X146685498Y-87169180D01*
X146744463Y-87279494D01*
X146823815Y-87376185D01*
X146920506Y-87455537D01*
X147030820Y-87514502D01*
X147150518Y-87550812D01*
X147275000Y-87563072D01*
X147701750Y-87560000D01*
X147860500Y-87401250D01*
X147860500Y-86177000D01*
X146798750Y-86177000D01*
X146640000Y-86335750D01*
X146636928Y-86925000D01*
X146322727Y-86925000D01*
X146346008Y-86848254D01*
X146363072Y-86675000D01*
X146363072Y-85425000D01*
X146346008Y-85251746D01*
X146322728Y-85175000D01*
X146636928Y-85175000D01*
X146640000Y-85764250D01*
X146798750Y-85923000D01*
X147860500Y-85923000D01*
X147860500Y-84698750D01*
X147701750Y-84540000D01*
X147275000Y-84536928D01*
X147150518Y-84549188D01*
X147030820Y-84585498D01*
X146920506Y-84644463D01*
X146823815Y-84723815D01*
X146744463Y-84820506D01*
X146685498Y-84930820D01*
X146649188Y-85050518D01*
X146636928Y-85175000D01*
X146322728Y-85175000D01*
X146295472Y-85085150D01*
X146213405Y-84931614D01*
X146102962Y-84797038D01*
X145968386Y-84686595D01*
X145814850Y-84604528D01*
X145648254Y-84553992D01*
X145475000Y-84536928D01*
X144550000Y-84536928D01*
X144376746Y-84553992D01*
X144210150Y-84604528D01*
X144056614Y-84686595D01*
X143922038Y-84797038D01*
X143811595Y-84931614D01*
X143804119Y-84945600D01*
X143733648Y-84945600D01*
X143566901Y-84962023D01*
X143352953Y-85026924D01*
X143155777Y-85132316D01*
X142982951Y-85274151D01*
X142841116Y-85446977D01*
X142735724Y-85644153D01*
X142670823Y-85858101D01*
X142648909Y-86080600D01*
X130529578Y-86080600D01*
X130530670Y-85511168D01*
X130550000Y-85513072D01*
X130976750Y-85510000D01*
X131135500Y-85351250D01*
X131135500Y-84127000D01*
X131389500Y-84127000D01*
X131389500Y-85351250D01*
X131548250Y-85510000D01*
X131975000Y-85513072D01*
X132099482Y-85500812D01*
X132219180Y-85464502D01*
X132329494Y-85405537D01*
X132426185Y-85326185D01*
X132505537Y-85229494D01*
X132564502Y-85119180D01*
X132600812Y-84999482D01*
X132613072Y-84875000D01*
X132610000Y-84285750D01*
X132451250Y-84127000D01*
X131389500Y-84127000D01*
X131135500Y-84127000D01*
X131115500Y-84127000D01*
X131115500Y-83873000D01*
X131135500Y-83873000D01*
X131135500Y-82648750D01*
X131389500Y-82648750D01*
X131389500Y-83873000D01*
X132451250Y-83873000D01*
X132610000Y-83714250D01*
X132611768Y-83375000D01*
X132886928Y-83375000D01*
X132886928Y-84625000D01*
X132903992Y-84798254D01*
X132954528Y-84964850D01*
X133036595Y-85118386D01*
X133147038Y-85252962D01*
X133281614Y-85363405D01*
X133435150Y-85445472D01*
X133601746Y-85496008D01*
X133775000Y-85513072D01*
X134700000Y-85513072D01*
X134873254Y-85496008D01*
X135039850Y-85445472D01*
X135193386Y-85363405D01*
X135327962Y-85252962D01*
X135405731Y-85158200D01*
X135513952Y-85158200D01*
X135680699Y-85141777D01*
X135894647Y-85076876D01*
X136091823Y-84971484D01*
X136264649Y-84829649D01*
X136406484Y-84656823D01*
X136511876Y-84459647D01*
X136576777Y-84245699D01*
X136598691Y-84023200D01*
X136576777Y-83800701D01*
X136511876Y-83586753D01*
X136406484Y-83389577D01*
X136264649Y-83216751D01*
X136091823Y-83074916D01*
X135894647Y-82969524D01*
X135680699Y-82904623D01*
X135513952Y-82888200D01*
X135441925Y-82888200D01*
X135438405Y-82881614D01*
X135327962Y-82747038D01*
X135193386Y-82636595D01*
X135039850Y-82554528D01*
X134873254Y-82503992D01*
X134700000Y-82486928D01*
X133775000Y-82486928D01*
X133601746Y-82503992D01*
X133435150Y-82554528D01*
X133281614Y-82636595D01*
X133147038Y-82747038D01*
X133036595Y-82881614D01*
X132954528Y-83035150D01*
X132903992Y-83201746D01*
X132886928Y-83375000D01*
X132611768Y-83375000D01*
X132613072Y-83125000D01*
X132600812Y-83000518D01*
X132564502Y-82880820D01*
X132505537Y-82770506D01*
X132426185Y-82673815D01*
X132329494Y-82594463D01*
X132219180Y-82535498D01*
X132099482Y-82499188D01*
X131975000Y-82486928D01*
X131548250Y-82490000D01*
X131389500Y-82648750D01*
X131135500Y-82648750D01*
X130976750Y-82490000D01*
X130550000Y-82486928D01*
X130536461Y-82488261D01*
X130541482Y-79867110D01*
X141007683Y-79867110D01*
X142636234Y-81495663D01*
G04 #@! TA.AperFunction,Conductor*
D35*
G36*
X142636234Y-81495663D02*
G01*
X142658097Y-81522303D01*
X142684737Y-81544166D01*
X142684745Y-81544174D01*
X142764456Y-81609591D01*
X142843323Y-81651746D01*
X142885803Y-81674452D01*
X142942230Y-81691569D01*
X142841116Y-81814777D01*
X142735724Y-82011953D01*
X142670823Y-82225901D01*
X142648909Y-82448400D01*
X142670823Y-82670899D01*
X142735724Y-82884847D01*
X142841116Y-83082023D01*
X142982951Y-83254849D01*
X143155777Y-83396684D01*
X143352953Y-83502076D01*
X143566901Y-83566977D01*
X143733648Y-83583400D01*
X143823917Y-83583400D01*
X143922038Y-83702962D01*
X144056614Y-83813405D01*
X144210150Y-83895472D01*
X144376746Y-83946008D01*
X144550000Y-83963072D01*
X145475000Y-83963072D01*
X145648254Y-83946008D01*
X145814850Y-83895472D01*
X145968386Y-83813405D01*
X146102962Y-83702962D01*
X146213405Y-83568386D01*
X146295472Y-83414850D01*
X146322727Y-83325000D01*
X146636928Y-83325000D01*
X146649188Y-83449482D01*
X146685498Y-83569180D01*
X146744463Y-83679494D01*
X146823815Y-83776185D01*
X146920506Y-83855537D01*
X147030820Y-83914502D01*
X147150518Y-83950812D01*
X147275000Y-83963072D01*
X147701750Y-83960000D01*
X147860500Y-83801250D01*
X147860500Y-82577000D01*
X146798750Y-82577000D01*
X146640000Y-82735750D01*
X146636928Y-83325000D01*
X146322727Y-83325000D01*
X146346008Y-83248254D01*
X146363072Y-83075000D01*
X146363072Y-81825000D01*
X146346008Y-81651746D01*
X146322728Y-81575000D01*
X146636928Y-81575000D01*
X146640000Y-82164250D01*
X146798750Y-82323000D01*
X147860500Y-82323000D01*
X147860500Y-81098750D01*
X147701750Y-80940000D01*
X147275000Y-80936928D01*
X147150518Y-80949188D01*
X147030820Y-80985498D01*
X146920506Y-81044463D01*
X146823815Y-81123815D01*
X146744463Y-81220506D01*
X146685498Y-81330820D01*
X146649188Y-81450518D01*
X146636928Y-81575000D01*
X146322728Y-81575000D01*
X146295472Y-81485150D01*
X146213405Y-81331614D01*
X146157147Y-81263063D01*
X147039649Y-80380560D01*
X147066626Y-80407537D01*
X147236144Y-80520805D01*
X147424502Y-80598826D01*
X147624461Y-80638600D01*
X147828339Y-80638600D01*
X148028298Y-80598826D01*
X148216656Y-80520805D01*
X148234662Y-80508773D01*
X148235026Y-80509137D01*
X148404544Y-80622405D01*
X148584918Y-80697119D01*
X148586399Y-80937746D01*
X148273250Y-80940000D01*
X148114500Y-81098750D01*
X148114500Y-82323000D01*
X148134500Y-82323000D01*
X148134500Y-82577000D01*
X148114500Y-82577000D01*
X148114500Y-83801250D01*
X148273250Y-83960000D01*
X148605017Y-83962388D01*
X148608557Y-84537586D01*
X148273250Y-84540000D01*
X148114500Y-84698750D01*
X148114500Y-85923000D01*
X148134500Y-85923000D01*
X148134500Y-86177000D01*
X148114500Y-86177000D01*
X148114500Y-87401250D01*
X148273250Y-87560000D01*
X148627177Y-87562548D01*
X148632571Y-88438905D01*
X148612500Y-88436928D01*
X148185750Y-88440000D01*
X148027000Y-88598750D01*
X148027000Y-89823000D01*
X148047000Y-89823000D01*
X148047000Y-90077000D01*
X148027000Y-90077000D01*
X148027000Y-91301250D01*
X148185750Y-91460000D01*
X148612500Y-91463072D01*
X148651162Y-91459264D01*
X148655883Y-92226185D01*
X136641477Y-92112461D01*
X136740476Y-91927246D01*
X136805377Y-91713298D01*
X136827291Y-91490800D01*
X136805377Y-91268301D01*
X136740476Y-91054354D01*
X136635084Y-90857178D01*
X136493249Y-90684351D01*
X136320422Y-90542516D01*
X136123246Y-90437124D01*
X135909299Y-90372223D01*
X135686800Y-90350309D01*
X135537639Y-90365000D01*
X135474770Y-90365000D01*
X135377962Y-90247038D01*
X135243386Y-90136595D01*
X135089850Y-90054528D01*
X134923254Y-90003992D01*
X134750000Y-89986928D01*
X133825000Y-89986928D01*
X133651746Y-90003992D01*
X133485150Y-90054528D01*
X133331614Y-90136595D01*
X133197038Y-90247038D01*
X133086595Y-90381614D01*
X133004528Y-90535150D01*
X132953992Y-90701746D01*
X132936928Y-90875000D01*
X132936928Y-92077395D01*
X132808310Y-92076178D01*
X132787589Y-90743439D01*
X132784764Y-90718703D01*
X132777167Y-90694994D01*
X132765091Y-90673223D01*
X132749000Y-90654225D01*
X132729511Y-90638732D01*
X132707375Y-90627339D01*
X132683441Y-90620483D01*
X132662456Y-90618745D01*
X132650812Y-90500518D01*
X132614502Y-90380820D01*
X132555537Y-90270506D01*
X132476185Y-90173815D01*
X132379494Y-90094463D01*
X132269180Y-90035498D01*
X132149482Y-89999188D01*
X132025000Y-89986928D01*
X131598250Y-89990000D01*
X131439500Y-90148750D01*
X131439500Y-91373000D01*
X131459500Y-91373000D01*
X131459500Y-91627000D01*
X131439500Y-91627000D01*
X131439500Y-91647000D01*
X131185500Y-91647000D01*
X131185500Y-91627000D01*
X131165500Y-91627000D01*
X131165500Y-91373000D01*
X131185500Y-91373000D01*
X131185500Y-90148750D01*
X131026750Y-89990000D01*
X130600000Y-89986928D01*
X130522081Y-89994602D01*
X130522182Y-89941400D01*
X142598109Y-89941400D01*
X142620023Y-90163899D01*
X142684924Y-90377847D01*
X142790316Y-90575023D01*
X142932151Y-90747849D01*
X143104977Y-90889684D01*
X143302153Y-90995076D01*
X143516101Y-91059977D01*
X143682848Y-91076400D01*
X143730672Y-91076400D01*
X143834538Y-91202962D01*
X143969114Y-91313405D01*
X144122650Y-91395472D01*
X144289246Y-91446008D01*
X144462500Y-91463072D01*
X145387500Y-91463072D01*
X145560754Y-91446008D01*
X145727350Y-91395472D01*
X145880886Y-91313405D01*
X146015462Y-91202962D01*
X146125905Y-91068386D01*
X146207972Y-90914850D01*
X146235227Y-90825000D01*
X146549428Y-90825000D01*
X146561688Y-90949482D01*
X146597998Y-91069180D01*
X146656963Y-91179494D01*
X146736315Y-91276185D01*
X146833006Y-91355537D01*
X146943320Y-91414502D01*
X147063018Y-91450812D01*
X147187500Y-91463072D01*
X147614250Y-91460000D01*
X147773000Y-91301250D01*
X147773000Y-90077000D01*
X146711250Y-90077000D01*
X146552500Y-90235750D01*
X146549428Y-90825000D01*
X146235227Y-90825000D01*
X146258508Y-90748254D01*
X146275572Y-90575000D01*
X146275572Y-90166553D01*
X146276377Y-90163899D01*
X146298291Y-89941400D01*
X146276377Y-89718901D01*
X146275572Y-89716247D01*
X146275572Y-89325000D01*
X146258508Y-89151746D01*
X146235228Y-89075000D01*
X146549428Y-89075000D01*
X146552500Y-89664250D01*
X146711250Y-89823000D01*
X147773000Y-89823000D01*
X147773000Y-88598750D01*
X147614250Y-88440000D01*
X147187500Y-88436928D01*
X147063018Y-88449188D01*
X146943320Y-88485498D01*
X146833006Y-88544463D01*
X146736315Y-88623815D01*
X146656963Y-88720506D01*
X146597998Y-88830820D01*
X146561688Y-88950518D01*
X146549428Y-89075000D01*
X146235228Y-89075000D01*
X146207972Y-88985150D01*
X146125905Y-88831614D01*
X146015462Y-88697038D01*
X145880886Y-88586595D01*
X145727350Y-88504528D01*
X145560754Y-88453992D01*
X145387500Y-88436928D01*
X144462500Y-88436928D01*
X144289246Y-88453992D01*
X144122650Y-88504528D01*
X143969114Y-88586595D01*
X143834538Y-88697038D01*
X143744787Y-88806400D01*
X143682848Y-88806400D01*
X143516101Y-88822823D01*
X143302153Y-88887724D01*
X143104977Y-88993116D01*
X142932151Y-89134951D01*
X142790316Y-89307777D01*
X142684924Y-89504953D01*
X142620023Y-89718901D01*
X142598109Y-89941400D01*
X130522182Y-89941400D01*
X130523305Y-89355518D01*
X130600000Y-89363072D01*
X131026750Y-89360000D01*
X131185500Y-89201250D01*
X131185500Y-87977000D01*
X131439500Y-87977000D01*
X131439500Y-89201250D01*
X131598250Y-89360000D01*
X132025000Y-89363072D01*
X132149482Y-89350812D01*
X132269180Y-89314502D01*
X132379494Y-89255537D01*
X132476185Y-89176185D01*
X132555537Y-89079494D01*
X132614502Y-88969180D01*
X132650812Y-88849482D01*
X132663072Y-88725000D01*
X132660000Y-88135750D01*
X132501250Y-87977000D01*
X131439500Y-87977000D01*
X131185500Y-87977000D01*
X131165500Y-87977000D01*
X131165500Y-87833200D01*
X132923909Y-87833200D01*
X132936928Y-87965386D01*
X132936928Y-88475000D01*
X132953992Y-88648254D01*
X133004528Y-88814850D01*
X133086595Y-88968386D01*
X133197038Y-89102962D01*
X133331614Y-89213405D01*
X133485150Y-89295472D01*
X133651746Y-89346008D01*
X133825000Y-89363072D01*
X134750000Y-89363072D01*
X134923254Y-89346008D01*
X135089850Y-89295472D01*
X135243386Y-89213405D01*
X135377962Y-89102962D01*
X135488405Y-88968386D01*
X135488504Y-88968200D01*
X135539352Y-88968200D01*
X135706099Y-88951777D01*
X135920047Y-88886876D01*
X136117223Y-88781484D01*
X136290049Y-88639649D01*
X136431884Y-88466823D01*
X136537276Y-88269647D01*
X136602177Y-88055699D01*
X136624091Y-87833200D01*
X136602177Y-87610701D01*
X136537276Y-87396753D01*
X136431884Y-87199577D01*
X136290049Y-87026751D01*
X136117223Y-86884916D01*
X135920047Y-86779524D01*
X135706099Y-86714623D01*
X135539352Y-86698200D01*
X135460983Y-86698200D01*
X135377962Y-86597038D01*
X135243386Y-86486595D01*
X135089850Y-86404528D01*
X134923254Y-86353992D01*
X134750000Y-86336928D01*
X133825000Y-86336928D01*
X133651746Y-86353992D01*
X133485150Y-86404528D01*
X133331614Y-86486595D01*
X133197038Y-86597038D01*
X133086595Y-86731614D01*
X133004528Y-86885150D01*
X132953992Y-87051746D01*
X132936928Y-87225000D01*
X132936928Y-87701014D01*
X132923909Y-87833200D01*
X131165500Y-87833200D01*
X131165500Y-87723000D01*
X131185500Y-87723000D01*
X131185500Y-86498750D01*
X131439500Y-86498750D01*
X131439500Y-87723000D01*
X132501250Y-87723000D01*
X132660000Y-87564250D01*
X132663072Y-86975000D01*
X132650812Y-86850518D01*
X132614502Y-86730820D01*
X132555537Y-86620506D01*
X132476185Y-86523815D01*
X132379494Y-86444463D01*
X132269180Y-86385498D01*
X132149482Y-86349188D01*
X132025000Y-86336928D01*
X131598250Y-86340000D01*
X131439500Y-86498750D01*
X131185500Y-86498750D01*
X131026750Y-86340000D01*
X130600000Y-86336928D01*
X130529074Y-86343913D01*
X130529578Y-86080600D01*
X142648909Y-86080600D01*
X142670823Y-86303099D01*
X142735724Y-86517047D01*
X142841116Y-86714223D01*
X142982951Y-86887049D01*
X143155777Y-87028884D01*
X143352953Y-87134276D01*
X143566901Y-87199177D01*
X143733648Y-87215600D01*
X143850342Y-87215600D01*
X143922038Y-87302962D01*
X144056614Y-87413405D01*
X144210150Y-87495472D01*
X144376746Y-87546008D01*
X144550000Y-87563072D01*
X145475000Y-87563072D01*
X145648254Y-87546008D01*
X145814850Y-87495472D01*
X145968386Y-87413405D01*
X146102962Y-87302962D01*
X146213405Y-87168386D01*
X146295472Y-87014850D01*
X146322727Y-86925000D01*
X146636928Y-86925000D01*
X146649188Y-87049482D01*
X146685498Y-87169180D01*
X146744463Y-87279494D01*
X146823815Y-87376185D01*
X146920506Y-87455537D01*
X147030820Y-87514502D01*
X147150518Y-87550812D01*
X147275000Y-87563072D01*
X147701750Y-87560000D01*
X147860500Y-87401250D01*
X147860500Y-86177000D01*
X146798750Y-86177000D01*
X146640000Y-86335750D01*
X146636928Y-86925000D01*
X146322727Y-86925000D01*
X146346008Y-86848254D01*
X146363072Y-86675000D01*
X146363072Y-85425000D01*
X146346008Y-85251746D01*
X146322728Y-85175000D01*
X146636928Y-85175000D01*
X146640000Y-85764250D01*
X146798750Y-85923000D01*
X147860500Y-85923000D01*
X147860500Y-84698750D01*
X147701750Y-84540000D01*
X147275000Y-84536928D01*
X147150518Y-84549188D01*
X147030820Y-84585498D01*
X146920506Y-84644463D01*
X146823815Y-84723815D01*
X146744463Y-84820506D01*
X146685498Y-84930820D01*
X146649188Y-85050518D01*
X146636928Y-85175000D01*
X146322728Y-85175000D01*
X146295472Y-85085150D01*
X146213405Y-84931614D01*
X146102962Y-84797038D01*
X145968386Y-84686595D01*
X145814850Y-84604528D01*
X145648254Y-84553992D01*
X145475000Y-84536928D01*
X144550000Y-84536928D01*
X144376746Y-84553992D01*
X144210150Y-84604528D01*
X144056614Y-84686595D01*
X143922038Y-84797038D01*
X143811595Y-84931614D01*
X143804119Y-84945600D01*
X143733648Y-84945600D01*
X143566901Y-84962023D01*
X143352953Y-85026924D01*
X143155777Y-85132316D01*
X142982951Y-85274151D01*
X142841116Y-85446977D01*
X142735724Y-85644153D01*
X142670823Y-85858101D01*
X142648909Y-86080600D01*
X130529578Y-86080600D01*
X130530670Y-85511168D01*
X130550000Y-85513072D01*
X130976750Y-85510000D01*
X131135500Y-85351250D01*
X131135500Y-84127000D01*
X131389500Y-84127000D01*
X131389500Y-85351250D01*
X131548250Y-85510000D01*
X131975000Y-85513072D01*
X132099482Y-85500812D01*
X132219180Y-85464502D01*
X132329494Y-85405537D01*
X132426185Y-85326185D01*
X132505537Y-85229494D01*
X132564502Y-85119180D01*
X132600812Y-84999482D01*
X132613072Y-84875000D01*
X132610000Y-84285750D01*
X132451250Y-84127000D01*
X131389500Y-84127000D01*
X131135500Y-84127000D01*
X131115500Y-84127000D01*
X131115500Y-83873000D01*
X131135500Y-83873000D01*
X131135500Y-82648750D01*
X131389500Y-82648750D01*
X131389500Y-83873000D01*
X132451250Y-83873000D01*
X132610000Y-83714250D01*
X132611768Y-83375000D01*
X132886928Y-83375000D01*
X132886928Y-84625000D01*
X132903992Y-84798254D01*
X132954528Y-84964850D01*
X133036595Y-85118386D01*
X133147038Y-85252962D01*
X133281614Y-85363405D01*
X133435150Y-85445472D01*
X133601746Y-85496008D01*
X133775000Y-85513072D01*
X134700000Y-85513072D01*
X134873254Y-85496008D01*
X135039850Y-85445472D01*
X135193386Y-85363405D01*
X135327962Y-85252962D01*
X135405731Y-85158200D01*
X135513952Y-85158200D01*
X135680699Y-85141777D01*
X135894647Y-85076876D01*
X136091823Y-84971484D01*
X136264649Y-84829649D01*
X136406484Y-84656823D01*
X136511876Y-84459647D01*
X136576777Y-84245699D01*
X136598691Y-84023200D01*
X136576777Y-83800701D01*
X136511876Y-83586753D01*
X136406484Y-83389577D01*
X136264649Y-83216751D01*
X136091823Y-83074916D01*
X135894647Y-82969524D01*
X135680699Y-82904623D01*
X135513952Y-82888200D01*
X135441925Y-82888200D01*
X135438405Y-82881614D01*
X135327962Y-82747038D01*
X135193386Y-82636595D01*
X135039850Y-82554528D01*
X134873254Y-82503992D01*
X134700000Y-82486928D01*
X133775000Y-82486928D01*
X133601746Y-82503992D01*
X133435150Y-82554528D01*
X133281614Y-82636595D01*
X133147038Y-82747038D01*
X133036595Y-82881614D01*
X132954528Y-83035150D01*
X132903992Y-83201746D01*
X132886928Y-83375000D01*
X132611768Y-83375000D01*
X132613072Y-83125000D01*
X132600812Y-83000518D01*
X132564502Y-82880820D01*
X132505537Y-82770506D01*
X132426185Y-82673815D01*
X132329494Y-82594463D01*
X132219180Y-82535498D01*
X132099482Y-82499188D01*
X131975000Y-82486928D01*
X131548250Y-82490000D01*
X131389500Y-82648750D01*
X131135500Y-82648750D01*
X130976750Y-82490000D01*
X130550000Y-82486928D01*
X130536461Y-82488261D01*
X130541482Y-79867110D01*
X141007683Y-79867110D01*
X142636234Y-81495663D01*
G37*
G04 #@! TD.AperFunction*
X130439937Y-74390753D02*
X130453311Y-74404127D01*
X130610217Y-74508968D01*
X130784562Y-74581184D01*
X130969645Y-74618000D01*
X131158355Y-74618000D01*
X131343438Y-74581184D01*
X131517783Y-74508968D01*
X131674689Y-74404127D01*
X131683779Y-74395037D01*
X136020408Y-74409976D01*
X135907873Y-74522511D01*
X135803032Y-74679417D01*
X135730816Y-74853762D01*
X135694000Y-75038845D01*
X135694000Y-75227555D01*
X135730816Y-75412638D01*
X135803032Y-75586983D01*
X135907873Y-75743889D01*
X136041311Y-75877327D01*
X136198217Y-75982168D01*
X136372562Y-76054384D01*
X136557645Y-76091200D01*
X136746355Y-76091200D01*
X136931438Y-76054384D01*
X137105783Y-75982168D01*
X137262689Y-75877327D01*
X137396127Y-75743889D01*
X137500968Y-75586983D01*
X137573184Y-75412638D01*
X137610000Y-75227555D01*
X137610000Y-75038845D01*
X137573184Y-74853762D01*
X137500968Y-74679417D01*
X137396127Y-74522511D01*
X137287959Y-74414343D01*
X153975216Y-74471827D01*
X153971028Y-75017322D01*
X153922911Y-75049473D01*
X153789473Y-75182911D01*
X153684632Y-75339817D01*
X153612416Y-75514162D01*
X153575600Y-75699245D01*
X153575600Y-75887955D01*
X153612416Y-76073038D01*
X153684632Y-76247383D01*
X153789473Y-76404289D01*
X153922911Y-76537727D01*
X153959169Y-76561954D01*
X153901584Y-84062400D01*
X153789473Y-84174511D01*
X153684632Y-84331417D01*
X153612416Y-84505762D01*
X153575600Y-84690845D01*
X153575600Y-84879555D01*
X153612416Y-85064638D01*
X153684632Y-85238983D01*
X153789473Y-85395889D01*
X153890570Y-85496986D01*
X153721986Y-107454928D01*
X137356469Y-107267537D01*
X137190888Y-107101955D01*
X137223298Y-106000013D01*
X137286962Y-106026384D01*
X137472045Y-106063200D01*
X137660755Y-106063200D01*
X137845838Y-106026384D01*
X138020183Y-105954168D01*
X138177089Y-105849327D01*
X138310527Y-105715889D01*
X138345192Y-105664008D01*
X138428911Y-105747727D01*
X138585817Y-105852568D01*
X138760162Y-105924784D01*
X138945245Y-105961600D01*
X139133955Y-105961600D01*
X139308880Y-105926805D01*
X139359032Y-106047883D01*
X139463873Y-106204789D01*
X139597311Y-106338227D01*
X139754217Y-106443068D01*
X139928562Y-106515284D01*
X140113645Y-106552100D01*
X140302355Y-106552100D01*
X140487438Y-106515284D01*
X140661783Y-106443068D01*
X140818689Y-106338227D01*
X140952127Y-106204789D01*
X141056968Y-106047883D01*
X141129184Y-105873538D01*
X141166000Y-105688455D01*
X141166000Y-105499745D01*
X141129184Y-105314662D01*
X141056968Y-105140317D01*
X140970458Y-105010845D01*
X141129600Y-105010845D01*
X141129600Y-105199555D01*
X141166416Y-105384638D01*
X141238632Y-105558983D01*
X141343473Y-105715889D01*
X141476911Y-105849327D01*
X141633817Y-105954168D01*
X141808162Y-106026384D01*
X141993245Y-106063200D01*
X142181955Y-106063200D01*
X142367038Y-106026384D01*
X142541383Y-105954168D01*
X142698289Y-105849327D01*
X142831727Y-105715889D01*
X142936568Y-105558983D01*
X143008784Y-105384638D01*
X143045600Y-105199555D01*
X143045600Y-105010845D01*
X143008784Y-104825762D01*
X142936568Y-104651417D01*
X142831727Y-104494511D01*
X142698289Y-104361073D01*
X142541383Y-104256232D01*
X142367038Y-104184016D01*
X142181955Y-104147200D01*
X141993245Y-104147200D01*
X141808162Y-104184016D01*
X141633817Y-104256232D01*
X141476911Y-104361073D01*
X141343473Y-104494511D01*
X141238632Y-104651417D01*
X141166416Y-104825762D01*
X141129600Y-105010845D01*
X140970458Y-105010845D01*
X140952127Y-104983411D01*
X140818689Y-104849973D01*
X140661783Y-104745132D01*
X140487438Y-104672916D01*
X140423100Y-104660118D01*
X140423100Y-104613650D01*
X140426106Y-104583128D01*
X140423100Y-104552606D01*
X140423100Y-104552598D01*
X140414107Y-104461293D01*
X140412047Y-104454500D01*
X140399408Y-104412838D01*
X140378569Y-104344140D01*
X140320859Y-104236171D01*
X140243193Y-104141535D01*
X140219475Y-104122070D01*
X139058480Y-102961076D01*
X139069478Y-102953727D01*
X139202916Y-102820289D01*
X139307757Y-102663383D01*
X139379973Y-102489038D01*
X139416789Y-102303955D01*
X139416789Y-102187097D01*
X139554800Y-102187337D01*
X139554800Y-102202355D01*
X139591616Y-102387438D01*
X139663832Y-102561783D01*
X139768673Y-102718689D01*
X139902111Y-102852127D01*
X140059017Y-102956968D01*
X140233362Y-103029184D01*
X140418445Y-103066000D01*
X140607155Y-103066000D01*
X140792238Y-103029184D01*
X140966583Y-102956968D01*
X141123489Y-102852127D01*
X141173417Y-102802199D01*
X141329017Y-102906168D01*
X141503362Y-102978384D01*
X141688445Y-103015200D01*
X141877155Y-103015200D01*
X142062238Y-102978384D01*
X142138556Y-102946772D01*
X142155873Y-102972689D01*
X142289311Y-103106127D01*
X142446217Y-103210968D01*
X142620562Y-103283184D01*
X142805645Y-103320000D01*
X142994355Y-103320000D01*
X143179438Y-103283184D01*
X143353783Y-103210968D01*
X143510689Y-103106127D01*
X143644127Y-102972689D01*
X143748968Y-102815783D01*
X143821184Y-102641438D01*
X143858000Y-102456355D01*
X143858000Y-102267645D01*
X143843507Y-102194783D01*
X145561128Y-102197765D01*
X145529320Y-102357673D01*
X145529320Y-102546383D01*
X145566136Y-102731466D01*
X145638352Y-102905811D01*
X145743193Y-103062717D01*
X145876631Y-103196155D01*
X146033537Y-103300996D01*
X146207882Y-103373212D01*
X146392965Y-103410028D01*
X146581675Y-103410028D01*
X146766758Y-103373212D01*
X146941103Y-103300996D01*
X147098009Y-103196155D01*
X147231447Y-103062717D01*
X147336288Y-102905811D01*
X147408504Y-102731466D01*
X147445320Y-102546383D01*
X147445320Y-102357673D01*
X147414152Y-102200982D01*
X151917313Y-102208800D01*
X151927069Y-102207856D01*
X151936454Y-102205027D01*
X151945106Y-102200422D01*
X151952694Y-102194217D01*
X151958925Y-102186651D01*
X151963561Y-102178014D01*
X151966422Y-102168640D01*
X151967400Y-102158693D01*
X151967262Y-102094146D01*
X152091783Y-102042568D01*
X152248689Y-101937727D01*
X152382127Y-101804289D01*
X152486968Y-101647383D01*
X152559184Y-101473038D01*
X152596000Y-101287955D01*
X152596000Y-101099245D01*
X152559184Y-100914162D01*
X152486968Y-100739817D01*
X152382127Y-100582911D01*
X152248689Y-100449473D01*
X152091783Y-100344632D01*
X151963419Y-100291462D01*
X151951895Y-94886911D01*
X152091783Y-94828968D01*
X152248689Y-94724127D01*
X152382127Y-94590689D01*
X152486968Y-94433783D01*
X152559184Y-94259438D01*
X152596000Y-94074355D01*
X152596000Y-93885645D01*
X152559184Y-93700562D01*
X152486968Y-93526217D01*
X152382127Y-93369311D01*
X152248689Y-93235873D01*
X152091783Y-93131032D01*
X151948024Y-93071485D01*
X151933290Y-86161167D01*
X151935600Y-86149555D01*
X151935600Y-85960845D01*
X151932833Y-85946936D01*
X151925681Y-82592619D01*
X151935600Y-82542755D01*
X151935600Y-82354045D01*
X151925060Y-82301056D01*
X151918347Y-79152808D01*
X152091783Y-79080968D01*
X152248689Y-78976127D01*
X152382127Y-78842689D01*
X152486968Y-78685783D01*
X152559184Y-78511438D01*
X152596000Y-78326355D01*
X152596000Y-78137645D01*
X152559184Y-77952562D01*
X152486968Y-77778217D01*
X152382127Y-77621311D01*
X152248689Y-77487873D01*
X152091783Y-77383032D01*
X151917438Y-77310816D01*
X151732355Y-77274000D01*
X151543645Y-77274000D01*
X151358562Y-77310816D01*
X151184217Y-77383032D01*
X151027311Y-77487873D01*
X150893873Y-77621311D01*
X150789032Y-77778217D01*
X150716816Y-77952562D01*
X150680000Y-78137645D01*
X150680000Y-78280401D01*
X147853350Y-78272782D01*
X148206133Y-77920000D01*
X148379555Y-77920000D01*
X148564638Y-77883184D01*
X148738983Y-77810968D01*
X148895889Y-77706127D01*
X149029327Y-77572689D01*
X149134168Y-77415783D01*
X149206384Y-77241438D01*
X149243200Y-77056355D01*
X149243200Y-76867645D01*
X149206384Y-76682562D01*
X149134168Y-76508217D01*
X149029327Y-76351311D01*
X148895889Y-76217873D01*
X148738983Y-76113032D01*
X148564638Y-76040816D01*
X148379555Y-76004000D01*
X148190845Y-76004000D01*
X148005762Y-76040816D01*
X147831417Y-76113032D01*
X147777200Y-76149259D01*
X147722983Y-76113032D01*
X147548638Y-76040816D01*
X147363555Y-76004000D01*
X147174845Y-76004000D01*
X146989762Y-76040816D01*
X146815417Y-76113032D01*
X146658511Y-76217873D01*
X146525073Y-76351311D01*
X146420232Y-76508217D01*
X146348016Y-76682562D01*
X146311200Y-76867645D01*
X146311200Y-77041066D01*
X145086942Y-78265326D01*
X141894108Y-78256720D01*
X141803035Y-78229093D01*
X141711730Y-78220100D01*
X141711722Y-78220100D01*
X141681200Y-78217094D01*
X141650678Y-78220100D01*
X129214922Y-78220100D01*
X129184400Y-78217094D01*
X129153878Y-78220100D01*
X129153870Y-78220100D01*
X129131345Y-78222319D01*
X128308235Y-78220100D01*
X128298478Y-78221035D01*
X128289090Y-78223855D01*
X128280434Y-78228452D01*
X128272840Y-78234649D01*
X128266602Y-78242210D01*
X128261958Y-78250841D01*
X128259087Y-78260213D01*
X128258100Y-78270063D01*
X128257636Y-78889432D01*
X127902925Y-79244143D01*
X127879208Y-79263607D01*
X127829512Y-79324162D01*
X127801542Y-79358243D01*
X127743832Y-79466212D01*
X127708293Y-79583365D01*
X127696294Y-79705200D01*
X127699301Y-79735732D01*
X127699300Y-94128967D01*
X127098168Y-94730100D01*
X124635635Y-94730100D01*
X124625818Y-90260957D01*
X124719741Y-90323714D01*
X124894086Y-90395930D01*
X125079169Y-90432746D01*
X125267879Y-90432746D01*
X125452962Y-90395930D01*
X125627307Y-90323714D01*
X125784213Y-90218873D01*
X125873761Y-90129325D01*
X126042045Y-90162800D01*
X126230755Y-90162800D01*
X126415838Y-90125984D01*
X126590183Y-90053768D01*
X126747089Y-89948927D01*
X126880527Y-89815489D01*
X126985368Y-89658583D01*
X127057584Y-89484238D01*
X127094400Y-89299155D01*
X127094400Y-89110445D01*
X127057584Y-88925362D01*
X126985368Y-88751017D01*
X126880527Y-88594111D01*
X126747089Y-88460673D01*
X126590183Y-88355832D01*
X126415838Y-88283616D01*
X126230755Y-88246800D01*
X126042045Y-88246800D01*
X125856962Y-88283616D01*
X125682617Y-88355832D01*
X125525711Y-88460673D01*
X125436163Y-88550221D01*
X125267879Y-88516746D01*
X125079169Y-88516746D01*
X124894086Y-88553562D01*
X124719741Y-88625778D01*
X124622369Y-88690840D01*
X124601089Y-79003355D01*
X124641217Y-79030168D01*
X124815562Y-79102384D01*
X125000645Y-79139200D01*
X125189355Y-79139200D01*
X125374438Y-79102384D01*
X125548783Y-79030168D01*
X125705689Y-78925327D01*
X125839127Y-78791889D01*
X125943968Y-78634983D01*
X126016184Y-78460638D01*
X126053000Y-78275555D01*
X126053000Y-78086845D01*
X126016184Y-77901762D01*
X125943968Y-77727417D01*
X125839127Y-77570511D01*
X125705689Y-77437073D01*
X125548783Y-77332232D01*
X125374438Y-77260016D01*
X125189355Y-77223200D01*
X125000645Y-77223200D01*
X124815562Y-77260016D01*
X124641217Y-77332232D01*
X124597482Y-77361455D01*
X124591386Y-74586300D01*
X129407878Y-74586300D01*
X129438400Y-74589306D01*
X129468922Y-74586300D01*
X129468930Y-74586300D01*
X129560235Y-74577307D01*
X129677388Y-74541769D01*
X129785357Y-74484059D01*
X129879993Y-74406393D01*
X129894371Y-74388873D01*
X130439937Y-74390753D01*
G04 #@! TA.AperFunction,Conductor*
G36*
X130439937Y-74390753D02*
G01*
X130453311Y-74404127D01*
X130610217Y-74508968D01*
X130784562Y-74581184D01*
X130969645Y-74618000D01*
X131158355Y-74618000D01*
X131343438Y-74581184D01*
X131517783Y-74508968D01*
X131674689Y-74404127D01*
X131683779Y-74395037D01*
X136020408Y-74409976D01*
X135907873Y-74522511D01*
X135803032Y-74679417D01*
X135730816Y-74853762D01*
X135694000Y-75038845D01*
X135694000Y-75227555D01*
X135730816Y-75412638D01*
X135803032Y-75586983D01*
X135907873Y-75743889D01*
X136041311Y-75877327D01*
X136198217Y-75982168D01*
X136372562Y-76054384D01*
X136557645Y-76091200D01*
X136746355Y-76091200D01*
X136931438Y-76054384D01*
X137105783Y-75982168D01*
X137262689Y-75877327D01*
X137396127Y-75743889D01*
X137500968Y-75586983D01*
X137573184Y-75412638D01*
X137610000Y-75227555D01*
X137610000Y-75038845D01*
X137573184Y-74853762D01*
X137500968Y-74679417D01*
X137396127Y-74522511D01*
X137287959Y-74414343D01*
X153975216Y-74471827D01*
X153971028Y-75017322D01*
X153922911Y-75049473D01*
X153789473Y-75182911D01*
X153684632Y-75339817D01*
X153612416Y-75514162D01*
X153575600Y-75699245D01*
X153575600Y-75887955D01*
X153612416Y-76073038D01*
X153684632Y-76247383D01*
X153789473Y-76404289D01*
X153922911Y-76537727D01*
X153959169Y-76561954D01*
X153901584Y-84062400D01*
X153789473Y-84174511D01*
X153684632Y-84331417D01*
X153612416Y-84505762D01*
X153575600Y-84690845D01*
X153575600Y-84879555D01*
X153612416Y-85064638D01*
X153684632Y-85238983D01*
X153789473Y-85395889D01*
X153890570Y-85496986D01*
X153721986Y-107454928D01*
X137356469Y-107267537D01*
X137190888Y-107101955D01*
X137223298Y-106000013D01*
X137286962Y-106026384D01*
X137472045Y-106063200D01*
X137660755Y-106063200D01*
X137845838Y-106026384D01*
X138020183Y-105954168D01*
X138177089Y-105849327D01*
X138310527Y-105715889D01*
X138345192Y-105664008D01*
X138428911Y-105747727D01*
X138585817Y-105852568D01*
X138760162Y-105924784D01*
X138945245Y-105961600D01*
X139133955Y-105961600D01*
X139308880Y-105926805D01*
X139359032Y-106047883D01*
X139463873Y-106204789D01*
X139597311Y-106338227D01*
X139754217Y-106443068D01*
X139928562Y-106515284D01*
X140113645Y-106552100D01*
X140302355Y-106552100D01*
X140487438Y-106515284D01*
X140661783Y-106443068D01*
X140818689Y-106338227D01*
X140952127Y-106204789D01*
X141056968Y-106047883D01*
X141129184Y-105873538D01*
X141166000Y-105688455D01*
X141166000Y-105499745D01*
X141129184Y-105314662D01*
X141056968Y-105140317D01*
X140970458Y-105010845D01*
X141129600Y-105010845D01*
X141129600Y-105199555D01*
X141166416Y-105384638D01*
X141238632Y-105558983D01*
X141343473Y-105715889D01*
X141476911Y-105849327D01*
X141633817Y-105954168D01*
X141808162Y-106026384D01*
X141993245Y-106063200D01*
X142181955Y-106063200D01*
X142367038Y-106026384D01*
X142541383Y-105954168D01*
X142698289Y-105849327D01*
X142831727Y-105715889D01*
X142936568Y-105558983D01*
X143008784Y-105384638D01*
X143045600Y-105199555D01*
X143045600Y-105010845D01*
X143008784Y-104825762D01*
X142936568Y-104651417D01*
X142831727Y-104494511D01*
X142698289Y-104361073D01*
X142541383Y-104256232D01*
X142367038Y-104184016D01*
X142181955Y-104147200D01*
X141993245Y-104147200D01*
X141808162Y-104184016D01*
X141633817Y-104256232D01*
X141476911Y-104361073D01*
X141343473Y-104494511D01*
X141238632Y-104651417D01*
X141166416Y-104825762D01*
X141129600Y-105010845D01*
X140970458Y-105010845D01*
X140952127Y-104983411D01*
X140818689Y-104849973D01*
X140661783Y-104745132D01*
X140487438Y-104672916D01*
X140423100Y-104660118D01*
X140423100Y-104613650D01*
X140426106Y-104583128D01*
X140423100Y-104552606D01*
X140423100Y-104552598D01*
X140414107Y-104461293D01*
X140412047Y-104454500D01*
X140399408Y-104412838D01*
X140378569Y-104344140D01*
X140320859Y-104236171D01*
X140243193Y-104141535D01*
X140219475Y-104122070D01*
X139058480Y-102961076D01*
X139069478Y-102953727D01*
X139202916Y-102820289D01*
X139307757Y-102663383D01*
X139379973Y-102489038D01*
X139416789Y-102303955D01*
X139416789Y-102187097D01*
X139554800Y-102187337D01*
X139554800Y-102202355D01*
X139591616Y-102387438D01*
X139663832Y-102561783D01*
X139768673Y-102718689D01*
X139902111Y-102852127D01*
X140059017Y-102956968D01*
X140233362Y-103029184D01*
X140418445Y-103066000D01*
X140607155Y-103066000D01*
X140792238Y-103029184D01*
X140966583Y-102956968D01*
X141123489Y-102852127D01*
X141173417Y-102802199D01*
X141329017Y-102906168D01*
X141503362Y-102978384D01*
X141688445Y-103015200D01*
X141877155Y-103015200D01*
X142062238Y-102978384D01*
X142138556Y-102946772D01*
X142155873Y-102972689D01*
X142289311Y-103106127D01*
X142446217Y-103210968D01*
X142620562Y-103283184D01*
X142805645Y-103320000D01*
X142994355Y-103320000D01*
X143179438Y-103283184D01*
X143353783Y-103210968D01*
X143510689Y-103106127D01*
X143644127Y-102972689D01*
X143748968Y-102815783D01*
X143821184Y-102641438D01*
X143858000Y-102456355D01*
X143858000Y-102267645D01*
X143843507Y-102194783D01*
X145561128Y-102197765D01*
X145529320Y-102357673D01*
X145529320Y-102546383D01*
X145566136Y-102731466D01*
X145638352Y-102905811D01*
X145743193Y-103062717D01*
X145876631Y-103196155D01*
X146033537Y-103300996D01*
X146207882Y-103373212D01*
X146392965Y-103410028D01*
X146581675Y-103410028D01*
X146766758Y-103373212D01*
X146941103Y-103300996D01*
X147098009Y-103196155D01*
X147231447Y-103062717D01*
X147336288Y-102905811D01*
X147408504Y-102731466D01*
X147445320Y-102546383D01*
X147445320Y-102357673D01*
X147414152Y-102200982D01*
X151917313Y-102208800D01*
X151927069Y-102207856D01*
X151936454Y-102205027D01*
X151945106Y-102200422D01*
X151952694Y-102194217D01*
X151958925Y-102186651D01*
X151963561Y-102178014D01*
X151966422Y-102168640D01*
X151967400Y-102158693D01*
X151967262Y-102094146D01*
X152091783Y-102042568D01*
X152248689Y-101937727D01*
X152382127Y-101804289D01*
X152486968Y-101647383D01*
X152559184Y-101473038D01*
X152596000Y-101287955D01*
X152596000Y-101099245D01*
X152559184Y-100914162D01*
X152486968Y-100739817D01*
X152382127Y-100582911D01*
X152248689Y-100449473D01*
X152091783Y-100344632D01*
X151963419Y-100291462D01*
X151951895Y-94886911D01*
X152091783Y-94828968D01*
X152248689Y-94724127D01*
X152382127Y-94590689D01*
X152486968Y-94433783D01*
X152559184Y-94259438D01*
X152596000Y-94074355D01*
X152596000Y-93885645D01*
X152559184Y-93700562D01*
X152486968Y-93526217D01*
X152382127Y-93369311D01*
X152248689Y-93235873D01*
X152091783Y-93131032D01*
X151948024Y-93071485D01*
X151933290Y-86161167D01*
X151935600Y-86149555D01*
X151935600Y-85960845D01*
X151932833Y-85946936D01*
X151925681Y-82592619D01*
X151935600Y-82542755D01*
X151935600Y-82354045D01*
X151925060Y-82301056D01*
X151918347Y-79152808D01*
X152091783Y-79080968D01*
X152248689Y-78976127D01*
X152382127Y-78842689D01*
X152486968Y-78685783D01*
X152559184Y-78511438D01*
X152596000Y-78326355D01*
X152596000Y-78137645D01*
X152559184Y-77952562D01*
X152486968Y-77778217D01*
X152382127Y-77621311D01*
X152248689Y-77487873D01*
X152091783Y-77383032D01*
X151917438Y-77310816D01*
X151732355Y-77274000D01*
X151543645Y-77274000D01*
X151358562Y-77310816D01*
X151184217Y-77383032D01*
X151027311Y-77487873D01*
X150893873Y-77621311D01*
X150789032Y-77778217D01*
X150716816Y-77952562D01*
X150680000Y-78137645D01*
X150680000Y-78280401D01*
X147853350Y-78272782D01*
X148206133Y-77920000D01*
X148379555Y-77920000D01*
X148564638Y-77883184D01*
X148738983Y-77810968D01*
X148895889Y-77706127D01*
X149029327Y-77572689D01*
X149134168Y-77415783D01*
X149206384Y-77241438D01*
X149243200Y-77056355D01*
X149243200Y-76867645D01*
X149206384Y-76682562D01*
X149134168Y-76508217D01*
X149029327Y-76351311D01*
X148895889Y-76217873D01*
X148738983Y-76113032D01*
X148564638Y-76040816D01*
X148379555Y-76004000D01*
X148190845Y-76004000D01*
X148005762Y-76040816D01*
X147831417Y-76113032D01*
X147777200Y-76149259D01*
X147722983Y-76113032D01*
X147548638Y-76040816D01*
X147363555Y-76004000D01*
X147174845Y-76004000D01*
X146989762Y-76040816D01*
X146815417Y-76113032D01*
X146658511Y-76217873D01*
X146525073Y-76351311D01*
X146420232Y-76508217D01*
X146348016Y-76682562D01*
X146311200Y-76867645D01*
X146311200Y-77041066D01*
X145086942Y-78265326D01*
X141894108Y-78256720D01*
X141803035Y-78229093D01*
X141711730Y-78220100D01*
X141711722Y-78220100D01*
X141681200Y-78217094D01*
X141650678Y-78220100D01*
X129214922Y-78220100D01*
X129184400Y-78217094D01*
X129153878Y-78220100D01*
X129153870Y-78220100D01*
X129131345Y-78222319D01*
X128308235Y-78220100D01*
X128298478Y-78221035D01*
X128289090Y-78223855D01*
X128280434Y-78228452D01*
X128272840Y-78234649D01*
X128266602Y-78242210D01*
X128261958Y-78250841D01*
X128259087Y-78260213D01*
X128258100Y-78270063D01*
X128257636Y-78889432D01*
X127902925Y-79244143D01*
X127879208Y-79263607D01*
X127829512Y-79324162D01*
X127801542Y-79358243D01*
X127743832Y-79466212D01*
X127708293Y-79583365D01*
X127696294Y-79705200D01*
X127699301Y-79735732D01*
X127699300Y-94128967D01*
X127098168Y-94730100D01*
X124635635Y-94730100D01*
X124625818Y-90260957D01*
X124719741Y-90323714D01*
X124894086Y-90395930D01*
X125079169Y-90432746D01*
X125267879Y-90432746D01*
X125452962Y-90395930D01*
X125627307Y-90323714D01*
X125784213Y-90218873D01*
X125873761Y-90129325D01*
X126042045Y-90162800D01*
X126230755Y-90162800D01*
X126415838Y-90125984D01*
X126590183Y-90053768D01*
X126747089Y-89948927D01*
X126880527Y-89815489D01*
X126985368Y-89658583D01*
X127057584Y-89484238D01*
X127094400Y-89299155D01*
X127094400Y-89110445D01*
X127057584Y-88925362D01*
X126985368Y-88751017D01*
X126880527Y-88594111D01*
X126747089Y-88460673D01*
X126590183Y-88355832D01*
X126415838Y-88283616D01*
X126230755Y-88246800D01*
X126042045Y-88246800D01*
X125856962Y-88283616D01*
X125682617Y-88355832D01*
X125525711Y-88460673D01*
X125436163Y-88550221D01*
X125267879Y-88516746D01*
X125079169Y-88516746D01*
X124894086Y-88553562D01*
X124719741Y-88625778D01*
X124622369Y-88690840D01*
X124601089Y-79003355D01*
X124641217Y-79030168D01*
X124815562Y-79102384D01*
X125000645Y-79139200D01*
X125189355Y-79139200D01*
X125374438Y-79102384D01*
X125548783Y-79030168D01*
X125705689Y-78925327D01*
X125839127Y-78791889D01*
X125943968Y-78634983D01*
X126016184Y-78460638D01*
X126053000Y-78275555D01*
X126053000Y-78086845D01*
X126016184Y-77901762D01*
X125943968Y-77727417D01*
X125839127Y-77570511D01*
X125705689Y-77437073D01*
X125548783Y-77332232D01*
X125374438Y-77260016D01*
X125189355Y-77223200D01*
X125000645Y-77223200D01*
X124815562Y-77260016D01*
X124641217Y-77332232D01*
X124597482Y-77361455D01*
X124591386Y-74586300D01*
X129407878Y-74586300D01*
X129438400Y-74589306D01*
X129468922Y-74586300D01*
X129468930Y-74586300D01*
X129560235Y-74577307D01*
X129677388Y-74541769D01*
X129785357Y-74484059D01*
X129879993Y-74406393D01*
X129894371Y-74388873D01*
X130439937Y-74390753D01*
G37*
G04 #@! TD.AperFunction*
X122696632Y-101984417D02*
X122624416Y-102158762D01*
X122587600Y-102343845D01*
X122587600Y-102532555D01*
X122624416Y-102717638D01*
X122696632Y-102891983D01*
X122801473Y-103048889D01*
X122934911Y-103182327D01*
X123091817Y-103287168D01*
X123266162Y-103359384D01*
X123451245Y-103396200D01*
X123639955Y-103396200D01*
X123825038Y-103359384D01*
X123999383Y-103287168D01*
X124156289Y-103182327D01*
X124161200Y-103177416D01*
X124161200Y-103298481D01*
X124158017Y-103330800D01*
X124161200Y-103363118D01*
X124170721Y-103459789D01*
X124208347Y-103583823D01*
X124269446Y-103698133D01*
X124351673Y-103798327D01*
X124376780Y-103818932D01*
X125353239Y-104795391D01*
X125312288Y-120581547D01*
X108978229Y-120834005D01*
X108969182Y-117355245D01*
X113799200Y-117355245D01*
X113799200Y-117543955D01*
X113836016Y-117729038D01*
X113908232Y-117903383D01*
X114013073Y-118060289D01*
X114146511Y-118193727D01*
X114303417Y-118298568D01*
X114477762Y-118370784D01*
X114662845Y-118407600D01*
X114851555Y-118407600D01*
X115036638Y-118370784D01*
X115210983Y-118298568D01*
X115367889Y-118193727D01*
X115501327Y-118060289D01*
X115606168Y-117903383D01*
X115678384Y-117729038D01*
X115715200Y-117543955D01*
X115715200Y-117355245D01*
X115678384Y-117170162D01*
X115606168Y-116995817D01*
X115501327Y-116838911D01*
X115367889Y-116705473D01*
X115210983Y-116600632D01*
X115036638Y-116528416D01*
X114851555Y-116491600D01*
X114662845Y-116491600D01*
X114477762Y-116528416D01*
X114303417Y-116600632D01*
X114146511Y-116705473D01*
X114013073Y-116838911D01*
X113908232Y-116995817D01*
X113836016Y-117170162D01*
X113799200Y-117355245D01*
X108969182Y-117355245D01*
X108961652Y-114459645D01*
X116136000Y-114459645D01*
X116136000Y-114648355D01*
X116172816Y-114833438D01*
X116245032Y-115007783D01*
X116349873Y-115164689D01*
X116483311Y-115298127D01*
X116640217Y-115402968D01*
X116814562Y-115475184D01*
X116999645Y-115512000D01*
X117188355Y-115512000D01*
X117373438Y-115475184D01*
X117547783Y-115402968D01*
X117704689Y-115298127D01*
X117838127Y-115164689D01*
X117942968Y-115007783D01*
X118015184Y-114833438D01*
X118052000Y-114648355D01*
X118052000Y-114459645D01*
X118015184Y-114274562D01*
X117942968Y-114100217D01*
X117838127Y-113943311D01*
X117704689Y-113809873D01*
X117547783Y-113705032D01*
X117373438Y-113632816D01*
X117188355Y-113596000D01*
X116999645Y-113596000D01*
X116814562Y-113632816D01*
X116640217Y-113705032D01*
X116483311Y-113809873D01*
X116349873Y-113943311D01*
X116245032Y-114100217D01*
X116172816Y-114274562D01*
X116136000Y-114459645D01*
X108961652Y-114459645D01*
X108958085Y-113088045D01*
X119412600Y-113088045D01*
X119412600Y-113276755D01*
X119449416Y-113461838D01*
X119521632Y-113636183D01*
X119626473Y-113793089D01*
X119759911Y-113926527D01*
X119916817Y-114031368D01*
X120091162Y-114103584D01*
X120276245Y-114140400D01*
X120464955Y-114140400D01*
X120650038Y-114103584D01*
X120824383Y-114031368D01*
X120981289Y-113926527D01*
X121114727Y-113793089D01*
X121219568Y-113636183D01*
X121291784Y-113461838D01*
X121328600Y-113276755D01*
X121328600Y-113088045D01*
X121291784Y-112902962D01*
X121219568Y-112728617D01*
X121114727Y-112571711D01*
X120981289Y-112438273D01*
X120824383Y-112333432D01*
X120650038Y-112261216D01*
X120464955Y-112224400D01*
X120276245Y-112224400D01*
X120091162Y-112261216D01*
X119916817Y-112333432D01*
X119759911Y-112438273D01*
X119626473Y-112571711D01*
X119521632Y-112728617D01*
X119449416Y-112902962D01*
X119412600Y-113088045D01*
X108958085Y-113088045D01*
X108955509Y-112097445D01*
X123222600Y-112097445D01*
X123222600Y-112286155D01*
X123259416Y-112471238D01*
X123331632Y-112645583D01*
X123436473Y-112802489D01*
X123569911Y-112935927D01*
X123726817Y-113040768D01*
X123901162Y-113112984D01*
X124086245Y-113149800D01*
X124274955Y-113149800D01*
X124460038Y-113112984D01*
X124634383Y-113040768D01*
X124791289Y-112935927D01*
X124924727Y-112802489D01*
X125029568Y-112645583D01*
X125101784Y-112471238D01*
X125138600Y-112286155D01*
X125138600Y-112097445D01*
X125101784Y-111912362D01*
X125029568Y-111738017D01*
X124924727Y-111581111D01*
X124791289Y-111447673D01*
X124634383Y-111342832D01*
X124460038Y-111270616D01*
X124274955Y-111233800D01*
X124086245Y-111233800D01*
X123901162Y-111270616D01*
X123726817Y-111342832D01*
X123569911Y-111447673D01*
X123436473Y-111581111D01*
X123331632Y-111738017D01*
X123259416Y-111912362D01*
X123222600Y-112097445D01*
X108955509Y-112097445D01*
X108945203Y-108135045D01*
X112808600Y-108135045D01*
X112808600Y-108323755D01*
X112845416Y-108508838D01*
X112917632Y-108683183D01*
X113022473Y-108840089D01*
X113155911Y-108973527D01*
X113312817Y-109078368D01*
X113332067Y-109086341D01*
X113181311Y-109187073D01*
X113047873Y-109320511D01*
X112943032Y-109477417D01*
X112870816Y-109651762D01*
X112834000Y-109836845D01*
X112834000Y-110025555D01*
X112870816Y-110210638D01*
X112943032Y-110384983D01*
X113047873Y-110541889D01*
X113181311Y-110675327D01*
X113338217Y-110780168D01*
X113512562Y-110852384D01*
X113697645Y-110889200D01*
X113886355Y-110889200D01*
X114071438Y-110852384D01*
X114245783Y-110780168D01*
X114402689Y-110675327D01*
X114536127Y-110541889D01*
X114640968Y-110384983D01*
X114713184Y-110210638D01*
X114750000Y-110025555D01*
X114750000Y-109836845D01*
X114713184Y-109651762D01*
X114640968Y-109477417D01*
X114536127Y-109320511D01*
X114402689Y-109187073D01*
X114245783Y-109082232D01*
X114226533Y-109074259D01*
X114377289Y-108973527D01*
X114510727Y-108840089D01*
X114615568Y-108683183D01*
X114687784Y-108508838D01*
X114724600Y-108323755D01*
X114724600Y-108135045D01*
X114687784Y-107949962D01*
X114615568Y-107775617D01*
X114510727Y-107618711D01*
X114377289Y-107485273D01*
X114220383Y-107380432D01*
X114046038Y-107308216D01*
X113860955Y-107271400D01*
X113672245Y-107271400D01*
X113487162Y-107308216D01*
X113312817Y-107380432D01*
X113155911Y-107485273D01*
X113022473Y-107618711D01*
X112917632Y-107775617D01*
X112845416Y-107949962D01*
X112808600Y-108135045D01*
X108945203Y-108135045D01*
X108941372Y-106661845D01*
X114180200Y-106661845D01*
X114180200Y-106850555D01*
X114217016Y-107035638D01*
X114289232Y-107209983D01*
X114394073Y-107366889D01*
X114527511Y-107500327D01*
X114684417Y-107605168D01*
X114858762Y-107677384D01*
X115043845Y-107714200D01*
X115232555Y-107714200D01*
X115417638Y-107677384D01*
X115591983Y-107605168D01*
X115748889Y-107500327D01*
X115882327Y-107366889D01*
X115987168Y-107209983D01*
X116059384Y-107035638D01*
X116096200Y-106850555D01*
X116096200Y-106661845D01*
X116091148Y-106636445D01*
X117126600Y-106636445D01*
X117126600Y-106825155D01*
X117163416Y-107010238D01*
X117235632Y-107184583D01*
X117340473Y-107341489D01*
X117473911Y-107474927D01*
X117630817Y-107579768D01*
X117805162Y-107651984D01*
X117990245Y-107688800D01*
X118178955Y-107688800D01*
X118364038Y-107651984D01*
X118538383Y-107579768D01*
X118643526Y-107509514D01*
X118625200Y-107601645D01*
X118625200Y-107790355D01*
X118662016Y-107975438D01*
X118734232Y-108149783D01*
X118839073Y-108306689D01*
X118972511Y-108440127D01*
X119129417Y-108544968D01*
X119303762Y-108617184D01*
X119488845Y-108654000D01*
X119677555Y-108654000D01*
X119862638Y-108617184D01*
X120036983Y-108544968D01*
X120193889Y-108440127D01*
X120327327Y-108306689D01*
X120432168Y-108149783D01*
X120504384Y-107975438D01*
X120541200Y-107790355D01*
X120541200Y-107601645D01*
X120504384Y-107416562D01*
X120432168Y-107242217D01*
X120327327Y-107085311D01*
X120193889Y-106951873D01*
X120036983Y-106847032D01*
X119862638Y-106774816D01*
X119677555Y-106738000D01*
X119488845Y-106738000D01*
X119303762Y-106774816D01*
X119129417Y-106847032D01*
X119024274Y-106917286D01*
X119042600Y-106825155D01*
X119042600Y-106636445D01*
X119005784Y-106451362D01*
X118933568Y-106277017D01*
X118828727Y-106120111D01*
X118695289Y-105986673D01*
X118538383Y-105881832D01*
X118364038Y-105809616D01*
X118178955Y-105772800D01*
X117990245Y-105772800D01*
X117805162Y-105809616D01*
X117630817Y-105881832D01*
X117473911Y-105986673D01*
X117340473Y-106120111D01*
X117235632Y-106277017D01*
X117163416Y-106451362D01*
X117126600Y-106636445D01*
X116091148Y-106636445D01*
X116059384Y-106476762D01*
X115987168Y-106302417D01*
X115882327Y-106145511D01*
X115748889Y-106012073D01*
X115591983Y-105907232D01*
X115417638Y-105835016D01*
X115232555Y-105798200D01*
X115043845Y-105798200D01*
X114858762Y-105835016D01*
X114684417Y-105907232D01*
X114527511Y-106012073D01*
X114394073Y-106145511D01*
X114289232Y-106302417D01*
X114217016Y-106476762D01*
X114180200Y-106661845D01*
X108941372Y-106661845D01*
X108933510Y-103639245D01*
X110319400Y-103639245D01*
X110319400Y-103827955D01*
X110356216Y-104013038D01*
X110428432Y-104187383D01*
X110533273Y-104344289D01*
X110666711Y-104477727D01*
X110823617Y-104582568D01*
X110997962Y-104654784D01*
X111183045Y-104691600D01*
X111371755Y-104691600D01*
X111556838Y-104654784D01*
X111731183Y-104582568D01*
X111888089Y-104477727D01*
X112021527Y-104344289D01*
X112126368Y-104187383D01*
X112198584Y-104013038D01*
X112232517Y-103842445D01*
X121216000Y-103842445D01*
X121216000Y-104031155D01*
X121252816Y-104216238D01*
X121325032Y-104390583D01*
X121429873Y-104547489D01*
X121563311Y-104680927D01*
X121720217Y-104785768D01*
X121894562Y-104857984D01*
X122079645Y-104894800D01*
X122268355Y-104894800D01*
X122453438Y-104857984D01*
X122627783Y-104785768D01*
X122784689Y-104680927D01*
X122918127Y-104547489D01*
X123022968Y-104390583D01*
X123095184Y-104216238D01*
X123132000Y-104031155D01*
X123132000Y-103842445D01*
X123095184Y-103657362D01*
X123022968Y-103483017D01*
X122918127Y-103326111D01*
X122784689Y-103192673D01*
X122627783Y-103087832D01*
X122453438Y-103015616D01*
X122268355Y-102978800D01*
X122079645Y-102978800D01*
X121894562Y-103015616D01*
X121720217Y-103087832D01*
X121563311Y-103192673D01*
X121429873Y-103326111D01*
X121325032Y-103483017D01*
X121252816Y-103657362D01*
X121216000Y-103842445D01*
X112232517Y-103842445D01*
X112235400Y-103827955D01*
X112235400Y-103639245D01*
X112198584Y-103454162D01*
X112126368Y-103279817D01*
X112021527Y-103122911D01*
X111888089Y-102989473D01*
X111731183Y-102884632D01*
X111556838Y-102812416D01*
X111371755Y-102775600D01*
X111183045Y-102775600D01*
X110997962Y-102812416D01*
X110823617Y-102884632D01*
X110666711Y-102989473D01*
X110533273Y-103122911D01*
X110428432Y-103279817D01*
X110356216Y-103454162D01*
X110319400Y-103639245D01*
X108933510Y-103639245D01*
X108929181Y-101975000D01*
X122702924Y-101975000D01*
X122696632Y-101984417D01*
G04 #@! TA.AperFunction,Conductor*
G36*
X122696632Y-101984417D02*
G01*
X122624416Y-102158762D01*
X122587600Y-102343845D01*
X122587600Y-102532555D01*
X122624416Y-102717638D01*
X122696632Y-102891983D01*
X122801473Y-103048889D01*
X122934911Y-103182327D01*
X123091817Y-103287168D01*
X123266162Y-103359384D01*
X123451245Y-103396200D01*
X123639955Y-103396200D01*
X123825038Y-103359384D01*
X123999383Y-103287168D01*
X124156289Y-103182327D01*
X124161200Y-103177416D01*
X124161200Y-103298481D01*
X124158017Y-103330800D01*
X124161200Y-103363118D01*
X124170721Y-103459789D01*
X124208347Y-103583823D01*
X124269446Y-103698133D01*
X124351673Y-103798327D01*
X124376780Y-103818932D01*
X125353239Y-104795391D01*
X125312288Y-120581547D01*
X108978229Y-120834005D01*
X108969182Y-117355245D01*
X113799200Y-117355245D01*
X113799200Y-117543955D01*
X113836016Y-117729038D01*
X113908232Y-117903383D01*
X114013073Y-118060289D01*
X114146511Y-118193727D01*
X114303417Y-118298568D01*
X114477762Y-118370784D01*
X114662845Y-118407600D01*
X114851555Y-118407600D01*
X115036638Y-118370784D01*
X115210983Y-118298568D01*
X115367889Y-118193727D01*
X115501327Y-118060289D01*
X115606168Y-117903383D01*
X115678384Y-117729038D01*
X115715200Y-117543955D01*
X115715200Y-117355245D01*
X115678384Y-117170162D01*
X115606168Y-116995817D01*
X115501327Y-116838911D01*
X115367889Y-116705473D01*
X115210983Y-116600632D01*
X115036638Y-116528416D01*
X114851555Y-116491600D01*
X114662845Y-116491600D01*
X114477762Y-116528416D01*
X114303417Y-116600632D01*
X114146511Y-116705473D01*
X114013073Y-116838911D01*
X113908232Y-116995817D01*
X113836016Y-117170162D01*
X113799200Y-117355245D01*
X108969182Y-117355245D01*
X108961652Y-114459645D01*
X116136000Y-114459645D01*
X116136000Y-114648355D01*
X116172816Y-114833438D01*
X116245032Y-115007783D01*
X116349873Y-115164689D01*
X116483311Y-115298127D01*
X116640217Y-115402968D01*
X116814562Y-115475184D01*
X116999645Y-115512000D01*
X117188355Y-115512000D01*
X117373438Y-115475184D01*
X117547783Y-115402968D01*
X117704689Y-115298127D01*
X117838127Y-115164689D01*
X117942968Y-115007783D01*
X118015184Y-114833438D01*
X118052000Y-114648355D01*
X118052000Y-114459645D01*
X118015184Y-114274562D01*
X117942968Y-114100217D01*
X117838127Y-113943311D01*
X117704689Y-113809873D01*
X117547783Y-113705032D01*
X117373438Y-113632816D01*
X117188355Y-113596000D01*
X116999645Y-113596000D01*
X116814562Y-113632816D01*
X116640217Y-113705032D01*
X116483311Y-113809873D01*
X116349873Y-113943311D01*
X116245032Y-114100217D01*
X116172816Y-114274562D01*
X116136000Y-114459645D01*
X108961652Y-114459645D01*
X108958085Y-113088045D01*
X119412600Y-113088045D01*
X119412600Y-113276755D01*
X119449416Y-113461838D01*
X119521632Y-113636183D01*
X119626473Y-113793089D01*
X119759911Y-113926527D01*
X119916817Y-114031368D01*
X120091162Y-114103584D01*
X120276245Y-114140400D01*
X120464955Y-114140400D01*
X120650038Y-114103584D01*
X120824383Y-114031368D01*
X120981289Y-113926527D01*
X121114727Y-113793089D01*
X121219568Y-113636183D01*
X121291784Y-113461838D01*
X121328600Y-113276755D01*
X121328600Y-113088045D01*
X121291784Y-112902962D01*
X121219568Y-112728617D01*
X121114727Y-112571711D01*
X120981289Y-112438273D01*
X120824383Y-112333432D01*
X120650038Y-112261216D01*
X120464955Y-112224400D01*
X120276245Y-112224400D01*
X120091162Y-112261216D01*
X119916817Y-112333432D01*
X119759911Y-112438273D01*
X119626473Y-112571711D01*
X119521632Y-112728617D01*
X119449416Y-112902962D01*
X119412600Y-113088045D01*
X108958085Y-113088045D01*
X108955509Y-112097445D01*
X123222600Y-112097445D01*
X123222600Y-112286155D01*
X123259416Y-112471238D01*
X123331632Y-112645583D01*
X123436473Y-112802489D01*
X123569911Y-112935927D01*
X123726817Y-113040768D01*
X123901162Y-113112984D01*
X124086245Y-113149800D01*
X124274955Y-113149800D01*
X124460038Y-113112984D01*
X124634383Y-113040768D01*
X124791289Y-112935927D01*
X124924727Y-112802489D01*
X125029568Y-112645583D01*
X125101784Y-112471238D01*
X125138600Y-112286155D01*
X125138600Y-112097445D01*
X125101784Y-111912362D01*
X125029568Y-111738017D01*
X124924727Y-111581111D01*
X124791289Y-111447673D01*
X124634383Y-111342832D01*
X124460038Y-111270616D01*
X124274955Y-111233800D01*
X124086245Y-111233800D01*
X123901162Y-111270616D01*
X123726817Y-111342832D01*
X123569911Y-111447673D01*
X123436473Y-111581111D01*
X123331632Y-111738017D01*
X123259416Y-111912362D01*
X123222600Y-112097445D01*
X108955509Y-112097445D01*
X108945203Y-108135045D01*
X112808600Y-108135045D01*
X112808600Y-108323755D01*
X112845416Y-108508838D01*
X112917632Y-108683183D01*
X113022473Y-108840089D01*
X113155911Y-108973527D01*
X113312817Y-109078368D01*
X113332067Y-109086341D01*
X113181311Y-109187073D01*
X113047873Y-109320511D01*
X112943032Y-109477417D01*
X112870816Y-109651762D01*
X112834000Y-109836845D01*
X112834000Y-110025555D01*
X112870816Y-110210638D01*
X112943032Y-110384983D01*
X113047873Y-110541889D01*
X113181311Y-110675327D01*
X113338217Y-110780168D01*
X113512562Y-110852384D01*
X113697645Y-110889200D01*
X113886355Y-110889200D01*
X114071438Y-110852384D01*
X114245783Y-110780168D01*
X114402689Y-110675327D01*
X114536127Y-110541889D01*
X114640968Y-110384983D01*
X114713184Y-110210638D01*
X114750000Y-110025555D01*
X114750000Y-109836845D01*
X114713184Y-109651762D01*
X114640968Y-109477417D01*
X114536127Y-109320511D01*
X114402689Y-109187073D01*
X114245783Y-109082232D01*
X114226533Y-109074259D01*
X114377289Y-108973527D01*
X114510727Y-108840089D01*
X114615568Y-108683183D01*
X114687784Y-108508838D01*
X114724600Y-108323755D01*
X114724600Y-108135045D01*
X114687784Y-107949962D01*
X114615568Y-107775617D01*
X114510727Y-107618711D01*
X114377289Y-107485273D01*
X114220383Y-107380432D01*
X114046038Y-107308216D01*
X113860955Y-107271400D01*
X113672245Y-107271400D01*
X113487162Y-107308216D01*
X113312817Y-107380432D01*
X113155911Y-107485273D01*
X113022473Y-107618711D01*
X112917632Y-107775617D01*
X112845416Y-107949962D01*
X112808600Y-108135045D01*
X108945203Y-108135045D01*
X108941372Y-106661845D01*
X114180200Y-106661845D01*
X114180200Y-106850555D01*
X114217016Y-107035638D01*
X114289232Y-107209983D01*
X114394073Y-107366889D01*
X114527511Y-107500327D01*
X114684417Y-107605168D01*
X114858762Y-107677384D01*
X115043845Y-107714200D01*
X115232555Y-107714200D01*
X115417638Y-107677384D01*
X115591983Y-107605168D01*
X115748889Y-107500327D01*
X115882327Y-107366889D01*
X115987168Y-107209983D01*
X116059384Y-107035638D01*
X116096200Y-106850555D01*
X116096200Y-106661845D01*
X116091148Y-106636445D01*
X117126600Y-106636445D01*
X117126600Y-106825155D01*
X117163416Y-107010238D01*
X117235632Y-107184583D01*
X117340473Y-107341489D01*
X117473911Y-107474927D01*
X117630817Y-107579768D01*
X117805162Y-107651984D01*
X117990245Y-107688800D01*
X118178955Y-107688800D01*
X118364038Y-107651984D01*
X118538383Y-107579768D01*
X118643526Y-107509514D01*
X118625200Y-107601645D01*
X118625200Y-107790355D01*
X118662016Y-107975438D01*
X118734232Y-108149783D01*
X118839073Y-108306689D01*
X118972511Y-108440127D01*
X119129417Y-108544968D01*
X119303762Y-108617184D01*
X119488845Y-108654000D01*
X119677555Y-108654000D01*
X119862638Y-108617184D01*
X120036983Y-108544968D01*
X120193889Y-108440127D01*
X120327327Y-108306689D01*
X120432168Y-108149783D01*
X120504384Y-107975438D01*
X120541200Y-107790355D01*
X120541200Y-107601645D01*
X120504384Y-107416562D01*
X120432168Y-107242217D01*
X120327327Y-107085311D01*
X120193889Y-106951873D01*
X120036983Y-106847032D01*
X119862638Y-106774816D01*
X119677555Y-106738000D01*
X119488845Y-106738000D01*
X119303762Y-106774816D01*
X119129417Y-106847032D01*
X119024274Y-106917286D01*
X119042600Y-106825155D01*
X119042600Y-106636445D01*
X119005784Y-106451362D01*
X118933568Y-106277017D01*
X118828727Y-106120111D01*
X118695289Y-105986673D01*
X118538383Y-105881832D01*
X118364038Y-105809616D01*
X118178955Y-105772800D01*
X117990245Y-105772800D01*
X117805162Y-105809616D01*
X117630817Y-105881832D01*
X117473911Y-105986673D01*
X117340473Y-106120111D01*
X117235632Y-106277017D01*
X117163416Y-106451362D01*
X117126600Y-106636445D01*
X116091148Y-106636445D01*
X116059384Y-106476762D01*
X115987168Y-106302417D01*
X115882327Y-106145511D01*
X115748889Y-106012073D01*
X115591983Y-105907232D01*
X115417638Y-105835016D01*
X115232555Y-105798200D01*
X115043845Y-105798200D01*
X114858762Y-105835016D01*
X114684417Y-105907232D01*
X114527511Y-106012073D01*
X114394073Y-106145511D01*
X114289232Y-106302417D01*
X114217016Y-106476762D01*
X114180200Y-106661845D01*
X108941372Y-106661845D01*
X108933510Y-103639245D01*
X110319400Y-103639245D01*
X110319400Y-103827955D01*
X110356216Y-104013038D01*
X110428432Y-104187383D01*
X110533273Y-104344289D01*
X110666711Y-104477727D01*
X110823617Y-104582568D01*
X110997962Y-104654784D01*
X111183045Y-104691600D01*
X111371755Y-104691600D01*
X111556838Y-104654784D01*
X111731183Y-104582568D01*
X111888089Y-104477727D01*
X112021527Y-104344289D01*
X112126368Y-104187383D01*
X112198584Y-104013038D01*
X112232517Y-103842445D01*
X121216000Y-103842445D01*
X121216000Y-104031155D01*
X121252816Y-104216238D01*
X121325032Y-104390583D01*
X121429873Y-104547489D01*
X121563311Y-104680927D01*
X121720217Y-104785768D01*
X121894562Y-104857984D01*
X122079645Y-104894800D01*
X122268355Y-104894800D01*
X122453438Y-104857984D01*
X122627783Y-104785768D01*
X122784689Y-104680927D01*
X122918127Y-104547489D01*
X123022968Y-104390583D01*
X123095184Y-104216238D01*
X123132000Y-104031155D01*
X123132000Y-103842445D01*
X123095184Y-103657362D01*
X123022968Y-103483017D01*
X122918127Y-103326111D01*
X122784689Y-103192673D01*
X122627783Y-103087832D01*
X122453438Y-103015616D01*
X122268355Y-102978800D01*
X122079645Y-102978800D01*
X121894562Y-103015616D01*
X121720217Y-103087832D01*
X121563311Y-103192673D01*
X121429873Y-103326111D01*
X121325032Y-103483017D01*
X121252816Y-103657362D01*
X121216000Y-103842445D01*
X112232517Y-103842445D01*
X112235400Y-103827955D01*
X112235400Y-103639245D01*
X112198584Y-103454162D01*
X112126368Y-103279817D01*
X112021527Y-103122911D01*
X111888089Y-102989473D01*
X111731183Y-102884632D01*
X111556838Y-102812416D01*
X111371755Y-102775600D01*
X111183045Y-102775600D01*
X110997962Y-102812416D01*
X110823617Y-102884632D01*
X110666711Y-102989473D01*
X110533273Y-103122911D01*
X110428432Y-103279817D01*
X110356216Y-103454162D01*
X110319400Y-103639245D01*
X108933510Y-103639245D01*
X108929181Y-101975000D01*
X122702924Y-101975000D01*
X122696632Y-101984417D01*
G37*
G04 #@! TD.AperFunction*
D34*
X111426586Y-65862200D02*
X109296200Y-65862200D01*
X109296200Y-63449200D01*
X109293760Y-63424424D01*
X109286533Y-63400599D01*
X109274797Y-63378643D01*
X109259003Y-63359397D01*
X109239757Y-63343603D01*
X109217801Y-63331867D01*
X109193976Y-63324640D01*
X109169200Y-63322200D01*
X106721634Y-63322200D01*
X106671137Y-63246626D01*
X106526974Y-63102463D01*
X106357456Y-62989195D01*
X106169098Y-62911174D01*
X105969139Y-62871400D01*
X105765261Y-62871400D01*
X105565302Y-62911174D01*
X105376944Y-62989195D01*
X105207426Y-63102463D01*
X105063263Y-63246626D01*
X105012766Y-63322200D01*
X98779977Y-63322200D01*
X98695537Y-63195826D01*
X98551374Y-63051663D01*
X98381856Y-62938395D01*
X98193498Y-62860374D01*
X97993539Y-62820600D01*
X97789661Y-62820600D01*
X97589702Y-62860374D01*
X97401344Y-62938395D01*
X97231826Y-63051663D01*
X97087663Y-63195826D01*
X97003223Y-63322200D01*
X89306400Y-63322200D01*
X89281624Y-63324640D01*
X89257799Y-63331867D01*
X89228129Y-63349187D01*
X86891329Y-65177987D01*
X86873321Y-65195179D01*
X86859014Y-65215553D01*
X86848956Y-65238327D01*
X86843534Y-65262626D01*
X86842601Y-65277454D01*
X86763430Y-83697924D01*
X86301208Y-84160146D01*
X86273163Y-84183162D01*
X86181314Y-84295080D01*
X86149405Y-84354778D01*
X86113064Y-84422767D01*
X86071035Y-84561315D01*
X86056844Y-84705400D01*
X86060401Y-84741515D01*
X86060400Y-97288295D01*
X86056844Y-97324400D01*
X86071035Y-97468485D01*
X86075694Y-97483844D01*
X86113063Y-97607032D01*
X86181313Y-97734719D01*
X86273162Y-97846637D01*
X86301208Y-97869654D01*
X86700802Y-98269249D01*
X86690201Y-100735854D01*
X86692535Y-100760641D01*
X86699659Y-100784496D01*
X86711301Y-100806503D01*
X86727012Y-100825816D01*
X86746189Y-100841692D01*
X86768095Y-100853523D01*
X86791888Y-100860852D01*
X86817614Y-100863399D01*
X89286909Y-100855356D01*
X90242746Y-101811193D01*
X90265762Y-101839238D01*
X90377680Y-101931087D01*
X90505367Y-101999337D01*
X90601886Y-102028616D01*
X90643914Y-102041365D01*
X90787999Y-102055556D01*
X90824104Y-102052000D01*
X98845302Y-102052000D01*
X98781595Y-102147344D01*
X98703574Y-102335702D01*
X98663800Y-102535661D01*
X98663800Y-102739539D01*
X98703574Y-102939498D01*
X98781595Y-103127856D01*
X98894863Y-103297374D01*
X99039026Y-103441537D01*
X99208544Y-103554805D01*
X99396902Y-103632826D01*
X99596861Y-103672600D01*
X99800739Y-103672600D01*
X100000698Y-103632826D01*
X100189056Y-103554805D01*
X100358574Y-103441537D01*
X100502737Y-103297374D01*
X100616005Y-103127856D01*
X100694026Y-102939498D01*
X100733800Y-102739539D01*
X100733800Y-102535661D01*
X100694026Y-102335702D01*
X100616005Y-102147344D01*
X100552298Y-102052000D01*
X103799689Y-102052000D01*
X106400245Y-104299394D01*
X106375972Y-108280200D01*
X94237910Y-108280200D01*
X94253000Y-108204339D01*
X94253000Y-108000461D01*
X94213226Y-107800502D01*
X94135205Y-107612144D01*
X94021937Y-107442626D01*
X93877774Y-107298463D01*
X93708256Y-107185195D01*
X93519898Y-107107174D01*
X93319939Y-107067400D01*
X93116061Y-107067400D01*
X92916102Y-107107174D01*
X92727744Y-107185195D01*
X92558226Y-107298463D01*
X92414063Y-107442626D01*
X92300795Y-107612144D01*
X92222774Y-107800502D01*
X92183000Y-108000461D01*
X92183000Y-108204339D01*
X92198090Y-108280200D01*
X88802310Y-108280200D01*
X88817400Y-108204339D01*
X88817400Y-108000461D01*
X88777626Y-107800502D01*
X88699605Y-107612144D01*
X88586337Y-107442626D01*
X88442174Y-107298463D01*
X88272656Y-107185195D01*
X88084298Y-107107174D01*
X87884339Y-107067400D01*
X87680461Y-107067400D01*
X87480502Y-107107174D01*
X87292144Y-107185195D01*
X87122626Y-107298463D01*
X86978463Y-107442626D01*
X86865195Y-107612144D01*
X86787174Y-107800502D01*
X86747400Y-108000461D01*
X86747400Y-108204339D01*
X86762490Y-108280200D01*
X83361672Y-108280200D01*
X83361516Y-106171661D01*
X89541400Y-106171661D01*
X89541400Y-106375539D01*
X89581174Y-106575498D01*
X89659195Y-106763856D01*
X89772463Y-106933374D01*
X89916626Y-107077537D01*
X90086144Y-107190805D01*
X90274502Y-107268826D01*
X90474461Y-107308600D01*
X90678339Y-107308600D01*
X90878298Y-107268826D01*
X91066656Y-107190805D01*
X91236174Y-107077537D01*
X91380337Y-106933374D01*
X91493605Y-106763856D01*
X91571626Y-106575498D01*
X91611400Y-106375539D01*
X91611400Y-106171661D01*
X91571626Y-105971702D01*
X91493605Y-105783344D01*
X91380337Y-105613826D01*
X91236174Y-105469663D01*
X91066656Y-105356395D01*
X90878298Y-105278374D01*
X90678339Y-105238600D01*
X90474461Y-105238600D01*
X90274502Y-105278374D01*
X90086144Y-105356395D01*
X89916626Y-105469663D01*
X89772463Y-105613826D01*
X89659195Y-105783344D01*
X89581174Y-105971702D01*
X89541400Y-106171661D01*
X83361516Y-106171661D01*
X83361387Y-104419061D01*
X95561200Y-104419061D01*
X95561200Y-104622939D01*
X95600974Y-104822898D01*
X95678995Y-105011256D01*
X95792263Y-105180774D01*
X95936426Y-105324937D01*
X96105944Y-105438205D01*
X96294302Y-105516226D01*
X96494261Y-105556000D01*
X96698139Y-105556000D01*
X96898098Y-105516226D01*
X97086456Y-105438205D01*
X97255974Y-105324937D01*
X97400137Y-105180774D01*
X97513405Y-105011256D01*
X97591426Y-104822898D01*
X97631200Y-104622939D01*
X97631200Y-104419061D01*
X97591426Y-104219102D01*
X97513405Y-104030744D01*
X97400137Y-103861226D01*
X97255974Y-103717063D01*
X97086456Y-103603795D01*
X96898098Y-103525774D01*
X96698139Y-103486000D01*
X96494261Y-103486000D01*
X96294302Y-103525774D01*
X96105944Y-103603795D01*
X95936426Y-103717063D01*
X95792263Y-103861226D01*
X95678995Y-104030744D01*
X95600974Y-104219102D01*
X95561200Y-104419061D01*
X83361387Y-104419061D01*
X83360000Y-85701648D01*
X83362559Y-68246709D01*
X83432129Y-67153686D01*
X83648049Y-66105697D01*
X84007723Y-65097949D01*
X84504150Y-64150061D01*
X85127658Y-63280500D01*
X85866121Y-62506171D01*
X86705168Y-61842150D01*
X87628457Y-61301367D01*
X88618023Y-60894344D01*
X89654616Y-60629001D01*
X90734236Y-60508701D01*
X91040708Y-60502393D01*
X111292112Y-60483244D01*
X111426586Y-65862200D01*
G04 #@! TA.AperFunction,Conductor*
D35*
G36*
X111426586Y-65862200D02*
G01*
X109296200Y-65862200D01*
X109296200Y-63449200D01*
X109293760Y-63424424D01*
X109286533Y-63400599D01*
X109274797Y-63378643D01*
X109259003Y-63359397D01*
X109239757Y-63343603D01*
X109217801Y-63331867D01*
X109193976Y-63324640D01*
X109169200Y-63322200D01*
X106721634Y-63322200D01*
X106671137Y-63246626D01*
X106526974Y-63102463D01*
X106357456Y-62989195D01*
X106169098Y-62911174D01*
X105969139Y-62871400D01*
X105765261Y-62871400D01*
X105565302Y-62911174D01*
X105376944Y-62989195D01*
X105207426Y-63102463D01*
X105063263Y-63246626D01*
X105012766Y-63322200D01*
X98779977Y-63322200D01*
X98695537Y-63195826D01*
X98551374Y-63051663D01*
X98381856Y-62938395D01*
X98193498Y-62860374D01*
X97993539Y-62820600D01*
X97789661Y-62820600D01*
X97589702Y-62860374D01*
X97401344Y-62938395D01*
X97231826Y-63051663D01*
X97087663Y-63195826D01*
X97003223Y-63322200D01*
X89306400Y-63322200D01*
X89281624Y-63324640D01*
X89257799Y-63331867D01*
X89228129Y-63349187D01*
X86891329Y-65177987D01*
X86873321Y-65195179D01*
X86859014Y-65215553D01*
X86848956Y-65238327D01*
X86843534Y-65262626D01*
X86842601Y-65277454D01*
X86763430Y-83697924D01*
X86301208Y-84160146D01*
X86273163Y-84183162D01*
X86181314Y-84295080D01*
X86149405Y-84354778D01*
X86113064Y-84422767D01*
X86071035Y-84561315D01*
X86056844Y-84705400D01*
X86060401Y-84741515D01*
X86060400Y-97288295D01*
X86056844Y-97324400D01*
X86071035Y-97468485D01*
X86075694Y-97483844D01*
X86113063Y-97607032D01*
X86181313Y-97734719D01*
X86273162Y-97846637D01*
X86301208Y-97869654D01*
X86700802Y-98269249D01*
X86690201Y-100735854D01*
X86692535Y-100760641D01*
X86699659Y-100784496D01*
X86711301Y-100806503D01*
X86727012Y-100825816D01*
X86746189Y-100841692D01*
X86768095Y-100853523D01*
X86791888Y-100860852D01*
X86817614Y-100863399D01*
X89286909Y-100855356D01*
X90242746Y-101811193D01*
X90265762Y-101839238D01*
X90377680Y-101931087D01*
X90505367Y-101999337D01*
X90601886Y-102028616D01*
X90643914Y-102041365D01*
X90787999Y-102055556D01*
X90824104Y-102052000D01*
X98845302Y-102052000D01*
X98781595Y-102147344D01*
X98703574Y-102335702D01*
X98663800Y-102535661D01*
X98663800Y-102739539D01*
X98703574Y-102939498D01*
X98781595Y-103127856D01*
X98894863Y-103297374D01*
X99039026Y-103441537D01*
X99208544Y-103554805D01*
X99396902Y-103632826D01*
X99596861Y-103672600D01*
X99800739Y-103672600D01*
X100000698Y-103632826D01*
X100189056Y-103554805D01*
X100358574Y-103441537D01*
X100502737Y-103297374D01*
X100616005Y-103127856D01*
X100694026Y-102939498D01*
X100733800Y-102739539D01*
X100733800Y-102535661D01*
X100694026Y-102335702D01*
X100616005Y-102147344D01*
X100552298Y-102052000D01*
X103799689Y-102052000D01*
X106400245Y-104299394D01*
X106375972Y-108280200D01*
X94237910Y-108280200D01*
X94253000Y-108204339D01*
X94253000Y-108000461D01*
X94213226Y-107800502D01*
X94135205Y-107612144D01*
X94021937Y-107442626D01*
X93877774Y-107298463D01*
X93708256Y-107185195D01*
X93519898Y-107107174D01*
X93319939Y-107067400D01*
X93116061Y-107067400D01*
X92916102Y-107107174D01*
X92727744Y-107185195D01*
X92558226Y-107298463D01*
X92414063Y-107442626D01*
X92300795Y-107612144D01*
X92222774Y-107800502D01*
X92183000Y-108000461D01*
X92183000Y-108204339D01*
X92198090Y-108280200D01*
X88802310Y-108280200D01*
X88817400Y-108204339D01*
X88817400Y-108000461D01*
X88777626Y-107800502D01*
X88699605Y-107612144D01*
X88586337Y-107442626D01*
X88442174Y-107298463D01*
X88272656Y-107185195D01*
X88084298Y-107107174D01*
X87884339Y-107067400D01*
X87680461Y-107067400D01*
X87480502Y-107107174D01*
X87292144Y-107185195D01*
X87122626Y-107298463D01*
X86978463Y-107442626D01*
X86865195Y-107612144D01*
X86787174Y-107800502D01*
X86747400Y-108000461D01*
X86747400Y-108204339D01*
X86762490Y-108280200D01*
X83361672Y-108280200D01*
X83361516Y-106171661D01*
X89541400Y-106171661D01*
X89541400Y-106375539D01*
X89581174Y-106575498D01*
X89659195Y-106763856D01*
X89772463Y-106933374D01*
X89916626Y-107077537D01*
X90086144Y-107190805D01*
X90274502Y-107268826D01*
X90474461Y-107308600D01*
X90678339Y-107308600D01*
X90878298Y-107268826D01*
X91066656Y-107190805D01*
X91236174Y-107077537D01*
X91380337Y-106933374D01*
X91493605Y-106763856D01*
X91571626Y-106575498D01*
X91611400Y-106375539D01*
X91611400Y-106171661D01*
X91571626Y-105971702D01*
X91493605Y-105783344D01*
X91380337Y-105613826D01*
X91236174Y-105469663D01*
X91066656Y-105356395D01*
X90878298Y-105278374D01*
X90678339Y-105238600D01*
X90474461Y-105238600D01*
X90274502Y-105278374D01*
X90086144Y-105356395D01*
X89916626Y-105469663D01*
X89772463Y-105613826D01*
X89659195Y-105783344D01*
X89581174Y-105971702D01*
X89541400Y-106171661D01*
X83361516Y-106171661D01*
X83361387Y-104419061D01*
X95561200Y-104419061D01*
X95561200Y-104622939D01*
X95600974Y-104822898D01*
X95678995Y-105011256D01*
X95792263Y-105180774D01*
X95936426Y-105324937D01*
X96105944Y-105438205D01*
X96294302Y-105516226D01*
X96494261Y-105556000D01*
X96698139Y-105556000D01*
X96898098Y-105516226D01*
X97086456Y-105438205D01*
X97255974Y-105324937D01*
X97400137Y-105180774D01*
X97513405Y-105011256D01*
X97591426Y-104822898D01*
X97631200Y-104622939D01*
X97631200Y-104419061D01*
X97591426Y-104219102D01*
X97513405Y-104030744D01*
X97400137Y-103861226D01*
X97255974Y-103717063D01*
X97086456Y-103603795D01*
X96898098Y-103525774D01*
X96698139Y-103486000D01*
X96494261Y-103486000D01*
X96294302Y-103525774D01*
X96105944Y-103603795D01*
X95936426Y-103717063D01*
X95792263Y-103861226D01*
X95678995Y-104030744D01*
X95600974Y-104219102D01*
X95561200Y-104419061D01*
X83361387Y-104419061D01*
X83360000Y-85701648D01*
X83362559Y-68246709D01*
X83432129Y-67153686D01*
X83648049Y-66105697D01*
X84007723Y-65097949D01*
X84504150Y-64150061D01*
X85127658Y-63280500D01*
X85866121Y-62506171D01*
X86705168Y-61842150D01*
X87628457Y-61301367D01*
X88618023Y-60894344D01*
X89654616Y-60629001D01*
X90734236Y-60508701D01*
X91040708Y-60502393D01*
X111292112Y-60483244D01*
X111426586Y-65862200D01*
G37*
G04 #@! TD.AperFunction*
D34*
X171373800Y-103822565D02*
X170929365Y-104267000D01*
X168325800Y-104267000D01*
X168325800Y-101326445D01*
X168433245Y-101219000D01*
X171373800Y-101219000D01*
X171373800Y-103822565D01*
G04 #@! TA.AperFunction,Conductor*
D35*
G36*
X171373800Y-103822565D02*
G01*
X170929365Y-104267000D01*
X168325800Y-104267000D01*
X168325800Y-101326445D01*
X168433245Y-101219000D01*
X171373800Y-101219000D01*
X171373800Y-103822565D01*
G37*
G04 #@! TD.AperFunction*
M02*
